<svg width="94" height="184" viewBox="0 0 94 184" xmlns="http://www.w3.org/2000/svg">
<path d="M14.9667 0.766992C14.4698 0.652985 13.9852 1.37701 13.6889 1.88534C13.2937 2.56315 12.3191 2.64372 11.1332 4.2818C9.94723 5.91988 9.62929 6.13113 9.85521 7.31732C10.0812 8.50351 10.2136 9.47835 9.53568 9.87355C8.85797 10.2687 8.25772 11.0096 8.25772 11.631C8.25772 12.2523 7.37506 13.6595 6.97992 14.5067C6.58473 15.3539 6.74577 15.9057 6.18126 16.5835C5.61659 17.2613 5.50498 17.747 5.22283 18.8202C4.94011 19.8934 3.61742 20.2292 2.82683 20.7374C2.03625 21.2455 2.76098 23.7324 2.98644 25.3705C3.21241 27.0085 1.94586 28.0701 0.590449 32.0806C-0.764913 36.0911 3.57856 40.4705 3.46558 41.8262C3.35259 43.1818 4.78075 46.4867 5.06291 46.9387C5.34512 47.3906 4.08679 47.2858 3.46558 47.7375C2.84442 48.1894 4.08515 49.043 4.42401 49.4949C4.76296 49.9468 3.90801 50.1517 3.62534 50.773C3.74702 51.0557 3.97856 51.2874 4.10432 51.5718C4.48264 51.8111 4.9966 52.0417 5.22252 52.2109C5.64276 52.5263 5.41571 54.1969 5.38197 54.4476C6.86898 55.0473 6.38071 51.0586 14.3272 55.2464C15.8269 56.0367 17.1598 54.642 15.7648 57.8026C15.2213 59.0339 13.129 60.5977 13.3688 62.276C13.8483 63.7147 16.4042 65.6306 15.4452 66.5897C13.5274 68.5079 10.654 66.9082 9.21568 68.8264C8.01702 70.5048 12.6399 70.7546 12.2506 73.2998C11.2519 79.8284 4.49116 77.7516 8.89616 83.5247C12.3867 88.0992 16.2444 83.8412 15.2855 89.5957C9.56771 97.8679 13.4847 96.6997 13.3688 100.14C13.2527 103.581 12.1267 102.587 14.3272 106.85C15.0611 108.272 11.9312 112.122 11.9312 112.122C10.4928 113.561 11.9312 115.955 11.9312 118.353C11.4517 120.271 11.9311 122.666 11.4521 124.584C11.4521 126.023 9.05587 126.5 9.53537 127.939C10.2545 130.576 15.2847 135.693 18.9596 138.963C22.281 141.918 19.8382 145.513 19.5985 145.992C18.1601 148.87 14.4056 136.335 11.6118 141.838C19.4369 157.819 37.8064 158.771 41.1626 163.087C48.502 168.846 42.5989 168.838 44.9961 170.756C45.9551 172.194 48.8292 170.755 49.7881 172.194C50.7471 174.591 49.4686 176.506 49.4686 179.383C49.7958 181.198 50.3641 182.851 51.2257 182.738C59.3765 181.299 64.6435 188.017 64.1641 175.549C64.1641 172.671 70.8736 176.989 69.4352 172.673L64.0043 163.087C67.4066 161.748 67.0662 160.47 68.4769 157.655C70.3081 154.001 76.4212 157.337 79.4985 153.341C79.4985 153.221 78.8103 149.824 79.4985 148.069C80.1964 146.289 81.1209 144.311 80.4569 141.679C79.8567 139.299 82.104 139.331 82.3738 137.525C82.6427 135.719 82.3738 133.69 82.3738 133.69C85.7299 120.743 88.6007 136.576 93.3953 118.353C94.8337 112.599 87.1658 112.925 87.1658 106.69C86.2068 106.69 88.6041 102.058 87.6447 101.099C86.2064 100.14 83.8122 99.6606 81.8943 100.14C80.4559 100.14 78.5415 105.414 75.6648 102.057C73.7469 99.18 61.2888 81.4498 61.2888 77.6134C61.2888 76.1747 64.1642 74.7384 63.6848 73.2998C63.2052 69.9429 58.4138 68.0294 57.9344 64.6725C57.4548 63.2338 61.2885 63.2354 61.7679 61.7967C61.7679 58.9194 61.289 53.97 60.9451 50.9694C60.6015 47.9689 60.4804 46.2157 60.6496 45.8203C60.8193 45.4251 61.8532 45.0143 61.2885 43.7434C60.7237 42.4725 62.2937 41.7157 62.4067 40.3883C62.5197 39.0609 61.3285 35.196 59.8509 33.9978C58.3734 32.7996 58.1738 33.7181 58.2536 30.483C58.3333 27.2477 57.2152 28.8853 56.3367 26.4889C55.4582 24.0924 53.3817 21.0968 51.2252 20.7374C49.0688 20.3779 46.8725 18.6604 45.6346 18.3409C44.3966 18.0214 42.9991 18.4207 42.2803 18.82C41.5615 19.2193 41.242 19.6188 41.1621 17.3821C41.0824 15.1455 38.806 15.425 39.405 13.8673C40.004 12.3096 39.2853 12.5492 38.2868 11.6306C37.2885 10.712 38.0072 10.0729 36.5297 9.07441C35.0522 8.0759 35.4517 7.99599 33.9741 7.31701C32.4966 6.63802 32.0173 6.63802 31.8975 6.0389C31.7779 5.43977 31.6977 5.16022 31.2586 5.24008C31.2535 5.24105 31.2637 5.39595 31.2586 5.39953C31.2484 5.40464 31.1135 5.54635 31.0992 5.55914C30.7091 5.87509 30.0078 5.9032 29.5018 6.19819C28.8241 6.59338 29.3985 7.48433 29.3422 8.27513C29.2855 9.06592 26.4122 8.75411 25.5087 8.75411C24.6048 8.75411 24.6258 9.56095 24.2307 10.3517C23.8355 11.1425 22.6624 10.7454 22.1542 11.3103C21.6461 11.8751 20.5585 12.6641 19.5985 12.2689C18.6384 11.8737 17.514 9.80794 16.7233 9.07363C15.9328 8.33933 16.3746 6.86582 16.8828 6.35764C17.3915 5.84947 17.3542 4.31946 16.5633 3.64165C15.7727 2.96379 16.1227 2.20541 15.4452 1.24519C15.276 1.00491 15.1319 0.804824 14.9667 0.766992Z"/>
</svg>
