<svg width="323" height="169" viewBox="0 0 323 169" xmlns="http://www.w3.org/2000/svg">
<path d="M229.873 0.359897C229.451 0.32411 228.974 0.447307 228.597 0.518881C228.095 0.616018 227.682 0.79754 227.322 1.15669C226.842 2.11589 227.801 15.9817 226.844 16.9409C225.885 18.3795 222.544 15.0221 220.626 16.4628L216.799 29.0583C213.443 30.0175 209.952 25.7101 206.595 25.7101C204.678 25.7101 205.165 29.5355 203.247 30.015C193.179 33.8515 187.481 23.8069 179.81 19.9705H179.332C179.812 21.4092 180.289 22.8366 180.289 24.2752C179.809 37.2232 176.965 34.326 166.896 31.9283C165.937 31.9283 164.984 32.4037 164.504 33.3632C163.546 38.1587 166.429 43.3978 161.635 47.2341C157.319 50.5911 137.082 55.3456 136.603 63.0185C136.603 63.0185 148.082 78.8015 148.082 79.281C148.562 79.7606 141.859 85.4941 144.256 87.4123C149.53 92.2078 154.789 85.1393 150.474 100.964C150.474 101.924 149.52 103.356 148.561 103.356C133.218 99.04 145.23 91.24 138.038 90.7605C134.202 90.7605 130.713 94.1099 126.877 93.6303C124.959 93.1508 125.446 89.8051 124.007 89.3256C121.131 88.3665 118.273 90.7642 115.876 89.8035C114.917 89.3239 116.835 86.4553 115.876 86.4553C110.123 86.9348 115.401 94.5855 113.963 95.0649C107.25 96.9832 96.2802 94.2615 90.0473 96.6593C88.1294 97.6185 89.0953 100.962 87.1775 101.921C85.2597 103.359 82.8773 100.962 80.9595 102.399C79.5211 102.878 81.4385 105.266 80.4815 106.225C80.0019 106.705 63.7452 111.011 61.8273 110.052C60.8684 109.092 61.8291 106.706 60.8707 105.747C60.3912 104.788 58.0019 104.793 57.5225 103.834C57.043 102.875 59.9151 103.358 59.4356 102.399C57.5711 96.3378 44.8593 103.256 40.6222 99.6882C39.8072 100.827 40.9166 105.43 40.1441 108.138C40.1441 110.057 31.0643 121.062 27.7081 117.705C25.7902 115.786 31.0597 112.927 29.6214 111.008C29.1418 110.529 27.7104 112.443 26.7516 112.443C25.7927 112.443 24.3609 111.968 23.8816 111.008C22.9226 109.57 26.2788 107.665 23.8816 105.747C21.9637 104.308 21.0164 101.923 19.0985 100.964C17.6602 100.005 15.7549 102.4 13.837 101.92C12.8782 100.961 13.8388 98.5749 12.8805 97.6157C10.4833 95.6974 10.9856 104.318 3.31428 101.92C2.83473 101.441 2.35881 101.442 1.87937 101.442V101.92C1.87937 103.415 2.87169 104.35 3.47373 104.79C3.47373 104.79 4.79184 106.544 5.8652 106.544C6.31459 106.544 6.56323 106.621 6.66246 106.703C5.82704 107.357 6.12359 108.427 5.8652 109.254C6.93866 110.462 7.87013 111.084 6.66246 111.486C5.4549 111.888 5.01168 111.568 4.43029 112.283C3.8488 112.999 3.96565 113.934 3.47373 114.516C2.98192 115.097 1.94354 115.663 1.71992 116.11C1.91675 117.472 0.619948 117.122 0.922656 118.342C0.897094 118.388 0.792302 118.453 0.763672 118.501C1.0878 118.825 2.36326 119.457 2.03913 119.936C1.39087 120.894 3.33398 121.285 2.99569 121.849C2.65724 122.413 2.29147 121.998 2.5178 122.646C2.74326 123.295 2.0863 123.555 2.67679 123.922C3.2687 124.288 3.52056 124.155 3.63334 124.719C3.74633 125.283 4.60856 124.699 4.74951 125.038C4.8901 125.376 3.88495 125.393 4.59037 126.154C5.29496 126.915 4.25192 126.631 4.59037 127.589C4.92881 128.547 5.46434 128.92 4.59037 129.343C3.71665 129.766 3.90604 129.519 3.79326 130.618C5.46278 131.419 5.66145 130.111 6.98199 130.618C8.31302 131.774 10.34 132.263 11.7651 132.851C12.3106 134.028 13.3769 133.197 13.9973 133.328C13.9973 133.328 13.6956 132.831 14.6349 133.01C15.5742 133.188 14.8773 133.673 14.4759 133.807C14.0736 133.942 15.209 134.431 15.4326 134.923C14.0994 136.75 15.0885 137.472 14.9546 138.749C15.1335 139.063 16.2669 139.125 17.0273 139.706C18.9922 141.321 21.375 142.479 23.4048 143.532C25.5578 144.609 27.1867 144.299 28.5765 143.413C28.6885 143.459 28.7927 143.568 28.9057 143.593C30.6674 143.978 30.5915 143.302 30.6396 141.54C31.1615 140.919 31.6717 140.337 32.1542 139.667C32.3132 139.677 32.4252 139.677 32.6226 139.697C34.3701 139.867 34.4288 139.53 34.1472 138.91C33.865 138.29 34.6554 138.123 34.6554 138.123L35.2134 136.18C35.9813 135.613 36.7896 135.227 37.7544 135.402C38.0724 135.448 38.2038 135.529 38.4819 135.582L39.3388 137.784L42.0991 138.482C41.5545 140.443 38.6115 142.671 40.6244 143.534C48.2956 147.37 41.5625 142.575 49.2338 143.534C53.0695 144.013 57.028 154.068 64.6993 149.752L70.9173 136.837C74.7529 133.96 91.4744 135.882 95.7895 135.402C102.825 134.934 108.447 129.015 115.42 128.756C115.461 128.751 115.51 128.71 115.55 128.705C119.045 128.366 119.037 128.034 118.699 130.289C118.36 132.544 117.578 132.32 114.872 132.77C112.167 133.221 114.867 136.715 115.43 137.843C115.653 138.288 115.489 138.879 115.251 139.447C116.731 139.649 118.33 140.035 119.705 142.098C120.664 143.536 118.266 145.441 119.227 147.359C119.707 148.318 121.138 146.4 122.097 147.359C131.207 154.073 138.33 156.123 150.796 158.041C166.071 162.821 164.567 157.377 181.248 160.911C181.326 160.995 181.488 160.988 181.567 161.07C181.588 160.907 181.562 160.756 181.567 160.592C185.685 162.229 188.576 160.135 190.336 161.708C194.332 164.424 196.542 160.981 201.816 165.535C205.651 166.014 210.098 161.778 213.614 165.376C215.213 167.373 215.92 163.372 218.397 168.405C219.356 168.884 218.873 164.739 219.832 164.259C224.262 163.782 222.188 159.473 227.804 159.476C229.696 158.066 228.425 155.484 231.63 152.142C232.902 154.093 233.118 151.224 234.022 151.026C235.528 150.697 234.695 155.06 236.732 150.548C237.69 148.427 242.007 148.855 244.067 149.113C248.127 149.624 250.982 147.801 252.995 147.997C257.02 148.388 255.297 151.706 258.256 150.07C261.133 148.631 256.814 146.638 265.112 143.533C271.465 145.482 269.81 138.47 280.737 145.446C282.175 144.967 279.303 142.421 278.824 140.982C277.885 135.976 280.502 133.51 284.404 132.372C284.621 132.332 284.825 132.253 285.042 132.214C285.148 132.081 286.499 130.413 288.39 127.749C290.536 122.831 294.495 122.072 296.999 122.966C299.503 123.86 300.425 124.63 299.71 121.053C298.995 117.476 299.574 115.947 300.826 114.516C302.078 113.085 298.073 115.904 296.999 113.4C295.926 110.896 297.661 108.652 298.913 106.863C300.165 105.074 298.411 105.7 297.159 103.196C295.907 100.692 297.536 100.975 297 97.9346C296.463 94.8941 302.565 99.3029 304.175 96.9779C305.784 94.6528 306.383 94.897 305.131 92.0353C303.879 89.1736 307.161 89.278 306.088 86.7739C305.015 84.27 299.644 86.171 297.319 84.3824C294.994 82.5939 295.53 80.7112 297.319 79.2804C299.107 77.8496 299.065 73.786 303.537 75.9322C308.008 78.0784 311.073 79.0975 312.146 77.8455C313.22 76.5936 317.871 79.6518 319.481 77.6865C321.09 75.7191 322.965 75.2868 321.713 72.4251C320.461 69.5634 321.883 70.1848 318.843 67.3231C315.802 64.4614 320.538 67.2327 321.075 63.6561C321.512 60.7406 318.897 56.6711 321.872 55.6843C321.808 55.578 321.777 55.4716 321.713 55.3653C315.96 49.1311 311.201 42.9477 306.885 35.7545C303.05 29.5204 316.954 19.3511 306.885 12.1578C305.447 11.1987 303.541 14.0711 302.102 14.0711C299.705 13.5915 294.936 7.37226 291.58 8.33141C289.182 9.29056 288.079 13.1107 285.202 14.5494C283.284 15.029 280.902 14.0714 278.984 14.0714C266.037 12.632 255.102 2.11356 241.198 2.11356C238.8 2.11356 236.898 4.98354 234.501 4.98354C233.542 4.50399 234.503 2.11485 233.545 1.63536C232.466 1.09579 231.14 0.464651 229.873 0.359897Z"/>
</svg>
