<svg width="343" height="326" viewBox="0 0 343 326" xmlns="http://www.w3.org/2000/svg">
<path d="M208.505 0.225192C207.517 0.431224 209.186 2.58075 204.991 4.37906C204.032 4.85861 198.283 3.899 196.844 5.33764C194.447 8.69443 190.617 17.7982 186.781 19.7164C179.11 23.5528 179.593 3.89977 179.593 3.89977C164.73 0.54288 167.619 2.4578 157.55 10.1306C155.153 12.0488 153.238 5.33872 150.841 3.42047C142.69 -2.3341 145.097 13.4907 133.111 3.89946C133.111 4.379 124.007 11.5665 123.048 14.4439C122.089 15.8825 119.693 30.2605 119.693 30.2605C117.296 32.1788 113.465 29.3014 110.588 30.2605C109.63 30.7401 110.589 34.0949 109.151 34.0949C107.233 34.0949 105.798 31.2191 103.4 31.2191C97.1673 30.7396 96.2167 44.6382 88.0659 46.5565V47.0355C90.9427 54.2288 87.5869 60.4518 87.1075 67.6451C86.6279 71.961 102.443 63.3278 100.525 70.0414C100.046 71.4801 97.6506 71.4785 96.6916 72.9172C96.2121 74.8354 98.13 77.709 96.6916 79.6273C93.8149 82.9841 86.6297 78.1875 84.2324 81.5444C82.3146 84.9013 84.7129 89.6909 82.3155 92.5682C73.2057 106.955 77.5266 88.245 71.7731 105.988C71.7731 106.947 69.8564 106.947 69.8564 107.426L74.1691 120.846C74.1691 121.326 69.377 134.745 69.8564 136.663C69.8564 138.581 84.714 135.699 80.3988 146.249C79.4399 148.647 69.8561 152.003 70.3355 147.687C70.3355 146.248 72.7318 145.291 72.2524 143.852C71.2935 137.618 60.2731 142.893 58.8347 144.811C53.5607 150.086 64.1101 149.602 56.4387 153.918C53.0825 155.356 48.2936 154.396 45.8963 157.273C43.9784 159.191 50.6896 164.461 48.2923 165.421C45.895 165.9 43.0225 164.461 40.6252 165.9C37.7485 167.818 37.2723 172.609 34.3955 174.527C30.0804 178.363 28.1681 169.733 24.3324 171.172C20.4967 173.09 6.60507 180.76 0.851562 176.923C9.48184 201.38 30.5611 224.039 31.9995 250.415C31.9995 251.374 31.0414 252.332 30.5619 252.811C27.2056 256.168 -2.98961 281.566 10.9147 286.841C11.8736 287.32 12.831 284.923 13.79 285.403C18.1051 285.883 22.8927 287.319 26.7284 290.196C36.3175 297.869 24.0107 316.393 27.8464 325.025C28.0023 325.02 28.1696 325.029 28.3255 325.025C28.3263 324.609 28.4891 320.532 34.7148 318.634C37.1121 317.675 37.7483 317.515 40.625 317.995C41.584 317.995 40.9434 320.391 42.382 320.871C47.6558 322.469 54.7603 301.22 55.7997 298.983C59.6353 297.065 67.7776 296.747 71.6132 295.308C77.3667 292.911 78.7979 289.877 85.0309 287.959C87.4282 287.479 92.3893 289.849 95.5733 288.119C96.6963 287.509 99.7666 287.687 102.601 286.841C105.436 285.995 108.112 284.125 109.31 284.125C116.502 283.166 112.501 282.207 119.214 282.687C120.652 282.687 124.165 285.243 125.603 285.722C136.791 281.968 147.8 286.842 162.022 282.367C165.38 283.005 164.497 287.798 168.412 288.119C169.37 288.598 168.891 290.195 169.849 291.154C170.808 292.113 174.161 290.675 175.919 290.036C177.044 288.281 177.513 287.161 181.67 287C192.702 287.397 182.625 292.91 188.219 294.349C189.657 294.43 190.774 292.752 191.254 291.793C190.536 288.118 189.974 285.243 192.372 285.243C194.769 284.765 198.6 288.121 201.476 284.764C203.394 282.846 201.555 279.012 205.47 279.172C209.625 279.333 206.378 283.654 211.22 284.604C214.268 285.202 213.533 278.93 219.367 280.45C224.006 281.573 220.799 285.402 226.714 287.001C229.591 287.48 226.873 281.889 228.791 279.492C233.984 275.735 237.494 269.266 240.611 270.545C244.579 272.173 247.637 284.285 251.473 283.326C259.463 281.248 254.504 274.86 262.175 272.941C265.052 272.462 265.369 275.977 267.766 275.498C269.008 273.58 270.27 271.333 271.919 272.302C274.024 273.54 273.271 268.547 283.1 267.989C288.961 270.383 290.206 275.571 293.483 276.616C296.125 275.209 298.726 273.781 301.15 272.302C301.14 272.246 301.16 272.2 301.15 272.143C300.372 267.707 292.844 261.231 292.844 257.604C292.844 253.768 293.643 244.825 294.761 241.308C297.078 235.034 298.59 230.115 300.671 227.888C299.024 224.322 299.512 223.814 303.706 221.817C307.062 220.857 308.496 223.416 311.373 221.977C313.291 221.018 311.643 217.442 316.644 216.065C323.312 214.23 327.023 213.111 331.979 211.752C331.472 210.725 331.943 209.381 331.18 208.237C331.18 208.237 321.117 202.007 321.117 201.527C320.637 200.568 322.555 199.131 322.075 198.172C320.637 194.815 317.284 192.901 316.804 190.024C316.325 188.585 319.2 188.108 319.2 186.669C318.241 183.312 311.533 183.316 311.054 179.48C310.574 178.041 313.449 177.403 313.929 175.965C315.367 170.21 298.116 166.86 296.678 163.024C294.76 159.187 298.115 154.399 297.636 150.083C297.636 142.41 320.634 152.481 326.867 148.645C331.182 146.247 335.972 137.145 335.493 132.349C335.493 131.87 333.576 132.349 334.055 131.87C336.452 129.472 340.763 128.517 342.202 125.639C343.64 123.721 342.203 119.409 340.285 118.45C332.134 115.573 331.182 118.932 326.867 114.136C325.429 112.218 330.224 105.509 324.95 105.988C319.197 106.468 316.329 104.549 308.178 106.947C305.302 107.906 302.43 110.782 299.553 109.823C297.156 108.864 301.472 95.4454 297.157 92.5682C295.719 91.6091 280.867 91.6114 276.072 88.2545C268.401 83.459 273.203 78.6705 262.175 75.3136C260.257 74.3546 265.051 66.2075 263.134 65.7279C256.421 65.7279 254.033 65.2515 246.362 59.9764C243.005 58.0582 249.237 47.9952 248.278 46.077C245.402 41.761 252.113 45.1199 250.195 42.2426C248.757 39.8449 237.257 30.7409 237.736 28.3431C239.654 21.6294 240.613 16.8437 236.778 10.13C235.819 8.21188 232.945 12.0472 231.027 12.0472C230.548 12.0472 215.054 2.46134 215.054 2.46134C210.559 0.663039 209.098 0.101573 208.505 0.225192Z"/>
</svg>
