<svg width="152" height="130" viewBox="0 0 152 130" xmlns="http://www.w3.org/2000/svg">
<path d="M90.6554 0.692749L88.4432 3.44304L88.3635 2.48641C87.3153 3.664 86.2517 5.0139 84.9256 5.49579C84.8848 5.51109 84.8464 5.5303 84.8061 5.54561C84.6285 5.60173 84.4459 5.6343 84.258 5.65522C83.9024 5.70114 83.5311 5.68571 83.132 5.5755C83.0447 5.54999 82.9522 5.49956 82.8629 5.46589C82.3726 5.28834 81.8561 5.00518 81.2885 4.53916C81.2732 4.52386 81.254 4.52458 81.2387 4.50927C81.0366 4.30774 81.2746 3.76102 81.5276 3.20388C81.3654 3.27888 81.2448 3.35603 81.0892 3.43307C80.7397 3.60654 80.3752 3.77696 80.1126 3.95124C79.7239 4.2094 79.4649 4.46408 79.4649 4.67867C79.4649 5.61029 78.0952 5.61119 77.4122 5.17691C77.0862 4.96926 76.511 4.77824 75.9673 4.75839C76.4765 6.9602 77.5611 9.33224 76.0171 9.33224C75.9661 9.34754 75.9261 9.34682 75.8776 9.36213V9.31231C75.1043 9.54445 74.5078 9.42812 74.054 8.99343H74.0441L73.7451 9.0034L72.9579 7.53857L70.7358 7.88734C70.9378 8.31744 71.0988 8.78443 71.2141 8.94361C71.6651 9.56365 71.4926 9.83908 71.3237 10.9665C71.288 11.218 71.2838 11.4747 71.2838 11.4747C71.2838 11.4747 70.8753 11.2032 70.8753 10.5778C70.8753 9.47387 70.387 9.5741 69.6795 9.03329L67.7065 11.1259L67.0388 11.8234L65.6338 12.81C65.3572 13.0237 64.8554 13.3598 64.4978 13.6869C64.1855 13.9087 63.8801 14.0501 63.581 14.1353C63.2831 14.2195 62.9846 14.2459 62.6842 14.2449C62.0808 14.2427 61.46 14.1219 60.751 14.0755C60.0342 14.6975 59.2993 15.2824 58.5388 15.7695L58.5189 15.7795C56.2583 17.2556 53.8179 17.871 51.0852 16.0485L51.0752 16.0286C51.065 16.0235 51.0555 16.0138 51.0453 16.0087C50.0947 15.0579 51.9567 13.1801 51.0553 12.6804C50.2227 12.2962 49.352 12.0806 48.4644 11.953C47.6426 11.502 46.5261 11.1013 45.4351 10.7672C45.2627 10.7146 45.1282 10.6248 44.9568 10.5778C44.9466 10.5749 44.9371 10.5732 44.9269 10.5679C44.305 10.4 43.6933 10.267 43.1332 10.1992H43.1233C42.5608 10.1318 42.0474 10.1272 41.6385 10.1992C41.4227 10.2349 41.2523 10.321 41.1204 10.4383C40.9882 10.5567 40.8956 10.7087 40.8314 10.8867C40.7278 11.1714 40.7315 11.5449 40.7417 11.9131C40.7442 12.006 40.7167 12.0773 40.7218 12.1722C40.7226 12.1824 40.7209 12.1919 40.7218 12.2021C38.8674 12.3164 37.2535 12.2008 36.1678 11.2156L36.1579 11.2056L36.1479 11.1957C35.056 10.2117 34.494 8.35351 34.7528 4.98758L34.4738 4.42955C32.3721 4.85097 30.2353 5.09878 28.8437 5.73494C27.697 6.25917 27.0678 6.40707 26.0835 6.91079C17.0244 11.5465 7.44936 17.5434 0.742959 19.4067L0.264648 19.885C0.615155 22.3375 0.912928 26.3336 1.64976 30.4078C0.442322 31.1351 0.745714 32.0012 1.06183 34.2941C1.41336 36.841 1.67502 39.0379 3.34377 38.5989C3.60755 38.5295 3.83918 38.6294 4.08117 38.6886C4.84856 40.3148 5.8015 41.7126 6.98093 42.7741C6.99623 42.8149 7.01545 42.8519 7.03075 42.8937C7.82039 45.3528 10.5475 47.5515 12.3918 47.2882C14.2361 47.0249 13.9723 44.7441 15.2019 44.1293C16.4314 43.5146 18.1041 42.4588 19.1579 42.6346C20.2117 42.8101 21.3464 42.1076 22.5758 42.1962C23.8055 42.2839 23.4576 43.421 24.1603 45.2653C24.6199 46.4723 24.8032 47.0045 25.5952 47.4974C25.8676 50.5613 25.7712 53.7055 26.3326 55.7882C25.6671 57.9578 27.3755 59.1573 28.7241 60.7307C30.0592 62.2883 31.6329 61.856 33.9258 59.8139C34.807 59.7833 35.6742 59.7685 36.5066 59.794C34.5759 61.9205 34.5987 62.3051 36.3671 62.3051C38.3864 62.3051 40.1469 61.6939 40.7616 63.8895C40.9147 64.4353 41.1978 65.0435 41.4392 65.6533C41.1851 67.0501 40.7065 68.5051 41.0207 69.7588C41.0564 69.9042 41.1711 70.0155 41.2599 70.1375C41.0236 72.369 41.6548 73.728 42.5154 74.3426C43.7451 75.2208 43.4855 71.7013 46.4715 72.1404C49.4575 72.5797 49.2811 74.3358 52.0916 73.5454C53.6943 73.0944 54.7496 72.7659 56.3466 72.2899C56.4338 72.3052 56.51 72.3308 56.5957 72.3497L60.8706 79.1656L62.1162 78.7471C61.0999 80.8788 58.7581 82.8455 58.7581 85.1046C58.2785 87.0229 62.1162 87.0253 62.1162 88.4628C62.1162 90.8606 59.7181 92.293 58.2798 94.6908C57.4335 96.3834 62.5823 98.357 68.3143 98.4674C70.7967 99.494 74.0866 99.5425 75.19 98.577C76.5952 97.3473 81.0693 97.0026 81.0693 97.0026L81.1191 96.9926L81.2985 92.7078L87.2773 87.7553L89.1906 88.3133C89.1906 88.3133 85.4748 92.3775 86.1513 93.505C86.5959 94.2459 85.7808 96.1975 85.0651 97.7201C85.866 98.8108 87.6344 99.4471 88.0048 100.929C88.0048 103.327 84.1637 106.205 86.0816 108.123C87.5286 110.294 90.6148 110.011 93.4854 110.355C94.0274 110.781 94.5873 111.27 95.03 111.491C96.4352 112.194 96.5307 113.948 97.7603 114.65C98.1751 114.887 98.6445 115.034 99.1056 115.198C99.4892 115.787 99.9155 116.336 100.471 116.753C100.95 117.232 102.392 115.317 103.351 115.796C104.309 116.276 104.784 117.229 105.264 118.188C105.264 118.667 102.871 119.632 103.351 120.111C104.789 121.07 107.185 120.107 108.144 121.546C109.582 123.464 107.659 127.781 110.057 128.741C112.934 130.179 116.297 126.826 119.653 127.306C120.594 127.306 121.532 127.529 122.473 127.804C122.936 126.769 123.593 125.782 124.456 126.07C124.794 126.183 124.968 126.241 125.602 126.429C126.309 125.504 127.369 124.691 127.057 123.539C126.926 121.798 129.473 120.412 128.372 118.746C127.206 117.932 127.64 116.883 128.173 116.005C126.724 115.186 125.952 113.97 125.811 112.279C125.621 111.365 124.84 111.109 124.167 110.804C123.495 110.498 122.935 110.136 123.171 109.01C123.04 107.525 123.998 106.272 124.655 105.204C123.695 104.672 123.732 103.843 124.087 102.981C124.443 102.119 125.111 101.226 125.433 100.56C126.807 100.264 127.481 99.1479 126.678 97.9592C127.504 96.8536 129.338 96.4985 129.03 94.6708C128.89 92.7061 129.766 90.8981 131.79 90.5155C133.102 89.7158 132.983 87.2448 134.979 87.5759C136.006 87.8514 135.511 89.9242 137.071 89.0706C137.797 88.3856 138.473 87.8629 139.015 89.0507C139.215 89.4884 139.16 89.8869 139.453 90.4657C140.456 89.8236 141.925 88.8749 142.632 88.4628C143.11 88.1837 142.793 87.4065 142.612 86.5794C142.433 85.7523 142.392 84.8754 143.429 84.3971C145.502 83.4405 147.016 82.5636 147.096 81.4475C147.176 80.332 147.973 80.2518 149.647 80.4112C151.321 80.5704 151.879 78.3385 150.524 76.9833C149.169 75.6285 151.321 72.2794 149.966 69.8086C148.611 67.3373 145.741 68.3737 144.545 67.3374C143.349 66.3011 143.429 64.0689 145.422 62.3151C147.415 60.5618 147.654 59.3655 145.98 59.1264C144.306 58.8871 142.791 58.3292 141.516 55.9376C140.24 53.5465 141.197 53.0678 138.726 52.8286C138.087 52.7669 137.419 51.8148 136.743 50.9652L136.782 51.1047C136.863 51.2374 136.893 51.3502 136.982 51.4834H136.862L136.773 51.4036H136.753C136.638 51.3832 135.874 51.2377 135.049 51.1745C134.639 51.1438 134.218 51.1339 133.863 51.1645C133.503 51.1951 133.214 51.2746 133.066 51.4236C132.604 51.8848 132.021 50.9159 131.591 50.5666C131.447 50.4503 131.321 50.3979 131.222 50.4968C131.025 50.6943 130.386 50.8684 129.747 50.8954C129.109 50.921 128.47 50.8026 128.273 50.4072C127.877 49.6169 126.516 48.9584 126.12 49.9687C125.725 50.973 122.568 50.448 123.27 49.9189C123.973 49.392 124.147 48.6089 124.147 47.6868C124.147 47.4608 124.121 47.301 124.067 47.1786V47.1686C124.014 47.0477 123.923 46.9648 123.808 46.8796C123.572 46.7041 123.201 46.5235 122.652 46.0625C121.554 45.1403 122.433 42.7243 122.433 42.7243L124.576 41.8673L124.396 41.6381L124.336 41.5584C125.184 40.3136 126.848 39.7337 127.246 38.5391C127.358 38.3141 127.292 38.1743 127.156 38.0707C126.817 37.8794 126.163 37.8366 125.751 37.6223C125.506 37.5167 125.323 37.3626 125.323 37.1041C125.338 37.0077 125.392 36.9205 125.413 36.8251L125.542 36.7056V36.6956L127.396 34.9518L126.808 33.6862L126.758 33.5866C127.618 32.0807 128.613 30.5931 129.159 28.9529C129.638 27.9939 132.031 27.0422 131.551 26.0831C131.205 25.63 130.804 25.2988 130.435 24.8973L128.412 25.7742L128.223 23.6816L124.057 23.5719L123.838 22.5655L120.101 20.6821L120.191 18.0415H120.201L117.999 15.4108L115.189 17.5632L113.236 17.7924L113.166 17.8023C111.512 17.585 109.909 17.3661 108.373 17.1048L108.672 15.1218L107.635 13.5274L105.074 14.0655C104.224 12.3598 103.491 10.2596 102.812 8.24607L103.968 6.1136L102.932 3.48289L100.7 3.0843L99.9027 5.71501L96.3752 8.30586C96.3752 8.30586 96.3801 7.75307 96.3154 7.54854C95.7574 5.79478 94.4818 6.35291 93.5253 6.5122C92.5686 6.67189 90.4961 7.14997 90.7351 5.63529C90.9744 4.12067 92.8078 5.79473 92.8078 5.79473L93.8441 3.96121L92.7281 1.56965L90.6554 0.692749Z"/>
</svg>
