<svg width="183" height="165" viewBox="0 0 183 165" xmlns="http://www.w3.org/2000/svg">
<path d="M52.6078 0.707275C51.9975 1.42931 50.979 2.29689 50.691 3.10374C50.7722 4.00205 49.5155 4.7499 49.0936 5.34044C49.2536 5.65996 49.4526 6.33915 48.6146 6.77831C47.776 7.21747 45.3086 6.10245 44.4616 5.81973C43.6144 5.53752 42.7045 6.77831 42.7045 6.77831C42.7045 6.77831 39.379 5.52908 38.8709 5.02091C38.3627 4.51273 38.1207 5.15179 37.2736 5.65996C36.4264 6.16814 35.9116 5.50036 35.5165 5.50036C35.1213 5.50036 33.5996 6.53312 33.5996 7.098C33.5996 7.66282 33.0174 8.25367 32.9607 8.53587C32.904 8.81859 33.5161 9.50249 33.1203 10.2933C32.7251 11.0841 31.2035 12.3702 31.2035 12.3702C29.7384 12.8927 30.43 13.6082 29.6061 14.9264L29.7656 17.0034C28.3583 17.6548 28.9232 19.2154 28.4878 20.3584C23.9433 20.8635 22.7833 19.5934 19.8621 16.5241C19.1844 15.9027 17.2983 15.6979 16.5077 15.246C15.7174 14.794 16.1417 13.7807 16.0287 13.3288C15.9157 12.8769 14.3005 11.121 13.7925 10.6128C12.0354 10.2094 13.1108 9.78464 11.5562 7.89682C10.5962 7.44488 10.1008 8.0277 9.47961 8.53587C8.85829 9.04456 8.53074 8.8007 8.36157 7.89682C8.19235 6.99258 7.06593 8.31972 6.44472 8.37595C4.35429 7.84416 4.1156 9.39318 2.61116 10.2931C1.2718 12.4006 2.3519 13.1512 3.09014 15.2458L1.97194 17.0032C3.1473 17.8245 1.35207 18.347 1.01367 19.0802L2.29147 21.7961L3.40967 22.5948L3.25006 24.512C0.823228 26.118 2.15815 26.434 2.77108 29.3049C1.75073 31.0144 3.9 31.05 4.52817 32.0209C4.02357 33.083 2.79884 33.5679 1.97241 33.6185C2.53611 36.902 5.16599 38.9699 7.08393 40.3286L7.88259 39.0505C8.91894 40.4905 8.98136 38.2812 9.47992 37.9322L11.3968 40.3286C11.6478 39.9932 12.5519 39.8031 12.5148 40.1692C12.9468 42.711 14.3971 42.307 16.029 43.3645C17.5831 44.5241 16.6506 46.1939 16.8277 47.5183C16.4325 47.913 15.8692 47.6778 15.8692 47.6778L16.1888 49.2754C16.1888 49.2754 18.0942 50.7133 19.2237 50.7133C20.3532 50.7133 21.4311 53.0613 21.9392 53.9086C22.4474 54.7559 22.0986 55.666 22.0986 55.666V57.5832C22.988 57.1813 23.1405 58.2085 23.696 58.5417C23.6034 59.4553 22.5967 59.1413 21.9389 59.5003L22.0985 60.4589C23.2379 59.3822 23.3399 60.9762 24.0153 61.2577L25.4529 61.0983C26.7608 61.8456 25.4529 62.8646 25.4529 63.335C24.2575 65.1786 25.5638 66.18 25.9319 67.8084C26.7605 68.2966 26.5631 69.5763 26.7305 70.0451L31.2036 74.3584C31.2036 74.3584 31.5625 75.5525 31.8425 76.1158C32.1247 76.6807 33.75 76.6792 33.9192 77.0744C34.3573 78.7002 36.6054 78.2139 37.5929 78.5123C37.8752 79.1336 37.7526 81.0685 37.7526 81.0685C38.6236 81.0429 39.876 81.0685 40.7875 81.0685C41.7356 82.054 42.2334 83.2526 42.8639 84.2638C43.0899 84.8851 42.9851 85.2592 43.6626 85.5419C45.625 86.2483 47.0314 87.853 48.295 89.2165C51.4291 90.3457 51.4272 91.7963 52.2883 94.3289C53.1094 96.182 54.8844 96.1238 56.4414 96.7254C57.2321 97.2902 56.7026 97.8711 57.7192 98.323C59.5666 99.5778 61.0235 101.575 62.3514 103.116C63.0291 103.963 65.5154 106.46 66.9838 107.589C69.2999 108.477 71.5856 109.983 73.8522 111.583C78.5728 110.386 77.7481 112.002 79.7624 113.66C80.0446 115.411 78.4845 116.856 78.4845 116.856C79.4429 119.623 81.345 122.125 82.7973 124.365C83.7755 126.064 85.8468 126.374 87.2699 126.921C88.3876 127.879 87.7489 129.956 87.7489 129.956C91.3903 130.809 94.7542 132.959 98.1315 134.589L102.125 141.779C102.125 141.779 101.007 142.178 99.8886 142.578C98.7702 142.977 99.0101 143.776 98.2913 144.016C97.5725 144.255 96.1593 144.655 95.7355 144.655C95.5944 144.655 95.3271 144.537 95.0966 144.495C95.2061 145.67 98.091 146.093 99.4095 146.093C99.5583 146.182 99.8906 146.319 100.048 146.412L101.007 144.974C101.007 144.974 101.353 145.031 102.285 144.974C103.216 144.918 104.435 145.274 105 145.613C105.565 145.952 106.221 146.365 106.278 146.252C106.335 146.139 106.775 144.514 107.396 144.655C108.017 144.796 109.332 145.913 109.473 146.252C109.614 146.591 109.566 147.097 109.792 147.69C110.018 148.283 110.675 149.071 111.07 149.128C111.465 149.185 111.899 149.438 111.869 149.607C111.838 149.777 111.549 150.518 111.549 150.885C111.549 151.252 112.129 150.906 113.626 151.045C115.122 151.186 115.203 152.292 116.022 152.323C116.84 152.354 116.669 152.623 116.98 153.441C117.291 154.26 117.504 153.722 118.577 153.92C119.65 154.118 120.146 154.803 120.654 155.198C121.162 155.594 121.827 155.555 122.251 155.837C122.675 156.12 122.374 156.749 122.092 157.116C121.809 157.483 122.184 157.51 122.89 157.595C123.596 157.68 123.838 157.377 124.488 158.394C125.137 159.41 125.069 158.882 125.606 158.713C126.142 158.544 126.526 159.294 127.203 160.311C127.383 160.581 127.582 160.746 127.842 160.95C127.878 160.975 127.967 160.924 128.002 160.95C128.705 161.252 129.256 161.482 129.919 161.749C130.488 161.537 132.535 160.71 133.433 160.311C134.449 159.859 135.151 160.958 135.829 161.749C136.506 162.539 138.384 163.186 138.384 163.186L138.544 163.985C138.917 163.925 139.149 163.861 139.343 163.666C139.343 163.666 141.222 163.61 141.579 161.908C141.346 161.608 141.163 161.261 140.94 160.95L141.579 161.589C142.377 161.548 143.975 161.908 143.975 161.908C143.975 161.908 144.254 161.029 143.016 160.311C141.778 159.592 141.14 158.753 142.377 158.074C143.615 157.395 144.773 157.555 144.135 156.476C143.496 155.398 143.096 155.318 143.176 154.08C143.256 152.842 142.577 152.522 140.94 151.843C137.963 149.35 138.764 147.025 139.343 144.334C140.021 143.935 141.459 143.815 141.739 142.737C142.018 141.658 140.7 140.26 140.78 139.222C140.86 138.183 142.537 133.91 142.697 133.47C142.857 133.031 146.171 134.589 147.01 134.269C147.848 133.949 149.486 133.51 148.767 131.873C148.048 130.235 146.531 125.562 146.69 124.204C146.85 122.846 148.447 121.288 148.447 120.529C148.447 119.771 146.61 118.333 147.01 117.654C147.409 116.975 151.283 114.818 151.482 114.458C151.682 114.099 151.802 112.421 152.121 112.381C152.441 112.341 155.116 111.223 155.476 111.423C155.835 111.623 157.512 112.981 157.712 113.18C157.912 113.38 157.392 114.698 158.83 115.737C160.268 116.775 160.667 116.934 161.386 115.257C162.105 113.58 163.742 113.42 163.782 112.541C163.823 111.663 163.383 110.784 162.184 109.825C160.986 108.867 160.507 105.951 159.788 105.512C159.07 105.073 157.951 105.95 156.753 105.033C155.555 104.114 154.078 102.716 154.357 102.317C154.637 101.918 156.075 102.237 156.274 100.08C156.474 97.9233 156.793 99.1615 157.552 99.7606C158.311 100.36 159.988 101.079 160.747 100.719C161.505 100.36 162.304 100.16 163.303 99.6008C164.301 99.0417 164.62 99.1611 165.699 99.2813C166.507 99.3713 166.911 99.7608 167.456 99.4407C167.637 99.3339 167.875 99.0813 168.094 98.8017C168.973 97.6833 169.413 96.2854 169.852 95.6064C170.291 94.9274 171.369 94.6478 172.407 94.3283C173.446 94.0088 174.045 93.3296 174.324 92.8904C174.604 92.4512 174.923 92.0116 175.442 92.5709C175.961 93.13 176.68 94.0489 176.88 94.488C177.08 94.9272 177.399 94.328 177.998 94.488C178.597 94.6481 180.713 95.4462 180.554 94.3286C180.395 93.2102 179.436 92.052 180.394 90.9735C181.353 89.8951 182.551 89.2561 182.311 87.938C182.071 86.62 182.192 86.5801 180.714 86.0209C179.236 85.4617 178.917 83.8641 177.04 82.3463C175.163 80.8285 171.21 80.9483 170.171 79.9498C169.133 78.9513 168.294 78.8315 167.935 75.4764C167.576 72.1214 164.661 71.043 164.74 69.0859C164.82 67.1295 165.699 68.5657 166.497 68.6069C167.296 68.6478 169.972 68.9264 170.491 69.2459C171.01 69.5655 172.448 70.5238 175.602 70.0448C178.757 69.5657 178.078 70.0447 179.117 68.4471C180.155 66.8495 181.113 66.0507 181.193 65.4116C181.273 64.7723 181.632 63.6542 180.235 64.6128C178.837 65.5714 179.356 63.1749 178.158 63.1749C176.96 63.1749 175.842 62.6159 175.283 61.4175C174.724 60.2193 173.686 59.8997 174.005 59.3406C174.325 58.7814 173.446 59.9387 172.248 59.3406C171.05 58.7414 170.411 57.4234 169.373 57.4234C168.334 57.4234 168.214 56.145 168.255 55.666C168.295 55.1869 167.655 54.3479 167.296 53.589C166.937 52.8304 166.058 52.1913 164.581 52.6305C163.103 53.0696 162.464 53.0696 161.705 52.3109C160.947 51.5528 160.188 53.229 159.15 52.1513C158.111 51.0729 156.993 49.675 156.914 48.956C156.834 48.2371 155.636 47.9176 155.636 46.3998C155.636 44.8821 157.193 44.4427 157.073 42.7252C156.954 41.0078 154.677 38.2119 155.636 37.1335C156.594 36.0551 158.111 35.8554 158.032 34.737C157.951 33.6187 157.233 33.4989 158.191 32.5003C159.15 31.5018 160.068 30.3835 160.268 28.9855C160.468 27.5876 160.707 26.1497 161.546 25.311C162.384 24.4722 163.343 22.7149 163.143 21.7963C162.943 20.8776 163.143 19.1202 163.143 17.8022C163.143 16.4842 163.223 15.0461 163.462 14.6069C163.702 14.1678 164.541 13.7281 163.462 13.3288C162.384 12.9295 161.386 12.1703 160.587 12.3702C159.788 12.5701 158.79 11.6913 158.031 12.3702C157.273 13.0491 156.754 13.4086 156.115 12.6897C155.476 11.9708 154.797 12.6907 153.878 13.3288C152.96 13.9679 152.275 14.6067 151.482 15.246C150.718 15.8622 149.505 17.6016 148.128 16.5241C146.223 16.7449 142.411 17.2948 139.981 17.0031C137.87 16.472 136.579 14.0585 135.988 13.4883C135.329 12.9093 135.788 12.0704 136.787 12.6894C139.304 13.0192 136.119 7.79047 134.231 9.33438C133.852 8.97498 134.431 8.11619 133.592 7.25745C132.754 6.39856 132.674 6.91747 131.835 6.29886C133.318 4.40884 130.968 3.0046 129.599 5.18052C128.709 2.84484 124.008 4.08614 125.286 5.97934C124.29 6.50122 122.852 6.26318 121.612 6.13894C120.614 5.34012 120.055 4.02111 119.536 4.06201C119.017 4.10291 115.622 5.30014 115.063 4.70107C114.504 4.10189 114.344 4.42244 113.785 4.38154C113.226 4.34064 113.706 2.54423 111.709 3.26319C109.712 3.9821 110.71 4.8209 111.07 5.49989C111.429 6.17887 110.471 7.17754 109.472 7.25729C108.474 7.33705 107.636 6.97764 106.917 7.25729C106.198 7.53694 105.12 6.37846 104.521 5.97918C103.922 5.5799 104.961 5.10035 104.68 4.70107C104.4 4.30178 103.762 3.70235 103.243 3.90225C102.723 4.10163 102.484 5.54032 102.125 4.38123C101.765 3.2232 101.046 3.70158 100.527 3.90225C100.008 4.10214 100.168 6.09804 99.5688 6.13894C98.9698 6.17984 98.1712 6.45847 98.2908 7.09753C98.4105 7.73659 99.1295 7.69666 97.6519 9.17446C96.1744 10.6521 94.7767 11.491 93.1793 10.133C91.582 8.77492 91.2227 8.8148 90.6237 8.69517C90.0247 8.57554 88.1479 7.37692 87.4291 7.25729C86.7102 7.13766 86.6702 6.49937 85.9913 6.45847C85.3125 6.41757 84.3941 7.65673 83.4357 8.21588C82.4776 8.77533 82.637 7.89625 82.3175 7.73674C80.1627 8.14165 78.7565 8.23572 76.7269 7.73674C76.7269 7.73674 76.6061 5.81957 76.2478 5.81957C75.8883 5.81957 75.9681 7.21655 73.692 7.25745C71.4159 7.29835 71.1364 6.77847 71.1364 6.77847C70.5154 5.15368 69.6268 5.55179 68.5806 4.70153C68.5806 4.70153 68.1011 5.46038 67.9417 6.45894C67.7822 7.45766 66.4641 7.61819 64.9067 7.57729C63.3493 7.53639 63.5166 7.05955 62.8302 6.77847C61.5944 6.27234 59.915 5.70005 59.1563 5.18083C58.3975 4.66161 58.1035 3.2634 57.7187 3.58319C56.8 4.34673 52.5717 4.12608 53.2462 2.94413C54.0013 1.62092 53.2425 0.849708 52.6078 0.707275ZM88.2283 137.625C88.2539 137.645 88.2028 137.763 88.2283 137.784C88.3464 137.881 88.4298 138.008 88.5479 138.104C88.802 137.709 88.5837 137.823 88.3884 137.625C88.2898 137.526 88.2825 137.544 88.2283 137.625ZM89.9854 138.903C89.9394 138.918 89.9241 139.035 89.826 139.063C89.918 139.137 90.053 139.148 90.1455 139.222C90.1557 139.159 90.1864 139.161 90.1455 139.063C90.1046 138.963 90.0294 138.885 89.9854 138.903Z"/>
</svg>
