<svg width="283" height="216" viewBox="0 0 283 216" xmlns="http://www.w3.org/2000/svg">
<path d="M213.948 0.55957C213.69 0.805479 213.497 0.801844 213.149 1.03855C211.736 2.0025 211.045 1.5841 210.274 1.19816C209.503 0.81268 208.204 0.908226 206.919 1.35761C205.635 1.807 205.267 1.51706 203.725 1.51706C202.183 1.51706 202.614 2.50663 201.329 2.63541C200.044 2.76373 199.867 3.14564 198.453 3.27447C197.04 3.40279 197.66 4.03858 196.696 4.55258C195.733 5.06669 195.104 5.3443 194.141 6.62952C193.177 7.91468 192.167 8.48232 190.946 8.54669C189.819 8.60599 188.887 9.09622 188.39 9.8248C178.525 11.5923 170.601 15.1574 166.986 20.529C158.835 28.6813 156.769 42.4131 146.221 49.1268C136.632 54.8814 129.454 51.0442 119.865 50.5647C112.193 50.0851 104.055 49.6048 96.863 52.0025C93.9863 52.9617 93.0309 56.7949 90.1541 57.754C76.7293 62.5495 60.9302 54.8775 47.5054 56.3162C36.9573 57.2753 36.6498 67.5022 25.1428 62.7067C20.1489 60.9884 21.8084 53.6369 24.6636 52.1623C28.1142 50.3803 30.6148 48.2087 28.657 46.4108C26.9789 44.7926 22.8737 46.3259 18.9132 43.6948C15.8884 41.6853 14.1797 40.4841 11.0863 40.4995C8.46197 42.2183 7.96325 45.2421 9.00972 49.4463C8.53017 50.1656 6.96138 50.2985 6.13459 51.044C5.30786 51.7893 5.22479 53.1182 4.3775 53.4404C2.68298 54.0849 1.42292 53.3612 0.703703 55.0381C1.01863 59.1569 0.15504 59.08 0.224723 59.9907C0.282493 60.7464 1.1308 61.0733 0.703703 63.5056C0.0565178 67.1927 0.312601 68.0739 1.02323 68.7778C1.73396 69.4816 2.7657 70.0275 3.57899 73.4109C4.39928 76.8233 8.26387 74.4299 8.53074 78.8429C8.85998 84.2865 11.0857 86.2713 12.5241 87.4702C15.9828 87.371 14.2345 89.6565 16.5174 88.9081C18.6471 88.2098 17.6603 91.8997 21.9483 91.1448C23.8792 90.8048 24.1216 94.4447 26.7403 94.9791C28.4003 95.318 27.693 97.1839 30.7337 99.4525C33.5855 101.58 35.5254 100.85 36.0049 101.21C37.4433 102.648 35.9589 105.898 33.9284 108.08C33.4514 108.592 32.3692 111.002 31.692 112.873C30.5298 116.082 28.5237 114.94 28.6571 116.707C29.1004 122.575 27.4208 122.269 26.7403 122.458C25.0989 122.915 24.3449 124.294 22.9067 123.097C22.0123 122.353 20.2656 122.296 20.1912 124.855C16.1072 122.725 19.996 125.448 15.0798 128.689C14.3606 129.888 17.0949 131.202 17.955 133.003C18.815 134.804 16.6614 135.64 17.6354 138.914C17.6354 141.312 16.9965 141.948 17.476 144.346C17.9555 145.305 17.7949 144.026 18.7538 144.506C20.1921 145.465 22.747 147.54 23.2264 149.458C24.7575 155.733 20.8418 153.563 21.1498 156.168C20.3084 157.482 21.2265 159.186 19.872 159.523C17.6196 160.084 16.5425 160.244 16.5175 161.441C17.6254 161.264 17.8993 162.152 19.0733 163.198C20.3722 164.356 21.8444 165.546 22.268 166.393C22.6918 167.24 23.8459 166.89 24.1847 167.512C24.5236 168.133 25.0559 170.217 26.5807 170.867C28.1055 171.516 29.2371 172.736 30.7337 173.103C32.2303 173.47 33.25 174.344 34.4077 174.062C35.5655 173.779 36.3785 174.766 37.7621 175.02C39.1458 175.275 39.5739 175.01 40.4775 175.18C41.3811 175.349 43.0791 173.961 43.6721 177.576C44.2651 181.191 45.4469 183.138 46.0681 184.127C46.6894 185.115 47.7662 184.894 49.1032 188.44C49.6228 189.819 50.4709 190.754 50.8603 191.156C50.9114 191.152 50.9701 191.16 51.0197 191.156C51.0555 191.197 51.0044 191.463 51.0197 191.476C51.0219 191.532 51.0192 191.581 51.0197 191.635C51.0724 191.676 51.1275 191.752 51.1792 191.795C51.4793 194.783 49.3356 195.274 48.943 198.026C48.8918 198.505 48.8877 199.021 48.943 199.623C48.9941 200.224 49.0605 200.916 49.2625 201.7C49.7905 203.752 50.3658 206.104 50.8598 208.41C50.8803 208.51 50.8394 208.63 50.8598 208.73C51.3169 210.928 51.7616 213.069 51.6585 214.961C51.6619 215.007 51.6553 215.073 51.6585 215.12C53.5764 215.12 55.6508 214.961 57.5687 214.961C59.4864 214.961 61.4014 214.802 62.8398 213.363C64.7577 212.404 63.4778 209.689 65.3955 208.73C68.0326 207.052 68.5718 211.301 70.3473 209.049C73.3686 205.219 79.1312 207.932 82.0079 206.973C83.9683 206.093 82.8978 205.244 84.5635 204.736C87.1144 203.957 88.112 204.521 92.8697 200.262C95.1831 198.192 94.8746 200.331 98.7798 199.144C103.187 197.804 99.6895 194.987 101.815 192.754C102.877 191.637 104.387 193.717 106.128 193.232C107.868 192.749 109.911 189.651 110.76 190.037C111.999 190.995 114.433 191.476 116.35 190.516C119.227 190.037 119.544 186.681 122.42 187.641C124.858 188.4 123.696 192.592 127.053 194.51C127.532 195.469 132.004 194.35 132.963 194.83C134.401 195.31 135.678 198.505 137.116 198.025C139.034 197.546 136.476 195.31 138.394 194.83C140.409 194.958 140.996 193.921 142.547 194.191C146.323 194.85 155.963 197.146 158.36 198.345C159.319 198.824 158.679 200.102 160.117 200.102C163.426 199.191 169.244 196.104 171.299 195.789C172.974 195.532 171.384 193.852 173.216 193.392C175.363 192.854 177.663 193.494 179.765 192.753C181.866 192.013 183.517 190.157 185.196 189.558C186.339 189.473 185.741 191.726 188.71 190.676C191.679 189.626 198.294 185.244 198.294 185.244C199.612 184.225 199.804 182.938 199.731 181.57C199.658 180.201 200.52 179.553 198.933 177.575C197.318 175.563 200.932 175.082 196.217 171.025C191.75 167.181 188.785 162.718 198.134 160.8C199.572 160.8 202.249 162.243 204.364 160.8C200.048 153.607 211.071 154.092 213.948 150.735C215.866 147.858 212.988 143.068 215.864 140.67C218.262 138.272 222.571 140.671 225.928 139.232L234.074 130.125C245.102 124.371 248.444 133 259.472 135.398C259.951 135.877 258.993 133.96 259.951 133.481C263.307 131.083 266.178 127.73 270.014 126.291C272.891 125.332 275.763 125.812 278.639 125.333H279.598C279.118 123.894 277.682 122.458 276.243 120.54C273.846 118.621 263.305 112.392 262.826 111.912C262.826 110.953 264.264 109.516 263.784 108.557C258.51 95.6094 237.424 112.877 246.054 101.368C247.972 98.4907 252.283 97.5353 254.2 94.658C255.159 93.699 252.283 92.2623 252.763 90.8237C253.242 88.9055 255.637 88.4283 256.596 86.51C256.596 86.0305 254.679 85.0722 255.159 85.0722C257.556 83.6335 261.867 85.0734 263.305 82.6757C264.743 80.2779 261.868 76.4464 261.388 73.5691C259.47 65.8963 259.951 61.1117 258.992 53.4389C258.992 52.4798 256.117 52.9603 256.117 52.001C257.076 50.5623 260.43 50.5641 260.909 48.6459C261.776 45.3453 261.99 42.2643 261.708 39.3796C261.692 39.2191 261.728 39.0596 261.708 38.9006C261.931 38.3006 262.24 37.9834 262.826 37.303C263.999 35.9422 263.889 35.9029 265.062 36.1846C266.235 36.4663 267.406 35.5343 270.174 34.2675C272.941 33.0004 274.162 33.7895 276.882 34.587C279.604 35.3846 278.95 34.2373 279.279 32.8296C279.607 31.422 280.708 32.531 281.834 27.5574C282.96 22.5838 283.053 23.2782 281.036 21.1668C279.019 19.0554 280.16 17.8083 278.799 15.4153C277.44 13.0223 279.362 13.5439 278.799 12.6993C278.236 11.8546 278.32 11.7964 278.32 11.4212C278.32 11.2709 278.346 11.0066 278.32 10.7821L272.57 12.6993L268.097 12.2203L262.666 13.4984L250.527 10.3032L248.929 6.95014L247.492 5.67202L246.533 2.31698L245.096 1.03886L242.061 4.55367C242.061 4.55367 238.382 6.17816 236.79 6.31108C235.197 6.44349 234.482 3.03205 232.956 1.83768C232.193 1.2405 231.929 1.14265 231.838 1.35855C231.746 1.57429 231.812 2.10589 231.678 2.63666C231.413 3.69862 230.98 4.03543 229.123 4.2343C227.265 4.43318 224.711 4.48992 223.053 5.35265C221.394 6.21528 221.411 6.30623 220.018 4.71359C218.624 3.12117 217.113 3.27572 216.184 3.27572C215.255 3.27572 213.948 0.55957 213.948 0.55957Z"/>
</svg>
