<svg width="176" height="112" viewBox="0 0 176 112" xmlns="http://www.w3.org/2000/svg">
<path d="M32.5652 0.368243C32.1531 0.352906 31.8861 0.647894 31.7664 1.32683C31.4162 3.31056 32.3127 6.7154 32.8847 8.83574C33.866 8.37715 34.6421 8.67629 34.6421 8.67629C34.6421 8.67629 36.159 16.9827 38.796 19.3805C40.6574 18.9551 46.4707 16.839 42.151 20.8184C42.2359 21.9688 42.8467 24.3177 38.6362 23.3746C37.0807 26.3346 35.8217 27.4055 34.1628 27.0492C31.4613 28.9184 28.9876 31.9521 25.8551 36.7948C24.4167 37.2743 22.9798 34.877 21.5415 35.8362C21.0619 36.7953 23.9381 37.7528 23.4586 38.7119C23.4586 38.7119 18.1345 42.9367 14.8314 45.422C14.5502 47.1719 11.796 49.5751 11.3165 51.0138C11.3165 51.9729 12.7544 52.4514 12.7544 52.931C6.06278 57.5903 -3.54367 67.628 2.68928 70.0257C14.6758 74.8212 7.44007 67.2582 18.1864 64.434C26.6253 66.8341 32.9743 69.9456 38.4765 71.7831C43.4693 67.6332 48.22 66.9871 53.9736 72.7417C66.919 86.1691 55.0911 82.6429 57.4884 90.3158C59.8856 97.0295 61.1631 97.9842 60.6837 98.4637C58.7658 100.382 57.1826 102.721 55.0919 104.695C56.5303 108.051 62.4206 107.261 66.1157 107.57C67.7938 108.05 71.164 109.717 73.9441 110.606C77.9878 111.899 77.761 106.768 81.6128 108.689C101.746 101.857 91.8324 81.3747 107.175 70.8245C110.842 67.0712 114.507 69.1095 116.761 66.0316C118.679 66.0316 121.713 66.9907 123.151 66.0316C126.508 62.6748 121.635 62.4508 126.347 55.1676C130.042 51.3014 132.343 54.6278 132.737 48.6173C133.217 48.1378 131.779 48.6165 131.299 48.1382C128.902 45.7404 132.577 41.7479 134.015 41.2683C136.413 39.8297 139.926 39.3509 142.802 39.8305C145.679 40.31 150.79 42.7065 153.666 42.2269C157.023 41.7474 154.784 38.7129 157.661 37.2742C160.058 36.3151 165.009 35.1979 167.406 34.2387C182.191 25.6853 168.205 26.0949 169.164 18.4221C169.428 10.7775 176.583 15.5267 175.075 7.0788L174.436 5.48116C173.845 5.61204 152.382 10.44 151.909 10.9131C149.032 12.8313 151.75 17.4627 148.874 18.9014C146.956 19.8604 144.72 19.5409 142.802 18.5818C141.364 18.1023 141.982 14.6856 140.726 15.3865C138.499 16.6292 139.649 22.4968 135.134 26.7298C133.751 27.9593 131.32 29.5677 130.181 30.4044C123.401 28.9029 119.51 26.5992 114.684 23.0552C108.063 18.0164 103.223 13.6961 99.3466 9.95456C99.321 9.929 99.2127 9.98012 99.1872 9.95456C97.8699 10.3958 96.8604 10.7248 96.3114 10.7534C97.6343 11.9638 99.2584 13.7658 101.104 15.3865C99.673 16.5005 97.8685 16.8888 96.6309 17.3037C95.0496 16.626 95.2153 14.7746 92.9563 15.2268C90.6974 15.6787 87.0339 17.3151 88.1634 16.1854C89.194 15.1544 88.6205 14.8672 88.1634 13.3096C88.3935 12.2678 88.4666 11.3175 88.1634 10.9131C87.2048 9.63529 86.2463 8.83627 85.9267 10.7537C85.7672 11.7124 85.3077 12.3114 84.8084 12.3513C85.2624 11.3077 86.7796 9.02543 86.2463 7.55841C85.9155 6.64839 84.8878 7.3217 83.8498 8.51699C84.711 6.34522 86.7255 4.20336 85.767 4.68265C84.4888 5.32171 82.8912 7.39864 81.4533 9.95487C80.0155 12.5111 78.0983 15.0673 78.0983 13.4697C78.0983 12.6709 78.0573 11.912 78.2577 11.0732C78.475 10.9214 78.6749 10.8314 79.6956 10.2744C81.9684 9.03453 81.3304 8.34695 80.3347 7.55841C81.2399 5.93178 80.1552 4.40985 78.098 3.72407C77.1302 3.40147 76.5433 3.47004 76.1808 3.56462C76.1706 3.49611 76.0413 3.32024 76.0213 3.24509C75.9753 3.60807 75.9701 3.92765 75.8617 4.20367C75.8873 4.18834 75.9973 4.21901 76.0213 4.20367C76.2105 4.47208 76.5035 4.75909 76.9799 5.16226C79.0569 6.91966 75.3823 5.80132 76.0213 8.03801C76.2877 8.96996 76.0674 9.45953 75.7018 9.63565C75.574 9.63831 75.5438 9.63565 75.3823 9.63565C75.303 9.63565 75.2937 9.63366 75.2227 9.63565C74.7447 9.48995 74.1842 9.03653 73.7848 8.03801C73.5941 7.56204 73.2707 7.25417 72.986 6.91966L68.5126 5.16226L68.0336 3.24509C65.3176 1.16816 65.4774 4.68271 62.9212 4.20367C60.3647 3.72464 56.2111 4.36318 59.8856 5.64155C60.3447 5.80106 60.6829 5.91961 61.004 6.12053C59.7245 6.62615 62.339 8.73637 60.3649 10.9135C58.2536 13.2418 59.8193 7.13188 55.572 6.75959C50.1686 3.89968 48.0773 4.84109 49.8205 7.39864C51.4795 9.83279 47.5367 7.1011 47.424 10.4342C45.7863 8.17472 44.3611 6.14323 43.9092 3.88383C43.4583 1.62321 40.8737 5.64124 40.8737 5.64124L36.4003 1.96666C35.0816 1.84192 33.5157 0.402803 32.5652 0.368243ZM102.702 16.6642C107.883 21.194 112.947 25.0568 116.282 27.2086C119.995 29.605 125.471 31.682 128.264 32.6406C128.069 33.024 127.604 33.9354 127.465 34.398C127.013 36.6574 124.612 32.9601 122.353 32.9601C120.094 32.9601 119.136 32.2819 114.844 32.9601C110.552 33.6379 107.533 30.575 106.856 29.4453C108.303 27.6914 108.006 28.8557 109.891 26.7293C108.902 23.7037 104.589 19.6348 102.702 16.6642Z"/>
</svg>
