<svg width="266" height="253" viewBox="0 0 266 253" xmlns="http://www.w3.org/2000/svg">
<path d="M122.41 0.618984C121.459 0.285652 116.37 4.02265 116.601 5.08318C117.016 6.98838 118.016 8.29497 118.631 9.8488C119.714 10.1244 119.926 11.0844 119.749 12.0855C119.749 12.0855 119.112 12.1985 118.152 12.0855C117.192 11.9725 116.714 11.6064 116.714 11.6064C116.47 12.8895 114.855 12.4248 114.478 12.086C113.744 11.2952 113.578 10.5157 112.561 10.9676C111.545 11.4196 109.178 11.2386 108.825 12.0053C108.473 12.7719 110.627 14.5663 110.006 14.9617C99.2425 23.0346 99.8229 19.968 98.7687 21.0449C97.627 22.2112 99.3239 22.6818 97.227 24.8671C96.775 24.5281 97.2847 24.0683 96.2685 24.0683C95.252 24.0683 93.5449 23.6163 92.7543 24.0683C91.9704 25.8501 91.2721 27.428 90.3583 29.1807C90.1324 29.3505 91.1102 29.3387 90.9972 30.2991C91.5672 33.363 93.6464 33.4412 96.1088 34.7722C96.4477 35.337 95.7892 36.9039 95.7892 37.8077C96.3573 40.1089 95.8046 41.8631 95.4697 44.0385C95.3567 44.2644 94.6881 45.4376 95.3102 46.1154C95.9315 46.7932 97.5579 47.4871 96.4284 47.7131C95.2989 47.939 94.2017 48.6425 94.0323 49.1509C93.3432 48.6205 90.4323 47.9031 90.3585 47.8728C90.2455 48.6636 89.4517 48.1964 89.4517 48.1964C89.4517 48.1964 88.6968 50.3448 87.9627 49.9494C87.2285 49.5542 86.6477 49.6478 86.3653 50.269C86.0831 50.8903 87.0902 51.6504 86.5249 51.7068C85.9602 51.7636 84.6501 51.5167 82.0523 52.985C79.4545 54.4536 78.3511 55.7752 77.8992 56.34C78.4074 58.7726 78.7509 58.3596 80.2469 59.6579C80.2315 55.838 83.0154 59.024 84.2896 61.2927C83.1507 63.0906 82.279 60.7529 81.734 61.4521C81.8102 62.2615 80.6889 62.5844 79.8169 63.5291C79.0538 67.3457 80.6827 71.5365 84.268 71.2794C85.2559 71.2083 82.8164 73.8104 81.574 73.754C79.1966 72.3465 77.6896 74.1015 77.5806 75.0323C76.5323 75.4632 74.5222 75.6153 74.2262 75.6718C70.9988 72.1023 63.3571 68.9605 63.2047 71.5178C63.1167 72.991 63.9228 73.4429 61.6073 74.2337C59.6899 75.2244 58.6468 72.448 52.7615 70.3677C52.2049 69.9061 54.1704 68.5006 52.3427 67.2043C50.8744 66.1876 48.9885 65.9279 48.9885 64.9676C48.9885 64.0074 50.2931 62.6081 48.8248 61.8853C46.8033 60.8901 46.1048 65.3084 44.9951 66.5652C43.5002 68.1366 45.078 67.6491 44.5162 70.08C42.3992 73.2694 39.8612 74.0216 37.1684 75.6716C34.9073 75.0689 35.3428 73.7728 33.193 73.8089C31.7231 73.8345 32.0569 75.9919 32.0569 75.9919C29.054 76.0727 27.1068 75.3996 24.23 74.394C22.9312 72.5345 18.6472 73.6386 22.6327 76.3111C22.2866 79.7612 20.6668 75.4931 17.2016 79.9857C16.0722 79.7597 14.7121 79.4985 14.4863 78.7076C12.777 76.9136 11.7383 77.7964 9.53453 78.5482C7.90447 79.2897 5.30011 77.5629 3.14521 76.7909C1.73336 75.9436 1.60898 74.8694 0.749216 75.6726L0.429688 76.9507C0.429688 76.9507 1.06853 78.3087 1.54772 78.8678C2.02676 79.427 1.06863 80.6252 2.18663 82.0631C3.30477 83.501 2.98529 85.6578 2.98529 86.5365C2.98529 87.4153 3.62424 87.7348 4.58262 87.6549C5.541 87.5751 6.33971 87.6549 6.33971 87.6549L4.42301 88.7732L5.86058 90.0513C5.86058 90.0513 4.982 89.7318 4.90215 90.6904C4.82239 91.649 5.46124 90.6904 5.70081 91.4892C5.94059 92.288 5.06186 94.7644 5.38128 95.3236C5.70081 95.8828 5.86032 96.2821 6.17995 96.7614C6.49948 97.2405 5.86042 97.0012 6.17995 98.0395C6.49948 99.078 6.49953 98.7585 7.29814 98.6786C8.09681 98.5988 8.80989 98.9517 9.37461 98.8382C9.93938 98.7252 10.6234 98.2454 11.1317 98.3591C11.6399 98.4721 12.4095 98.8382 12.4095 98.8382C12.4095 98.8382 10.8881 98.5094 10.4928 98.6786C10.2633 98.7768 9.78135 98.7738 9.37461 98.8382C9.08115 98.8842 8.81255 98.9977 8.57594 98.9977C8.01122 98.9977 7.57089 98.8749 7.45791 99.1571C7.34492 99.4393 7.91946 99.8995 7.2983 99.9559C6.67708 100.012 6.53614 100.153 6.81932 100.435C7.10153 100.717 8.15356 100.8 8.09712 101.873C8.04037 102.946 7.29738 103.254 8.25673 103.311C9.21679 103.368 10.2203 103.628 10.3332 104.589C10.4462 105.549 10.6236 105.764 11.1319 105.707C11.64 105.651 10.9432 106.383 11.4514 106.666C11.9596 106.948 12.4839 107.887 13.0487 107.944C13.6134 108.001 15.2092 109.587 15.6045 110.66C15.9997 111.733 16.855 112.708 16.4031 113.216C15.9512 113.724 16.0074 114.155 16.4031 114.494C16.7983 114.833 17.0694 114.674 17.5212 114.335C17.9731 113.996 18.34 114.249 18.0003 114.814C17.6614 115.379 17.1937 115.708 16.403 114.973L15.6021 114.335C15.6021 114.335 15.3669 115.17 15.7616 115.453C16.1568 115.736 17.0765 115.707 17.3589 115.932C17.6411 116.158 17.3488 116.871 17.5185 117.21C17.6877 117.549 17.9377 117.45 17.9975 117.21C18.0435 117.016 18.1411 116.718 18.157 116.571V117.37L18.7959 117.529H18.3169C18.3169 117.529 18.258 117.81 18.4763 118.008C18.6962 118.208 19.1152 118.328 19.1152 118.328V118.487C19.1152 118.487 18.9752 118.847 19.2748 118.966C19.5744 119.086 19.6542 118.987 19.9137 118.807C20.1735 118.628 20.2133 118.567 20.5526 118.648C20.8921 118.727 21.2321 118.867 21.0318 119.127C20.8319 119.386 20.9515 119.925 21.0318 120.405C21.1115 120.884 21.2516 120.944 21.6707 121.044C22.0899 121.143 21.9902 121.044 21.9902 121.044L21.5112 120.565C21.5112 120.565 21.6707 120.585 21.6707 120.405C21.6707 120.226 21.4713 119.986 21.5112 119.766C21.5521 119.546 21.8308 119.746 21.8308 119.287C21.8308 118.828 21.911 118.708 21.5112 118.328C21.1119 117.949 21.0117 117.669 21.1917 117.53C21.3717 117.39 22.17 117.73 22.4695 118.169C22.7691 118.608 22.3898 118.987 23.4279 118.968C24.4662 118.947 25.5044 118.648 25.5044 118.648L24.7057 117.689L24.2267 117.849L24.0673 117.689L24.7062 117.05C24.7062 117.05 24.2869 116.851 24.2271 116.411C24.1672 115.972 24.766 115.613 24.8661 115.293C24.9658 114.973 24.3262 114.354 24.7065 114.015C25.0859 113.675 25.026 113.376 25.026 113.376L24.5471 113.216V113.057L25.186 113.216C25.186 113.216 25.785 112.817 25.9846 112.417C26.1845 112.018 25.9846 110.98 25.9846 110.98L26.4636 111.459C26.4636 111.459 26.7228 111.578 26.7831 111.139C26.8429 110.7 27.1621 110.24 26.9427 110.021L26.1441 109.222L27.1023 109.541C27.1432 109.495 27.262 109.352 27.262 109.062C27.262 108.483 27.6014 108.124 27.7409 107.784C27.8805 107.445 28.1198 106.945 27.7409 106.666C27.3616 106.386 26.7427 106.346 26.4631 106.187C26.1835 106.027 26.6226 105.588 26.6226 105.228C26.6226 104.869 26.1436 104.789 26.1436 104.429C26.1436 104.07 26.4831 103.89 26.4631 103.471C26.4836 103.551 26.6226 103.538 26.6226 103.63C26.6226 104.249 26.3833 104.489 26.6226 104.749C26.8624 105.008 27.3219 105.248 27.1016 105.548C26.8817 105.847 26.9028 106.047 27.2612 106.027C27.6206 106.006 28.0598 105.867 28.0598 105.867C28.0598 105.867 27.8998 106.127 28.0598 106.506C28.2193 106.885 28.2602 107.285 28.5388 107.465C28.8185 107.645 28.8583 107.624 28.8583 107.624C28.8583 107.624 28.3392 107.704 28.0597 108.103C27.78 108.503 27.7402 109.022 27.7402 109.381C27.7402 109.741 27.8996 109.861 27.8996 109.861C27.8996 109.861 27.9993 109.521 28.2191 109.062C28.439 108.602 28.8581 108.303 29.1776 108.103C29.4971 107.903 29.6366 107.704 29.8165 107.944C29.9064 108.064 30.0537 108.296 30.136 108.423C30.1876 108.427 30.2266 108.518 30.2956 108.423C30.5753 108.043 30.7751 107.724 30.9345 108.103C31.094 108.482 30.9754 108.963 31.254 108.582C31.5337 108.203 32.2923 107.404 32.2125 106.825C32.1327 106.246 32.1326 105.167 31.7333 104.428C31.334 103.689 30.7749 102.511 30.7749 102.511L31.4139 102.99C31.3618 102.85 31.324 102.551 31.4139 102.351C31.5939 101.952 31.234 102.191 31.0944 101.712C30.9543 101.233 30.9349 100.753 31.2539 101.073C31.5734 101.392 31.7528 101.313 32.0525 100.753C32.3521 100.194 33.0909 98.7964 33.011 98.5168C32.9312 98.2372 32.0525 97.5582 32.0525 97.5582C32.0525 97.5582 33.0909 98.2771 33.1707 98.357C33.2505 98.4368 33.6697 98.1771 33.8096 97.718C33.9492 97.2589 33.8694 96.7195 34.1292 95.9606C34.3889 95.2017 34.7082 94.4229 34.7681 93.8836C34.8279 93.3444 34.5881 93.0449 35.0876 91.4872C35.5866 89.9295 35.5753 88.3218 35.8863 87.3333C36.1971 86.3448 36.7688 85.0604 37.1641 84.2978C37.5592 83.5353 37.9627 83.1794 37.9627 83.1794C37.9627 83.1794 38.6847 83.762 39.56 83.8185C40.4355 83.8753 41.4946 84.2878 42.1158 84.4576C42.737 84.6273 43.8155 84.6636 44.352 85.2564C44.8885 85.8495 45.8074 86.2706 46.4287 86.6943C47.0498 87.1181 48.3455 87.1732 48.3455 87.1732V86.5342C48.3455 86.5342 48.0168 86.206 47.7066 85.8951C47.3958 85.5843 47.0852 85.2176 48.1856 85.8951C49.2869 86.5729 49.8685 87.0135 49.3038 87.0135C48.739 87.0135 48.8057 86.7568 48.6647 87.0135C48.5236 87.2676 48.5323 87.8115 48.9843 88.2916C49.4362 88.7716 50.9197 89.6157 51.0609 90.2088C51.202 90.8019 51.7916 90.6484 52.9776 91.8064C54.1636 92.9644 55.4294 93.6663 55.8529 94.2029C56.2767 94.7395 56.2838 95.1138 57.1307 95.481C57.9778 95.848 58.8111 95.9973 59.6864 96.2798C60.5617 96.562 60.719 97.173 61.2838 96.9189C61.8485 96.6648 61.594 96.878 61.7627 97.5579C61.932 98.2357 62.0252 97.9597 62.5616 99.3153C63.0981 100.671 63.632 101.72 63.9991 102.511C64.3662 103.301 64.638 103.656 64.638 104.108C64.638 104.56 66.0006 104.707 65.9158 106.345C65.831 107.983 65.1454 110.234 65.1172 111.138C65.0865 112.042 64.6944 112.509 64.6382 113.215C64.5814 113.921 64.7526 116.379 65.1172 117.848C65.4842 119.317 65.9723 120.234 65.9158 120.883C65.8596 121.533 64.984 121.718 65.9158 122.96C66.8477 124.203 67.5777 125.638 68.3118 126.315C69.046 126.993 69.7205 128.72 70.2287 129.511C70.7369 130.302 72.1995 131.041 73.5831 132.227C74.9666 133.413 76.9446 135.909 78.2153 136.7C79.486 137.491 82.2345 139.949 83.6464 141.333C85.0582 142.717 87.5056 144.161 88.9175 144.528C90.3294 144.895 91.378 145.326 92.1122 146.286C92.8463 147.246 93.6434 146.952 93.8693 147.404C94.0952 147.856 94.855 147.733 95.3068 147.564C95.7588 147.395 96.9041 148.842 96.9041 148.842C96.9041 148.842 94.726 149.021 93.7095 148.682C92.6929 148.343 92.038 148.183 91.4733 148.523C90.9085 148.862 87.7155 147.659 87.3202 146.925C86.925 146.191 86.8055 146.005 85.5631 145.328C85.0917 145.07 85.1689 145.26 84.9242 145.168C84.9497 145.036 84.6446 144.689 83.6464 143.89C79.653 140.695 77.257 137.34 75.1804 136.541C73.1039 135.742 74.2221 138.138 72.1455 136.541C70.069 134.943 67.034 132.866 69.1105 133.505C71.1871 134.144 77.5764 138.138 74.3818 134.943C71.1871 131.748 68.1521 127.914 66.7145 127.914C65.2769 127.914 67.0341 131.588 63.2005 127.914C59.3668 124.239 56.6513 121.044 61.1238 127.594C65.5964 134.144 67.1938 135.103 70.5482 137.819C74.2221 141.653 76.4583 140.695 76.1389 142.292C75.8193 143.89 75.8194 145.967 78.0557 146.606C80.292 147.245 77.5766 145.328 79.3335 145.647C81.0906 145.967 84.2853 146.925 82.6879 145.168C81.9316 144.336 83.0534 144.711 83.9657 145.009C83.9453 145.322 83.9555 145.788 84.4447 146.127C85.1789 146.635 86.2583 147.01 86.2018 147.405C86.1451 147.8 84.8578 147.431 85.0836 147.884C85.3096 148.336 86.4374 149.632 86.0421 149.801C85.6469 149.971 83.638 149.164 82.8474 148.204C82.066 147.246 81.7323 147.246 81.7323 147.246L81.8919 148.045L81.0933 147.406L80.9337 148.204C80.9337 148.204 81.8356 148.711 81.8921 149.163C81.9488 149.615 81.8666 150.404 81.4131 150.122C80.9612 149.839 80.7741 149.962 80.7741 149.962L80.9337 150.601L78.857 148.364C78.857 148.364 78.6603 148.242 78.3781 148.524C78.0959 148.807 77.5794 149.642 77.5794 149.642C77.5794 149.642 78.1522 149.668 78.3781 150.121C78.604 150.573 78.9315 150.515 79.4963 151.08C80.061 151.645 79.8158 151.68 79.8158 152.358C79.8158 153.036 80.0509 153.363 79.6562 153.476C79.261 153.589 79.3545 153.654 79.9757 154.275C80.597 154.896 82.2686 155.758 82.2121 156.831C82.1553 157.905 83.1704 157.667 83.1704 157.95C83.1704 158.232 83.9206 159.275 84.7677 159.388C85.6148 159.501 85.7165 160.251 85.8859 160.985C86.0551 161.72 86.4391 161.784 87.0041 161.784C87.5688 161.784 86.8619 162.846 87.4831 162.902C88.1043 162.959 89.5675 163.567 90.3582 164.979C91.1488 166.391 93.4771 167.29 93.8724 167.855C94.2676 168.42 93.8707 169.207 94.8308 169.772C95.7908 170.337 97.4139 170.382 97.8657 170.891C98.3176 171.399 98.1838 171.98 99.1437 172.488C99.4637 172.657 100.068 173.02 100.581 173.287C100.881 173.507 101.076 173.621 101.38 173.766C101.426 173.792 101.493 173.74 101.539 173.766C101.818 173.881 102.048 174.051 102.498 174.086C103.321 174.149 104.357 174.842 105.054 175.683C105.107 175.729 105.159 175.765 105.213 175.843C105.268 175.922 105.187 175.94 105.213 176.002C105.282 176.098 105.294 176.244 105.373 176.322C105.229 176.215 104.992 176.203 104.893 176.162C104.842 176.126 104.803 176.034 104.734 176.003C104.683 175.993 104.622 176.006 104.575 176.003C104.435 175.962 104.257 175.888 104.095 175.843C103.983 175.823 103.765 175.884 103.616 175.843C103.22 175.746 102.846 175.567 102.498 175.524C102.462 175.539 102.339 175.524 102.339 175.524C102.339 175.524 102.329 175.671 102.339 175.683C102.336 175.699 102.488 175.663 102.498 175.683C102.514 175.704 102.473 175.812 102.498 175.843C102.552 175.913 102.645 175.868 102.818 176.002C103.118 176.327 103.45 176.685 103.936 176.801C103.977 176.822 104.055 176.786 104.095 176.801C104.367 176.92 104.651 177.01 104.894 177.121C105.024 177.18 105.096 177.374 105.214 177.44C105.506 177.684 105.856 177.965 106.172 178.239C106.255 178.314 106.402 178.343 106.492 178.398C106.833 178.659 107.097 178.867 107.45 178.877C108.048 178.898 108.587 179.06 109.047 179.197C109.282 179.266 109.515 179.443 109.686 179.357C110.194 179.102 110.051 178.923 111.124 179.516C112.197 180.109 113.209 180.794 113.52 180.794C113.831 180.794 113.67 180.934 113.839 181.273C114.009 181.612 114.853 182.42 115.277 182.391C115.701 182.361 115.351 181.911 115.916 182.391C116.481 182.871 116.799 183.312 116.714 183.51C116.63 183.708 116.902 183.434 117.353 183.829C117.805 184.224 118.255 184.637 118.312 184.948C118.369 185.258 118.614 185.532 117.992 185.107C117.371 184.683 117.212 185.041 117.353 185.267C117.494 185.493 118.34 185.55 118.312 185.746C118.281 185.944 118.463 186.206 117.673 186.065C116.882 185.924 116.639 185.735 117.034 186.385C117.429 187.034 117.655 187.662 117.513 188.142C117.372 188.622 117.033 188.743 117.513 188.941C117.993 189.139 118.143 188.997 117.832 189.42C117.522 189.844 117.183 190.209 117.832 190.379C118.482 190.548 118.708 190.333 118.311 190.698C117.916 191.065 117.117 191.083 117.992 191.337C118.867 191.591 119.599 191.628 119.429 192.136C119.26 192.644 119.47 193.472 119.749 192.935C120.031 192.398 119.805 192.089 120.228 191.976C120.652 191.863 120.632 191.9 120.548 192.296C120.463 192.691 121.103 192.756 120.707 193.095C120.312 193.434 120.558 193.546 119.908 193.574C119.259 193.604 118.61 194.184 119.429 194.213C120.248 194.243 120.49 194.238 121.027 194.213C121.563 194.182 121.214 194.137 121.186 194.532C121.156 194.927 121.862 195.163 122.145 194.852C122.427 194.541 122.68 194.381 123.103 194.692C123.527 195.003 123.685 195.84 124.221 195.331C124.758 194.823 124.512 194.673 125.02 195.012C125.528 195.351 124.999 195.529 126.298 195.331C127.597 195.134 128.423 195.107 127.576 194.852C126.728 194.598 127.348 194.817 128.534 194.533C129.72 194.251 129.813 193.913 129.333 193.574C128.853 193.235 127.435 193.236 127.096 193.095C126.757 192.954 126.249 192.531 127.575 192.616C128.903 192.701 129.876 193.218 130.61 192.936C131.344 192.653 131.671 192.06 132.208 192.457C132.744 192.852 133.11 192.55 133.166 192.776C133.222 193.002 133.768 193.443 133.006 193.415C132.244 193.384 131.804 193.114 131.409 193.256C131.014 193.397 130.177 193.641 130.77 193.895C131.363 194.149 131.681 194.054 132.048 194.054C132.415 194.054 132.359 194.178 132.048 194.374C131.737 194.572 131.474 194.948 132.208 194.693C132.942 194.439 133.41 194.318 133.805 193.894C134.2 193.471 133.945 193.621 134.284 193.735C134.369 193.766 134.325 193.866 134.284 193.894C134.335 193.93 134.426 193.905 135.402 193.894C137.633 193.864 137.439 193.874 138.597 193.735C139.755 193.594 140.261 193.152 139.555 193.096C138.849 193.039 138.289 193.2 137.159 192.776C136.03 192.353 135.572 191.949 134.923 191.978C134.274 192.008 133.89 192.149 133.805 191.978C133.72 191.808 134.311 191.499 134.763 191.499C135.215 191.499 135.185 190.907 135.722 190.54C136.258 190.173 136.735 189.741 137.639 189.741C138.542 189.741 139.685 189.787 140.673 189.901C141.662 190.014 142.656 189.809 142.91 190.06C142.961 190.111 142.985 190.211 143.069 190.22C142.109 190.502 141.303 190.661 140.993 190.859C140.682 191.057 141.583 191.375 140.993 191.658C140.4 191.94 140.195 191.291 139.715 191.658C139.235 192.025 138.746 192.268 139.874 192.297C141.004 192.327 141.462 192.579 141.631 192.297C141.657 192.332 141.706 192.261 141.791 192.297C142.13 192.438 142.692 192.52 143.229 192.297C143.765 192.071 144.957 192.033 145.465 191.977C145.973 191.92 146.892 192.907 147.541 193.415C148.191 193.923 150.848 194.805 151.215 195.172C151.582 195.539 152.521 195.481 152.972 195.172C153.424 194.862 154.052 195.04 154.25 195.492C154.448 195.944 154.726 196.958 156.646 196.93C158.566 196.899 162.443 197.184 162.556 196.93C162.669 196.676 163.364 197.503 163.674 197.729C163.985 197.955 165.036 198.611 165.431 199.007C165.827 199.402 166.558 199.935 167.348 200.924C168.139 201.912 169.931 203.658 170.383 203.8C170.835 203.941 171.802 204.974 171.661 205.397C171.52 205.821 172.187 205.291 172.3 205.717C172.413 206.141 173.869 206.496 173.897 206.835C173.928 207.174 174.309 208.245 175.495 208.273C176.681 208.304 176.385 209.711 177.571 209.711C178.757 209.711 180.004 210.34 180.766 210.51C181.528 210.679 182.137 210.857 182.363 211.308C182.589 211.76 182.673 212.295 183.322 212.267C183.971 212.236 184.261 212.417 184.6 212.587C184.938 212.756 185.144 212.943 185.398 213.226C185.652 213.508 185.821 213.986 185.877 214.184C185.934 214.382 186.319 214.391 186.516 214.504C186.714 214.617 186.816 215.293 187.155 215.462C187.494 215.632 188.019 215.894 188.273 216.261C188.527 216.628 189.09 217.239 189.232 216.9C189.373 216.561 189.072 216.61 189.072 216.101C189.072 215.923 189.204 215.875 189.232 215.782C189.206 215.761 189.257 215.643 189.232 215.622C189.286 215.542 189.293 215.524 189.391 215.622C189.586 215.82 189.805 215.707 189.551 216.101C189.297 216.497 189.41 217.022 189.551 217.22C189.692 217.418 189.691 217.464 190.03 217.379C190.369 217.294 190.631 217.117 190.828 217.06C190.927 217.034 190.942 216.915 190.988 216.9C191.034 216.885 191.107 216.961 191.147 217.06C191.188 217.158 191.158 217.156 191.147 217.219C191.137 217.283 191.143 217.412 190.988 217.539C190.677 217.793 190.772 217.98 190.828 218.178C190.885 218.376 190.864 218.404 191.148 218.178C191.431 217.952 191.467 217.757 191.467 218.178C191.467 218.602 191.374 218.854 191.627 219.136C191.881 219.419 192.077 219.436 192.106 219.775C192.137 220.114 194.341 221.918 194.821 222.172C195.142 222.341 195.638 222.406 196.099 222.491C196.33 222.532 196.597 222.651 196.738 222.651C197.162 222.651 198.575 222.252 199.294 222.012C200.013 221.772 199.773 220.973 200.891 220.574C202.009 220.175 203.127 219.775 203.127 219.775L199.134 212.586C195.757 210.955 192.393 208.805 188.752 207.953C188.752 207.953 189.39 205.876 188.273 204.917C186.849 204.371 184.778 204.06 183.8 202.361C182.348 200.121 180.446 197.619 179.487 194.852C179.487 194.852 181.047 193.408 180.765 191.657C178.751 189.998 179.575 188.382 174.855 189.58C172.588 187.979 170.303 186.473 167.986 185.586C166.518 184.456 164.032 181.96 163.354 181.112C162.026 179.571 160.569 177.574 158.722 176.319C157.705 175.868 158.235 175.287 157.444 174.722C155.887 174.12 154.112 174.178 153.291 172.325C152.43 169.793 152.432 168.342 149.298 167.213C148.034 165.849 146.628 164.245 144.665 163.538C143.988 163.256 144.092 162.882 143.867 162.26C143.236 161.249 142.738 160.05 141.79 159.065C140.879 159.065 139.626 159.039 138.755 159.065C138.755 159.065 138.878 157.13 138.596 156.509C137.608 156.21 135.36 156.697 134.922 155.071C134.753 154.676 133.127 154.677 132.845 154.112C132.571 153.554 132.209 152.358 132.209 152.358L127.737 148.045C127.569 147.576 127.767 146.296 126.938 145.808C126.57 144.18 125.263 143.178 126.459 141.335C126.459 140.864 127.767 139.845 126.459 139.098L125.021 139.257C124.346 138.976 124.244 137.382 123.105 138.458L122.944 137.5C123.602 137.141 124.609 137.454 124.702 136.542C124.146 136.208 123.994 135.181 123.104 135.583V133.666C123.104 133.666 123.453 132.756 122.945 131.908C122.436 131.061 121.359 128.713 120.229 128.713C119.1 128.713 117.194 127.275 117.194 127.275L116.875 125.678C116.875 125.678 117.438 125.913 117.833 125.518C117.656 124.194 118.589 122.524 117.034 121.364C115.403 120.307 113.952 120.711 113.52 118.169C113.556 117.803 112.653 117.993 112.402 118.328L110.485 115.932C109.987 116.281 109.924 118.49 108.888 117.05L108.089 118.328C106.171 116.97 103.542 114.902 102.978 111.618C103.804 111.567 105.029 111.083 105.534 110.021C104.905 109.05 102.756 109.014 103.777 107.305C103.164 104.434 101.829 104.118 104.256 102.512L104.415 100.595L103.297 99.7959L102.019 97.0799C102.358 96.3467 104.153 95.8242 102.978 95.0029L104.096 93.2455C103.358 91.1509 102.277 90.4003 103.617 88.2928C105.121 87.3929 105.36 85.8439 107.45 86.3757C108.071 86.3194 109.198 84.9919 109.367 85.8967C109.536 86.8006 109.864 87.0444 110.485 86.5357C111.106 86.0276 111.602 85.4447 112.562 85.8967C114.116 87.7845 113.041 88.2093 114.798 88.6127C115.306 89.1209 116.921 90.8767 117.034 91.3287C117.147 91.7806 116.723 92.7939 117.513 93.2458C118.304 93.6978 120.19 93.9026 120.868 94.5239C123.789 97.5933 124.949 98.8634 129.493 98.3583C129.929 97.2152 129.364 95.6546 130.771 95.0032L130.612 92.926C131.436 91.6078 130.744 90.8922 132.209 90.3698C132.209 90.3698 133.731 89.0836 134.126 88.2928C134.521 87.502 133.91 86.8181 133.966 86.5354C134.023 86.2532 134.605 85.6624 134.605 85.0976C134.605 84.5327 136.127 83.4999 136.522 83.4999C136.917 83.4999 137.432 84.1682 138.279 83.6595C139.126 83.1513 139.368 82.5123 139.876 83.0205C140.385 83.5286 143.71 84.7779 143.71 84.7779C143.71 84.7779 144.62 83.5371 145.467 83.8193C146.314 84.102 148.782 85.217 149.62 84.7779C150.459 84.3387 150.26 83.6595 150.099 83.34C150.521 82.7495 151.778 82.0016 151.697 81.1033C151.985 80.2964 153.003 79.4289 153.613 78.7068C154.248 78.8495 155.007 79.6203 154.252 80.9435C153.578 82.1255 157.806 82.3461 158.725 81.5826C159.11 81.2631 159.404 82.661 160.162 83.1802C160.921 83.6994 162.6 84.2717 163.836 84.7779C164.523 85.0591 164.355 85.5358 165.913 85.5767C167.47 85.6176 168.788 85.4571 168.948 84.4583C169.107 83.4598 169.587 82.7009 169.587 82.7009C170.633 83.5512 171.521 83.1529 172.142 84.7779C172.142 84.7779 172.422 85.2983 174.698 85.2568C176.974 85.2159 176.895 83.819 177.254 83.819C177.613 83.819 177.733 85.7361 177.733 85.7361C179.763 86.2351 181.169 86.141 183.324 85.7361C183.643 85.8957 183.484 86.7751 184.442 86.2151C185.4 85.656 186.319 84.4168 186.997 84.4577C187.676 84.4986 187.716 85.1369 188.435 85.2565C189.154 85.3762 191.031 86.5748 191.63 86.6944C192.229 86.814 192.588 86.7742 194.186 88.1323C195.783 89.4903 197.181 88.6514 198.658 87.1737C200.136 85.6959 199.416 85.7358 199.297 85.0968C199.177 84.4577 199.976 84.1791 200.575 84.1382C201.174 84.0973 201.014 82.1014 201.533 81.9015C202.052 81.7011 202.771 81.2231 203.13 82.3806C203.49 83.5392 203.73 82.1004 204.249 81.9015C204.768 81.7016 205.407 82.3008 205.686 82.7003C205.966 83.0996 204.928 83.5791 205.527 83.9784C206.126 84.3777 207.204 85.5362 207.923 85.2565C208.642 84.9769 209.48 85.3363 210.479 85.2565C211.477 85.1768 212.435 84.1781 212.076 83.4991C211.716 82.8201 210.718 81.9813 212.715 81.2624C214.712 80.5435 214.232 82.3399 214.791 82.3808C215.35 82.4217 215.51 82.1011 216.069 82.7003C216.628 83.2994 220.023 82.1021 220.542 82.0612C221.061 82.0204 221.62 83.3394 222.618 84.1382C223.858 84.2624 225.296 84.4997 226.292 83.9787C225.014 82.0855 229.715 80.8442 230.605 83.1799C231.974 81.004 234.324 82.4082 232.841 84.2983C233.68 84.917 233.76 84.398 234.598 85.2568C235.437 86.1156 234.858 86.9744 235.237 87.3338C237.125 85.7899 240.31 91.0186 237.793 90.6888C236.794 90.0698 236.335 90.9087 236.994 91.4877C237.585 92.0579 238.876 94.4714 240.988 95.0025C243.775 95.3123 246.596 94.7888 249.134 94.5235C247.899 92.4859 247.006 91.2869 248.335 90.6891C249.655 89.8155 250.398 92.5265 251.849 90.6891C251.585 89.0396 253.201 89.1566 254.245 87.9732C254.465 87.6536 253.846 86.9746 253.926 86.5353C253.213 86.0348 250.007 87.8184 249.932 86.8548C252.264 84.5433 251.164 81.3958 250.731 78.7068C248.049 77.5651 249.733 74.498 252.648 76.6296L254.565 73.4343C251.653 71.5846 254.067 71.254 259.038 73.2748C258.353 72.7196 257.297 71.005 259.074 70.92C259.921 70.8791 260.794 72.7956 260.794 72.7956C261.908 72.612 263.17 72.8881 264.787 72.7956C266.025 70.5209 265.267 70.1149 263.988 68.4819C262.134 69.8418 259.356 68.3792 257.12 67.8429C257.944 65.1731 254.613 67.9721 252.168 67.3637C249.558 65.3197 246.481 63.2954 243.223 61.7721C244.087 60.6784 245.064 59.2231 245.299 58.8964C244.622 58.162 243.223 58.0524 243.223 56.9792C243.056 56.1087 244.181 55.4881 244.661 54.7425C244.887 54.9685 246.642 55.223 247.376 54.2634C248.11 53.3032 247.81 52.6383 246.737 52.1864C244.976 52.768 245.042 51.143 244.661 50.9083C243.1 50.7284 241.662 51.7561 240.508 52.1864C239.707 50.826 238.927 50.1194 238.431 49.4705C238.38 48.1316 240.444 48.5425 240.508 47.7131C237.269 45.6113 240.914 46.2492 241.306 44.8373C240.688 42.746 238.698 43.1745 238.431 42.1213C242.978 43.2896 241.196 34.266 237.792 39.4053C236.098 38.8404 234.427 37.4979 235.556 37.3284C240.223 37.6893 237.642 32.6555 234.438 35.0917C233.702 32.633 237.095 32.9197 236.146 31.4968C234.632 29.961 236.284 29.2331 236.355 28.7011C235.903 28.5319 234.438 28.5417 234.438 28.5417C234.687 29.9902 232.856 29.6814 232.521 29.1807C231.661 29.8927 232.416 30.7606 232.362 31.5772C230.19 31.5823 229.079 30.4505 227.41 29.66L225.653 30.139C225.277 32.9105 225.114 32.1662 224.216 34.2929C225.033 35.2574 223.216 36.6073 222.458 37.0089C222.678 38.2337 220.824 38.317 220.062 38.926L219.104 38.447C220.026 40.53 218.472 40.2693 217.347 40.524C218.531 43.5496 216.132 41.6874 215.43 42.2814C215.42 39.3285 212.849 42.1376 212.555 42.1218L210.638 41.6428C209.925 42.5282 208.956 41.7481 208.083 41.8022C205.434 39.7358 203.544 40.9444 201.853 42.2814L198.339 41.9619C196.334 40.397 192.542 42.0585 191.949 43.5595C188.395 40.1347 184.959 40.2609 181.726 38.1275C180.659 36.2976 179.035 35.4702 177.254 34.1334C175.546 35.0347 173.466 34.1079 171.983 33.8139C171.749 36.3367 167.017 34.9991 168.788 33.9733C169.24 34.0301 170.019 34.1058 169.906 33.6538C168.195 33.21 169.559 32.9597 168.948 31.737C167.998 32.1557 167.137 32.9089 166.233 33.4944C166.06 32.4638 166.909 32.7205 167.511 31.737C165.146 32.4861 165.4 31.2091 163.677 30.7784C164.392 29.5647 164.618 28.8171 159.468 23.5166C158.531 22.5516 155.992 24.6304 158.246 22.1511C156.873 20.8441 153.593 19.7873 149.94 18.7961L149.781 17.6777L148.822 17.8372C147.919 16.7398 146.677 16.2859 145.628 15.6011C145.75 12.7039 144.354 12.0934 143.072 10.0093C142.329 10.4868 141.957 9.67489 141.475 9.5302L139.079 9.68981C138.998 7.97581 138.042 9.03255 137.641 9.37028L135.086 5.37618C133.749 5.13692 132.371 4.49101 131.252 4.89704C127.7 3.10329 124.15 1.22875 122.41 0.618984ZM102.339 175.683C102.194 175.456 101.952 175.197 101.699 174.885C101.18 174.246 100.661 173.567 100.421 174.566C100.181 175.564 100.261 175.524 100.421 175.844C101.659 177.202 102.018 176.563 102.657 177.601C103.296 178.64 104.335 178.719 104.734 178.719C105.133 178.719 104.775 178.28 104.255 177.441C103.736 176.603 103.576 177.641 102.817 176.643C102.429 176.132 102.491 175.921 102.339 175.683ZM48.6674 89.5713C47.5493 90.0212 47.8486 93.6053 47.7091 95.0032C47.5496 96.6011 47.7091 97.5592 46.9104 97.0802C46.1118 96.6011 44.9936 96.9207 44.9936 98.3583C44.9936 99.7962 43.0767 98.3582 43.7156 100.595C44.3545 102.832 47.8688 104.11 50.1051 103.311C52.3413 102.512 52.5008 103.151 52.3413 104.908C52.1818 106.666 55.5359 106.826 56.9736 108.104C58.4109 109.382 58.7303 107.305 58.2514 106.666C57.7723 106.027 60.967 106.506 61.6059 106.027C62.2448 105.548 58.8903 102.832 57.4527 101.234C56.0151 99.6363 55.3763 99.6364 54.0984 98.6778C52.8208 97.7192 54.5774 95.9618 53.6193 95.163C52.6609 94.3642 51.2233 95.0035 51.8622 94.3642C52.5012 93.7251 52.5013 93.0861 49.3066 89.5713C49.0868 89.4915 48.8273 89.5068 48.6674 89.5713ZM38.7639 94.3642C37.7979 94.6265 36.8868 96.521 36.5276 98.1985C36.0486 100.435 39.2431 100.914 40.521 104.429C41.7988 107.944 43.2366 111.459 41.7989 111.139C40.3613 110.82 39.0834 108.264 38.7639 109.701C38.4444 111.139 38.7639 112.258 40.0418 115.772C41.3197 119.287 43.3963 124.559 45.7923 127.435C48.1883 130.311 48.5077 129.991 49.7856 129.672C51.0634 129.352 48.6675 126.796 46.7507 120.885C44.8339 114.974 45.4727 112.577 45.4727 109.062C45.4727 105.548 45.3132 106.027 44.3545 106.826C43.3962 107.624 42.7572 104.589 40.521 100.595C39.5628 97.0801 41 96.1216 39.7223 94.6837C39.4028 94.3243 39.0859 94.2768 38.7639 94.3642ZM56.8138 114.015C56.3194 114.21 56.734 114.974 57.4527 115.932C58.4111 117.21 57.4527 117.69 56.654 117.051C55.8554 116.411 53.7789 116.731 55.536 118.488C57.2931 120.246 57.6126 119.287 60.6475 120.565C63.6827 121.843 63.2032 123.281 64.1615 122.642C65.1199 122.003 63.3629 120.086 59.6891 117.21C58.8904 116.411 59.2099 114.335 57.6125 114.015C57.2132 113.935 56.9785 113.95 56.8138 114.015ZM41.3196 124.08C40.8253 124.148 41.2399 125.278 41.9585 127.435C42.917 130.311 42.917 130.151 42.917 131.589C42.917 133.027 43.2365 133.986 44.3545 132.867C45.4727 131.749 45.7922 133.986 47.8687 135.903C49.9452 137.82 50.1051 138.139 50.744 137.66C51.383 137.181 50.265 136.062 47.5493 134.145C44.8339 132.228 44.1949 129.991 43.3963 127.275C43.2368 125.358 43.7157 125.199 42.1183 124.4C41.719 124.2 41.4843 124.058 41.3196 124.08ZM62.2448 140.536C61.7658 140.596 61.3663 141.694 61.6059 142.293C61.9255 143.092 59.8488 143.891 61.6059 144.53C63.2033 144.849 63.8421 145.489 63.3629 143.891C62.8838 142.293 63.3629 141.974 62.724 140.855C62.5645 140.576 62.4044 140.516 62.2448 140.536ZM63.2033 150.281C62.9768 150.418 63.3428 151 64.4811 152.199C67.516 153.956 71.5094 155.235 67.8355 152.678C65.5393 151.08 63.5807 150.054 63.2033 150.281ZM65.4395 155.234C65.4293 155.392 65.9389 155.993 66.8771 157.311C70.6308 162.583 74.3047 164.58 75.8221 167.057C77.3396 169.533 77.4195 168.814 77.739 169.613C81.972 174.006 83.9684 174.965 88.441 177.601C92.9135 180.237 97.7855 183.273 93.5525 179.838C89.3196 176.403 87.0834 175.684 85.5659 173.767C84.0484 171.85 84.1283 172.489 81.5726 170.092C79.0168 167.696 78.2979 167.616 76.1415 165.299C73.9851 162.983 76.4611 163.542 72.308 160.666C69.1932 158.509 65.4657 154.762 65.4395 155.234ZM75.8221 156.512C75.5926 156.732 76.3813 157.83 79.1766 160.666C81.7323 163.382 85.3263 165.459 88.9203 168.974C92.5143 172.489 96.5875 172.728 95.1499 171.69C93.7123 170.651 89.2397 166.258 87.0034 164.66C84.7672 163.063 80.5343 159.468 78.3779 157.79C77.2997 156.952 76.0517 156.293 75.8221 156.512ZM132.368 198.69C131.409 198.69 131.01 199.01 131.569 199.968C132.128 200.927 132.687 200.927 133.646 200.767C135.243 201.646 135.003 201.486 136.361 202.045C137.719 202.604 139.636 203.962 140.195 203.483C140.754 203.004 139.955 202.444 138.757 201.086C137.559 199.729 137.639 199.649 135.882 199.169C134.125 198.69 133.326 198.69 132.368 198.69ZM142.591 199.01C141.902 199.01 141.832 199.169 142.112 199.808C142.671 201.086 142.99 201.406 142.431 201.885C141.872 202.364 142.271 202.844 142.431 203.163C142.591 203.483 141.712 203.642 141.473 203.323C141.233 203.003 140.594 203.482 142.112 204.281C143.629 205.08 142.83 203.563 144.188 204.761C145.546 205.959 148.102 206.917 152.654 206.518C161.759 205.4 162.877 204.84 163.516 203.003C164.155 201.166 163.596 201.406 159.842 200.287C156.088 199.169 149.779 199.009 146.265 199.169C144.508 199.249 143.28 199.01 142.591 199.01ZM148.341 208.595C147.462 208.755 146.904 209.314 147.063 209.714C147.223 210.113 148.421 209.873 149.299 210.832C150.178 211.791 150.418 211.551 149.299 211.95C148.181 212.35 148.022 211.152 147.063 210.513C146.105 209.873 144.827 210.353 144.028 210.672C143.23 210.992 142.191 211.711 141.473 211.471C140.754 211.231 139.955 211.711 140.674 212.11C141.393 212.509 142.191 212.509 143.389 213.228C144.587 213.947 144.907 213.468 145.466 213.548C146.025 213.628 147.063 214.107 151.057 214.666C155.05 215.225 154.012 215.545 156.168 215.145C158.324 214.745 158.884 214.107 162.717 214.506C166.551 214.905 174.457 214.027 177.093 213.228C179.729 212.429 178.371 212.11 176.614 212.11C174.857 212.11 172.701 212.269 168.627 211.95C164.554 211.631 163.915 212.349 157.286 212.749C155.689 212.669 156.248 212.429 155.05 211.95C153.852 211.471 156.088 211.311 154.731 210.992C153.373 210.672 153.852 210.113 153.612 209.554C153.373 208.994 152.335 209.633 151.536 209.554C150.737 209.474 150.098 209.713 149.3 209.554C148.501 209.394 149.22 208.436 148.341 208.595ZM171.183 218.341C170.731 218.341 171.023 220.897 171.023 220.897C171.023 220.897 173.416 222.062 175.336 222.175C177.256 222.288 179.225 221.357 180.128 221.696C181.032 222.035 185.069 223.462 186.198 224.252C187.328 225.043 189.043 224.42 190.511 225.211C191.979 226.002 189.69 226.318 191.949 227.448C194.208 228.577 205.074 231.142 205.526 230.803C205.978 230.464 203.609 228.087 203.609 228.087L207.762 230.643C207.762 230.643 208.238 228.761 210.158 230.004C212.078 231.247 213.471 232.529 216.068 233.998C218.666 235.467 220.86 236.075 220.86 236.075C220.86 236.075 222.769 236.854 221.979 237.193C221.188 237.532 221.364 238.179 223.736 238.631C226.107 239.083 227.324 239.656 227.889 239.43C228.453 239.204 229.825 239.532 229.486 240.548C229.147 241.565 227.901 242.209 231.403 243.903C234.904 245.598 239.414 247.528 241.785 249.335C244.157 251.143 245.3 251.732 245.3 251.732L244.501 249.495L241.785 247.258L240.188 246.459L240.507 244.862L239.549 241.986L239.389 241.187C239.389 241.187 238.878 241.003 238.271 240.708C237.735 240.44 237.173 240.145 236.834 239.75C236.495 239.354 236.103 238.948 235.716 238.631C235.328 238.314 234.946 238.086 234.438 238.312C233.54 238.71 231.493 239.538 230.924 239.75C230.848 239.775 230.445 239.909 230.445 239.909C230.445 239.909 229.704 239.464 229.007 238.951C228.971 238.925 228.882 238.976 228.847 238.951C228.587 238.747 228.388 238.581 228.208 238.312C227.869 237.803 227.501 237.302 227.25 237.033C227.125 236.899 227.054 236.767 226.931 236.714C226.808 236.652 226.745 236.673 226.611 236.714C226.075 236.883 226.142 237.411 225.493 236.394C224.843 235.378 224.602 235.68 223.896 235.596C223.542 235.555 223.235 235.499 223.097 235.436C222.95 235.373 222.956 235.3 223.097 235.116C223.379 234.749 223.681 234.121 223.256 233.838C222.833 233.556 222.167 233.595 221.659 233.199C221.151 232.804 220.656 232.119 219.583 231.921C219.046 231.822 218.691 231.916 218.464 231.921C218.353 231.925 218.224 231.829 218.145 231.762C218.064 231.694 218.063 231.647 217.985 231.442C217.675 230.623 217.846 230.354 217.027 230.324C216.208 230.293 216.128 229.187 214.631 229.046C213.134 228.907 212.554 229.253 212.554 228.886C212.554 228.519 212.843 227.777 212.874 227.608C212.905 227.438 212.47 227.185 212.075 227.129C211.68 227.072 211.023 226.284 210.797 225.691C210.571 225.098 210.62 224.592 210.478 224.253C210.337 223.914 209.023 222.797 208.401 222.656C208.293 222.63 208.179 222.749 208.082 222.815C207.682 223.182 207.326 224.168 207.283 224.253C207.226 224.366 206.57 223.952 206.005 223.614C205.441 223.275 204.222 222.918 203.29 222.975C202.358 223.032 202.012 222.975 202.012 222.975L201.054 224.413L200.575 225.211C202.608 226.002 202.34 226.575 203.13 226.01C203.328 225.869 203.285 225.744 203.29 225.691C203.219 225.776 203.249 226.141 203.929 226.649C205.284 227.666 203.153 227.253 200.894 226.01C198.635 224.768 195.003 224.225 194.664 223.774C194.325 223.322 195.143 224.732 195.143 224.732C195.143 224.732 192.466 224.404 191.789 223.614C191.111 222.823 192.738 222.479 187.316 220.898C181.895 219.316 179.457 219.686 176.295 219.46C173.132 219.234 171.635 218.341 171.183 218.341ZM133.965 219.939C133.126 219.998 131.889 220.178 130.291 220.258C127.097 220.418 125.499 221.217 126.298 222.016C127.097 222.814 128.694 222.814 127.895 223.933C127.097 225.051 127.256 224.412 130.451 224.092C134.764 222.654 135.722 221.856 135.403 220.577C135.243 219.938 134.804 219.879 133.965 219.939ZM169.426 223.134C168.388 223.244 167.709 223.453 167.03 223.613C165.672 223.932 165.752 225.37 162.238 224.412C158.724 223.453 157.845 223.134 156.008 223.293C154.171 223.453 153.213 224.172 155.369 224.412C157.526 224.652 157.765 224.652 156.647 225.211C155.529 225.77 155.609 226.409 154.89 226.808C154.172 227.207 154.571 227.927 155.529 228.246C156.488 228.566 155.849 226.808 157.925 227.767C160.002 228.726 158.724 227.847 159.682 228.246C162.637 228.166 163.676 229.364 166.551 227.927C169.426 226.489 169.666 226.249 173.579 226.329C177.493 226.409 179.569 226.169 179.968 225.53C180.368 224.891 178.77 225.85 178.052 224.891C177.333 223.932 177.492 223.373 173.739 223.134C171.862 223.013 170.464 223.024 169.426 223.134ZM189.233 231.921C189.142 231.901 189.073 232.1 188.754 232.24C187.476 232.8 185.24 233.758 187.157 233.998C189.073 234.238 190.91 234.317 192.268 234.797C193.626 235.276 195.063 235.436 195.942 235.755C203.849 236.794 204.967 236.714 205.845 236.714C206.724 236.714 207.602 236.394 205.366 235.596C203.13 234.797 200.015 234.078 196.741 233.838C193.466 233.598 191.869 232.72 190.351 232.72C189.213 232.72 189.506 231.977 189.233 231.921ZM210.318 232.88C210.208 233.089 210.717 233.718 211.915 234.637C213.752 235.276 214.311 235.915 214.311 235.116C214.311 234.317 213.912 233.998 212.075 233.199C211.156 232.799 210.427 232.67 210.318 232.88ZM165.273 235.436C164.175 235.351 163.278 235.576 163.196 236.394C163.037 237.992 161.918 237.033 164.953 238.791C168.148 238.791 171.023 236.394 168.787 236.075C167.669 235.915 166.371 235.521 165.273 235.436Z" fill="#171717"/>
<path d="M9.37461 98.8382C8.80989 98.9517 8.09681 98.5988 7.29814 98.6786C6.49953 98.7585 6.49948 99.078 6.17995 98.0395C5.86042 97.0012 6.49948 97.2405 6.17995 96.7614C5.86032 96.2821 5.70081 95.8828 5.38128 95.3236C5.06186 94.7644 5.94059 92.288 5.70081 91.4892C5.46124 90.6904 4.82239 91.649 4.90215 90.6904C4.982 89.7318 5.86058 90.0513 5.86058 90.0513L4.42301 88.7732L6.33971 87.6549C6.33971 87.6549 5.541 87.5751 4.58262 87.6549C3.62424 87.7348 2.98529 87.4153 2.98529 86.5365C2.98529 85.6578 3.30477 83.501 2.18663 82.0631C1.06863 80.6252 2.02676 79.427 1.54772 78.8678C1.06853 78.3087 0.429688 76.9507 0.429688 76.9507L0.749216 75.6726C1.60898 74.8694 1.73336 75.9436 3.14521 76.7909C5.30011 77.5629 7.90447 79.2897 9.53453 78.5482C11.7383 77.7964 12.777 76.9136 14.4863 78.7076C14.7121 79.4985 16.0722 79.7597 17.2016 79.9857C20.6668 75.4931 22.2866 79.7612 22.6327 76.3111C18.6472 73.6386 22.9312 72.5345 24.23 74.394C27.1068 75.3996 29.054 76.0727 32.0569 75.9919C32.0569 75.9919 31.7231 73.8345 33.193 73.8089C35.3428 73.7728 34.9073 75.0689 37.1684 75.6716C39.8612 74.0216 42.3992 73.2694 44.5162 70.08C45.078 67.6491 43.5002 68.1366 44.9951 66.5652C46.1048 65.3084 46.8033 60.8901 48.8248 61.8853C50.2931 62.6081 48.9885 64.0074 48.9885 64.9676C48.9885 65.9279 50.8744 66.1876 52.3427 67.2043C54.1704 68.5006 52.2049 69.9061 52.7615 70.3677C58.6468 72.448 59.6899 75.2244 61.6073 74.2337C63.9228 73.4429 63.1167 72.991 63.2047 71.5178C63.3571 68.9605 70.9988 72.1023 74.2262 75.6718C74.5222 75.6153 76.5323 75.4632 77.5806 75.0323C77.6896 74.1015 79.1966 72.3465 81.574 73.754C82.8164 73.8104 85.2559 71.2083 84.268 71.2794C80.6827 71.5365 79.0538 67.3457 79.8169 63.5291C80.6889 62.5844 81.8102 62.2615 81.734 61.4521C82.279 60.7529 83.1507 63.0906 84.2896 61.2927C83.0154 59.024 80.2315 55.838 80.2469 59.6579C78.7509 58.3596 78.4074 58.7726 77.8992 56.34C78.3511 55.7752 79.4545 54.4536 82.0523 52.985C84.6501 51.5167 85.9602 51.7636 86.5249 51.7068C87.0902 51.6504 86.0831 50.8903 86.3653 50.269C86.6477 49.6478 87.2285 49.5542 87.9627 49.9494C88.6968 50.3448 89.4517 48.1964 89.4517 48.1964C89.4517 48.1964 90.2455 48.6636 90.3585 47.8728C90.4323 47.9031 93.3432 48.6205 94.0323 49.1509C94.2017 48.6425 95.2989 47.939 96.4284 47.7131C97.5579 47.4871 95.9315 46.7932 95.3102 46.1154C94.6881 45.4376 95.3567 44.2644 95.4697 44.0385C95.8046 41.8631 96.3573 40.1089 95.7892 37.8077C95.7892 36.9039 96.4477 35.337 96.1088 34.7722C93.6464 33.4412 91.5672 33.363 90.9972 30.2991C91.1102 29.3387 90.1324 29.3505 90.3583 29.1807C91.2721 27.428 91.9704 25.8501 92.7543 24.0683C93.5449 23.6163 95.252 24.0683 96.2685 24.0683C97.2847 24.0683 96.775 24.5281 97.227 24.8671C99.3239 22.6818 97.627 22.2112 98.7687 21.0449C99.8229 19.968 99.2425 23.0346 110.006 14.9617C110.627 14.5663 108.473 12.7719 108.825 12.0053C109.178 11.2386 111.545 11.4196 112.561 10.9676C113.578 10.5157 113.744 11.2952 114.478 12.086C114.855 12.4248 116.47 12.8895 116.714 11.6064C116.714 11.6064 117.192 11.9725 118.152 12.0855C119.112 12.1985 119.749 12.0855 119.749 12.0855C119.926 11.0844 119.714 10.1244 118.631 9.8488C118.016 8.29497 117.016 6.98838 116.601 5.08318C116.37 4.02265 121.459 0.285652 122.41 0.618984C124.15 1.22875 127.7 3.10329 131.252 4.89704C132.371 4.49101 133.749 5.13692 135.086 5.37618L137.641 9.37028C138.042 9.03255 138.998 7.97581 139.079 9.68981L141.475 9.5302C141.957 9.67489 142.329 10.4868 143.072 10.0093C144.354 12.0934 145.75 12.7039 145.628 15.6011C146.677 16.2859 147.919 16.7398 148.822 17.8372L149.781 17.6777L149.94 18.7961C153.593 19.7873 156.873 20.8441 158.246 22.1511C155.992 24.6304 158.531 22.5516 159.468 23.5166C164.618 28.8171 164.392 29.5647 163.677 30.7784C165.4 31.2091 165.146 32.4861 167.511 31.737C166.909 32.7205 166.06 32.4638 166.233 33.4944C167.137 32.9089 167.998 32.1557 168.948 31.737C169.559 32.9597 168.195 33.21 169.906 33.6538C170.019 34.1058 169.24 34.0301 168.788 33.9733C167.017 34.9991 171.749 36.3367 171.983 33.8139C173.466 34.1079 175.546 35.0347 177.254 34.1334C179.035 35.4702 180.659 36.2976 181.726 38.1275C184.959 40.2609 188.395 40.1347 191.949 43.5595C192.542 42.0585 196.334 40.397 198.339 41.9619L201.853 42.2814C203.544 40.9444 205.434 39.7358 208.083 41.8022C208.956 41.7481 209.925 42.5282 210.638 41.6428L212.555 42.1218C212.849 42.1376 215.42 39.3285 215.43 42.2814C216.132 41.6874 218.531 43.5496 217.347 40.524C218.472 40.2693 220.026 40.53 219.104 38.447L220.062 38.926C220.824 38.317 222.678 38.2337 222.458 37.0089C223.216 36.6073 225.033 35.2574 224.216 34.2929C225.114 32.1662 225.277 32.9105 225.653 30.139L227.41 29.66C229.079 30.4505 230.19 31.5823 232.362 31.5772C232.416 30.7606 231.661 29.8927 232.521 29.1807C232.856 29.6814 234.687 29.9902 234.438 28.5417C234.438 28.5417 235.903 28.5319 236.355 28.7011C236.284 29.2331 234.632 29.961 236.146 31.4968C237.095 32.9197 233.702 32.633 234.438 35.0917C237.642 32.6555 240.223 37.6893 235.556 37.3284C234.427 37.4979 236.098 38.8404 237.792 39.4053C241.196 34.266 242.978 43.2896 238.431 42.1213C238.698 43.1745 240.688 42.746 241.306 44.8373C240.914 46.2492 237.269 45.6113 240.508 47.7131C240.444 48.5425 238.38 48.1316 238.431 49.4705C238.927 50.1194 239.707 50.826 240.508 52.1864C241.662 51.7561 243.1 50.7284 244.661 50.9083C245.042 51.143 244.976 52.768 246.737 52.1864C247.81 52.6383 248.11 53.3032 247.376 54.2634C246.642 55.223 244.887 54.9685 244.661 54.7425C244.181 55.4881 243.056 56.1087 243.223 56.9792C243.223 58.0524 244.622 58.162 245.299 58.8964C245.064 59.2231 244.087 60.6784 243.223 61.7721C246.481 63.2954 249.558 65.3197 252.168 67.3637C254.613 67.9721 257.944 65.1731 257.12 67.8429C259.356 68.3792 262.134 69.8418 263.988 68.4819C265.267 70.1149 266.025 70.5209 264.787 72.7956C263.17 72.8881 261.908 72.612 260.794 72.7956C260.794 72.7956 259.921 70.8791 259.074 70.92C257.297 71.005 258.353 72.7196 259.038 73.2748C254.067 71.254 251.653 71.5846 254.565 73.4343L252.648 76.6296C249.733 74.498 248.049 77.5651 250.731 78.7068C251.164 81.3958 252.264 84.5433 249.932 86.8548C250.007 87.8184 253.213 86.0348 253.926 86.5353C253.846 86.9746 254.465 87.6536 254.245 87.9732C253.201 89.1566 251.585 89.0396 251.849 90.6891C250.398 92.5265 249.655 89.8155 248.335 90.6891C247.006 91.2869 247.899 92.4859 249.134 94.5235C246.596 94.7888 243.775 95.3123 240.988 95.0025C238.876 94.4714 237.585 92.0579 236.994 91.4877C236.335 90.9087 236.794 90.0698 237.793 90.6888C240.31 91.0186 237.125 85.7899 235.237 87.3338C234.858 86.9744 235.437 86.1156 234.598 85.2568C233.76 84.398 233.68 84.917 232.841 84.2983C234.324 82.4082 231.974 81.004 230.605 83.1799C229.715 80.8442 225.014 82.0855 226.292 83.9787C225.296 84.4997 223.858 84.2624 222.618 84.1382C221.62 83.3394 221.061 82.0204 220.542 82.0612C220.023 82.1021 216.628 83.2994 216.069 82.7003C215.51 82.1011 215.35 82.4217 214.791 82.3808C214.232 82.3399 214.712 80.5435 212.715 81.2624C210.718 81.9813 211.716 82.8201 212.076 83.4991C212.435 84.1781 211.477 85.1768 210.479 85.2565C209.48 85.3363 208.642 84.9769 207.923 85.2565C207.204 85.5362 206.126 84.3777 205.527 83.9784C204.928 83.5791 205.966 83.0996 205.686 82.7003C205.407 82.3008 204.768 81.7016 204.249 81.9015C203.73 82.1004 203.49 83.5392 203.13 82.3806C202.771 81.2231 202.052 81.7011 201.533 81.9015C201.014 82.1014 201.174 84.0973 200.575 84.1382C199.976 84.1791 199.177 84.4577 199.297 85.0968C199.416 85.7358 200.136 85.6959 198.658 87.1737C197.181 88.6514 195.783 89.4903 194.186 88.1323C192.588 86.7742 192.229 86.814 191.63 86.6944C191.031 86.5748 189.154 85.3762 188.435 85.2565C187.716 85.1369 187.676 84.4986 186.997 84.4577C186.319 84.4168 185.4 85.656 184.442 86.2151C183.484 86.7751 183.643 85.8957 183.324 85.7361C181.169 86.141 179.763 86.2351 177.733 85.7361C177.733 85.7361 177.613 83.819 177.254 83.819C176.895 83.819 176.974 85.2159 174.698 85.2568C172.422 85.2983 172.142 84.7779 172.142 84.7779C171.521 83.1529 170.633 83.5512 169.587 82.7009C169.587 82.7009 169.107 83.4598 168.948 84.4583C168.788 85.4571 167.47 85.6176 165.913 85.5767C164.355 85.5358 164.523 85.0591 163.836 84.7779C162.6 84.2717 160.921 83.6994 160.162 83.1802C159.404 82.661 159.11 81.2631 158.725 81.5826C157.806 82.3461 153.578 82.1255 154.252 80.9435C155.007 79.6203 154.248 78.8495 153.613 78.7068C153.003 79.4289 151.985 80.2964 151.697 81.1033C151.778 82.0016 150.521 82.7495 150.099 83.34C150.26 83.6595 150.459 84.3387 149.62 84.7779C148.782 85.217 146.314 84.102 145.467 83.8193C144.62 83.5371 143.71 84.7779 143.71 84.7779C143.71 84.7779 140.385 83.5286 139.876 83.0205C139.368 82.5123 139.126 83.1513 138.279 83.6595C137.432 84.1682 136.917 83.4999 136.522 83.4999C136.127 83.4999 134.605 84.5327 134.605 85.0976C134.605 85.6624 134.023 86.2532 133.966 86.5354C133.91 86.8181 134.521 87.502 134.126 88.2928C133.731 89.0836 132.209 90.3698 132.209 90.3698C130.744 90.8922 131.436 91.6078 130.612 92.926L130.771 95.0032C129.364 95.6546 129.929 97.2152 129.493 98.3583C124.949 98.8634 123.789 97.5933 120.868 94.5239C120.19 93.9026 118.304 93.6978 117.513 93.2458C116.723 92.7939 117.147 91.7806 117.034 91.3287C116.921 90.8767 115.306 89.1209 114.798 88.6127C113.041 88.2093 114.116 87.7845 112.562 85.8967C111.602 85.4447 111.106 86.0276 110.485 86.5357C109.864 87.0444 109.536 86.8006 109.367 85.8967C109.198 84.9919 108.071 86.3194 107.45 86.3757C105.36 85.8439 105.121 87.3929 103.617 88.2928C102.277 90.4003 103.358 91.1509 104.096 93.2455L102.978 95.0029C104.153 95.8242 102.358 96.3467 102.019 97.0799L103.297 99.7959L104.415 100.595L104.256 102.512C101.829 104.118 103.164 104.434 103.777 107.305C102.756 109.014 104.905 109.05 105.534 110.021C105.029 111.083 103.804 111.567 102.978 111.618C103.542 114.902 106.171 116.97 108.089 118.328L108.888 117.05C109.924 118.49 109.987 116.281 110.485 115.932L112.402 118.328C112.653 117.993 113.556 117.803 113.52 118.169C113.952 120.711 115.403 120.307 117.034 121.364C118.589 122.524 117.656 124.194 117.833 125.518C117.438 125.913 116.875 125.678 116.875 125.678L117.194 127.275C117.194 127.275 119.1 128.713 120.229 128.713C121.359 128.713 122.436 131.061 122.945 131.908C123.453 132.756 123.104 133.666 123.104 133.666V135.583C123.994 135.181 124.146 136.208 124.702 136.542C124.609 137.454 123.602 137.141 122.944 137.5L123.105 138.458C124.244 137.382 124.346 138.976 125.021 139.257L126.459 139.098C127.767 139.845 126.459 140.864 126.459 141.335C125.263 143.178 126.57 144.18 126.938 145.808C127.767 146.296 127.569 147.576 127.737 148.045L132.209 152.358C132.209 152.358 132.571 153.554 132.845 154.112C133.127 154.677 134.753 154.676 134.922 155.071C135.36 156.697 137.608 156.21 138.596 156.509C138.878 157.13 138.755 159.065 138.755 159.065C139.626 159.039 140.879 159.065 141.79 159.065C142.738 160.05 143.236 161.249 143.867 162.26C144.092 162.882 143.988 163.256 144.665 163.538C146.628 164.245 148.034 165.849 149.298 167.213C152.432 168.342 152.43 169.793 153.291 172.325C154.112 174.178 155.887 174.12 157.444 174.722C158.235 175.287 157.705 175.868 158.722 176.319C160.569 177.574 162.026 179.571 163.354 181.112C164.032 181.96 166.518 184.456 167.986 185.586C170.303 186.473 172.588 187.979 174.855 189.58C179.575 188.382 178.751 189.998 180.765 191.657C181.047 193.408 179.487 194.852 179.487 194.852C180.446 197.619 182.348 200.121 183.8 202.361C184.778 204.06 186.849 204.371 188.273 204.917C189.39 205.876 188.752 207.953 188.752 207.953C192.393 208.805 195.757 210.955 199.134 212.586L203.127 219.775C203.127 219.775 202.009 220.175 200.891 220.574C199.773 220.973 200.013 221.772 199.294 222.012C198.575 222.252 197.162 222.651 196.738 222.651C196.597 222.651 196.33 222.532 196.099 222.491C195.638 222.406 195.142 222.341 194.821 222.172C194.341 221.918 192.137 220.114 192.106 219.775C192.077 219.436 191.881 219.419 191.627 219.136C191.374 218.854 191.467 218.602 191.467 218.178C191.467 217.757 191.431 217.952 191.148 218.178C190.864 218.404 190.885 218.376 190.828 218.178C190.772 217.98 190.677 217.793 190.988 217.539C191.143 217.412 191.137 217.283 191.147 217.219C191.158 217.156 191.188 217.158 191.147 217.06C191.107 216.961 191.034 216.885 190.988 216.9C190.942 216.915 190.927 217.034 190.828 217.06C190.631 217.117 190.369 217.294 190.03 217.379C189.691 217.464 189.692 217.418 189.551 217.22C189.41 217.022 189.297 216.497 189.551 216.101C189.805 215.707 189.586 215.82 189.391 215.622C189.293 215.524 189.286 215.542 189.232 215.622C189.257 215.643 189.206 215.761 189.232 215.782C189.204 215.875 189.072 215.923 189.072 216.101C189.072 216.61 189.373 216.561 189.232 216.9C189.09 217.239 188.527 216.628 188.273 216.261C188.019 215.894 187.494 215.632 187.155 215.462C186.816 215.293 186.714 214.617 186.516 214.504C186.319 214.391 185.934 214.382 185.877 214.184C185.821 213.986 185.652 213.508 185.398 213.226C185.144 212.943 184.938 212.756 184.6 212.587C184.261 212.417 183.971 212.236 183.322 212.267C182.673 212.295 182.589 211.76 182.363 211.308C182.137 210.857 181.528 210.679 180.766 210.51C180.004 210.34 178.757 209.711 177.571 209.711C176.385 209.711 176.681 208.304 175.495 208.273C174.309 208.245 173.928 207.174 173.897 206.835C173.869 206.496 172.413 206.141 172.3 205.717C172.187 205.291 171.52 205.821 171.661 205.397C171.802 204.974 170.835 203.941 170.383 203.8C169.931 203.658 168.139 201.912 167.348 200.924C166.558 199.935 165.827 199.402 165.431 199.007C165.036 198.611 163.985 197.955 163.674 197.729C163.364 197.503 162.669 196.676 162.556 196.93C162.443 197.184 158.566 196.899 156.646 196.93C154.726 196.958 154.448 195.944 154.25 195.492C154.052 195.04 153.424 194.862 152.972 195.172C152.521 195.481 151.582 195.539 151.215 195.172C150.848 194.805 148.191 193.923 147.541 193.415C146.892 192.907 145.973 191.92 145.465 191.977C144.957 192.033 143.765 192.071 143.229 192.297C142.692 192.52 142.13 192.438 141.791 192.297C141.706 192.261 141.657 192.332 141.631 192.297C141.462 192.579 141.004 192.327 139.874 192.297C138.746 192.268 139.235 192.025 139.715 191.658C140.195 191.291 140.4 191.94 140.993 191.658C141.583 191.375 140.682 191.057 140.993 190.859C141.303 190.661 142.109 190.502 143.069 190.22C142.985 190.211 142.961 190.111 142.91 190.06C142.656 189.809 141.662 190.014 140.673 189.901C139.685 189.787 138.542 189.741 137.639 189.741C136.735 189.741 136.258 190.173 135.722 190.54C135.185 190.907 135.215 191.499 134.763 191.499C134.311 191.499 133.72 191.808 133.805 191.978C133.89 192.149 134.274 192.008 134.923 191.978C135.572 191.949 136.03 192.353 137.159 192.776C138.289 193.2 138.849 193.039 139.555 193.096C140.261 193.152 139.755 193.594 138.597 193.735C137.439 193.874 137.633 193.864 135.402 193.894C134.426 193.905 134.335 193.93 134.284 193.894C134.325 193.866 134.369 193.766 134.284 193.735C133.945 193.621 134.2 193.471 133.805 193.894C133.41 194.318 132.942 194.439 132.208 194.693C131.474 194.948 131.737 194.572 132.048 194.374C132.359 194.178 132.415 194.054 132.048 194.054C131.681 194.054 131.363 194.149 130.77 193.895C130.177 193.641 131.014 193.397 131.409 193.256C131.804 193.114 132.244 193.384 133.006 193.415C133.768 193.443 133.222 193.002 133.166 192.776C133.11 192.55 132.744 192.852 132.208 192.457C131.671 192.06 131.344 192.653 130.61 192.936C129.876 193.218 128.903 192.701 127.575 192.616C126.249 192.531 126.757 192.954 127.096 193.095C127.435 193.236 128.853 193.235 129.333 193.574C129.813 193.913 129.72 194.251 128.534 194.533C127.348 194.817 126.728 194.598 127.576 194.852C128.423 195.107 127.597 195.134 126.298 195.331C124.999 195.529 125.528 195.351 125.02 195.012C124.512 194.673 124.758 194.823 124.221 195.331C123.685 195.84 123.527 195.003 123.103 194.692C122.68 194.381 122.427 194.541 122.145 194.852C121.862 195.163 121.156 194.927 121.186 194.532C121.214 194.137 121.563 194.182 121.027 194.213C120.49 194.238 120.248 194.243 119.429 194.213C118.61 194.184 119.259 193.604 119.908 193.574C120.558 193.546 120.312 193.434 120.707 193.095C121.103 192.756 120.463 192.691 120.548 192.296C120.632 191.9 120.652 191.863 120.228 191.976C119.805 192.089 120.031 192.398 119.749 192.935C119.47 193.472 119.26 192.644 119.429 192.136C119.599 191.628 118.867 191.591 117.992 191.337C117.117 191.083 117.916 191.065 118.311 190.698C118.708 190.333 118.482 190.548 117.832 190.379C117.183 190.209 117.522 189.844 117.832 189.42C118.143 188.997 117.993 189.139 117.513 188.941C117.033 188.743 117.372 188.622 117.513 188.142C117.655 187.662 117.429 187.034 117.034 186.385C116.639 185.735 116.882 185.924 117.673 186.065C118.463 186.206 118.281 185.944 118.312 185.746C118.34 185.55 117.494 185.493 117.353 185.267C117.212 185.041 117.371 184.683 117.992 185.107C118.614 185.532 118.369 185.258 118.312 184.948C118.255 184.637 117.805 184.224 117.353 183.829C116.902 183.434 116.63 183.708 116.714 183.51C116.799 183.312 116.481 182.871 115.916 182.391C115.351 181.911 115.701 182.361 115.277 182.391C114.853 182.42 114.009 181.612 113.839 181.273C113.67 180.934 113.831 180.794 113.52 180.794C113.209 180.794 112.197 180.109 111.124 179.516C110.051 178.923 110.194 179.102 109.686 179.357C109.515 179.443 109.282 179.266 109.047 179.197C108.587 179.06 108.048 178.898 107.45 178.877C107.097 178.867 106.833 178.659 106.492 178.398C106.402 178.343 106.255 178.314 106.172 178.239C105.856 177.965 105.506 177.684 105.214 177.44C105.096 177.374 105.024 177.18 104.894 177.121C104.651 177.01 104.367 176.92 104.095 176.801C104.055 176.786 103.977 176.822 103.936 176.801C103.45 176.685 103.118 176.327 102.818 176.002C102.645 175.868 102.552 175.913 102.498 175.843C102.473 175.812 102.514 175.704 102.498 175.683C102.488 175.663 102.336 175.699 102.339 175.683M9.37461 98.8382C9.93938 98.7252 10.6234 98.2454 11.1317 98.3591C11.6399 98.4721 12.4095 98.8382 12.4095 98.8382C12.4095 98.8382 10.8881 98.5094 10.4928 98.6786C10.2633 98.7768 9.78135 98.7738 9.37461 98.8382ZM9.37461 98.8382C9.08115 98.8842 8.81255 98.9977 8.57594 98.9977C8.01122 98.9977 7.57089 98.8749 7.45791 99.1571C7.34492 99.4393 7.91946 99.8995 7.2983 99.9559C6.67708 100.012 6.53614 100.153 6.81932 100.435C7.10153 100.717 8.15356 100.8 8.09712 101.873C8.04037 102.946 7.29738 103.254 8.25673 103.311C9.21679 103.368 10.2203 103.628 10.3332 104.589C10.4462 105.549 10.6236 105.764 11.1319 105.707C11.64 105.651 10.9432 106.383 11.4514 106.666C11.9596 106.948 12.4839 107.887 13.0487 107.944C13.6134 108.001 15.2092 109.587 15.6045 110.66C15.9997 111.733 16.855 112.708 16.4031 113.216C15.9512 113.724 16.0074 114.155 16.4031 114.494C16.7983 114.833 17.0694 114.674 17.5212 114.335C17.9731 113.996 18.34 114.249 18.0003 114.814C17.6614 115.379 17.1937 115.708 16.403 114.973L15.6021 114.335C15.6021 114.335 15.3669 115.17 15.7616 115.453C16.1568 115.736 17.0765 115.707 17.3589 115.932C17.6411 116.158 17.3488 116.871 17.5185 117.21C17.6877 117.549 17.9377 117.45 17.9975 117.21C18.0435 117.016 18.1411 116.718 18.157 116.571V117.37L18.7959 117.529H18.3169C18.3169 117.529 18.258 117.81 18.4763 118.008C18.6962 118.208 19.1152 118.328 19.1152 118.328V118.487C19.1152 118.487 18.9752 118.847 19.2748 118.966C19.5744 119.086 19.6542 118.987 19.9137 118.807C20.1735 118.628 20.2133 118.567 20.5526 118.648C20.8921 118.727 21.2321 118.867 21.0318 119.127C20.8319 119.386 20.9515 119.925 21.0318 120.405C21.1115 120.884 21.2516 120.944 21.6707 121.044C22.0899 121.143 21.9902 121.044 21.9902 121.044L21.5112 120.565C21.5112 120.565 21.6707 120.585 21.6707 120.405C21.6707 120.226 21.4713 119.986 21.5112 119.766C21.5521 119.546 21.8308 119.746 21.8308 119.287C21.8308 118.828 21.911 118.708 21.5112 118.328C21.1119 117.949 21.0117 117.669 21.1917 117.53C21.3717 117.39 22.17 117.73 22.4695 118.169C22.7691 118.608 22.3898 118.987 23.4279 118.968C24.4662 118.947 25.5044 118.648 25.5044 118.648L24.7057 117.689L24.2267 117.849L24.0673 117.689L24.7062 117.05C24.7062 117.05 24.2869 116.851 24.2271 116.411C24.1672 115.972 24.766 115.613 24.8661 115.293C24.9658 114.973 24.3262 114.354 24.7065 114.015C25.0859 113.675 25.026 113.376 25.026 113.376L24.5471 113.216V113.057L25.186 113.216C25.186 113.216 25.785 112.817 25.9846 112.417C26.1845 112.018 25.9846 110.98 25.9846 110.98L26.4636 111.459C26.4636 111.459 26.7228 111.578 26.7831 111.139C26.8429 110.7 27.1621 110.24 26.9427 110.021L26.1441 109.222L27.1023 109.541C27.1432 109.495 27.262 109.352 27.262 109.062C27.262 108.483 27.6014 108.124 27.7409 107.784C27.8805 107.445 28.1198 106.945 27.7409 106.666C27.3616 106.386 26.7427 106.346 26.4631 106.187C26.1835 106.027 26.6226 105.588 26.6226 105.228C26.6226 104.869 26.1436 104.789 26.1436 104.429C26.1436 104.07 26.4831 103.89 26.4631 103.471C26.4836 103.551 26.6226 103.538 26.6226 103.63C26.6226 104.249 26.3833 104.489 26.6226 104.749C26.8624 105.008 27.3219 105.248 27.1016 105.548C26.8817 105.847 26.9028 106.047 27.2612 106.027C27.6206 106.006 28.0598 105.867 28.0598 105.867C28.0598 105.867 27.8998 106.127 28.0598 106.506C28.2193 106.885 28.2602 107.285 28.5388 107.465C28.8185 107.645 28.8583 107.624 28.8583 107.624C28.8583 107.624 28.3392 107.704 28.0597 108.103C27.78 108.503 27.7402 109.022 27.7402 109.381C27.7402 109.741 27.8996 109.861 27.8996 109.861C27.8996 109.861 27.9993 109.521 28.2191 109.062C28.439 108.602 28.8581 108.303 29.1776 108.103C29.4971 107.903 29.6366 107.704 29.8165 107.944C29.9064 108.064 30.0537 108.296 30.136 108.423C30.1876 108.427 30.2266 108.518 30.2956 108.423C30.5753 108.043 30.7751 107.724 30.9345 108.103C31.094 108.482 30.9754 108.963 31.254 108.582C31.5337 108.203 32.2923 107.404 32.2125 106.825C32.1327 106.246 32.1326 105.167 31.7333 104.428C31.334 103.689 30.7749 102.511 30.7749 102.511L31.4139 102.99C31.3618 102.85 31.324 102.551 31.4139 102.351C31.5939 101.952 31.234 102.191 31.0944 101.712C30.9543 101.233 30.9349 100.753 31.2539 101.073C31.5734 101.392 31.7528 101.313 32.0525 100.753C32.3521 100.194 33.0909 98.7964 33.011 98.5168C32.9312 98.2372 32.0525 97.5582 32.0525 97.5582C32.0525 97.5582 33.0909 98.2771 33.1707 98.357C33.2505 98.4368 33.6697 98.1771 33.8096 97.718C33.9492 97.2589 33.8694 96.7195 34.1292 95.9606C34.3889 95.2017 34.7082 94.4229 34.7681 93.8836C34.8279 93.3444 34.5881 93.0449 35.0876 91.4872C35.5866 89.9295 35.5753 88.3218 35.8863 87.3333C36.1971 86.3448 36.7688 85.0604 37.1641 84.2978C37.5592 83.5353 37.9627 83.1794 37.9627 83.1794C37.9627 83.1794 38.6847 83.762 39.56 83.8185C40.4355 83.8753 41.4946 84.2878 42.1158 84.4576C42.737 84.6273 43.8155 84.6636 44.352 85.2564C44.8885 85.8495 45.8074 86.2706 46.4287 86.6943C47.0498 87.1181 48.3455 87.1732 48.3455 87.1732V86.5342C48.3455 86.5342 48.0168 86.206 47.7066 85.8951C47.3958 85.5843 47.0852 85.2176 48.1856 85.8951C49.2869 86.5729 49.8685 87.0135 49.3038 87.0135C48.739 87.0135 48.8057 86.7568 48.6647 87.0135C48.5236 87.2676 48.5323 87.8115 48.9843 88.2916C49.4362 88.7716 50.9197 89.6157 51.0609 90.2088C51.202 90.8019 51.7916 90.6484 52.9776 91.8064C54.1636 92.9644 55.4294 93.6663 55.8529 94.2029C56.2767 94.7395 56.2838 95.1138 57.1307 95.481C57.9778 95.848 58.8111 95.9973 59.6864 96.2798C60.5617 96.562 60.719 97.173 61.2838 96.9189C61.8485 96.6648 61.594 96.878 61.7627 97.5579C61.932 98.2357 62.0252 97.9597 62.5616 99.3153C63.0981 100.671 63.632 101.72 63.9991 102.511C64.3662 103.301 64.638 103.656 64.638 104.108C64.638 104.56 66.0006 104.707 65.9158 106.345C65.831 107.983 65.1454 110.234 65.1172 111.138C65.0865 112.042 64.6944 112.509 64.6382 113.215C64.5814 113.921 64.7526 116.379 65.1172 117.848C65.4842 119.317 65.9723 120.234 65.9158 120.883C65.8596 121.533 64.984 121.718 65.9158 122.96C66.8477 124.203 67.5777 125.638 68.3118 126.315C69.046 126.993 69.7205 128.72 70.2287 129.511C70.7369 130.302 72.1995 131.041 73.5831 132.227C74.9666 133.413 76.9446 135.909 78.2153 136.7C79.486 137.491 82.2345 139.949 83.6464 141.333C85.0582 142.717 87.5056 144.161 88.9175 144.528C90.3294 144.895 91.378 145.326 92.1122 146.286C92.8463 147.246 93.6434 146.952 93.8693 147.404C94.0952 147.856 94.855 147.733 95.3068 147.564C95.7588 147.395 96.9041 148.842 96.9041 148.842C96.9041 148.842 94.726 149.021 93.7095 148.682C92.6929 148.343 92.038 148.183 91.4733 148.523C90.9085 148.862 87.7155 147.659 87.3202 146.925C86.925 146.191 86.8055 146.005 85.5631 145.328C85.0917 145.07 85.1689 145.26 84.9242 145.168C84.9497 145.036 84.6446 144.689 83.6464 143.89C79.653 140.695 77.257 137.34 75.1804 136.541C73.1039 135.742 74.2221 138.138 72.1455 136.541C70.069 134.943 67.034 132.866 69.1105 133.505C71.1871 134.144 77.5764 138.138 74.3818 134.943C71.1871 131.748 68.1521 127.914 66.7145 127.914C65.2769 127.914 67.0341 131.588 63.2005 127.914C59.3668 124.239 56.6513 121.044 61.1238 127.594C65.5964 134.144 67.1938 135.103 70.5482 137.819C74.2221 141.653 76.4583 140.695 76.1389 142.292C75.8193 143.89 75.8194 145.967 78.0557 146.606C80.292 147.245 77.5766 145.328 79.3335 145.647C81.0906 145.967 84.2853 146.925 82.6879 145.168C81.9316 144.336 83.0534 144.711 83.9657 145.009C83.9453 145.322 83.9555 145.788 84.4447 146.127C85.1789 146.635 86.2583 147.01 86.2018 147.405C86.1451 147.8 84.8578 147.431 85.0836 147.884C85.3096 148.336 86.4374 149.632 86.0421 149.801C85.6469 149.971 83.638 149.164 82.8474 148.204C82.066 147.246 81.7323 147.246 81.7323 147.246L81.8919 148.045L81.0933 147.406L80.9337 148.204C80.9337 148.204 81.8356 148.711 81.8921 149.163C81.9488 149.615 81.8666 150.404 81.4131 150.122C80.9612 149.839 80.7741 149.962 80.7741 149.962L80.9337 150.601L78.857 148.364C78.857 148.364 78.6603 148.242 78.3781 148.524C78.0959 148.807 77.5794 149.642 77.5794 149.642C77.5794 149.642 78.1522 149.668 78.3781 150.121C78.604 150.573 78.9315 150.515 79.4963 151.08C80.061 151.645 79.8158 151.68 79.8158 152.358C79.8158 153.036 80.0509 153.363 79.6562 153.476C79.261 153.589 79.3545 153.654 79.9757 154.275C80.597 154.896 82.2686 155.758 82.2121 156.831C82.1553 157.905 83.1704 157.667 83.1704 157.95C83.1704 158.232 83.9206 159.275 84.7677 159.388C85.6148 159.501 85.7165 160.251 85.8859 160.985C86.0551 161.72 86.4391 161.784 87.0041 161.784C87.5688 161.784 86.8619 162.846 87.4831 162.902C88.1043 162.959 89.5675 163.567 90.3582 164.979C91.1488 166.391 93.4771 167.29 93.8724 167.855C94.2676 168.42 93.8707 169.207 94.8308 169.772C95.7908 170.337 97.4139 170.382 97.8657 170.891C98.3176 171.399 98.1838 171.98 99.1437 172.488C99.4637 172.657 100.068 173.02 100.581 173.287C100.881 173.507 101.076 173.621 101.38 173.766C101.426 173.792 101.493 173.74 101.539 173.766C101.818 173.881 102.048 174.051 102.498 174.086C103.321 174.149 104.357 174.842 105.054 175.683C105.107 175.729 105.159 175.765 105.213 175.843C105.268 175.922 105.187 175.94 105.213 176.002C105.282 176.098 105.294 176.244 105.373 176.322C105.229 176.215 104.992 176.203 104.893 176.162C104.842 176.126 104.803 176.034 104.734 176.003C104.683 175.993 104.622 176.006 104.575 176.003C104.435 175.962 104.257 175.888 104.095 175.843C103.983 175.823 103.765 175.884 103.616 175.843C103.22 175.746 102.846 175.567 102.498 175.524C102.462 175.539 102.339 175.524 102.339 175.524C102.339 175.524 102.329 175.671 102.339 175.683M102.339 175.683C102.194 175.456 101.952 175.197 101.699 174.885C101.18 174.246 100.661 173.567 100.421 174.566C100.181 175.564 100.261 175.524 100.421 175.844C101.659 177.202 102.018 176.563 102.657 177.601C103.296 178.64 104.335 178.719 104.734 178.719C105.133 178.719 104.775 178.28 104.255 177.441C103.736 176.603 103.576 177.641 102.817 176.643C102.429 176.132 102.491 175.921 102.339 175.683ZM48.6674 89.5713C47.5493 90.0212 47.8486 93.6053 47.7091 95.0032C47.5496 96.6011 47.7091 97.5592 46.9104 97.0802C46.1118 96.6011 44.9936 96.9207 44.9936 98.3583C44.9936 99.7962 43.0767 98.3582 43.7156 100.595C44.3545 102.832 47.8688 104.11 50.1051 103.311C52.3413 102.512 52.5008 103.151 52.3413 104.908C52.1818 106.666 55.5359 106.826 56.9736 108.104C58.4109 109.382 58.7303 107.305 58.2514 106.666C57.7723 106.027 60.967 106.506 61.6059 106.027C62.2448 105.548 58.8903 102.832 57.4527 101.234C56.0151 99.6363 55.3763 99.6364 54.0984 98.6778C52.8208 97.7192 54.5774 95.9618 53.6193 95.163C52.6609 94.3642 51.2233 95.0035 51.8622 94.3642C52.5012 93.7251 52.5013 93.0861 49.3066 89.5713C49.0868 89.4915 48.8273 89.5068 48.6674 89.5713ZM38.7639 94.3642C37.7979 94.6265 36.8868 96.521 36.5276 98.1985C36.0486 100.435 39.2431 100.914 40.521 104.429C41.7988 107.944 43.2366 111.459 41.7989 111.139C40.3613 110.82 39.0834 108.264 38.7639 109.701C38.4444 111.139 38.7639 112.258 40.0418 115.772C41.3197 119.287 43.3963 124.559 45.7923 127.435C48.1883 130.311 48.5077 129.991 49.7856 129.672C51.0634 129.352 48.6675 126.796 46.7507 120.885C44.8339 114.974 45.4727 112.577 45.4727 109.062C45.4727 105.548 45.3132 106.027 44.3545 106.826C43.3962 107.624 42.7572 104.589 40.521 100.595C39.5628 97.0801 41 96.1216 39.7223 94.6837C39.4028 94.3243 39.0859 94.2768 38.7639 94.3642ZM56.8138 114.015C56.3194 114.21 56.734 114.974 57.4527 115.932C58.4111 117.21 57.4527 117.69 56.654 117.051C55.8554 116.411 53.7789 116.731 55.536 118.488C57.2931 120.246 57.6126 119.287 60.6475 120.565C63.6827 121.843 63.2032 123.281 64.1615 122.642C65.1199 122.003 63.3629 120.086 59.6891 117.21C58.8904 116.411 59.2099 114.335 57.6125 114.015C57.2132 113.935 56.9785 113.95 56.8138 114.015ZM41.3196 124.08C40.8253 124.148 41.2399 125.278 41.9585 127.435C42.917 130.311 42.917 130.151 42.917 131.589C42.917 133.027 43.2365 133.986 44.3545 132.867C45.4727 131.749 45.7922 133.986 47.8687 135.903C49.9452 137.82 50.1051 138.139 50.744 137.66C51.383 137.181 50.265 136.062 47.5493 134.145C44.8339 132.228 44.1949 129.991 43.3963 127.275C43.2368 125.358 43.7157 125.199 42.1183 124.4C41.719 124.2 41.4843 124.058 41.3196 124.08ZM62.2448 140.536C61.7658 140.596 61.3663 141.694 61.6059 142.293C61.9255 143.092 59.8488 143.891 61.6059 144.53C63.2033 144.849 63.8421 145.489 63.3629 143.891C62.8838 142.293 63.3629 141.974 62.724 140.855C62.5645 140.576 62.4044 140.516 62.2448 140.536ZM63.2033 150.281C62.9768 150.418 63.3428 151 64.4811 152.199C67.516 153.956 71.5094 155.235 67.8355 152.678C65.5393 151.08 63.5807 150.054 63.2033 150.281ZM65.4395 155.234C65.4293 155.392 65.9389 155.993 66.8771 157.311C70.6308 162.583 74.3047 164.58 75.8221 167.057C77.3396 169.533 77.4195 168.814 77.739 169.613C81.972 174.006 83.9684 174.965 88.441 177.601C92.9135 180.237 97.7855 183.273 93.5525 179.838C89.3196 176.403 87.0834 175.684 85.5659 173.767C84.0484 171.85 84.1283 172.489 81.5726 170.092C79.0168 167.696 78.2979 167.616 76.1415 165.299C73.9851 162.983 76.4611 163.542 72.308 160.666C69.1932 158.509 65.4657 154.762 65.4395 155.234ZM75.8221 156.512C75.5926 156.732 76.3813 157.83 79.1766 160.666C81.7323 163.382 85.3263 165.459 88.9203 168.974C92.5143 172.489 96.5875 172.728 95.1499 171.69C93.7123 170.651 89.2397 166.258 87.0034 164.66C84.7672 163.063 80.5343 159.468 78.3779 157.79C77.2997 156.952 76.0517 156.293 75.8221 156.512ZM132.368 198.69C131.409 198.69 131.01 199.01 131.569 199.968C132.128 200.927 132.687 200.927 133.646 200.767C135.243 201.646 135.003 201.486 136.361 202.045C137.719 202.604 139.636 203.962 140.195 203.483C140.754 203.004 139.955 202.444 138.757 201.086C137.559 199.729 137.639 199.649 135.882 199.169C134.125 198.69 133.326 198.69 132.368 198.69ZM142.591 199.01C141.902 199.01 141.832 199.169 142.112 199.808C142.671 201.086 142.99 201.406 142.431 201.885C141.872 202.364 142.271 202.844 142.431 203.163C142.591 203.483 141.712 203.642 141.473 203.323C141.233 203.003 140.594 203.482 142.112 204.281C143.629 205.08 142.83 203.563 144.188 204.761C145.546 205.959 148.102 206.917 152.654 206.518C161.759 205.4 162.877 204.84 163.516 203.003C164.155 201.166 163.596 201.406 159.842 200.287C156.088 199.169 149.779 199.009 146.265 199.169C144.508 199.249 143.28 199.01 142.591 199.01ZM148.341 208.595C147.462 208.755 146.904 209.314 147.063 209.714C147.223 210.113 148.421 209.873 149.299 210.832C150.178 211.791 150.418 211.551 149.299 211.95C148.181 212.35 148.022 211.152 147.063 210.513C146.105 209.873 144.827 210.353 144.028 210.672C143.23 210.992 142.191 211.711 141.473 211.471C140.754 211.231 139.955 211.711 140.674 212.11C141.393 212.509 142.191 212.509 143.389 213.228C144.587 213.947 144.907 213.468 145.466 213.548C146.025 213.628 147.063 214.107 151.057 214.666C155.05 215.225 154.012 215.545 156.168 215.145C158.324 214.745 158.884 214.107 162.717 214.506C166.551 214.905 174.457 214.027 177.093 213.228C179.729 212.429 178.371 212.11 176.614 212.11C174.857 212.11 172.701 212.269 168.627 211.95C164.554 211.631 163.915 212.349 157.286 212.749C155.689 212.669 156.248 212.429 155.05 211.95C153.852 211.471 156.088 211.311 154.731 210.992C153.373 210.672 153.852 210.113 153.612 209.554C153.373 208.994 152.335 209.633 151.536 209.554C150.737 209.474 150.098 209.713 149.3 209.554C148.501 209.394 149.22 208.436 148.341 208.595ZM171.183 218.341C170.731 218.341 171.023 220.897 171.023 220.897C171.023 220.897 173.416 222.062 175.336 222.175C177.256 222.288 179.225 221.357 180.128 221.696C181.032 222.035 185.069 223.462 186.198 224.252C187.328 225.043 189.043 224.42 190.511 225.211C191.979 226.002 189.69 226.318 191.949 227.448C194.208 228.577 205.074 231.142 205.526 230.803C205.978 230.464 203.609 228.087 203.609 228.087L207.762 230.643C207.762 230.643 208.238 228.761 210.158 230.004C212.078 231.247 213.471 232.529 216.068 233.998C218.666 235.467 220.86 236.075 220.86 236.075C220.86 236.075 222.769 236.854 221.979 237.193C221.188 237.532 221.364 238.179 223.736 238.631C226.107 239.083 227.324 239.656 227.889 239.43C228.453 239.204 229.825 239.532 229.486 240.548C229.147 241.565 227.901 242.209 231.403 243.903C234.904 245.598 239.414 247.528 241.785 249.335C244.157 251.143 245.3 251.732 245.3 251.732L244.501 249.495L241.785 247.258L240.188 246.459L240.507 244.862L239.549 241.986L239.389 241.187C239.389 241.187 238.878 241.003 238.271 240.708C237.735 240.44 237.173 240.145 236.834 239.75C236.495 239.354 236.103 238.948 235.716 238.631C235.328 238.314 234.946 238.086 234.438 238.312C233.54 238.71 231.493 239.538 230.924 239.75C230.848 239.775 230.445 239.909 230.445 239.909C230.445 239.909 229.704 239.464 229.007 238.951C228.971 238.925 228.882 238.976 228.847 238.951C228.587 238.747 228.388 238.581 228.208 238.312C227.869 237.803 227.501 237.302 227.25 237.033C227.125 236.899 227.054 236.767 226.931 236.714C226.808 236.652 226.745 236.673 226.611 236.714C226.075 236.883 226.142 237.411 225.493 236.394C224.843 235.378 224.602 235.68 223.896 235.596C223.542 235.555 223.235 235.499 223.097 235.436C222.95 235.373 222.956 235.3 223.097 235.116C223.379 234.749 223.681 234.121 223.256 233.838C222.833 233.556 222.167 233.595 221.659 233.199C221.151 232.804 220.656 232.119 219.583 231.921C219.046 231.822 218.691 231.916 218.464 231.921C218.353 231.925 218.224 231.829 218.145 231.762C218.064 231.694 218.063 231.647 217.985 231.442C217.675 230.623 217.846 230.354 217.027 230.324C216.208 230.293 216.128 229.187 214.631 229.046C213.134 228.907 212.554 229.253 212.554 228.886C212.554 228.519 212.843 227.777 212.874 227.608C212.905 227.438 212.47 227.185 212.075 227.129C211.68 227.072 211.023 226.284 210.797 225.691C210.571 225.098 210.62 224.592 210.478 224.253C210.337 223.914 209.023 222.797 208.401 222.656C208.293 222.63 208.179 222.749 208.082 222.815C207.682 223.182 207.326 224.168 207.283 224.253C207.226 224.366 206.57 223.952 206.005 223.614C205.441 223.275 204.222 222.918 203.29 222.975C202.358 223.032 202.012 222.975 202.012 222.975L201.054 224.413L200.575 225.211C202.608 226.002 202.34 226.575 203.13 226.01C203.328 225.869 203.285 225.744 203.29 225.691C203.219 225.776 203.249 226.141 203.929 226.649C205.284 227.666 203.153 227.253 200.894 226.01C198.635 224.768 195.003 224.225 194.664 223.774C194.325 223.322 195.143 224.732 195.143 224.732C195.143 224.732 192.466 224.404 191.789 223.614C191.111 222.823 192.738 222.479 187.316 220.898C181.895 219.316 179.457 219.686 176.295 219.46C173.132 219.234 171.635 218.341 171.183 218.341ZM133.965 219.939C133.126 219.998 131.889 220.178 130.291 220.258C127.097 220.418 125.499 221.217 126.298 222.016C127.097 222.814 128.694 222.814 127.895 223.933C127.097 225.051 127.256 224.412 130.451 224.092C134.764 222.654 135.722 221.856 135.403 220.577C135.243 219.938 134.804 219.879 133.965 219.939ZM169.426 223.134C168.388 223.244 167.709 223.453 167.03 223.613C165.672 223.932 165.752 225.37 162.238 224.412C158.724 223.453 157.845 223.134 156.008 223.293C154.171 223.453 153.213 224.172 155.369 224.412C157.526 224.652 157.765 224.652 156.647 225.211C155.529 225.77 155.609 226.409 154.89 226.808C154.172 227.207 154.571 227.927 155.529 228.246C156.488 228.566 155.849 226.808 157.925 227.767C160.002 228.726 158.724 227.847 159.682 228.246C162.637 228.166 163.676 229.364 166.551 227.927C169.426 226.489 169.666 226.249 173.579 226.329C177.493 226.409 179.569 226.169 179.968 225.53C180.368 224.891 178.77 225.85 178.052 224.891C177.333 223.932 177.492 223.373 173.739 223.134C171.862 223.013 170.464 223.024 169.426 223.134ZM189.233 231.921C189.142 231.901 189.073 232.1 188.754 232.24C187.476 232.8 185.24 233.758 187.157 233.998C189.073 234.238 190.91 234.317 192.268 234.797C193.626 235.276 195.063 235.436 195.942 235.755C203.849 236.794 204.967 236.714 205.845 236.714C206.724 236.714 207.602 236.394 205.366 235.596C203.13 234.797 200.015 234.078 196.741 233.838C193.466 233.598 191.869 232.72 190.351 232.72C189.213 232.72 189.506 231.977 189.233 231.921ZM210.318 232.88C210.208 233.089 210.717 233.718 211.915 234.637C213.752 235.276 214.311 235.915 214.311 235.116C214.311 234.317 213.912 233.998 212.075 233.199C211.156 232.799 210.427 232.67 210.318 232.88ZM165.273 235.436C164.175 235.351 163.278 235.576 163.196 236.394C163.037 237.992 161.918 237.033 164.953 238.791C168.148 238.791 171.023 236.394 168.787 236.075C167.669 235.915 166.371 235.521 165.273 235.436Z"/>
</svg>
