<svg width="278" height="158" viewBox="0 0 278 158" xmlns="http://www.w3.org/2000/svg">
<path d="M84.9224 5.18544C83.9635 7.58318 92.5906 9.49831 90.6728 10.937C84.9193 15.7325 76.779 16.2074 71.0255 19.5642C70.0666 20.0438 71.0261 22.4398 70.0671 22.9193C66.2314 24.8375 60.9639 21.9595 58.0871 24.3571C55.6898 26.2754 56.6509 30.1076 54.2536 32.0258C53.2946 32.985 52.3374 29.6291 50.899 30.1086C46.5838 31.0678 45.9488 36.8177 43.0721 38.7359C41.6337 40.1746 38.7601 37.7773 37.3217 39.2149C35.8834 40.174 37.3225 43.0485 35.8841 44.4871C33.9663 46.8848 28.697 42.5699 27.2586 42.5699C15.2721 44.4882 13.3639 53.5896 9.5282 61.2623C8.56926 63.1805 8.57075 56.4702 6.65292 55.0315C5.32342 53.2585 3.59625 50.2327 1.86093 51.5167C0.391099 52.6043 3.31179 53.9106 2.02038 54.712C1.61087 54.9661 1.15914 55.1496 0.902344 55.3511C1.08537 55.8592 1.27504 56.3953 2.49967 57.2682C3.72405 58.1411 5.54423 58.919 5.3748 60.783C5.30885 61.5124 5.37716 62.5785 5.3748 63.6588C7.83829 67.1407 10.9334 70.5638 14.3199 72.7654C15.2788 73.2449 18.6325 73.8822 19.112 76.7595C20.5504 83.4732 14.3204 81.0702 13.3615 86.3453C19.4069 91.1522 19.6501 93.9757 24.8623 106.795C26.9791 106.947 28.5935 107.306 29.9738 109.99C30.3174 110.658 28.5627 111.65 29.3349 112.227C32.3172 114.453 36.5708 110.997 40.1967 114.623C43.5528 117.98 44.0284 123.249 47.3847 126.126C54.0971 130.922 71.0234 137.145 74.3797 146.736H74.8588C82.5301 150.572 88.271 160.638 98.3396 156.801C100.257 156.322 99.7761 152.487 101.694 152.487C105.05 152.487 108.401 156.802 111.757 155.843L115.591 143.381C117.509 141.942 120.861 145.3 121.82 143.86C122.779 142.901 121.821 129.003 122.299 128.043C123.738 126.605 126.611 127.564 128.529 128.522C129.488 129.002 128.529 131.398 129.488 131.877C131.885 131.877 133.799 129.002 136.196 129.002C150.1 129.002 161.108 139.545 174.053 140.984C175.971 140.984 178.365 141.944 180.283 141.463C183.159 140.024 184.115 136.191 186.512 135.232C189.868 134.273 194.657 140.504 197.055 140.984C198.493 140.984 200.408 138.107 201.847 139.067C204.244 140.985 205.201 142.9 205.201 144.818C212.393 116.525 228.195 140.514 242.579 122.291C243.538 120.853 242.1 118.458 243.058 117.019C244.496 115.101 247.849 116.062 249.287 114.143C249.287 114.143 253.121 99.2857 253.121 98.8061C257.436 91.1334 268.93 84.9087 277.081 81.0723C275.163 78.6745 276.603 74.2037 274.685 71.806C272.767 69.8878 268.936 71.3275 267.018 69.8888C266.538 69.4093 262.226 57.9067 261.747 57.4272C259.349 55.509 255.039 56.9487 252.163 55.9893C249.765 55.5098 244.496 54.0729 242.579 52.6343C241.62 52.1548 241.621 50.2376 240.662 50.7171C232.511 54.074 248.337 55.03 234.432 56.4686C233.473 56.4686 232.037 55.9896 231.078 55.0308C229.639 53.5921 230.12 51.1972 228.682 49.7585C226.764 48.3199 220.055 47.8421 221.973 46.4035C228.206 40.6488 232.039 47.8476 226.286 36.3384C226.286 35.8588 225.328 35.8588 224.848 36.3384C224.369 37.2975 224.849 39.2139 223.89 39.6934C221.972 40.6525 219.578 39.6934 217.66 39.6934C215.742 39.6934 213.348 40.6531 211.431 40.1725C207.115 38.7339 198.975 31.5447 191.783 32.5039C188.906 32.9834 199.451 43.527 198.971 44.4862C197.533 47.3635 192.743 46.4024 190.346 48.3205C188.907 49.7592 189.388 53.1129 187.471 54.072C180.279 56.9494 177.408 44.4872 175.97 42.569L164.948 35.8589C163.989 29.6247 182.206 27.2349 169.261 21.0008C166.863 19.5621 156.322 25.3145 156.322 25.3145C154.884 23.8758 156.323 21.4809 154.885 20.0423C154.405 19.0832 152.969 20.0427 151.53 20.5212C151.051 20.5212 150.573 21.9594 149.614 21.4798C148.655 20.0412 149.136 17.6463 147.218 16.2076C140.985 12.3711 134.763 16.6903 127.091 10.4561C121.817 6.61966 129.013 2.78798 120.383 1.82884C106.958 -0.568851 123.864 13.7702 109.002 11.6543C108.043 13.5725 107.924 15.249 106.486 15.249C105.66 15.4397 104.713 15.0757 103.77 14.4502C101.993 14.1752 100.107 13.6918 100.702 11.427C101.297 9.16225 101.875 7.24502 100.096 8.2194C99.5034 8.54404 98.9774 9.12257 98.499 9.01822C98.0205 8.91393 97.8574 8.28866 98.2352 6.49414C98.6135 4.69962 98.5619 4.33021 94.6652 3.42648C94.2628 3.33292 93.9405 3.31151 93.547 3.26703C93.2776 3.00118 93.0547 2.5634 92.6288 2.57399C92.2029 2.58421 91.9131 3.18621 90.8826 3.24362C89.8522 3.30088 89.1406 1.53685 87.8384 1.09867C86.5361 0.660528 85.7464 2.8626 84.9224 5.18544Z"/>
</svg>
