<svg width="202" height="143" viewBox="0 0 202 143" xmlns="http://www.w3.org/2000/svg">
<path d="M183.22 1.01587C182.741 2.93406 181.783 4.84924 178.427 6.76738C174.112 9.64472 129.063 10.1229 121.391 9.16384C119.953 9.16384 118.996 6.76707 117.078 7.24667C107.968 9.16486 128.586 14.4371 113.243 12.5189C110.846 12.0393 110.369 6.76707 107.971 7.24667C106.053 7.72622 109.41 11.5592 108.45 13.4775C108.228 13.9223 107.944 14.3165 107.651 14.7556C106.711 14.3895 105.875 13.7778 104.776 12.6787C102.219 10.1224 102.859 14.5958 105.095 16.8325C105.271 17.0084 105.412 17.151 105.574 17.3116C104.205 18.6997 102.654 19.8899 101.101 20.6666C100.373 21.0306 99.6124 21.3292 98.8643 21.6252C96.321 21.0666 95.6836 21.8118 93.9116 21.3057C93.1572 21.0899 92.9487 22.019 93.2725 23.0631C90.7987 23.4317 88.2915 23.5227 85.7636 23.0631C83.8458 22.5835 82.4091 18.7489 80.9707 19.708C78.6886 21.0775 83.6609 25.8615 82.089 26.7377L83.3671 28.4951C82.5106 29.8908 78.9859 29.4383 76.018 29.9329C72.1836 30.572 68.9884 30.2525 68.6688 32.4892C68.3493 34.7259 65.4735 38.5602 61.9587 37.6016C58.4439 36.643 59.722 40.7969 62.5978 43.0336C65.4735 45.2703 54.2901 44.9508 52.0534 47.507C49.8167 50.0632 41.8285 50.7023 44.0652 53.578C46.3019 56.4538 47.58 58.371 45.0237 60.2881C42.4675 62.2053 44.7042 67.6373 46.3019 66.0396C47.8995 64.442 53.651 65.081 51.0948 66.6787C48.5386 68.2763 46.3019 69.874 48.219 74.6669C50.1362 79.4598 48.8581 80.4184 52.6924 78.1817C56.5268 75.945 60.3611 78.1817 56.5268 79.7793C52.6924 81.377 50.4557 82.6551 53.3315 87.1285C56.2072 91.6019 58.4439 92.88 59.722 97.0339C61.0002 101.188 62.9173 103.105 68.0298 103.424C73.1422 103.744 74.1008 107.259 76.9766 107.259C79.8523 107.259 81.7695 103.424 81.1304 99.2706C80.604 95.8488 85.5156 93.3813 89.7577 96.8741C90.1815 97.3036 90.5704 97.7578 91.0358 98.312C91.9948 99.7506 88.6393 101.187 88.6393 103.105C88.6393 106.941 90.5565 110.772 90.5565 114.608C90.5565 124.199 86.7218 118.917 87.6808 127.549L88.6393 128.028C92.4751 127.069 107.49 113.172 111.805 109.815C114.682 107.896 119.954 117.007 118.515 110.773C118.515 110.294 118.036 110.294 118.036 109.815C118.036 108.856 117.077 107.418 118.036 107.418C122.351 107.418 127.621 114.607 130.498 115.566C131.936 116.046 133.373 113.17 134.811 113.17C136.25 113.649 135.769 116.525 137.208 117.004C140.085 117.963 142.958 115.086 145.835 116.045C147.273 116.525 145.356 119.4 146.314 120.359C148.232 123.236 163.568 133.3 166.924 132.821C167.403 132.821 176.51 122.756 176.51 122.756C178.4 122.283 192.422 127.46 193.285 125.312C193.3 125.271 193.27 125.197 193.285 125.152C194.081 122.651 190.913 116.181 192.326 114.768C193.285 113.809 195.681 113.81 196.161 112.371C196.64 111.412 194.723 110.934 194.723 109.495C194.243 108.536 194.243 107.1 194.723 106.14C195.442 105.541 196.073 105.192 196.64 104.862C197.053 104.989 198.306 105.287 198.397 105.341C199.132 105.793 199.524 105.295 200.314 105.182C200.908 105.097 200.685 104.305 200.793 103.744C200.829 103.557 200.986 103.406 201.113 103.265C201.621 102.7 200.766 101.499 200.314 100.709C199.862 99.9176 199.065 99.6839 198.557 99.9099C198.049 100.135 196.979 100.202 196.64 99.7503C196.301 99.2984 195.87 99.5259 195.361 98.7917C194.853 98.0574 195.24 96.2372 194.563 95.2769C193.885 94.3167 193.183 95.7759 192.166 95.4365C191.15 95.0975 191.321 92.1767 191.208 91.4424C191.095 90.7081 184.657 83.6624 184.657 82.8151C184.657 81.9678 184.404 80.1767 184.178 78.821C183.952 77.4654 184.338 75.4579 184.338 74.6671C184.338 73.8763 172.468 49.8021 172.355 48.7853C172.242 47.7686 176.929 39.7967 178.906 36.803H179.385C180.368 35.5457 181.327 34.3412 181.781 33.1285L182.26 22.4243C182.306 22.2985 182.381 22.2407 182.42 22.1047C182.872 20.5796 182.28 19.3904 181.941 18.4302C181.602 17.4699 183.34 16.0626 184.018 15.5544C184.696 15.0462 187.258 13.6567 188.331 13.3177C189.405 12.9788 190.089 9.43025 190.089 7.5662C190.089 6.86717 189.489 6.31518 188.811 5.80879C188.999 4.93022 187.672 3.79904 183.22 1.01587ZM70.906 20.9864C70.2669 27.6965 74.4208 24.8207 74.4208 24.8207L70.906 20.9864ZM41.0301 63.9629C39.7854 67.1366 32.2945 62.5466 34.4798 67.7973C36.4896 70.9068 44.7394 69.4153 41.9887 65.0813C41.7331 64.6616 41.4108 64.2747 41.0301 63.9629ZM17.385 65.8801C17.0384 65.8494 16.6812 65.9982 16.2667 66.1996C15.7256 67.8602 16.1527 71.2654 13.3909 70.673C14.4863 72.7555 13.7713 74.8004 12.4323 75.7855C12.3863 79.376 7.40306 75.5253 5.40271 77.8624C3.5226 78.5834 -0.740262 79.129 2.68672 81.2175C6.33701 83.4509 9.72007 79.258 13.2311 80.8979C15.9014 82.5576 17.3948 85.9774 16.9057 89.0459C19.2636 93.3433 25.5729 89.5966 25.0537 85.3713C25.9113 83.0124 28.2381 86.0463 28.5685 83.1346C29.3147 80.0121 32.2298 77.9506 34.7993 78.1819C35.4169 74.1055 30.8018 73.1007 28.4087 71.1523C25.7772 68.421 20.7828 72.3363 19.462 68.1168C19.124 67.0167 18.4248 65.9654 17.385 65.8801ZM40.8703 87.1287C39.3667 89.6802 37.4999 93.7583 41.9887 94.3181C44.4728 95.8168 50.1137 97.2628 49.8171 92.7205C49.2026 88.4583 44.1595 88.0739 40.8703 87.1287ZM32.5626 92.4009C30.1594 92.6755 29.6369 96.6337 26.9709 95.756C24.7803 98.2574 22.3773 91.9286 21.2194 96.2351C20.4934 99.6955 14.4536 97.7944 14.669 101.827C17.3247 103.529 12.7864 107.127 13.2311 103.584C11.3858 100.792 8.97958 106.444 9.8761 108.377C10.3449 110.913 7.90714 110.754 7.47964 108.537C6.32566 106.222 3.32332 105.193 2.52695 107.738C-2.12916 108 4.56764 109.912 5.24294 111.572C6.81742 112.804 7.18737 115.324 5.08349 116.045C6.46165 118.653 1.30283 115.692 3.80538 118.282C3.8836 119.204 0.603654 119.546 3.00656 120.998C5.83047 122.58 9.37821 122.036 11.3143 125.152C12.9205 126.534 17.2665 125.121 15.4682 128.667C14.5131 130.291 15.3685 132.759 12.9119 131.862C11.2001 134.002 10.7134 137.824 10.9948 140.33C12.6783 144.732 16.1325 139.838 16.7463 137.454C17.1133 133.004 17.6202 128.502 17.5451 124.034C18.2158 120.961 22.055 120.548 24.415 119.401C26.4246 118.92 29.4512 116.667 31.4446 119.241C34.4609 118.984 29.7803 113.64 33.6813 115.247C36.9277 113.474 38.155 109.011 40.8707 106.14C42.7087 104.141 44.2142 99.1882 47.2612 102.306C48.3495 101.428 46.4631 100.038 48.6991 100.389C50.7173 97.2213 44.3858 97.903 42.9476 95.9155C40.2459 94.103 36.9503 92.7228 33.6813 92.5605C33.2508 92.4224 32.9059 92.3616 32.5626 92.4009ZM3.00625 113.49C0.64235 113.679 0.702574 116.093 3.00625 114.608C3.61734 114.408 4.11202 113.323 3.00625 113.49ZM75.6989 113.649C73.1427 113.649 73.1427 117.484 74.7403 117.484C76.338 117.484 75.6989 113.649 75.6989 113.649ZM25.6928 122.277C22.9114 122.782 27.0594 127.863 26.3318 123.555C26.274 123.069 26.1115 122.581 25.6928 122.277ZM53.0124 139.212C51.8142 139.452 51.5745 139.531 52.3734 140.49C53.1722 141.448 53.0124 141.688 54.1308 141.768C55.2491 141.848 54.6098 139.691 53.0124 139.212Z"/>
</svg>
