<svg width="365" height="667" viewBox="0 0 365 667" xmlns="http://www.w3.org/2000/svg">
<path d="M137.643 0.908149V1.86673C128.054 3.78487 129.98 14.8063 121.829 17.2041C114.637 19.1223 117.521 9.05116 109.37 18.1627C108.411 19.6013 109.369 21.9959 108.891 23.9142C108.412 24.3937 103.141 34.4583 103.141 34.9379C101.702 38.7743 104.578 51.232 105.057 54.5889C105.057 56.0275 104.099 56.9846 104.099 58.4232C104.099 61.3004 104.578 63.6937 105.057 66.5711C106.496 70.4075 109.849 73.2791 110.329 77.1156C112.726 93.8998 108.415 82.385 102.661 87.66C95.949 94.3737 102.183 96.2829 100.265 104.435C99.7859 106.353 97.8698 107.31 97.3903 109.228C97.3903 109.708 91.1613 103.956 90.2023 103.477C88.764 102.518 71.035 96.2862 69.5967 98.2044C67.6788 100.123 69.1182 103.955 67.6799 105.873C61.9264 115.944 54.2667 109.707 46.1158 111.145C43.7186 111.145 41.3248 112.583 39.407 112.104L37.4903 110.666C36.5314 108.748 36.5324 105.874 35.5734 103.956C32.2172 98.2012 21.2006 83.3481 15.4471 79.9913C2.98111 72.798 2.50814 82.8629 3.46708 90.5357L0.591797 100.601H1.07093L0.591797 101.08L2.50865 103.476C2.02911 104.435 0.111426 104.913 2.50865 106.352C10.6595 112.586 24.5472 124.084 33.1774 127.92C43.2461 132.236 51.382 128.554 60.4918 137.666C62.4096 139.104 60.9698 143.417 62.8878 144.376C64.3261 144.855 65.2833 142.458 66.2422 142.938C70.0779 144.377 71.5119 149.167 74.3886 152.045C75.3476 153.004 78.2225 153.002 77.7431 154.441C72.469 164.512 78.2216 164.979 79.6599 176.488C80.1395 178.407 78.2222 180.322 78.2222 182.24L77.7432 182.719C77.7432 187.515 84.9302 183.676 86.8481 185.595C93.081 190.39 83.0129 197.095 85.8896 201.891C88.7664 208.604 100.265 214.827 101.224 222.5C101.704 228.255 97.3902 246.464 97.8696 248.861C102.185 264.207 113.84 271.701 119.593 284.169C122.98 285.896 123.983 282.206 127.42 284.01C128.856 287.622 129.974 290.239 133.331 292.157C135.304 291.138 137.002 291.198 140.359 292.157C141.797 292.157 143.553 293.595 144.512 294.554C147.389 295.993 147.386 290.239 150.262 295.033C155.536 306.063 152.178 314.522 154.096 319.317C155.534 323.633 157.566 320.964 162.881 329.222C161.542 332.348 158.913 330.011 156.013 331.459C156.144 332.137 156.499 332.633 157.77 333.057C161.158 334.186 161.482 335.777 160.805 338.489C160.147 341.119 156.167 336.802 152.019 333.856C150.173 334.994 148.422 336.217 147.227 338.009C146.268 338.969 147.706 341.364 146.748 342.323C145.789 343.282 143.394 340.884 142.915 341.844C141.476 345.201 140.998 349.511 140.998 353.347C140.998 355.745 140.2 358.298 139.241 360.696C138.761 365.012 135.248 366.765 134.289 370.602C133.33 373.479 133.012 379.068 132.053 381.465C129.656 386.741 125.344 384.657 124.865 391.85C124.839 395.096 127.261 395.364 127.261 397.282C127.215 397.577 127.159 397.806 127.101 398.081C124.646 397.822 122.218 397.63 121.031 397.761C119.519 397.93 120.669 401.458 121.99 405.43C119.389 407.164 116.378 408.435 114.163 411.341C113.683 414.698 109.052 425.88 108.572 426.359C106.654 426.359 104.899 420.607 102.982 422.046C98.6664 425.882 105.699 434.985 101.384 437.862C99.9459 438.821 97.071 435.464 97.5505 437.383C97.5505 439.781 100.106 439.459 101.065 441.857C99.3216 441.007 97.1594 440.827 95.7934 441.058C95.1863 441.16 94.6286 441.255 94.5156 441.537C94.145 442.463 98.7686 445.426 102.822 449.046C103.491 453.68 100.482 449.041 97.0714 453.359C93.1482 454.826 94.3566 459.59 92.4392 459.59C89.5625 459.111 90.8431 455.596 88.4459 455.117C83.9325 457.095 82.9611 458.41 80.1397 458.152C76.7604 470.874 87.6478 461.503 86.6888 469.176C86.6187 469.527 86.3819 469.925 86.2096 470.294C82.2692 469.555 81.2579 467.738 81.2579 467.738L79.9801 469.815L80.2996 477.164C77.2294 480.115 74.1545 483.104 73.9103 485.791C71.2871 513.149 75.1031 492.127 78.5425 499.371C78.7961 503.466 74.8668 505.92 78.7021 508.318C79.1817 508.798 80.1394 506.401 80.6188 506.88C81.5778 508.319 80.1383 511.673 82.0565 512.152C83.0155 512.632 81.0986 507.839 82.5355 507.839C83.9739 507.359 84.4521 509.276 84.9315 510.714C87.8082 518.387 84.4515 530.843 85.8899 533.721C86.8489 535.639 88.6046 536.915 90.043 538.354C91.9609 540.751 92.2784 541.867 93.7168 544.265C94.1964 545.224 94.5153 547.3 94.9948 548.259C95.9538 549.698 98.3487 548.578 99.3076 549.537C99.7872 550.017 97.3908 549.538 97.3908 550.016C96.9112 550.975 97.8698 551.933 98.3492 552.892C100.747 555.769 105.058 558.322 104.579 561.679C104.099 564.556 97.2313 558.803 96.7519 561.679C95.7929 565.515 101.703 570.145 102.662 573.501C103.141 574.94 100.745 576.376 101.224 578.294C101.704 579.253 104.579 579.252 104.579 580.691C104.099 586.925 99.3065 580.209 101.224 585.484C101.704 587.402 104.1 588.838 103.62 590.277C103.141 592.195 98.3494 589.797 97.8699 591.235C97.3904 603.704 102.66 605.132 106.496 610.407C107.454 611.366 102.661 612.323 103.62 613.762C104.1 616.16 105.057 618.075 106.496 619.993C118.399 633.674 108.886 619.515 118.955 617.596C120.873 617.596 117.037 622.868 118.955 624.306C121.831 625.745 125.342 625.105 128.698 625.105C131.575 625.585 132.85 628.62 135.248 628.62C137.645 628.62 138.601 625.744 140.519 625.744C141.478 625.265 140.52 627.182 140.998 627.661C142.364 628.117 143.349 627.795 144.672 627.342C144.185 628.39 143.733 629.577 143.394 630.537C142.038 634.378 141.559 634.812 142.915 635.49C144.27 636.168 142.693 635.51 145.63 633.253C146.26 632.769 146.803 631.932 147.387 631.176C147.341 636.187 143.393 637.367 144.832 637.727C145.525 637.727 150.627 634.058 154.416 631.336C153.286 633.595 152.241 634.746 149.304 635.65C146.367 636.553 145.388 639.534 144.033 637.727C142.677 635.919 140.733 638.183 141.637 640.443C142.089 641.572 143.571 641.824 144.672 641.88C143.32 642.348 142.887 643.992 144.033 644.756C145.388 645.66 143.829 646.128 141.797 646.354C139.764 646.58 141.972 650.375 143.554 650.827C145.135 651.279 150.014 649.28 152.499 647.472C154.984 645.665 156.024 642.834 154.895 640.123C153.765 637.412 153.82 637.772 155.853 633.253C156.48 631.581 156.307 630.581 156.013 630.218C156.667 629.749 158.016 628.776 158.249 628.62C158.728 628.14 159.686 625.745 160.166 625.265C157.768 632.458 151.534 640.6 163.041 644.916C164.959 645.875 168.791 641.56 169.75 643.478C170.709 646.355 163.039 650.667 165.916 651.626C168.793 653.065 168.311 644.916 171.187 644.437C173.585 643.957 171.666 649.229 170.708 651.147C169.27 653.545 166.397 654.501 163.999 656.419C163.3 657.468 161.243 659.581 160.645 660.253C175.508 654.499 169.746 644.919 177.417 640.123C179.814 638.684 173.582 646.353 175.98 647.792C179.336 649.71 183.805 647.314 187.161 645.395C189.558 644.436 190.514 640.603 192.432 639.164C200.956 633.378 208.245 635.331 209.683 633.413C211.122 631.974 206.328 629.579 207.766 628.141C210.164 626.223 213.994 627.662 217.35 627.182C218.309 627.182 220.225 627.662 220.705 626.703C221.664 625.264 219.745 623.349 220.226 622.389C220.257 622.33 220.359 622.415 220.385 622.389C220.633 622.951 221.903 622.829 222.622 623.188C226.038 619.375 227.224 616.545 234.282 614.881C236.795 613.271 232.363 606.732 237.157 607.691C237.411 613.453 249.048 617.013 244.026 604.496C247.588 605.987 254.969 614.965 252.811 606.094C251.852 602.737 242.108 601.622 243.547 597.786C244.506 594.429 246.42 599.542 249.776 600.502C251.694 600.981 255.366 600.982 257.284 600.023C262.078 596.666 254.405 585.802 260.159 589.159C264.954 592.516 255.183 602.869 268.465 594.91C291.479 587.238 272.456 594.115 277.25 586.922C277.73 586.443 278.208 587.881 279.167 587.881C280.126 587.881 281.563 587.881 282.042 586.922C282.522 585.963 280.604 582.609 282.042 582.609C282.522 582.609 286.993 586.763 289.39 585.804C292.746 584.845 298.334 584.527 300.252 582.129C300.732 582.129 300.731 581.65 300.731 581.171L299.773 580.212C302.65 569.182 311.75 557.69 317.503 548.099C332.366 521.724 341.458 491.558 351.526 463.265C359.198 442.644 361.589 437.235 362.548 415.176C363.027 411.819 364.945 407.988 363.506 404.632C359.671 393.602 317.03 377.795 306.002 370.123C304.564 369.163 321.822 342.808 309.836 333.696C305.521 330.34 296.42 333.699 293.543 328.903C281.077 307.324 296.42 317.404 292.585 311.17C286.831 302.538 280.609 309.257 273.417 300.625C267.184 293.432 271.498 292.96 274.854 286.246C276.772 281.93 265.27 281.934 265.27 280.016C265.75 276.659 265.749 259.406 265.749 258.927C255.681 250.295 267.665 255.574 270.541 252.217C272.459 249.339 260.479 232.088 259.041 230.169C250.89 219.14 241.795 206.21 232.205 196.619C230.767 195.18 223.101 189.431 221.663 186.554C214.471 173.126 237.481 138.949 228.372 130.796C225.974 127.919 221.664 127.922 218.788 126.003C213.514 122.167 211.123 115.461 205.849 112.104C205.37 112.104 189.077 109.707 188.598 109.707C185.721 107.31 184.766 103.478 182.848 100.121C172.3 82.8577 184.608 84.3116 179.334 71.8433C176.936 66.0887 167.832 71.3658 169.75 68.0089C172.147 63.6929 175.498 60.8216 178.375 56.9853C163.032 49.792 183.171 38.2986 176.938 27.7484C167.348 10.9642 152.505 17.2114 140.039 3.78386L139.56 1.3874C139.08 1.3874 138.601 1.38713 138.122 1.86642C138.122 1.38687 137.643 1.3877 137.643 0.908149ZM144.032 326.827C142.988 326.714 141.745 326.889 138.921 328.584C138.017 334.91 141.625 332.98 142.754 334.335C143.884 335.691 145.856 335.168 145.63 331.779C145.404 328.39 145.942 329.289 149.783 329.063C153.623 328.837 150.549 326.308 147.387 326.986C145.805 327.325 145.077 326.94 144.032 326.827ZM75.3469 457.194C74.9231 457.081 74.5209 457.522 74.0691 458.312C73.1655 459.894 71.7118 461.437 71.0341 458.951C70.3564 456.466 69.0352 457.58 67.6798 457.354C66.3244 457.128 67.415 458.929 68.3187 461.188C69.2223 463.447 70.4934 463.039 73.4301 463.265C76.3667 461.005 77.1428 462.98 76.4651 459.59C76.1261 457.896 75.7704 457.307 75.3469 457.194ZM145.63 624.786C145.655 624.817 145.76 624.726 145.789 624.786C145.815 624.839 145.764 624.895 145.789 624.946C145.603 625.307 145.5 625.68 145.31 626.064C145.437 625.563 145.517 625 145.63 624.786ZM120.072 626.384C119.62 626.399 119.677 626.928 120.072 627.662C120.863 629.131 119.141 630.066 119.593 630.857C120.045 631.648 121.199 632.342 121.989 632.455C125.039 633.472 127.299 633.924 126.622 632.455C125.944 630.986 123.68 630.689 123.906 629.899C124.132 629.108 126.157 629.853 123.107 627.822C121.583 626.805 120.524 626.37 120.072 626.384ZM132.372 633.094C130.791 632.981 128.846 634.774 129.976 636.129C131.105 637.485 132.36 634.813 133.49 635.49C134.619 636.168 134.839 636.188 137.324 635.171C139.808 634.154 138.358 632.642 132.372 633.094ZM60.3319 640.603C59.6936 640.828 59.0142 641.661 58.4152 643.159C56.8179 647.153 59.693 644.437 62.089 646.514C64.485 648.591 61.45 651.147 59.693 653.224C57.9359 655.301 58.0957 651.627 60.0125 649.55C61.9293 647.473 57.776 647.153 57.6165 648.112C57.457 649.07 55.6998 650.029 53.1441 650.668C50.5883 651.307 50.9078 655.621 52.3454 659.295C53.783 662.97 54.2622 656.899 55.6998 657.218C57.1374 657.538 56.9776 657.059 59.2139 660.094C61.4501 663.13 63.6865 662.011 65.6033 661.372C67.5201 660.733 68.7979 658.976 68.4785 656.899C68.1589 654.822 65.763 654.502 63.6865 653.224C61.6099 651.946 67.2006 654.183 65.2838 651.627C63.367 649.07 66.402 648.272 66.402 650.029C66.402 651.786 68.1589 651.147 68.9576 653.704C69.7563 656.26 70.5549 654.982 72.9509 652.266C75.3469 649.55 73.43 647.153 70.5549 645.396C67.6797 643.638 67.2007 643.958 63.2073 642.999C62.4087 641.402 61.3957 640.227 60.3319 640.603ZM162.881 649.07C162.005 649.055 160.564 649.37 158.249 649.709L158.887 653.704C159.96 654.72 160.433 654.621 160.645 654.183C160.75 653.964 160.792 653.589 160.804 653.224C160.814 652.858 160.804 652.473 160.804 652.106C160.804 651.739 160.876 651.611 160.964 651.467C161.228 651.032 161.854 651.492 163.04 652.425C164.621 653.668 164.111 653.426 163.999 650.827C163.942 649.528 163.756 649.084 162.881 649.07ZM69.916 659.615C68.8678 660.042 68.6781 661.492 70.2356 663.289C72.6316 666.005 75.8261 667.442 74.5482 663.13C73.2704 658.816 73.2705 659.935 71.194 659.615C70.6749 659.535 70.2655 659.473 69.916 659.615Z"/>
</svg>
