<svg width="618" height="629" viewBox="0 0 618 629" xmlns="http://www.w3.org/2000/svg">
<path d="M342.294 1.005C337.02 1.96397 331.277 2.43871 325.523 2.91825C321.208 3.39783 305.389 4.35821 303.471 10.1128C302.512 12.5108 298.678 35.5143 298.678 38.8713C298.678 40.3099 301.08 40.3038 301.08 41.2628C301.08 42.222 299.159 40.3038 298.2 41.2628C297.241 42.222 296.764 44.6174 297.243 46.0559C297.565 47.9875 299.918 49.3448 301.08 50.849C297.859 49.6767 296.494 50.1713 293.566 55.8015C293.374 56.1704 293.356 56.4511 293.247 56.7681C292.833 56.8966 292.325 56.9094 291.972 57.0869C288.616 59.0052 286.22 61.8862 282.864 63.3249C274.234 68.1205 242.13 69.0745 237.335 76.7475C231.99 85.9116 233.817 89.863 237.494 91.5951L240.205 92.0734C237.07 92.677 234.868 93.0833 233.18 94.4649C229.665 97.3406 221.99 100.54 216.877 97.3448C211.765 94.1495 207.61 92.5523 202.498 92.2328C197.386 91.9134 185.892 86.4766 183.336 89.6719C180.779 92.8673 181.093 89.6764 181.412 87.4397C181.732 85.203 176.94 83.2817 175.982 79.7668C175.023 76.2523 180.778 76.2585 179.18 71.785C177.583 67.3118 170.545 69.5491 168.628 71.4662C166.71 73.3833 162.557 71.1406 158.723 69.5429C154.888 67.9453 150.416 66.0254 148.499 66.0254C146.581 66.0254 148.822 68.9026 151.379 70.1807C153.935 71.4587 153.933 74.9803 152.016 76.5781C150.099 78.1757 152.973 77.5361 152.973 81.69C152.973 85.8439 155.21 85.5174 157.766 89.9907C160.322 94.4642 159.045 95.4269 161.921 97.6636C164.797 99.9004 161.284 97.9784 160.965 104.689C160.645 111.399 163.838 107.245 161.921 114.275C160.004 121.305 159.052 127.694 163.844 129.292C168.637 130.89 168.952 132.81 161.602 132.491C154.253 132.171 146.263 135.052 148.18 129.94C150.097 124.827 147.868 124.186 144.353 126.103C140.839 128.02 140.198 128.335 140.198 128.335C140.198 128.335 137.003 126.737 135.405 128.654C133.807 130.571 130.609 131.212 131.887 128.016C133.165 124.821 131.252 122.909 125.181 125.465C119.11 128.022 112.077 132.81 112.077 132.81L106.328 127.379L106.646 122.904L101.535 118.111L103.129 115.879C103.129 115.879 97.0564 118.108 98.9736 114.913C100.891 111.717 102.172 109.482 102.172 109.482C102.172 109.482 100.251 108.522 99.2925 110.12C98.3339 111.717 97.0604 112.043 97.0604 112.043C97.0604 112.043 98.9801 108.204 95.7849 109.163C92.5895 110.121 90.9918 111.405 90.9918 111.405C90.9918 111.405 91.943 107.248 89.7063 108.206C87.4696 109.165 84.9205 112.676 81.4056 110.12C77.8908 107.563 77.5692 108.844 77.5692 108.844L73.7327 110.12C73.7327 110.12 73.4093 113.955 75.646 114.275C77.8827 114.594 72.7742 113.96 73.7327 116.836C74.6914 119.712 71.1743 115.553 65.1032 114.275C59.0323 112.997 62.8711 119.068 62.8711 119.068C62.8711 119.068 60.6343 119.388 58.078 113.637C55.5219 107.886 55.5189 112.998 49.7674 113.637C44.0163 114.276 42.7362 117.789 40.819 114.594C38.9018 111.399 29.3194 116.835 24.5265 117.474C19.7337 118.113 20.0503 125.141 21.009 128.016C21.9675 130.892 26.4407 131.537 30.914 129.94C35.3874 128.342 42.7422 127.698 42.7422 127.698C42.7422 127.698 33.4716 129.617 35.0693 131.534C36.2675 132.972 39.654 132.601 41.6162 132.331C41.232 132.528 41.3443 132.927 42.7422 133.766C45.9374 135.683 41.1377 136.969 36.3448 134.733C31.5518 132.496 32.515 130.253 29.3196 132.81C26.1243 135.366 31.8732 133.769 30.5951 137.284C29.317 140.799 31.2376 139.838 33.7938 138.24C36.35 136.643 37.3054 140.162 40.1812 140.801C43.0569 141.44 45.2982 147.83 37.9491 145.913C30.6 143.996 22.9241 143.995 21.9656 146.551C21.007 149.107 34.7491 149.43 35.3882 154.862C36.0272 160.294 39.2205 159.011 36.3448 161.887C33.469 164.763 39.226 166.043 43.3799 165.723C47.5338 165.404 44.3411 159.331 47.2164 161.887C50.0922 164.443 52.9648 164.761 53.6038 162.525C54.2428 160.288 54.5607 164.441 59.3535 167.955C64.1465 171.47 66.0626 170.513 69.5774 172.111C73.0922 173.708 72.7709 176.903 75.3271 177.223C77.7568 177.526 77.9637 175.851 80.4391 174.034C79.5204 175.032 78.5239 176.751 79.4824 178.508C81.3996 182.023 86.1987 179.78 86.1987 176.904C86.1987 174.028 91.6282 175.951 87.4742 179.146C83.3204 182.341 85.8712 179.783 85.2321 185.214C84.5931 190.647 87.4742 192.566 87.4742 188.732C87.4742 184.898 89.3908 188.727 92.5862 186.809C95.7815 184.892 95.4621 184.254 97.3792 186.171C99.2964 188.088 101.849 185.211 103.767 187.128C105.684 189.045 103.766 192.244 98.9736 190.326C94.1806 188.409 97.0571 189.691 98.6547 193.206C100.252 196.721 105.362 191.289 109.516 193.206C113.67 195.123 115.271 195.443 113.034 197.999C110.797 200.556 118.466 200.229 113.034 201.507C107.602 202.785 110.155 201.508 109.835 205.662C109.516 209.816 111.113 209.177 114.947 210.774C118.781 212.372 119.106 213.33 122.301 211.093C125.496 208.856 129.654 206.618 135.086 211.731C140.518 216.843 140.512 218.766 142.749 218.766C144.986 218.766 140.509 221.318 134.438 215.886C128.367 210.454 125.174 210.457 123.896 214.611C122.618 218.765 124.542 219.404 120.388 219.085C116.234 218.765 122.304 219.727 125.5 222.284C128.695 224.84 131.567 226.112 127.413 229.946C123.259 233.781 121.024 236.016 121.663 240.17C122.303 244.324 129.335 248.485 129.974 256.154C130.613 263.823 130.931 263.179 130.931 263.179C130.931 263.179 144.992 269.25 144.353 272.765C143.714 276.28 148.186 274.044 150.103 277.239C152.02 280.435 151.701 282.349 154.896 278.834C158.091 275.319 158.727 280.433 156.809 282.989C154.892 285.545 154.252 284.269 152.654 287.144C151.056 290.02 153.938 287.458 154.896 290.014C155.855 292.571 157.767 297.364 157.128 299.282C156.489 301.199 153.3 298.007 154.258 302.161C155.217 306.315 151.697 307.278 151.697 309.834V312.704C151.697 312.704 148.502 309.187 146.904 313.661C145.307 318.134 145.303 315.898 148.818 318.135C152.332 320.372 156.493 327.402 160.008 332.195C160.061 332.267 160.118 332.285 160.167 332.355C160.435 332.833 160.725 333.31 160.965 333.79C163.523 347.241 160.934 355.107 168.468 363.515L167.671 367.979C167.418 367.325 167.054 366.725 166.395 366.066C162.881 362.551 162.879 362.87 162.559 356.798C162.24 350.728 161.287 347.217 159.37 340.187C157.453 333.158 155.208 337.314 153.611 334.119C152.013 330.923 154.893 326.442 151.697 328.04C148.502 329.638 148.501 329.962 147.542 335.394C146.583 340.826 142.752 352.644 141.155 361.91C139.557 371.177 133.487 382.686 135.724 383.006C137.961 383.325 138.599 375.018 140.836 377.894C143.072 380.77 145.944 385.237 142.749 385.557C139.554 385.876 137.958 384.277 136.999 386.513C136.041 388.75 134.448 391.307 134.448 391.307C134.448 391.307 121.983 431.567 116.87 444.987C111.758 458.407 111.441 450.101 110.802 453.935C110.781 454.048 110.822 454.149 110.802 454.254C109.344 454.45 107.843 454.539 106.328 454.573C104.41 455.532 102.488 456.017 99.6113 456.496C102.488 459.374 107.763 464.159 107.763 464.159C108.722 464.639 108.24 462.246 108.719 462.246C111.116 462.726 113.997 463.686 115.435 465.604C119.751 470.4 105.844 476.139 112.077 479.017C114.954 479.976 117.825 474.71 118.784 475.669C119.263 476.628 117.825 479.024 118.784 479.983C125.496 486.218 136.038 483.807 142.271 488.603C142.75 489.083 147.541 500.272 148.02 500.272C154.253 505.067 160.48 496.43 167.193 502.185C170.549 505.062 168.154 511.293 174.387 511.293C177.264 511.772 179.173 508.9 182.05 509.38C184.927 509.859 186.368 513.205 189.245 513.684C190.683 513.684 190.676 510.814 192.115 510.814C196.909 510.335 201.22 514.171 206.494 514.651C206.494 514.651 204.258 503.627 210.011 504.586C218.162 506.025 222.953 511.769 228.227 516.564C228.707 517.044 230.138 516.564 231.097 516.564C233.494 517.044 236.375 517.039 237.813 518.477C240.21 520.396 238.764 524.712 241.161 526.15V526.629C242.12 524.231 243.562 522.314 244.041 522.314C256.507 521.355 257.465 527.589 252.671 533.823C256.027 535.262 259.86 536.21 262.257 538.128C263.216 539.087 263.695 544.367 266.572 543.888C270.407 543.408 273.756 541.008 278.071 541.008C282.866 541.008 291.014 550.598 295.808 549.159C297.726 548.679 295.805 544.847 297.243 543.888C304.435 539.092 313.059 543.405 320.73 545.323H322.644C319.767 542.925 316.896 540.527 315.937 537.65C312.581 528.059 318.815 530.467 316.416 521.836C315.936 520.397 312.579 520.883 312.579 519.444C313.059 514.169 319.293 511.295 320.252 506.5C320.252 505.061 317.848 503.144 318.807 502.185C324.561 494.033 334.151 495.953 338.946 493.555C344.22 490.678 351.878 480.938 357.152 478.06C361.946 475.183 366.739 481.413 370.574 483.332C372.013 484.291 388.789 486.206 389.268 488.125C389.748 490.043 383.033 500.268 398.376 494.034C399.455 493.554 399.377 492.984 398.695 492.28C396.65 490.167 389.505 486.695 394.54 480.94C395.789 479.273 394.117 489.335 398.695 492.28C399.386 492.724 400.24 493.014 401.246 493.077C404.602 493.557 408.435 492.117 410.832 489.719C412.27 487.801 406.999 482.376 409.876 481.897C413.232 481.417 418.505 484.288 418.505 488.125C418.026 491.961 409.398 490.676 408.919 494.512C408.439 497.389 414.193 496.435 417.07 496.435C418.988 496.435 420.904 493.073 421.863 494.512C423.781 496.91 421.379 501.7 423.776 504.098C426.174 506.496 430.006 506.019 433.363 506.978C435.28 506.978 436.718 506.498 438.156 506.978C444.868 510.335 441.514 512.725 441.514 513.684C441.993 514.644 443.424 514.651 444.862 514.651C446.3 515.131 448.218 515.129 449.177 514.173C450.136 513.214 443.424 510.335 449.655 510.814C459.244 511.294 455.883 518.003 460.198 516.564C464.034 515.125 466.914 510.817 471.229 509.858C474.166 509.438 478.246 511.173 480.815 510.017C480.973 510.8 480.598 510.878 481.772 510.336C483.848 509.378 483.206 508.736 483.685 506.659C484.164 504.582 486.56 503.46 484.004 503.62C481.448 503.78 479.851 503.144 483.366 502.026C486.293 501.094 486.232 499.646 486.405 497.551C486.901 496.555 487.038 495.436 487.362 494.681C487.413 494.564 487.605 494.605 487.681 494.512C488.64 494.236 490.158 494.939 492.155 495.638C495.35 496.756 495.988 494.199 497.586 491.164C499.183 488.128 497.111 488.287 500.625 487.009C501.155 486.816 501.598 486.773 502.06 486.69C502.111 486.679 502.171 486.7 502.219 486.69C503.13 486.768 504.02 486.725 504.78 486.53C505.052 486.53 505.219 486.409 505.418 486.381C505.524 486.324 505.638 486.294 505.737 486.221C506.022 486.11 506.186 486.019 506.215 485.584C506.236 485.543 506.2 485.464 506.215 485.424C506.508 484.746 506.503 484.029 506.375 483.182C506.349 483.02 506.4 482.863 506.375 482.704C506.714 481.825 507.576 480.952 509.733 479.834C513.269 478.001 514.059 477.366 515.004 478.07C515.03 478.085 514.979 478.212 515.004 478.23C515.006 478.724 515.107 479.288 515.323 479.505C515.803 479.505 515.661 479.088 515.483 478.548C515.543 478.612 515.579 478.638 515.642 478.708C516.238 479.37 517.087 479.26 518.193 478.708C518.168 478.51 518.054 478.236 518.034 478.07C517.885 478.045 517.698 478.129 517.555 478.07C516.2 477.505 516.448 476.191 518.99 474.553C519.625 474.143 520.234 473.847 520.595 473.755C521.587 473.503 521.608 474.37 521.551 475.519L522.508 475.679C523.501 474.902 524.076 474.464 525.388 473.437C525.386 473.426 525.378 473.407 525.378 473.397C525.283 473.407 525.163 473.421 525.069 473.437C525.028 473.283 525.018 473.123 524.989 472.968C524.953 472.97 524.918 472.917 524.879 472.908C524.775 472.888 524.67 472.844 524.561 472.749C524.51 472.703 524.468 472.644 524.421 472.589C524.311 472.466 524.21 472.328 524.102 472.151C523.923 471.856 523.79 471.439 523.634 471.045C523.489 470.68 523.341 470.399 523.235 469.999C523.11 469.542 523.106 469.159 523.056 468.723C523.015 468.355 522.907 467.963 522.936 467.657C522.946 467.539 522.993 467.462 523.016 467.358C523.057 467.186 523.08 466.993 523.155 466.87C523.28 466.664 523.453 466.524 523.694 466.491C525.926 466.172 526.723 464.897 526.882 463.302C526.935 462.779 526.951 462.42 527.072 462.126C527.097 462.064 527.098 461.961 527.141 461.907C527.263 461.754 527.474 461.622 527.799 461.519C527.814 461.513 527.862 461.514 527.879 461.509C528.155 461.426 528.466 461.353 528.945 461.289C530.273 459.236 531.49 457.271 532.353 455.42L536.13 452.939C536.13 452.939 534.495 453.184 533.359 452.63C532.75 452.332 532.247 451.869 532.303 450.866C532.334 450.297 532.462 449.848 532.542 449.302C532.325 449.028 532.078 448.764 531.765 448.515C529.368 447.076 526.012 448.992 523.136 449.471C520.91 449.471 518.445 449.894 516.09 449.84C514.817 448.793 512.875 447.346 510.49 446.063C508.626 445.113 506.23 444.765 504.581 444.369C500.119 440.846 496.343 436.412 496.619 432.541C496.619 431.582 499.011 431.577 499.011 430.618C498.905 430.301 498.535 429.983 498.124 429.651C497.602 429.25 497.004 428.813 496.45 428.336C495.341 427.427 494.45 426.337 495.184 424.868C497.059 422.993 499.377 421.57 500.824 419.268C500.618 418.998 500.475 418.728 500.356 418.461C500.229 418.174 500.177 417.887 500.157 417.604C500.154 417.568 500.117 417.53 500.117 417.494C500.112 417.188 500.174 416.887 500.306 416.587C500.309 416.582 500.303 416.572 500.306 416.567C500.447 416.258 500.663 415.952 500.964 415.651C501.692 414.923 502.064 414.719 502.568 414.784H502.578C503.087 414.853 503.733 415.193 505.03 415.531C505.298 415.599 505.492 415.615 505.677 415.621C505.667 414.912 505.576 414.236 505.528 413.538C505.186 413.187 504.805 412.841 504.352 412.601C502.435 411.587 502.659 408.658 503.335 406.064C503.414 405.768 503.434 405.521 503.425 405.297V405.287C503.379 405.232 503.296 405.172 503.246 405.118C502.937 404.775 502.621 404.429 502.15 404.052C501.735 403.995 501.261 404.02 500.775 404.101C500.266 404.186 499.747 404.325 499.28 404.49C497.363 405.166 495.556 403.918 493.301 401.889C492.516 401.182 492.171 400.548 491.996 399.876C491.97 399.773 491.903 399.674 491.886 399.567C491.795 399.01 491.887 398.292 491.946 397.584C492.932 395.554 492.326 394.793 491.956 393.309C491.61 391.928 489.399 392.253 487.94 392.562C486.941 391.098 486.354 389.572 486.555 387.968C486.555 385.571 490.864 385.568 493.261 385.089C493.678 385.089 494.057 385.344 494.417 385.676L494.427 385.686C494.703 385.943 494.967 386.232 495.234 386.523C495.521 386.837 495.809 387.129 496.111 387.321C497.017 386.361 498.014 385.378 498.712 384.979C499.918 384.29 502.186 382.033 505.498 381.202C509.774 377.263 513.743 372.589 512.433 370.231C510.995 367.354 506.209 366.882 504.77 363.525C503.332 361.606 505.24 358.248 504.282 356.33C497.57 344.821 485.107 350.584 507.162 337.636C506.212 336.211 505.742 334.665 505.209 333.182C505.204 333.167 505.194 333.157 505.189 333.142C505.174 333.101 505.154 333.063 505.139 333.022C504.579 331.588 503.952 330.212 502.797 329.056C502.565 328.592 501.991 329.031 501.412 329.495L501.362 329.535C501.082 329.759 500.804 329.981 500.565 330.093C500.29 330.235 500.055 330.268 499.928 330.013C499.448 328.574 501.843 326.19 500.884 324.752C500.405 323.313 497.538 324.754 496.579 323.795C493.703 318.999 500.407 319.338 499.928 316.461C499.813 315.888 499.546 315.403 499.23 314.956C498.546 314.024 497.614 313.266 497.068 312.326C496.779 311.853 496.579 311.336 496.579 310.721C496.168 309.486 498.919 307.202 498.493 306.277C498.409 306.162 498.278 306.063 498.054 306.008C491.821 303.13 478.404 303.131 474.089 309.844C473.9 310.033 473.762 310.224 473.67 310.422C473.579 310.618 473.536 310.822 473.511 311.03V311.04C473.475 311.463 473.526 311.917 473.571 312.415L473.212 312.335C473.496 313.255 473.892 314.178 474.438 314.607C474.62 314.751 474.819 314.842 475.035 314.857C475.466 314.887 475.752 314.943 475.942 315.036C476.499 315.308 476.131 315.88 475.374 316.889C475.121 317.228 474.788 317.42 474.408 317.557C474.122 317.662 473.806 317.726 473.491 317.796C473.382 317.822 473.282 317.85 473.172 317.876C472.33 318.073 471.485 318.36 470.98 319.371C470.473 320.385 469.263 320.95 467.98 321.174C466.698 321.399 465.342 321.283 464.552 320.945C463.763 320.606 462.414 321.054 461.314 321.393C460.768 321.562 460.279 321.71 459.959 321.712C459.638 321.713 459.477 321.569 459.59 321.174C459.702 320.782 459.916 320.415 460.148 320.078V320.068C460.383 319.729 460.64 319.424 460.846 319.141C461.256 318.576 461.456 318.124 460.836 317.786C460.22 317.451 460.195 317.029 460.567 316.61C460.756 316.397 461.047 316.186 461.424 315.983C461.795 315.783 462.241 315.594 462.749 315.425C463.256 315.255 463.887 315.149 464.542 315.086C466.509 314.895 468.728 315.086 468.728 315.086C468.418 314.888 468.136 314.632 467.901 314.338C467.43 313.751 467.148 313.001 467.213 312.216C467.244 311.824 467.366 311.425 467.592 311.03C467.684 310.869 468.041 310.475 468.259 310.203C468.249 310.093 468.203 309.975 468.19 309.864L468.21 309.844L470.412 307.642L466.057 303.935L465.987 303.875C465.972 303.845 465.963 303.808 465.948 303.776L465.967 303.756V303.746L467.143 302.68L466.017 301.334L470.302 296.82L468.16 294.449C468.16 294.449 470.297 292.309 471.199 292.197C471.423 292.171 471.827 291.882 472.325 291.469C472.828 291.051 473.431 290.496 474.059 289.925C475.314 288.783 476.671 287.572 477.517 287.234C479.208 286.558 482.023 284.987 483.376 283.746C484.729 282.507 484.502 282.162 484.502 282.162L483.605 280.926C483.605 280.926 486.085 279.115 485.409 276.861C484.732 274.606 483.944 273.373 483.944 273.373L483.814 273.224C484.33 272.334 485.118 271.75 486.057 271.32C486.555 271.091 487.156 270.965 487.721 270.802C489.051 270.418 490.423 270.057 491.766 269.626C491.998 269.553 492.251 269.512 492.474 269.427C492.484 269.423 492.494 269.422 492.504 269.417C493.525 269.022 494.446 268.488 495.144 267.673C496.628 266.401 498.247 263.74 499.947 260.937C500.598 260.823 501.313 260.763 501.871 260.628C505.14 259.839 504.121 257.025 506.714 255.785C508.51 254.926 507.863 252.768 507.301 251.49C509.515 250.581 511.6 254.611 512.045 248.381C512.045 245.984 504.712 250.779 504.232 248.381C503.273 245.984 507.258 244.082 508.697 242.163C508.697 242.163 509.653 242.643 509.653 242.163C509.653 241.88 509.475 241.514 509.265 241.127C509.92 240.701 510.534 240.168 510.769 239.373C511.407 237.221 513.161 238.975 513.878 239.692C514.446 240.259 514.961 240.036 515.981 239.323C517.125 240.022 518.002 240.906 518.831 241.735C518.826 241.745 518.826 241.76 518.821 241.765C518.182 242.801 518.582 242.801 519.219 243.598C519.857 244.396 520.096 242.881 520.973 243.837C521.85 244.793 524.401 243.359 524.401 243.359L527.51 244.395L529.663 242.163L528.118 240.579C528.407 240.342 528.795 239.923 529.104 239.652L530.779 241.207C530.778 241.207 533.011 240.33 532.373 239.214C532.288 239.066 532.026 238.747 531.845 238.516L533.15 236.563L535.552 236.942L536.269 236.234L536.359 236.145C536.333 236.124 536.275 236.115 536.249 236.095C536.219 235.864 536.203 235.601 536.17 235.397L535.821 233.992C535.575 233.22 535.352 232.784 535.352 232.607C535.352 232.269 533.209 231.139 533.041 229.279C532.872 227.419 532.877 227.587 533.947 226.798C535.018 226.008 534.624 224.261 533.947 222.852C533.271 221.442 536.706 219.754 535.861 218.457C535.015 217.161 536.708 216.425 536.708 215.129C536.708 213.832 538.34 211.978 538.96 210.963C539.55 209.998 537.809 208.97 535.073 206.31C535.073 206.279 535.044 206.269 535.044 206.24C534.564 203.842 535.52 201.453 536.478 199.056L543.185 188.034C543.369 186.929 543.593 184.253 543.832 181.727L543.753 181.617C544.136 177.572 544.622 173.227 545.507 171.164C549.342 163.491 558.926 157.745 564.201 148.634C564.315 148.434 564.301 148.235 564.21 148.036C562.287 144.921 537.306 141.921 535.522 140.582C535.501 140.562 535.502 140.524 535.482 140.502C535.477 140.499 535.447 140.497 535.442 140.492C534.025 139.075 534.906 136.281 533.559 134.822C531.063 132.981 515.869 139.135 514.915 137.702C514.909 137.682 514.92 137.656 514.915 137.632C514.899 137.617 514.845 137.628 514.835 137.613C514.359 136.186 516.227 134.295 515.323 133.328C501.068 120.537 510.592 140.087 504.85 133.866C504.83 133.845 504.809 133.815 504.79 133.796L504.77 133.776C504.198 133.204 503.667 132.527 503.156 131.803C499.929 127.225 497.791 120.137 495.124 116.866C495.12 116.861 495.12 116.851 495.115 116.846C494.702 116.342 494.273 115.956 493.829 115.66C492.613 114.443 490.418 115.216 489.175 114.634C487.894 113.479 486.637 112.207 486.555 111.545C486.379 110.139 481.462 109.085 480.496 110.578C480.08 111.22 479.882 111.577 479.639 111.873C478.868 112.006 478.085 112.277 477.287 112.651C475.714 112.829 473.726 113.014 473.65 111.724C473.563 110.231 468.729 109.699 468.817 108.645C468.905 107.591 468.027 107.597 466.446 107.07C465.555 106.773 464.905 107.811 464.443 108.874C463.507 108.601 462.569 108.376 461.633 108.376C458.277 107.896 454.923 111.249 452.047 109.811C449.649 108.852 451.561 104.544 450.123 102.626C449.165 101.188 446.769 102.15 445.33 101.191C444.851 100.712 447.254 99.7476 447.254 99.268C446.774 98.3089 446.289 97.3559 445.33 96.8764C444.371 96.3968 442.94 98.3126 442.46 97.833C441.875 97.3938 441.435 96.8043 441.036 96.1789C440.596 96.0197 440.147 95.8773 439.75 95.6507C438.521 94.9481 438.425 93.1945 437.02 92.4919C436.631 92.2975 436.14 91.8592 435.664 91.4954C432.741 91.1082 429.562 91.425 428.081 89.2035C426.163 87.2853 429.995 84.4168 429.995 82.0189C429.619 80.517 427.826 79.8692 427.045 78.7504C427.762 77.2294 428.6 75.2534 428.151 74.5054C427.475 73.378 431.19 69.3138 431.19 69.3138L429.277 68.7557L423.298 73.7082L423.119 78.0031H423.059C423.059 78.0031 418.585 78.3479 417.18 79.5775C416.108 80.5154 412.949 80.5183 410.493 79.5775C404.687 79.5066 399.424 77.492 400.279 75.7809C401.718 73.3831 404.116 71.9507 404.116 69.5529C404.116 68.1144 400.278 68.113 400.758 66.1948C400.758 63.8937 403.183 61.9029 404.166 59.7276L402.86 60.1661L398.655 53.4697C398.483 53.434 398.333 53.3813 398.157 53.3501C396.581 53.8195 395.616 54.1143 394.081 54.5459C391.271 55.3363 391.447 53.58 388.461 53.1409C385.475 52.7016 385.735 56.2214 384.505 55.3431C383.655 54.7355 383.037 53.3929 383.25 51.2077C383.172 51.0939 383.064 50.9931 383.03 50.8589C382.714 49.5942 383.207 48.1285 383.459 46.7235C383.206 46.0894 382.91 45.4576 382.751 44.89C382.137 42.6944 380.377 43.3056 378.357 43.3056C376.62 43.3056 376.568 42.9321 378.397 40.9041C377.55 40.8888 376.678 40.9014 375.786 40.934C373.563 42.8762 372.024 43.2601 370.714 41.7312C369.368 40.1607 367.657 38.9606 368.312 36.7986C367.781 34.688 367.886 31.5484 367.605 28.5079C366.795 28.0114 366.614 27.4826 366.15 26.2658C365.447 24.4215 365.795 23.2844 364.566 23.1966C363.336 23.1089 362.201 23.8108 361.148 23.6351C360.094 23.4591 358.421 24.5151 357.192 25.1298C355.962 25.7446 356.226 28.0252 354.382 28.2886C352.545 28.5509 349.844 26.3697 349.04 23.9241C347.817 22.8352 346.835 21.3787 346.051 19.689C345.815 19.637 345.59 19.532 345.334 19.5993C343.665 20.0386 343.403 17.8415 343.052 15.2945C342.734 12.994 342.427 12.1271 343.649 11.3983C342.93 7.37202 342.631 3.44096 342.284 1.01497L342.294 1.005ZM3.441 117.155C0.884699 118.113 -1.03769 120.034 1.19891 120.353C3.43562 120.673 6.63626 120.35 3.441 117.155ZM71.5006 178.508C69.9877 178.583 69.7419 180.499 72.1384 181.697C75.3336 183.294 77.2482 182.021 73.4139 179.146C72.695 178.667 72.0048 178.483 71.5006 178.508ZM79.8013 197.192C77.8522 197.839 78.0111 201.77 83.6378 204.706C90.9869 208.54 85.8777 200.556 82.0434 197.68C81.5643 197.401 81.163 197.25 80.7579 197.192C80.4039 197.141 80.0799 197.1 79.8013 197.192ZM117.189 226.429C117.189 226.429 113.674 229.945 117.508 230.903C121.342 231.862 122.943 234.097 121.026 231.541C119.109 228.985 123.26 227.707 117.189 226.429ZM538.521 234.042L536.369 236.145L538.521 234.052L540.813 234.082L540.833 234.072L538.521 234.042ZM549.572 235.636C549.653 235.842 549.778 235.98 549.871 236.174L549.881 236.164C549.79 235.972 549.662 235.839 549.582 235.636H549.572ZM543.215 237.231C542.733 237.438 542.188 237.56 541.551 237.53C540.691 237.489 540.069 237.417 539.647 237.291C540.066 237.419 540.685 237.499 541.551 237.54C542.188 237.57 542.732 237.437 543.215 237.231ZM110.802 243.05L108.879 246.887L114.947 247.843L110.802 243.05ZM140.517 280.757C137.322 280.757 135.086 283.307 139.879 283.946C144.672 284.585 147.227 289.058 150.422 289.058C153.617 289.058 147.227 280.757 140.517 280.757ZM144.991 295.136C142.754 297.373 144.029 303.119 146.585 307.592C149.142 312.066 150.741 307.271 150.422 303.756C150.103 300.241 148.186 298.971 144.991 295.136ZM611.175 524.237C609.257 528.074 605.426 530.943 604.947 534.78C604.467 538.137 607.823 544.367 604.947 544.366C601.59 544.366 599.194 540.528 596.317 541.008C593.92 541.487 593.921 545.797 591.524 547.236C589.606 548.195 587.214 546.277 585.296 547.236C582.899 548.195 582.422 551.549 580.025 552.029C579.066 552.509 578.113 549.157 577.633 550.116C575.715 552.993 576.191 557.302 575.232 560.658C574.273 562.097 569.002 560.663 569.482 562.582C570.92 565.459 575.71 566.889 575.71 569.766C575.71 573.123 569.481 574.074 569.96 576.951C570.919 580.787 578.11 579.831 578.59 583.667C579.069 587.024 571.393 588.939 572.352 592.775C572.831 595.652 580.502 589.898 580.981 592.775C581.461 596.611 573.797 598.525 573.797 602.361C573.317 605.718 579.065 606.668 580.503 609.546C581.462 611.464 578.587 613.379 579.546 614.817C583.861 622.01 587.692 617.214 593.926 619.132C595.364 619.612 593.441 633.518 600.154 626.805C602.551 623.927 601.117 619.619 602.555 616.262C603.514 614.824 606.382 614.822 606.382 612.904C606.861 611.945 603.512 613.386 603.512 611.947C603.512 610.988 605.902 611.942 606.382 610.981C611.656 605.226 609.261 596.608 609.261 590.374C609.261 584.619 617.414 578.397 616.934 570.245C616.934 567.367 616.929 556.831 615.489 553.474C615.276 552.939 614.98 552.372 614.692 551.869C615.029 552.034 615.131 552.03 615.011 551.551C614.052 549.632 611.183 544.362 611.663 546.279C612.382 548.437 613.544 550.024 614.533 551.71C613.454 551.05 611.175 548.612 611.175 547.236C611.175 541.961 617.887 529.033 611.175 524.237Z" fill="#171717"/>
<path d="M398.695 492.28C399.377 492.984 399.455 493.554 398.376 494.034C383.033 500.268 389.748 490.043 389.268 488.125C388.789 486.206 372.013 484.291 370.574 483.332C366.739 481.413 361.946 475.183 357.152 478.06C351.878 480.938 344.22 490.678 338.946 493.555C334.151 495.953 324.561 494.033 318.807 502.185C317.848 503.144 320.252 505.061 320.252 506.5C319.293 511.295 313.059 514.169 312.579 519.444C312.579 520.883 315.936 520.397 316.416 521.836C318.815 530.467 312.581 528.059 315.937 537.65C316.896 540.527 319.767 542.925 322.644 545.323H320.73C313.059 543.405 304.435 539.092 297.243 543.888C295.805 544.847 297.726 548.679 295.808 549.159C291.014 550.598 282.866 541.008 278.071 541.008C273.756 541.008 270.407 543.408 266.572 543.888C263.695 544.367 263.216 539.087 262.257 538.128C259.86 536.21 256.027 535.262 252.671 533.823C257.465 527.589 256.507 521.355 244.041 522.314C243.562 522.314 242.12 524.231 241.161 526.629V526.15C238.764 524.712 240.21 520.396 237.813 518.477C236.375 517.039 233.494 517.044 231.097 516.564C230.138 516.564 228.707 517.044 228.227 516.564C222.953 511.769 218.162 506.025 210.011 504.586C204.258 503.627 206.494 514.651 206.494 514.651C201.22 514.171 196.909 510.335 192.115 510.814C190.676 510.814 190.683 513.684 189.245 513.684C186.368 513.205 184.927 509.859 182.05 509.38C179.173 508.9 177.264 511.772 174.387 511.293C168.154 511.293 170.549 505.062 167.193 502.185C160.48 496.43 154.253 505.067 148.02 500.272C147.541 500.272 142.75 489.083 142.271 488.603C136.038 483.807 125.496 486.218 118.784 479.983C117.825 479.024 119.263 476.628 118.784 475.669C117.825 474.71 114.954 479.976 112.077 479.017C105.844 476.139 119.751 470.4 115.435 465.604C113.997 463.686 111.116 462.726 108.719 462.246C108.24 462.246 108.722 464.639 107.763 464.159C107.763 464.159 102.488 459.374 99.6113 456.496C102.488 456.017 104.41 455.532 106.328 454.573C107.843 454.539 109.344 454.45 110.802 454.254C110.822 454.149 110.781 454.048 110.802 453.935C111.441 450.101 111.758 458.407 116.87 444.987C121.983 431.567 134.448 391.307 134.448 391.307C134.448 391.307 136.041 388.75 136.999 386.513C137.958 384.277 139.554 385.876 142.749 385.557C145.944 385.237 143.072 380.77 140.836 377.894C138.599 375.018 137.961 383.325 135.724 383.006C133.487 382.686 139.557 371.177 141.155 361.91C142.752 352.644 146.583 340.826 147.542 335.394C148.501 329.962 148.502 329.638 151.697 328.04C154.893 326.442 152.013 330.923 153.611 334.119C155.208 337.314 157.453 333.158 159.37 340.187C161.287 347.217 162.24 350.728 162.559 356.798C162.879 362.87 162.881 362.551 166.395 366.066C167.054 366.725 167.418 367.325 167.671 367.979L168.468 363.515C160.934 355.107 163.523 347.241 160.965 333.79C160.725 333.31 160.435 332.833 160.167 332.355C160.118 332.285 160.061 332.267 160.008 332.195C156.493 327.402 152.332 320.372 148.818 318.135C145.303 315.898 145.307 318.134 146.904 313.661C148.502 309.187 151.697 312.704 151.697 312.704V309.834C151.697 307.278 155.217 306.315 154.258 302.161C153.3 298.007 156.489 301.199 157.128 299.282C157.767 297.364 155.855 292.571 154.896 290.014C153.938 287.458 151.056 290.02 152.654 287.144C154.252 284.269 154.892 285.545 156.809 282.989C158.727 280.433 158.091 275.319 154.896 278.834C151.701 282.349 152.02 280.435 150.103 277.239C148.186 274.044 143.714 276.28 144.353 272.765C144.992 269.25 130.931 263.179 130.931 263.179C130.931 263.179 130.613 263.823 129.974 256.154C129.335 248.485 122.303 244.324 121.663 240.17C121.024 236.016 123.259 233.781 127.413 229.946C131.567 226.112 128.695 224.84 125.5 222.284C122.304 219.727 116.234 218.765 120.388 219.085C124.542 219.404 122.618 218.765 123.896 214.611C125.174 210.457 128.367 210.454 134.438 215.886C140.509 221.318 144.986 218.766 142.749 218.766C140.512 218.766 140.518 216.843 135.086 211.731C129.654 206.618 125.496 208.856 122.301 211.093C119.106 213.33 118.781 212.372 114.947 210.774C111.113 209.177 109.516 209.816 109.835 205.662C110.155 201.508 107.602 202.785 113.034 201.507C118.466 200.229 110.797 200.556 113.034 197.999C115.271 195.443 113.67 195.123 109.516 193.206C105.362 191.289 100.252 196.721 98.6547 193.206C97.0571 189.691 94.1806 188.409 98.9736 190.326C103.766 192.244 105.684 189.045 103.767 187.128C101.849 185.211 99.2964 188.088 97.3792 186.171C95.4621 184.254 95.7815 184.892 92.5862 186.809C89.3908 188.727 87.4742 184.898 87.4742 188.732C87.4742 192.566 84.5931 190.647 85.2321 185.214C85.8712 179.783 83.3204 182.341 87.4742 179.146C91.6282 175.951 86.1987 174.028 86.1987 176.904C86.1987 179.78 81.3996 182.023 79.4824 178.508C78.5239 176.751 79.5204 175.032 80.4391 174.034C77.9637 175.851 77.7568 177.526 75.3271 177.223C72.7709 176.903 73.0922 173.708 69.5774 172.111C66.0626 170.513 64.1465 171.47 59.3535 167.955C54.5607 164.441 54.2428 160.288 53.6038 162.525C52.9648 164.761 50.0922 164.443 47.2164 161.887C44.3411 159.331 47.5338 165.404 43.3799 165.723C39.226 166.043 33.469 164.763 36.3448 161.887C39.2205 159.011 36.0272 160.294 35.3882 154.862C34.7491 149.43 21.007 149.107 21.9656 146.551C22.9241 143.995 30.6 143.996 37.9491 145.913C45.2982 147.83 43.0569 141.44 40.1812 140.801C37.3054 140.162 36.35 136.643 33.7938 138.24C31.2376 139.838 29.317 140.799 30.5951 137.284C31.8732 133.769 26.1243 135.366 29.3196 132.81C32.515 130.253 31.5518 132.496 36.3448 134.733C41.1377 136.969 45.9374 135.683 42.7422 133.766C41.3443 132.927 41.232 132.528 41.6162 132.331C39.654 132.601 36.2675 132.972 35.0693 131.534C33.4716 129.617 42.7422 127.698 42.7422 127.698C42.7422 127.698 35.3874 128.342 30.914 129.94C26.4407 131.537 21.9675 130.892 21.009 128.016C20.0503 125.141 19.7337 118.113 24.5265 117.474C29.3194 116.835 38.9018 111.399 40.819 114.594C42.7362 117.789 44.0163 114.276 49.7674 113.637C55.5189 112.998 55.5219 107.886 58.078 113.637C60.6343 119.388 62.8711 119.068 62.8711 119.068C62.8711 119.068 59.0323 112.997 65.1032 114.275C71.1743 115.553 74.6914 119.712 73.7327 116.836C72.7742 113.96 77.8827 114.594 75.646 114.275C73.4093 113.955 73.7327 110.12 73.7327 110.12L77.5692 108.844C77.5692 108.844 77.8908 107.563 81.4056 110.12C84.9205 112.676 87.4696 109.165 89.7063 108.206C91.943 107.248 90.9918 111.405 90.9918 111.405C90.9918 111.405 92.5895 110.121 95.7849 109.163C98.9801 108.204 97.0604 112.043 97.0604 112.043C97.0604 112.043 98.3339 111.717 99.2925 110.12C100.251 108.522 102.172 109.482 102.172 109.482C102.172 109.482 100.891 111.717 98.9736 114.913C97.0564 118.108 103.129 115.879 103.129 115.879L101.535 118.111L106.646 122.904L106.328 127.379L112.077 132.81C112.077 132.81 119.11 128.022 125.181 125.465C131.252 122.909 133.165 124.821 131.887 128.016C130.609 131.212 133.807 130.571 135.405 128.654C137.003 126.737 140.198 128.335 140.198 128.335C140.198 128.335 140.839 128.02 144.353 126.103C147.868 124.186 150.097 124.827 148.18 129.94C146.263 135.052 154.253 132.171 161.602 132.491C168.952 132.81 168.637 130.89 163.844 129.292C159.052 127.694 160.004 121.305 161.921 114.275C163.838 107.245 160.645 111.399 160.965 104.689C161.284 97.9784 164.797 99.9004 161.921 97.6636C159.045 95.4269 160.322 94.4642 157.766 89.9907C155.21 85.5174 152.973 85.8439 152.973 81.69C152.973 77.5361 150.099 78.1757 152.016 76.5781C153.933 74.9803 153.935 71.4587 151.379 70.1807C148.822 68.9026 146.581 66.0254 148.499 66.0254C150.416 66.0254 154.888 67.9453 158.723 69.5429C162.557 71.1406 166.71 73.3833 168.628 71.4662C170.545 69.5491 177.583 67.3118 179.18 71.785C180.778 76.2585 175.023 76.2523 175.982 79.7668C176.94 83.2817 181.732 85.203 181.412 87.4397C181.093 89.6764 180.779 92.8673 183.336 89.6719C185.892 86.4766 197.386 91.9134 202.498 92.2328C207.61 92.5523 211.765 94.1495 216.877 97.3448C221.99 100.54 229.665 97.3406 233.18 94.4649C234.868 93.0833 237.07 92.677 240.205 92.0734L237.494 91.5951C233.817 89.863 231.99 85.9116 237.335 76.7475C242.13 69.0745 274.234 68.1205 282.864 63.3249C286.22 61.8862 288.616 59.0052 291.972 57.0869C292.325 56.9094 292.833 56.8966 293.247 56.7681C293.356 56.4511 293.374 56.1704 293.566 55.8015C296.494 50.1713 297.859 49.6767 301.08 50.849C299.918 49.3448 297.565 47.9875 297.243 46.0559C296.764 44.6174 297.241 42.222 298.2 41.2628C299.159 40.3038 301.08 42.222 301.08 41.2628C301.08 40.3038 298.678 40.3099 298.678 38.8713C298.678 35.5143 302.512 12.5108 303.471 10.1128C305.389 4.35821 321.208 3.39783 325.523 2.91825C331.277 2.43871 337.02 1.96397 342.294 1.005L342.284 1.01497C342.631 3.44096 342.93 7.37202 343.649 11.3983C342.427 12.1271 342.734 12.994 343.052 15.2945C343.403 17.8415 343.665 20.0386 345.334 19.5993C345.59 19.532 345.815 19.637 346.051 19.689C346.835 21.3787 347.817 22.8352 349.04 23.9241C349.844 26.3697 352.545 28.5509 354.382 28.2886C356.226 28.0252 355.962 25.7446 357.192 25.1298C358.421 24.5151 360.094 23.4591 361.148 23.6351C362.201 23.8108 363.336 23.1089 364.566 23.1966C365.795 23.2844 365.447 24.4215 366.15 26.2658C366.614 27.4826 366.795 28.0114 367.605 28.5079C367.886 31.5484 367.781 34.688 368.312 36.7986C367.657 38.9606 369.368 40.1607 370.714 41.7312C372.024 43.2601 373.563 42.8762 375.786 40.934C376.678 40.9014 377.55 40.8888 378.397 40.9041C376.568 42.9321 376.62 43.3056 378.357 43.3056C380.377 43.3056 382.137 42.6944 382.751 44.89C382.91 45.4576 383.206 46.0894 383.459 46.7235C383.207 48.1285 382.714 49.5942 383.03 50.8589C383.064 50.9931 383.172 51.0939 383.25 51.2077C383.037 53.3929 383.655 54.7355 384.505 55.3431C385.735 56.2214 385.475 52.7016 388.461 53.1409C391.447 53.58 391.271 55.3363 394.081 54.5459C395.616 54.1143 396.581 53.8195 398.157 53.3501C398.333 53.3813 398.483 53.434 398.655 53.4697L402.86 60.1661L404.166 59.7276C403.183 61.9029 400.758 63.8937 400.758 66.1948C400.278 68.113 404.116 68.1144 404.116 69.5529C404.116 71.9507 401.718 73.3831 400.279 75.7809C399.424 77.492 404.687 79.5066 410.493 79.5775C412.949 80.5183 416.108 80.5154 417.18 79.5775C418.585 78.3479 423.059 78.0031 423.059 78.0031H423.119L423.298 73.7082L429.277 68.7557L431.19 69.3138C431.19 69.3138 427.475 73.378 428.151 74.5054C428.6 75.2534 427.762 77.2294 427.045 78.7504C427.826 79.8692 429.619 80.517 429.995 82.0189C429.995 84.4168 426.163 87.2853 428.081 89.2035C429.562 91.425 432.741 91.1082 435.664 91.4954C436.14 91.8592 436.631 92.2975 437.02 92.4919C438.425 93.1945 438.521 94.9481 439.75 95.6507C440.147 95.8773 440.596 96.0197 441.036 96.1789C441.435 96.8043 441.875 97.3938 442.46 97.833C442.94 98.3126 444.371 96.3968 445.33 96.8764C446.289 97.3559 446.774 98.3089 447.254 99.268C447.254 99.7476 444.851 100.712 445.33 101.191C446.769 102.15 449.165 101.188 450.123 102.626C451.561 104.544 449.649 108.852 452.047 109.811C454.923 111.249 458.277 107.896 461.633 108.376C462.569 108.376 463.507 108.601 464.443 108.874C464.905 107.811 465.555 106.773 466.446 107.07C468.027 107.597 468.905 107.591 468.817 108.645C468.729 109.699 473.563 110.231 473.65 111.724C473.726 113.014 475.714 112.829 477.287 112.651C478.085 112.277 478.868 112.006 479.639 111.873C479.882 111.577 480.08 111.22 480.496 110.578C481.462 109.085 486.379 110.139 486.555 111.545C486.637 112.207 487.894 113.479 489.175 114.634C490.418 115.216 492.613 114.443 493.829 115.66C494.273 115.956 494.702 116.342 495.115 116.846C495.12 116.851 495.12 116.861 495.124 116.866C497.791 120.137 499.929 127.225 503.156 131.803C503.667 132.527 504.198 133.204 504.77 133.776L504.79 133.796C504.809 133.815 504.83 133.845 504.85 133.866C510.592 140.087 501.068 120.537 515.323 133.328C516.227 134.295 514.359 136.186 514.835 137.613C514.845 137.628 514.899 137.617 514.915 137.632C514.92 137.656 514.909 137.682 514.915 137.702C515.869 139.135 531.063 132.981 533.559 134.822C534.906 136.281 534.025 139.075 535.442 140.492C535.447 140.497 535.477 140.499 535.482 140.502C535.502 140.524 535.501 140.562 535.522 140.582C537.306 141.921 562.287 144.921 564.21 148.036C564.301 148.235 564.315 148.434 564.201 148.634C558.926 157.745 549.342 163.491 545.507 171.164C544.622 173.227 544.136 177.572 543.753 181.617L543.832 181.727C543.593 184.253 543.369 186.929 543.185 188.034L536.478 199.056C535.52 201.453 534.564 203.842 535.044 206.24C535.044 206.269 535.073 206.279 535.073 206.31C537.809 208.97 539.55 209.998 538.96 210.963C538.34 211.978 536.708 213.832 536.708 215.129C536.708 216.425 535.015 217.161 535.861 218.457C536.706 219.754 533.271 221.442 533.947 222.852C534.624 224.261 535.018 226.008 533.947 226.798C532.877 227.587 532.872 227.419 533.041 229.279C533.209 231.139 535.352 232.269 535.352 232.607C535.352 232.784 535.575 233.22 535.821 233.992L536.17 235.397C536.203 235.601 536.219 235.864 536.249 236.095C536.275 236.115 536.333 236.124 536.359 236.145L536.269 236.234L535.552 236.942L533.15 236.563L531.845 238.516C532.026 238.747 532.288 239.066 532.373 239.214C533.011 240.33 530.778 241.207 530.779 241.207L529.104 239.652C528.795 239.923 528.407 240.342 528.118 240.579L529.663 242.163L527.51 244.395L524.401 243.359C524.401 243.359 521.85 244.793 520.973 243.837C520.096 242.881 519.857 244.396 519.219 243.598C518.582 242.801 518.182 242.801 518.821 241.765C518.826 241.76 518.826 241.745 518.831 241.735C518.002 240.906 517.125 240.022 515.981 239.323C514.961 240.036 514.446 240.259 513.878 239.692C513.161 238.975 511.407 237.221 510.769 239.373C510.534 240.168 509.92 240.701 509.265 241.127C509.475 241.514 509.653 241.88 509.653 242.163C509.653 242.643 508.697 242.163 508.697 242.163C507.258 244.082 503.273 245.984 504.232 248.381C504.712 250.779 512.045 245.984 512.045 248.381C511.6 254.611 509.515 250.581 507.301 251.49C507.863 252.768 508.51 254.926 506.714 255.785C504.121 257.025 505.14 259.839 501.871 260.628C501.313 260.763 500.598 260.823 499.947 260.937C498.247 263.74 496.628 266.401 495.144 267.673C494.446 268.488 493.525 269.022 492.504 269.417C492.494 269.422 492.484 269.423 492.474 269.427C492.251 269.512 491.998 269.553 491.766 269.626C490.423 270.057 489.051 270.418 487.721 270.802C487.156 270.965 486.555 271.091 486.057 271.32C485.118 271.75 484.33 272.334 483.814 273.224L483.944 273.373C483.944 273.373 484.732 274.606 485.409 276.861C486.085 279.115 483.605 280.926 483.605 280.926L484.502 282.162C484.502 282.162 484.729 282.507 483.376 283.746C482.023 284.987 479.208 286.558 477.517 287.234C476.671 287.572 475.314 288.783 474.059 289.925C473.431 290.496 472.828 291.051 472.325 291.469C471.827 291.882 471.423 292.171 471.199 292.197C470.297 292.309 468.16 294.449 468.16 294.449L470.302 296.82L466.017 301.334L467.143 302.68L465.967 303.746V303.756L465.948 303.776C465.963 303.808 465.972 303.845 465.987 303.875L466.057 303.935L470.412 307.642L468.21 309.844L468.19 309.864C468.203 309.975 468.249 310.093 468.259 310.203C468.041 310.475 467.684 310.869 467.592 311.03C467.366 311.425 467.244 311.824 467.213 312.216C467.148 313.001 467.43 313.751 467.901 314.338C468.136 314.632 468.418 314.888 468.728 315.086C468.728 315.086 466.509 314.895 464.542 315.086C463.887 315.149 463.256 315.255 462.749 315.425C462.241 315.594 461.795 315.783 461.424 315.983C461.047 316.186 460.756 316.397 460.567 316.61C460.195 317.029 460.22 317.451 460.836 317.786C461.456 318.124 461.256 318.576 460.846 319.141C460.64 319.424 460.383 319.729 460.148 320.068V320.078C459.916 320.415 459.702 320.782 459.59 321.174C459.477 321.569 459.638 321.713 459.959 321.712C460.279 321.71 460.768 321.562 461.314 321.393C462.414 321.054 463.763 320.606 464.552 320.945C465.342 321.283 466.698 321.399 467.98 321.174C469.263 320.95 470.473 320.385 470.98 319.371C471.485 318.36 472.33 318.073 473.172 317.876C473.282 317.85 473.382 317.822 473.491 317.796C473.806 317.726 474.122 317.662 474.408 317.557C474.788 317.42 475.121 317.228 475.374 316.889C476.131 315.88 476.499 315.308 475.942 315.036C475.752 314.943 475.466 314.887 475.035 314.857C474.819 314.842 474.62 314.751 474.438 314.607C473.892 314.178 473.496 313.255 473.212 312.335L473.571 312.415C473.526 311.917 473.475 311.463 473.511 311.04V311.03C473.536 310.822 473.579 310.618 473.67 310.422C473.762 310.224 473.9 310.033 474.089 309.844C478.404 303.131 491.821 303.13 498.054 306.008C498.278 306.063 498.409 306.162 498.493 306.277C498.919 307.202 496.168 309.486 496.579 310.721C496.579 311.336 496.779 311.853 497.068 312.326C497.614 313.266 498.546 314.024 499.23 314.956C499.546 315.403 499.813 315.888 499.928 316.461C500.407 319.338 493.703 318.999 496.579 323.795C497.538 324.754 500.405 323.313 500.884 324.752C501.843 326.19 499.448 328.574 499.928 330.013C500.055 330.268 500.29 330.235 500.565 330.093C500.804 329.981 501.082 329.759 501.362 329.535L501.412 329.495C501.991 329.031 502.565 328.592 502.797 329.056C503.952 330.212 504.579 331.588 505.139 333.022C505.154 333.063 505.174 333.101 505.189 333.142C505.194 333.157 505.204 333.167 505.209 333.182C505.742 334.665 506.212 336.211 507.162 337.636C485.107 350.584 497.57 344.821 504.282 356.33C505.24 358.248 503.332 361.606 504.77 363.525C506.209 366.882 510.995 367.354 512.433 370.231C513.743 372.589 509.774 377.263 505.498 381.202C502.186 382.033 499.918 384.29 498.712 384.979C498.014 385.378 497.017 386.361 496.111 387.321C495.809 387.129 495.521 386.837 495.234 386.523C494.967 386.232 494.703 385.943 494.427 385.686L494.417 385.676C494.057 385.344 493.678 385.089 493.261 385.089C490.864 385.568 486.555 385.571 486.555 387.968C486.354 389.572 486.941 391.098 487.94 392.562C489.399 392.253 491.61 391.928 491.956 393.309C492.326 394.793 492.932 395.554 491.946 397.584C491.887 398.292 491.795 399.01 491.886 399.567C491.903 399.674 491.97 399.773 491.996 399.876C492.171 400.548 492.516 401.182 493.301 401.889C495.556 403.918 497.363 405.166 499.28 404.49C499.747 404.325 500.266 404.186 500.775 404.101C501.261 404.02 501.735 403.995 502.15 404.052C502.621 404.429 502.937 404.775 503.246 405.118C503.296 405.172 503.379 405.232 503.425 405.287V405.297C503.434 405.521 503.414 405.768 503.335 406.064C502.659 408.658 502.435 411.587 504.352 412.601C504.805 412.841 505.186 413.187 505.528 413.538C505.576 414.236 505.667 414.912 505.677 415.621C505.492 415.615 505.298 415.599 505.03 415.531C503.733 415.193 503.087 414.853 502.578 414.784H502.568C502.064 414.719 501.692 414.923 500.964 415.651C500.663 415.952 500.447 416.258 500.306 416.567C500.303 416.572 500.309 416.582 500.306 416.587C500.174 416.887 500.112 417.188 500.117 417.494C500.117 417.53 500.154 417.568 500.157 417.604C500.177 417.887 500.229 418.174 500.356 418.461C500.475 418.728 500.618 418.998 500.824 419.268C499.377 421.57 497.059 422.993 495.184 424.868C494.45 426.337 495.341 427.427 496.45 428.336C497.004 428.813 497.602 429.25 498.124 429.651C498.535 429.983 498.905 430.301 499.011 430.618C499.011 431.577 496.619 431.582 496.619 432.541C496.343 436.412 500.119 440.846 504.581 444.369C506.23 444.765 508.626 445.113 510.49 446.063C512.875 447.346 514.817 448.793 516.09 449.84C518.445 449.894 520.91 449.471 523.136 449.471C526.012 448.992 529.368 447.076 531.765 448.515C532.078 448.764 532.325 449.028 532.542 449.302C532.462 449.848 532.334 450.297 532.303 450.866C532.247 451.869 532.75 452.332 533.359 452.63C534.495 453.184 536.13 452.939 536.13 452.939L532.353 455.42C531.49 457.271 530.273 459.236 528.945 461.289C528.466 461.353 528.155 461.426 527.879 461.509C527.862 461.514 527.814 461.513 527.799 461.519C527.474 461.622 527.263 461.754 527.141 461.907C527.098 461.961 527.097 462.064 527.072 462.126C526.951 462.42 526.935 462.779 526.882 463.302C526.723 464.897 525.926 466.172 523.694 466.491C523.453 466.524 523.28 466.664 523.155 466.87C523.08 466.993 523.057 467.186 523.016 467.358C522.993 467.462 522.946 467.539 522.936 467.657C522.907 467.963 523.015 468.355 523.056 468.723C523.106 469.159 523.11 469.542 523.235 469.999C523.341 470.399 523.489 470.68 523.634 471.045C523.79 471.439 523.923 471.856 524.102 472.151C524.21 472.328 524.311 472.466 524.421 472.589C524.468 472.644 524.51 472.703 524.561 472.749C524.67 472.844 524.775 472.888 524.879 472.908C524.918 472.917 524.953 472.97 524.989 472.968C525.018 473.123 525.028 473.283 525.069 473.437C525.163 473.421 525.283 473.407 525.378 473.397C525.378 473.407 525.386 473.426 525.388 473.437C524.076 474.464 523.501 474.902 522.508 475.679L521.551 475.519C521.608 474.37 521.587 473.503 520.595 473.755C520.234 473.847 519.625 474.143 518.99 474.553C516.448 476.191 516.2 477.505 517.555 478.07C517.698 478.129 517.885 478.045 518.034 478.07C518.054 478.236 518.168 478.51 518.193 478.708C517.087 479.26 516.238 479.37 515.642 478.708C515.579 478.638 515.543 478.612 515.483 478.548C515.661 479.088 515.803 479.505 515.323 479.505C515.107 479.288 515.006 478.724 515.004 478.23C514.979 478.212 515.03 478.085 515.004 478.07C514.059 477.366 513.269 478.001 509.733 479.834C507.576 480.952 506.714 481.825 506.375 482.704C506.4 482.863 506.349 483.02 506.375 483.182C506.503 484.029 506.508 484.746 506.215 485.424C506.2 485.464 506.236 485.543 506.215 485.584C506.186 486.019 506.022 486.11 505.737 486.221C505.638 486.294 505.524 486.324 505.418 486.381C505.219 486.409 505.052 486.53 504.78 486.53C504.02 486.725 503.13 486.768 502.219 486.69C502.171 486.7 502.111 486.679 502.06 486.69C501.598 486.773 501.155 486.816 500.625 487.009C497.111 488.287 499.183 488.128 497.586 491.164C495.988 494.199 495.35 496.756 492.155 495.638C490.158 494.939 488.64 494.236 487.681 494.512C487.605 494.605 487.413 494.564 487.362 494.681C487.038 495.436 486.901 496.555 486.405 497.551C486.232 499.646 486.293 501.094 483.366 502.026C479.851 503.144 481.448 503.78 484.004 503.62C486.56 503.46 484.164 504.582 483.685 506.659C483.206 508.736 483.848 509.378 481.772 510.336C480.598 510.878 480.973 510.8 480.815 510.017C478.246 511.173 474.166 509.438 471.229 509.858C466.914 510.817 464.034 515.125 460.198 516.564C455.883 518.003 459.244 511.294 449.655 510.814C443.424 510.335 450.136 513.214 449.177 514.173C448.218 515.129 446.3 515.131 444.862 514.651C443.424 514.651 441.993 514.644 441.514 513.684C441.514 512.725 444.868 510.335 438.156 506.978C436.718 506.498 435.28 506.978 433.363 506.978C430.006 506.019 426.174 506.496 423.776 504.098C421.379 501.7 423.781 496.91 421.863 494.512C420.904 493.073 418.988 496.435 417.07 496.435C414.193 496.435 408.439 497.389 408.919 494.512C409.398 490.676 418.026 491.961 418.505 488.125C418.505 484.288 413.232 481.417 409.876 481.897C406.999 482.376 412.27 487.801 410.832 489.719C408.435 492.117 404.602 493.557 401.246 493.077C400.24 493.014 399.386 492.724 398.695 492.28ZM398.695 492.28C396.65 490.167 389.505 486.695 394.54 480.94C395.789 479.273 394.117 489.335 398.695 492.28ZM3.441 117.155C0.884699 118.113 -1.03769 120.034 1.19891 120.353C3.43562 120.673 6.63626 120.35 3.441 117.155ZM71.5006 178.508C69.9877 178.583 69.7419 180.499 72.1384 181.697C75.3336 183.294 77.2482 182.021 73.4139 179.146C72.695 178.667 72.0048 178.483 71.5006 178.508ZM79.8013 197.192C77.8522 197.839 78.0111 201.77 83.6378 204.706C90.9869 208.54 85.8777 200.556 82.0434 197.68C81.5643 197.401 81.163 197.25 80.7579 197.192C80.4039 197.141 80.0799 197.1 79.8013 197.192ZM117.189 226.429C117.189 226.429 113.674 229.945 117.508 230.903C121.342 231.862 122.943 234.097 121.026 231.541C119.109 228.985 123.26 227.707 117.189 226.429ZM538.521 234.042L536.369 236.145L538.521 234.052L540.813 234.082L540.833 234.072L538.521 234.042ZM549.572 235.636C549.653 235.842 549.778 235.98 549.871 236.174L549.881 236.164C549.79 235.972 549.662 235.839 549.582 235.636H549.572ZM543.215 237.231C542.733 237.438 542.188 237.56 541.551 237.53C540.691 237.489 540.069 237.417 539.647 237.291C540.066 237.419 540.685 237.499 541.551 237.54C542.188 237.57 542.732 237.437 543.215 237.231ZM110.802 243.05L108.879 246.887L114.947 247.843L110.802 243.05ZM140.517 280.757C137.322 280.757 135.086 283.307 139.879 283.946C144.672 284.585 147.227 289.058 150.422 289.058C153.617 289.058 147.227 280.757 140.517 280.757ZM144.991 295.136C142.754 297.373 144.029 303.119 146.585 307.592C149.142 312.066 150.741 307.271 150.422 303.756C150.103 300.241 148.186 298.971 144.991 295.136ZM611.175 524.237C609.257 528.074 605.426 530.943 604.947 534.78C604.467 538.137 607.823 544.367 604.947 544.366C601.59 544.366 599.194 540.528 596.317 541.008C593.92 541.487 593.921 545.797 591.524 547.236C589.606 548.195 587.214 546.277 585.296 547.236C582.899 548.195 582.422 551.549 580.025 552.029C579.066 552.509 578.113 549.157 577.633 550.116C575.715 552.993 576.191 557.302 575.232 560.658C574.273 562.097 569.002 560.663 569.482 562.582C570.92 565.459 575.71 566.889 575.71 569.766C575.71 573.123 569.481 574.074 569.96 576.951C570.919 580.787 578.11 579.831 578.59 583.667C579.069 587.024 571.393 588.939 572.352 592.775C572.831 595.652 580.502 589.898 580.981 592.775C581.461 596.611 573.797 598.525 573.797 602.361C573.317 605.718 579.065 606.668 580.503 609.546C581.462 611.464 578.587 613.379 579.546 614.817C583.861 622.01 587.692 617.214 593.926 619.132C595.364 619.612 593.441 633.518 600.154 626.805C602.551 623.927 601.117 619.619 602.555 616.262C603.514 614.824 606.382 614.822 606.382 612.904C606.861 611.945 603.512 613.386 603.512 611.947C603.512 610.988 605.902 611.942 606.382 610.981C611.656 605.226 609.261 596.608 609.261 590.374C609.261 584.619 617.414 578.397 616.934 570.245C616.934 567.367 616.929 556.831 615.489 553.474C615.276 552.939 614.98 552.372 614.692 551.869C615.029 552.034 615.131 552.03 615.011 551.551C614.052 549.632 611.183 544.362 611.663 546.279C612.382 548.437 613.544 550.024 614.533 551.71C613.454 551.05 611.175 548.612 611.175 547.236C611.175 541.961 617.887 529.033 611.175 524.237Z"/>
</svg>
