<svg width="364" height="492" viewBox="0 0 364 492" xmlns="http://www.w3.org/2000/svg">
<path d="M105.616 0.935236C105.507 0.894318 105.434 0.976052 105.297 1.09467C105.113 1.25008 104.782 1.64579 104.5 2.21073C103.37 4.47004 101.992 6.10379 100.185 16.2711C100.073 18.6434 101.188 20.3006 101.301 18.832C101.415 17.3634 101.896 13.644 102.347 12.5143C102.799 11.3848 103.337 11.6106 104.579 12.5143C105.822 13.4181 105.964 12.4285 108.336 11.6374C110.708 10.8467 111.153 9.88363 110.249 9.88363C109.346 9.88363 106.805 10.6101 104.659 10.0431C102.513 9.47833 104.159 6.43973 104.5 4.29338C104.775 2.54942 106.508 2.10226 106.732 1.89186C106.224 1.76507 105.939 1.05472 105.616 0.935236ZM113.767 10.0431C113.767 13.4001 114.242 17.229 115.68 20.5858C116.223 21.6724 119.856 25.938 123.024 29.6937C121.782 33.1957 122.486 33.3106 120.792 34.3273C119.098 35.3442 119.403 38.4198 122.227 37.516C124.627 36.7478 125.349 36.001 126.542 34.0084C127.005 34.6284 127.658 35.4521 127.658 35.6028C126.107 42.1438 118.648 39.6015 113.289 41.8308C113.653 42.2771 117.393 42.7716 115.68 44.7106C115.201 45.6696 111.364 44.0706 111.844 45.0295C112.224 48.1753 112.354 50.5136 120.473 48.7065C121.783 50.0548 121.602 50.3987 122.227 49.982C122.826 49.5827 123.94 48.2671 124.947 46.9427C125.229 46.9974 125.59 46.9273 125.745 47.1022C122.266 51.1658 119.888 51.6756 120.473 58.2927C121.278 58.7589 121.812 58.7808 122.546 58.6115C124.014 58.2728 124.502 59.4283 125.745 61.8003C126.987 64.1728 126.409 65.0854 124.15 64.5207C122.107 64.0099 121.831 63.8261 120.792 64.5207C121.336 66.6847 122.115 68.622 122.865 70.1109C121.906 76.8247 132.767 74.1068 134.205 74.1068C142.919 75.0372 140.664 83.0148 146.192 85.1279C147.714 88.6831 145.379 92.3153 158.808 95.6706C145.593 93.6742 146.507 90.4092 144.11 86.5728C139.38 82.6409 139.962 77.6181 136.606 76.1795C132.291 74.2612 127.181 78.2646 122.387 77.3055C120.469 77.3055 118.075 77.2953 116.637 76.3389C115.199 75.8594 114.985 72.3803 114.245 72.9907C104.121 81.3506 107.291 88.6212 109.452 95.1923C102.869 93.5234 100.226 86.6689 97.9528 92.3225C94.95 99.7896 102.269 93.0542 99.5472 102.068C99.0524 103.707 96.8304 104.898 94.4353 100.783C93.7243 100.767 91.3568 100.209 91.5654 98.5505C91.774 96.8916 95.6565 95.8532 93.7975 92.6413C91.3851 88.4733 89.9618 87.4354 90.2799 84.9684C89.8004 84.4889 88.3678 84.0118 87.8884 84.0118C77.9577 83.7031 76.2221 84.8052 71.4365 86.2439C68.9263 85.5661 62.6532 84.9665 60.256 86.4034C58.8685 87.0973 56.6878 89.2557 54.8252 92.0036C56.4558 93.6769 57.4261 94.3104 56.579 94.3952C55.4496 94.5081 54.8052 94.6078 55.144 95.5112C55.4298 96.2726 54.7417 95.7668 53.2208 94.8735C50.8387 99.1985 49.311 104.046 51.3076 106.542C53.2611 106.841 56.4915 107.677 59.1399 107.658C59.4794 108.585 61.664 109.787 60.0965 112.77C60.5012 116.211 59.2603 120.918 57.6452 125.475C57.7185 126.338 57.7052 127.19 57.416 128.106C56.7396 130.248 55.9476 133.518 53.9184 135.998C52.5141 137.714 52.0005 140.429 51.5766 142.914C51.7158 146.717 52.9376 151.115 50.0321 151.115C46.6757 151.115 43.8022 149.67 40.4459 149.67C39.4871 149.67 38.0544 149.68 38.0544 150.637C37.5748 152.075 39.9687 153.513 39.4893 154.951C39.4893 155.91 37.0889 154.469 36.6095 155.908C35.6153 157.565 35.8687 158.654 36.7291 159.485L36.3305 160.292L46.086 164.179L46.7537 163.112C46.8212 163.139 46.9064 163.154 46.9729 163.182L47.8598 162.166C47.8598 162.166 48.3201 163.303 48.627 164.009C49.6968 164.727 50.4191 165.652 50.5104 166.929C51.1032 170.635 50.56 173.312 49.4143 175.489C49.5967 176.074 49.3714 176.511 48.7466 176.744C47.333 178.741 45.2778 180.241 42.987 181.647C42.7379 182.069 42.438 182.524 42.3592 182.813C42.2384 183.256 41.1728 183.373 40.137 183.381C39.2145 183.913 38.2957 184.488 37.3668 185.065C37.3499 185.095 37.3545 185.094 37.3369 185.125C36.4602 186.639 33.8293 186.639 37.7355 189.27C39.5013 190.459 40.2026 191.085 40.426 191.612C40.4363 191.633 40.4666 191.65 40.4758 191.672V191.682C40.5324 191.844 40.5046 192.016 40.4659 192.17C40.4737 192.379 40.5469 192.572 40.4459 192.808C40.2223 193.33 39.6515 193.875 38.9512 194.422C37.7856 195.839 36.3803 196.923 36.3803 196.923L35.8422 196.295C31.3381 198.519 24.9457 200.32 22.7185 200.002C19.3623 200.002 17.4441 196.647 14.5673 195.687C13.6085 195.208 15.5264 198.088 14.5673 198.567C11.6907 199.526 8.82331 198.085 6.42609 199.524C5.84569 199.814 5.96019 200.446 6.14707 201.118L7.4425 203.38L5.84813 204.975L8.87743 206.33C8.87743 206.33 8.6383 206.808 8.55856 208.482C8.47881 210.156 11.5879 211.193 11.5879 211.193L11.0597 213.176C14.3364 217.554 17.1765 222.86 14.5673 229.239C13.129 232.596 9.77773 234.99 8.33933 238.347C6.4215 242.183 12.6554 239.297 12.1758 241.695L3.06795 249.846C2.10903 249.846 3.42014 247.702 1.98178 248.182C-2.33322 255.241 9.41233 250.486 7.86102 260.389C7.38149 262.307 4.02564 262.307 3.54626 264.225C3.43947 264.546 3.96534 265.603 4.44309 266.597C5.22135 267.512 5.99234 268.758 6.72503 268.829C9.19597 269.068 8.23968 269.547 9.51518 271.938C10.7907 274.33 12.3053 274.888 13.9794 275.127C15.6535 275.366 15.4142 276.562 13.4214 278.316C11.4284 280.069 11.3487 282.302 12.5445 283.338C13.7402 284.374 16.6101 283.338 17.9653 285.809C19.3205 288.28 17.1681 291.629 18.5234 292.984C19.8783 294.339 19.3205 296.571 17.6465 296.412C15.9723 296.252 15.1752 296.332 15.0955 297.448C15.0157 298.564 13.5011 299.441 11.4284 300.398C10.3921 300.876 10.432 301.753 10.6113 302.58C10.7907 303.407 11.1095 304.184 10.6312 304.463C9.92472 304.875 8.45572 305.824 7.45246 306.466C7.52486 306.609 7.4033 306.624 7.56208 306.815C8.55839 308.011 8.04081 308.29 7.12363 308.967C6.20675 309.645 7.28253 312.161 7.30299 312.325C7.47217 313.96 7.70075 317.616 8.99701 317.109C10.2935 316.601 10.2902 317.787 10.9103 319.929C11.5303 322.07 13.0507 321.908 13.8399 323.655C14.629 325.403 15.3099 323.031 16.3809 324.552C17.4519 326.075 16.7133 326.747 18.7426 326.466C20.7718 326.184 21.2266 326.017 21.1142 327.821C21.0579 328.723 21.202 329.856 21.0744 330.92C20.9475 331.984 20.5476 332.982 19.4202 333.63C17.1651 334.927 18.4089 336.11 17.507 337.237C16.605 338.365 17.2259 339.66 15.8727 340.506C14.5199 341.351 14.459 343.771 15.1353 345.688C15.4769 346.655 14.5395 347.131 13.7702 348.079C14.0524 348.389 14.0974 348.588 14.4378 348.916C14.4894 349.019 14.5101 349.111 14.5673 349.215C15.5264 350.654 18.4004 349.22 19.8387 350.66C23.6744 353.058 26.0653 364.07 30.8598 368.866C36.6133 375.1 27.0189 355.435 41.4026 368.387C42.3615 369.347 40.4413 371.264 40.9242 372.702C41.883 374.141 57.221 367.914 59.6182 369.832C61.0566 371.271 60.0932 374.143 61.5315 375.582C63.4493 377.021 92.1978 380.376 90.2799 383.733C85.0058 392.845 75.4316 398.581 71.5959 406.254C70.1575 409.61 69.6738 420.157 69.1944 423.034L62.4881 434.056C61.5293 436.453 60.5737 438.842 61.0532 441.24C61.0532 441.271 61.0831 441.281 61.0831 441.31C63.8189 443.97 65.5594 444.998 64.9693 445.963C64.3492 446.978 62.7173 448.832 62.7173 450.129C62.7173 451.425 61.0247 452.16 61.8703 453.457C62.7158 454.754 59.2806 456.442 59.957 457.851C60.6334 459.261 61.028 461.008 59.957 461.798C58.8862 462.587 58.8815 462.419 59.0502 464.279C59.219 466.139 61.3621 467.269 61.3621 467.607C61.3621 467.784 61.585 468.22 61.8304 468.992L62.1792 470.397C62.2149 470.601 62.2303 470.863 62.2589 471.095C62.2845 471.115 62.3432 471.124 62.3685 471.145L64.5209 469.042L66.8327 469.072L65.7566 469.49L66.4641 470.846L64.7202 471.523L64.6704 471.713C64.7747 471.717 64.8395 471.737 64.9494 471.742C65.0568 472.228 65.8307 472.448 67.5502 472.53C68.8258 472.591 69.7432 472.049 70.4898 471.414C72.2805 471.188 73.7169 470.96 75.5819 470.636C76.1008 471.952 76.8523 473.152 77.9136 472.849C80.1458 472.211 82.6967 473.008 85.8855 470.298C86.5104 469.766 86.9666 469.183 87.4101 468.604C88.3197 468.593 88.6559 468.679 89.3233 468.713C89.7701 470.009 90.6338 472.089 92.2629 471.852C94.4552 471.533 93.937 471.294 95.3321 471.852C96.7271 472.41 97.8437 471.772 98.4013 471.294C98.9594 470.816 96.1691 471.055 97.2055 469.979C98.2419 468.902 99.8765 467.747 100.633 468.185C101.391 468.623 102.586 469.261 101.869 469.859C101.151 470.457 103.942 470.337 103.384 469.221C102.826 468.105 101.987 468.384 103.224 467.308C104.46 466.232 105.138 466.112 103.344 465.953C101.55 465.794 101.51 465.912 100.753 466.83C99.9957 467.747 97.8032 467.547 97.4048 467.189C97.0065 466.83 94.0173 466.312 95.5314 464.279C97.0461 462.246 97.5248 459.416 99.039 459.057C99.1387 459.032 99.1524 459.033 99.2582 459.017C100.77 458.804 102.945 459.356 102.387 458.499C101.789 457.582 101.909 456.028 103.224 457.264C104.54 458.499 103.702 460.572 104.938 460.293C106.173 460.014 104.619 458.18 105.895 457.662C107.17 457.144 107.17 460.731 108.167 460.213C109.163 459.695 108.925 459.855 109.562 460.731C110.2 461.608 108.684 461.688 109.402 462.565C110.119 463.442 108.127 462.924 108.246 463.92C108.366 464.917 109.921 463.92 110.479 464.837C111.037 465.754 112.153 465.874 111.834 465.235C111.515 464.598 112.667 464.598 111.874 463.761C111.076 462.924 111.117 463.043 111.595 462.366C112.073 461.688 112.591 462.525 113.428 463.003C114.265 463.481 113.906 463.641 114.903 463.641C115.71 463.641 115.034 463.866 114.385 464.847C114.885 465.616 114.801 466.449 116.159 467.129C116.159 467.129 131.972 466.172 132.451 466.172C137.725 467.611 141.078 472.873 146.352 474.792C154.023 477.189 153.541 468.559 155.938 470.477C156.897 471.436 155.936 473.833 156.895 474.792C158.813 475.271 160.728 472.876 162.166 473.835C164.084 474.794 165.042 477.19 166.959 478.628C169.356 480.546 166.001 482.461 166.959 483.899C167.439 484.859 168.87 485.334 169.829 485.334C170.788 485.334 172.229 483.42 172.709 483.899C174.147 485.818 168.868 488.698 170.786 490.616C174.142 493.973 183.252 482.948 183.252 481.03C184.021 478.338 182.96 473.752 183.74 472.56C187.975 476.118 200.55 469.211 202.414 475.27C202.894 476.229 200.021 475.756 200.501 476.715C200.98 477.674 203.369 477.669 203.849 478.628C204.808 479.587 203.859 481.984 204.815 482.943C206.733 483.902 223.02 479.586 223.499 479.106C224.458 478.147 222.543 475.749 223.978 475.27C225.896 473.831 228.288 476.227 230.206 474.792C232.124 473.833 231.168 470.479 233.086 469.52C239.318 467.122 250.328 470.004 257.041 468.085C258.479 467.606 253.211 459.935 258.964 459.456C259.923 459.456 258.005 462.334 258.964 462.814C261.362 463.773 264.229 461.373 267.105 462.336C268.544 462.815 268.067 466.171 269.985 466.65C273.821 467.13 277.171 463.771 281.006 463.771C288.198 464.25 276.206 471.921 291.549 476.237C292.508 476.237 293.462 474.794 293.462 473.835C297.777 458.01 292.508 465.208 287.234 460.412C284.837 458.494 291.55 452.751 291.071 452.271C291.071 451.792 279.571 435.969 279.571 435.969C280.051 428.296 300.328 423.511 304.643 420.155C309.438 416.318 306.564 411.049 307.523 406.254C308.002 405.294 308.955 404.819 309.914 404.819C319.983 407.217 322.857 410.094 323.337 397.146C323.816 384.678 303.057 377.498 295.386 372.224C292.029 369.346 291.547 364.081 288.191 360.725C284.575 357.108 280.073 360.776 277.17 358.482C276.328 357.817 278.336 356.808 277.967 356.091C276.587 353.406 274.972 353.045 272.855 352.892C267.87 340.069 268.076 336.801 261.356 332.444C262.315 327.169 268.544 329.572 267.105 322.858C266.626 319.981 263.271 319.342 262.312 318.862C258.922 316.658 255.787 313.215 253.374 309.755C253.376 308.674 253.308 307.614 253.374 306.885C253.543 305.021 251.699 304.228 250.494 303.367C249.289 302.507 249.084 302.007 248.9 301.454C249.146 301.271 249.65 301.043 250.016 300.816C251.306 300.015 248.35 298.657 249.856 297.617C251.781 296.288 253.244 299.261 254.649 301.135C256.567 302.574 256.561 309.281 257.519 307.363C261.355 299.69 263.27 290.587 275.257 288.669C276.695 288.669 281.958 292.98 283.876 290.582C285.315 289.144 283.881 286.27 285.321 285.311C286.76 283.872 289.632 286.267 291.071 284.833C293.947 282.914 294.578 277.172 298.893 276.213C300.332 275.733 301.292 279.085 302.251 278.126C304.649 276.208 303.69 272.372 306.088 270.453C308.964 268.056 314.23 270.937 318.065 269.018C319.024 268.539 318.064 266.14 319.022 265.66C324.776 262.303 332.919 261.836 338.673 257.041C340.59 255.602 331.964 253.679 332.923 251.281C333.729 249.008 334.531 246.771 335.633 247.136C337.14 247.634 337.825 249.459 338.882 249.398C339.939 249.337 340.088 248.647 340.646 248.61C341.001 248.585 341.273 249.102 341.543 249.368C341.936 249.414 342.257 249.435 342.659 249.527C346.555 250.431 346.615 250.8 346.246 252.527C345.878 254.253 346.004 254.998 346.495 255.118C346.986 255.239 347.496 254.645 348.089 254.32C349.868 253.346 349.291 255.267 348.249 257.2C348.342 257.307 348.475 257.415 348.568 257.519C348.099 259.796 349.99 260.273 351.766 260.548C352.709 261.176 353.659 261.537 354.487 261.346C357.364 260.866 357.363 254.18 360.874 242.662C362.243 238.173 364.33 235.346 361.193 228.92C359.38 225.207 360.72 222.005 356.4 219.174C354.482 217.256 350.167 218.215 348.249 215.338C346.81 213.42 352.659 212.133 349.215 208.153C348.044 206.56 345.707 203.971 345.22 201.278C344.804 198.985 342.017 199.28 343.456 197.122C350.089 190.291 346.467 189.941 348.249 182.743C347.769 181.784 345.858 182.269 345.379 180.83C344.899 178.432 346.817 175.076 345.379 172.679C344.42 169.801 340.954 170.543 339.629 166.451C337.472 163.813 339.369 160.97 340.267 159.097C341.165 157.223 341.855 156.319 341.064 151.593C340.471 148.046 334.861 145.213 330.521 141.529C326.496 138.112 321.894 139.134 320.935 136.257C320.096 133.979 322.689 135 322.051 129.7C321.753 127.226 325.273 125.436 327.004 123.472C328.834 121.396 329.599 117.318 330.362 114.683C331.125 112.049 331.838 110.854 331.478 107.977C330.519 103.182 324.774 89.4525 323.815 81.7797C322.87 81.8503 324.635 78.7356 323.177 78.2621C321.719 77.7887 318.843 80.3027 315.823 78.581C312.002 76.3286 309.851 74.6896 308.639 73.4691C309.045 73.3678 309.699 73.1502 309.914 73.1502C311.157 73.1502 310.625 71.1404 311.19 71.7053C311.754 72.2701 310.336 72.8779 311.349 72.9907C312.366 73.1043 313.419 71.5859 314.548 70.9081C315.677 70.2303 316.033 71.1341 318.065 70.9081C320.099 70.6821 321.254 71.0675 321.254 71.0675L320.935 68.8354L320.457 68.0382L321.573 67.2411C321.573 67.2411 321.786 67.2001 319.979 65.9556C318.172 64.7129 318.302 64.3717 315.026 61.322C311.751 58.2716 311.206 58.9166 311.997 60.0465C312.788 61.1757 314.049 62.3013 314.388 63.8829C314.727 65.4644 314.202 66.6334 313.751 65.9556C313.299 65.2778 312.316 64.8395 312.316 64.8395C312.316 64.8395 312.047 63.8364 311.03 63.7235C310.014 63.611 308.851 64.733 309.755 65.6367C310.659 66.5404 310.914 69.1206 310.233 70.5892C309.968 71.1642 308.704 71.6197 307.363 71.8747C306.313 68.852 313.892 69.2095 304.324 62.7669C300.926 60.4786 312.307 59.5768 309.117 58.4521C305.051 51.4779 302.613 51.9785 303.208 54.7751C299.372 53.816 293.63 55.5618 292.984 58.6115C290.928 54.6858 287.231 52.3797 284.355 49.982C282.916 48.0638 279.565 49.0204 278.127 47.1022C276.209 44.2248 278.137 37.516 274.778 37.516C274.539 37.516 274.298 37.4701 274.141 37.3566C274.082 37.4374 274.042 37.6162 273.981 37.6755C272.739 38.8617 272.992 38.1699 271.58 38.9609C270.168 39.7517 270.427 40.4752 270.145 41.8308C269.862 43.1865 267.959 43.0533 267.903 42.1497C267.846 41.2457 267.474 40.7613 266.627 40.8742C265.78 40.9872 264.435 40.9345 263.757 39.9176C263.079 38.9005 263.638 39.0703 262.791 39.9176C261.944 40.7648 261.117 41.3953 259.761 42.4685C258.406 43.5419 258.469 40.7576 257.848 41.8308C257.227 42.904 257.807 43.6208 256.563 44.0729C255.321 44.5248 255.672 45.2416 255.447 46.1456C255.221 47.0492 254.061 46.3378 253.215 47.7499C253.158 48.4276 253.772 49.1085 255.128 49.5037C256.483 49.8989 254.431 49.8524 252.736 49.3443C251.042 48.8361 252.391 48.4477 251.77 47.2616C251.148 46.0754 251.946 46.2622 252.736 45.1889C253.527 44.1156 253.318 44.7906 253.374 43.4351C253.431 42.0794 253.314 42.1897 254.331 41.5119C255.347 40.8341 256.725 41.3913 258.645 40.7147C260.565 40.0367 258.848 40.5026 259.921 39.5987C260.994 38.6949 261.183 39.1766 262.312 39.1204C263.442 39.0636 263.106 38.4826 264.236 38.4826C265.365 38.4826 266.012 38.8216 267.424 38.4826C268.836 38.1442 269.67 38.1163 271.42 38.0043C271.778 37.9788 272.049 37.452 272.377 36.7189C272.132 36.7239 271.913 36.6524 271.58 36.7189C265.487 36.4949 257.043 34.1653 256.084 35.1245C253.207 38.4814 252.733 43.7453 249.856 47.1022C247.007 49.3016 245.934 50.2558 242.831 53.4996C242.352 53.9791 234.879 56.6069 232.926 56.8478C228.157 57.4362 227.015 56.7569 225.413 57.1766C221.097 59.5739 219.669 71.5523 217.271 72.9907C212.032 66.1759 213.47 75.7653 207.207 65.7962C203.371 65.7962 200.659 69.9527 196.824 69.4732C195.936 68.6377 198.093 66.4121 193.147 66.5933C191.333 66.6598 191.854 62.1449 194.751 61.6408C198.489 60.9899 200.886 57.151 204.178 54.2968C203.984 47.3455 203.067 44.7257 204.975 41.9902C202.996 42.1549 202.604 43.2696 200.341 42.4685C198.038 41.6556 192.722 47.1385 192.031 47.4211C188.504 46.3465 178.455 38.8003 175.579 39.2798C172.222 39.7594 168.872 47.1022 168.872 47.1022C168.872 47.1022 171.265 40.8816 170.786 38.0043C170.306 33.6883 161.856 38.8121 158.33 38.1638C155.734 34.7493 161.792 39.1874 164.558 32.723C165.517 30.325 165.996 27.4579 164.558 25.06C164.078 24.101 161.689 26.0192 161.209 25.06C160.251 24.5805 162.164 23.4569 163.123 22.9774C163.123 22.9774 164.079 23.4569 164.079 22.9774C164.079 21.5387 163.604 19.6318 162.166 18.6726C160.967 17.9533 160.49 17.5581 158.17 18.6726C156.753 16.5154 154.679 15.2417 152.739 15.4739C150.151 14.7006 149.281 13.6607 148.265 12.4346C146.347 12.9142 145.39 15.3107 143.472 16.7494C142.513 17.2289 142.511 16.7523 142.994 15.3145C136.761 14.3553 130.543 11.0023 124.31 10.0431C122.871 10.0431 117.123 10.5227 113.767 10.0431ZM110.568 18.5132C107.745 18.6267 104.061 20.2132 106.094 22.0208C109.257 23.3763 110.442 24.0339 111.684 22.3396C112.927 20.6451 113.392 18.4001 110.568 18.5132ZM288.35 20.9047C286.092 21.2437 284.003 20.8996 282.76 22.8179C281.518 24.7383 281.355 26.0969 282.601 24.7412C283.843 23.3856 285.664 23.3783 284.195 26.6544C282.727 29.9306 283.693 28.9563 285.162 27.9399C286.63 26.923 286.736 26.6946 287.075 26.0167C287.414 25.3389 287.54 25.9563 288.669 26.9733C289.799 27.99 290.42 28.7834 291.549 28.8965C292.679 29.0099 292.665 28.6633 292.665 30.8097C292.665 32.9561 292.951 32.9188 291.709 33.3707C290.466 33.8226 290.011 33.7597 289.785 32.4041C289.559 31.0483 290.257 31.2815 289.466 30.4909C288.676 29.7 289.64 29.6524 288.51 30.3314C287.38 31.0093 287.101 31.1558 287.553 28.8965C288.005 26.637 287.315 26.836 285.959 28.4182C284.604 29.9997 285.594 29.474 285.481 30.4909C285.368 31.5074 285.541 30.6432 284.524 29.8531C283.508 29.0623 281.657 29.9661 280.528 29.8531C279.399 29.7396 280.369 30.2713 280.369 31.288C280.369 32.3048 281.172 32.0852 281.963 32.0852C282.754 32.0852 283.259 32.0546 282.92 32.7329C282.581 33.4107 282.495 33.3044 283.398 33.5301C284.301 33.7561 284.846 32.9252 283.717 34.1679C282.587 35.4106 281.319 35.928 280.528 36.7189C279.737 37.5097 280.787 37.6854 281.804 37.6854C282.82 37.6854 282.514 37.8312 283.079 38.9609C283.644 40.0908 284.631 40.8742 282.601 40.8742C280.568 40.8742 279.591 40.0898 279.253 41.6714C278.914 43.2529 279.737 44.0793 280.528 44.8701C284.481 48.2592 285.102 48.3612 286.118 47.9093C287.135 47.4574 286.464 47.3242 286.915 48.2282C287.367 49.132 288.599 50.3409 289.955 49.6631C291.31 48.9853 288.24 47.1095 290.274 45.1889C292.307 43.2684 295.359 41.1066 297.618 41.6714C299.877 42.2362 300.773 43.5345 299.531 44.5512C298.288 45.5678 301.368 47.1988 301.932 44.7106C302.497 42.2251 303.281 42.3364 301.135 40.077C298.989 37.8177 296.947 39.3045 295.704 35.1245C294.462 30.9446 298.554 33.242 298.893 29.8531C299.232 26.464 297.17 26.4085 293.781 26.9733C290.393 27.5382 288.304 27.4324 288.191 25.06C288.078 22.6877 288.291 23.4956 289.307 22.8179C290.324 22.1401 290.609 20.5657 288.35 20.9047ZM115.999 31.1286C115.42 31.0979 114.176 31.557 112.482 32.4041C111.465 33.0819 111.558 33.1111 112.8 34.8056C114.043 36.5002 114.983 35.0954 115.999 32.723C116.507 31.5368 116.578 31.1568 115.999 31.1286ZM203.849 32.723C201.082 33.3518 200.584 37.4717 200.979 38.1638C201.431 38.9547 201.803 38.6224 202.254 38.9609C204.401 38.1703 204.45 37.9735 204.337 39.4392C204.224 40.9079 205.147 42.7546 206.729 41.5119C208.31 40.2692 209.21 40.2629 210.565 40.7147C211.92 41.1667 213.375 41.8982 211.681 38.9609C209.987 36.0237 209.087 33.2875 205.134 32.723C204.64 32.6524 204.244 32.633 203.849 32.723ZM281.166 33.2112C280.335 33.3012 279.517 34.2571 278.924 35.4434C278.133 37.0248 279.956 35.9357 282.441 34.8056C282.667 34.3537 283.09 34.321 281.963 33.5301C281.681 33.3323 281.443 33.1811 281.166 33.2112ZM220.311 64.5207C220.203 64.4639 219.927 64.5513 219.504 64.6801C217.809 65.1883 214.229 65.9583 215.358 67.8788C216.488 69.7992 217.102 69.9411 217.271 68.3571C217.441 66.7756 217.865 66.2608 217.75 67.5599C217.637 68.859 217.612 71.6475 219.025 67.2411C219.745 65.6736 220.631 64.6902 220.311 64.5207ZM77.6745 79.9661C77.2371 80.0228 77.0965 80.1982 77.0965 80.5939C77.0965 81.3847 78.1061 80.8199 79.3485 80.9327C81.7205 80.3683 82.398 80.1389 80.0262 80.0259C78.8402 79.9692 78.1123 79.9094 77.6745 79.9661ZM70.8785 80.9327C69.2973 81.0462 69.3009 80.7062 68.736 81.9491C68.1714 83.192 70.0944 83.4141 70.3204 82.7363C70.5464 82.0588 69.7554 81.8364 73.0309 81.9491C76.3064 82.0621 75.0576 80.9329 70.8785 80.9327ZM59.9271 82.3975C54.2797 82.3975 57.2128 84.0918 60.3756 83.7527C64.2158 83.3008 65.5748 82.3975 59.9271 82.3975ZM52.3539 84.9884C51.0604 84.9628 49.4212 84.9935 47.501 85.108C44.1126 85.6728 47.7229 85.7888 53.0315 85.6759C57.0129 85.5911 56.2348 85.0571 52.3539 84.9884ZM43.5749 88.5259C42.6431 88.4691 40.9479 88.665 38.8017 89.1736C37.7854 89.8513 39.0307 91.0999 40.725 91.6648C42.4191 92.2296 41.967 90.4196 43.7742 89.4028C44.6779 88.8946 44.5077 88.5823 43.5749 88.5259Z"/>
</svg>
