<svg width="461" height="436" viewBox="0 0 461 436" xmlns="http://www.w3.org/2000/svg">
<path d="M290.134 0.802612C280.785 2.7208 283.75 7.18357 288.218 11.0275C292.932 15.0845 289.318 15.5651 290.933 17.5777C292.52 19.5554 291.658 20.2035 291.732 21.5718C291.805 22.9401 291.612 24.2273 290.294 25.2464C290.294 25.2464 283.679 29.6284 280.71 30.6784C277.741 31.7283 278.339 29.4751 277.196 29.56C275.518 30.1594 273.866 32.015 271.765 32.7553C269.664 33.4961 267.363 32.856 265.216 33.3943C263.384 33.854 264.974 35.5342 263.299 35.7908C261.244 36.1057 255.426 39.1934 252.118 40.1044C250.679 40.1044 251.32 38.8266 250.361 38.347C247.963 37.1482 238.323 34.8517 234.547 34.1932C232.996 33.9227 232.41 34.96 230.394 34.8322C228.476 35.3118 231.034 37.548 229.116 38.0275C227.678 38.507 226.401 35.3118 224.963 34.8322C224.004 34.3527 219.532 35.4717 219.053 34.5127C215.697 32.5944 216.859 28.4019 214.421 27.6428C211.544 26.6837 211.227 30.039 208.351 30.5186C206.433 31.4776 203.999 30.9977 202.76 30.0396C201.911 29.6531 199.869 32.7513 198.128 33.2349C196.387 33.719 194.878 31.6387 193.815 32.7558C191.69 34.9889 195.187 37.8067 190.78 39.1463C186.875 40.3333 187.183 38.194 184.87 40.2647C180.112 44.5233 179.115 43.9592 176.564 44.7381C174.898 45.2468 175.969 46.0948 174.008 46.9748C171.131 47.9338 165.369 45.2213 162.348 49.0517C160.572 51.3029 160.033 47.0538 157.396 48.7322C155.478 49.6913 156.758 52.4062 154.84 53.3653C153.402 54.804 151.487 54.963 149.569 54.963C147.651 54.963 145.577 55.1224 143.659 55.1224C143.628 54.6424 143.551 54.0377 143.499 53.5248C143.474 53.9972 143.328 54.4867 143.34 54.9627C125.512 56.7102 139.829 65.3453 134.075 69.1817C133.116 70.1408 132.159 66.7849 131.2 67.2645C129.762 68.2236 130.722 70.2995 129.283 71.2586C128.564 71.7381 126.034 71.5091 123.213 72.5367C120.87 73.3902 118.095 73.1262 115.227 72.0577C112.17 70.9179 108.732 72.921 106.282 74.2944C104.216 75.4521 104.036 72.8187 101.33 75.4128C96.5352 77.0912 96.8891 79.2665 96.6976 81.6436C96.602 82.832 94.0237 85.43 93.5029 86.756C92.9822 88.082 94.5021 88.0334 93.1834 89.472C92.7038 89.8319 91.635 89.3493 88.3914 89.951C86.7696 90.2521 87.3109 91.6988 85.5161 93.306C81.8258 96.6105 82.5594 91.4109 75.453 93.7852C71.2461 95.1913 72.0659 98.0015 67.626 97.4598C63.7712 96.9894 56.9642 101.574 56.1251 101.454C55.8138 101.721 55.5096 102.215 55.1669 102.572C55.035 103.18 54.8765 103.691 55.1669 103.691C55.1669 109.925 62.8348 109.599 61.3964 115.353C56.6018 133.576 53.731 117.743 50.3749 130.691C50.3749 130.691 50.6438 132.719 50.3749 134.525C50.1049 136.331 47.8578 136.299 48.458 138.679C49.122 141.311 48.1972 143.289 47.4996 145.069C46.8114 146.824 47.4996 150.222 47.4996 150.342C44.4223 154.337 38.3092 151.001 36.478 154.655C35.0673 157.47 35.4077 158.748 32.0054 160.087L37.4363 169.673C38.8747 173.989 32.1652 169.671 32.1652 172.549C32.6447 185.017 27.3776 178.299 19.2268 179.738C19.3485 179.921 19.5264 180.397 19.2268 180.697C19.2268 180.697 25.0438 181.522 28.1719 182.294C30.1454 185.25 25.7352 189.403 31.6861 189.324C33.72 189.298 30.5668 194.755 32.4847 195.715C36.1601 200.03 40.6086 203.022 45.5829 203.383C46.5061 207.45 54.7661 211.05 57.4031 214.407C58.362 215.846 57.7216 217.761 59.1602 219.2C60.5985 220.159 61.5557 221.277 62.5146 221.756C62.7794 222.968 63.0509 223.942 63.3133 224.951C61.3425 226.637 59.3111 228.911 57.0836 231.342C53.5694 235.176 56.1252 241.567 56.4447 244.123C56.7642 246.679 60.5977 243.806 66.9871 239.65C64.4313 239.65 64.7508 239.01 63.7924 235.496C62.834 231.981 63.4728 230.703 64.4313 231.981C65.3897 233.259 64.7508 232.62 67.626 231.664C68.0789 231.511 68.474 231.194 68.7442 230.705C69.8408 232.602 69.5218 235.705 71.4597 237.256C71.9392 238.215 74.6538 236.295 75.6126 236.775C79.927 239.333 77.3686 246.2 81.5228 244.444C87.4347 251.317 84.7147 251.632 85.1967 254.349C85.5168 255.467 84.8767 258.823 85.8356 258.343C90.4695 257.544 93.342 256.108 95.2599 253.231C96.2187 252.272 96.0578 248.757 97.4962 249.237C100.373 250.676 98.7711 256.906 104.045 255.467C106.323 254.868 108.689 253.171 110.914 252.432C114.667 251.743 117.226 251.987 120.817 249.556C122.263 248.657 124.89 246.641 125.609 245.722C127.767 245.804 138.774 249.837 140.624 246.521C141.576 244.815 144.537 248.037 146.215 246.362C148.133 244.924 146.534 242.05 147.493 240.132C156.281 242.043 152.759 247.161 157.875 248.279C162.03 246.842 157.075 245.563 159.473 243.007C160.352 240.771 161.674 244.398 164.105 244.925C167.52 245.664 168.736 246.123 166.82 249.238C173.053 252.115 175.923 245.401 179.759 250.197C182.156 253.074 182.634 247.321 183.592 247.321C184.551 247.321 183.592 249.717 184.551 250.197C186.469 251.156 190.302 248.758 189.822 250.197C185.506 261.389 183.75 252.268 172.092 260.741C173.051 263.139 178.321 260.74 179.28 262.658C179.759 265.056 176.565 266.333 174.648 265.854C169.853 265.373 166.983 259.623 162.188 258.664C154.037 256.267 144.302 258.347 136.631 255.469C131.357 253.551 127.37 247.159 120.658 251.475C111.068 257.709 119.223 256.904 113.949 262.179C110.113 266.015 105.965 262.021 101.17 262.021C98.9551 264.788 99.1329 266.374 98.774 270.648C97.6546 274.487 94.3057 278.154 90.6276 281.192C87.3125 287.698 88.3182 288.531 98.4545 289.18C100.852 291.578 99.7313 296.049 101.649 298.447C102.608 299.885 103.885 296.37 105.323 296.849C111.556 298.767 125.13 307.549 124.651 315.221C123.692 326.251 120.657 320.33 121.616 327.523C122.575 332.798 121.134 331.038 124.811 335.671C126.248 337.269 128.964 338.546 128.964 339.506C128.804 341.344 130.582 348.038 133.436 347.334C138.448 346.098 136.068 351.25 139.826 349.251C147.976 345.415 131.826 330.876 148.93 330.559C151.807 331.039 149.568 334.552 151.007 336.949C153.018 339.512 154.355 333.628 162.827 348.133C167.141 355.164 165.203 358.735 166.501 361.393C167.799 364.051 169.613 361.952 173.529 365.867C174.488 364.908 173.527 360.435 173.05 358.997C169.216 351.485 173.052 350.37 173.21 341.583C180.883 335.343 181.512 336.467 186.627 344.298C189.503 347.494 192.537 349.41 193.496 350.37C195.573 353.406 199.246 353.724 200.684 354.683C202.921 358.678 206.274 357.879 208.351 356.6C202.442 352.125 207.233 351.808 198.607 347.015C198.128 346.056 197.968 343.82 197.968 342.861C197.489 341.902 195.413 341.104 195.413 339.665C195.413 338.227 200.685 340.786 198.767 336.47C196.849 332.154 189.823 321.614 187.905 318.257C186.946 316.818 184.072 318.258 183.113 316.819C182.634 315.38 184.074 313.465 183.592 311.547C181.674 308.191 170.332 295.254 174.168 289.979C176.565 287.102 176.242 293.174 180.078 293.174C180.558 293.174 183.113 290.938 183.592 291.417C184.551 292.856 193.016 295.091 194.454 295.571C193.616 297.535 193.75 298.804 193.017 298.926C192.058 299.084 191.582 301.482 193.496 301.482C195.412 301.482 193.655 303.24 197.329 303.719C201.003 304.199 195.732 301.642 199.246 300.524C202.76 299.405 203.399 299.245 201.323 298.766C199.246 298.286 199.725 297.648 202.441 296.37C202.78 296.211 202.922 296.053 202.92 295.889C208.145 295.285 214.898 293.704 212.663 291.096C211.947 290.236 211.149 289.661 210.267 289.179C211.641 288.173 212.978 287.387 211.705 286.623C210.108 285.664 210.267 285.664 209.788 287.422C209.569 288.224 209.097 288.521 208.67 288.54C208.35 288.428 208.044 288.305 207.712 288.223C207.159 288.08 206.691 287.834 206.114 287.742C206.111 287.742 205.958 287.742 205.955 287.742C205.721 286.669 206.007 284.787 206.274 283.269C206.753 280.553 205.955 280.074 202.76 281.192C199.566 282.31 201.642 283.588 203.399 284.707C204.145 285.183 204.65 286.399 204.997 287.583C200.946 287.092 196.558 287.292 193.496 284.228C192.057 282.789 193.816 280.394 192.857 278.476C192.377 277.517 189.502 278.159 189.502 276.719C189.502 275.28 193.976 273.045 192.537 272.565C189.181 271.126 183.433 272.887 181.995 269.529C184.55 265.694 195.09 261.702 200.844 259.784C204.2 258.825 201.639 254.67 207.073 253.553C211.868 254.992 217.134 264.575 220.491 266.973C221.45 267.454 221.928 265.056 222.887 265.535C223.366 265.535 229.116 269.369 229.595 270.328C230.075 271.287 229.116 272.724 230.074 273.683C231.513 274.164 233.428 275.122 234.387 273.683C239.661 265.531 235.986 263.62 233.589 259.304C232.63 257.386 231.512 254.513 230.554 252.115C230.074 250.197 227.199 248.761 227.199 246.364C227.199 243.007 235.348 245.408 230.074 239.654C223.362 231.981 221.454 235.021 211.865 234.541C205.631 232.623 207.393 228.63 205.476 227.671C202.119 225.273 195.894 229.43 192.058 227.032C186.146 222.718 194.136 221.601 188.384 218.724C185.507 217.286 182.636 222.4 179.279 221.44C176.403 220.961 177.684 216.169 174.807 215.21C171.451 214.57 166.822 214.731 162.986 214.731C162.027 215.21 161.869 215.849 160.91 215.37C159.472 214.411 158.675 211.855 156.757 211.855C154.839 211.855 153.882 214.251 152.444 214.731C151.006 215.21 146.693 213.772 148.131 213.293C155.242 205.942 154.669 211.066 160.59 208.979C166.409 206.928 161.387 206.424 170.654 203.228C174.729 199.631 174.153 195.522 172.091 196.677C169.096 198.355 168.818 196.278 168.737 193.961C167.298 193.002 165.064 192.364 162.507 189.807C161.548 189.328 160.111 187.89 159.632 185.014C161.707 182.938 162.986 184.697 163.945 182.139C163.945 180.7 162.506 177.825 163.945 177.825C166.791 179.068 170.692 180.23 174.008 180.861C175.966 183.001 176.172 183.887 177.362 185.014C178.88 186.452 179.998 186.213 178.96 187.571C177.921 188.929 178.56 190.047 176.564 191.085C174.567 192.124 173.289 192.843 174.168 191.405C175.046 189.967 174.885 189.328 173.689 189.807C172.491 190.286 173.05 189.088 172.411 191.565C171.772 194.041 170.973 195.639 176.085 193.482C181.196 191.325 183.193 188.929 185.669 186.932C182.416 176.385 169.581 168.278 161.07 164.405L154.84 151.782C144.057 144.761 149.345 144.13 145.735 142.356C141.682 140.363 137.829 137.166 137.11 132.61L140.464 118.231C139.985 115.834 135.808 115.509 135.672 112.959C135.591 111.442 139.014 112.174 138.867 111.042C138.627 109.195 139.72 109.604 141.902 108.806C143.786 108.116 141.023 105.787 143.02 104.971C144.438 104.392 147.373 99.8179 148.291 100.498C162.47 110.994 136.386 101.133 151.166 114.877C156.52 116.237 163.144 120.386 172.091 121.906C174.108 125.86 171.899 125.892 174.008 128.936C176.354 132.321 176.763 134.487 177.842 136.924C184.153 135.087 187.266 138.442 195.093 136.924C197.49 132.608 165.377 129.262 176.404 117.273C177.843 115.355 180.556 118.391 182.953 118.391C184.871 118.871 186.946 117.273 188.863 117.752C196.535 121.589 197.006 130.212 204.677 133.09C208.033 134.528 208.512 124.943 205.636 122.066C201.8 118.229 188.863 117.596 190.301 111.841C191.02 108.643 197.497 106.105 201.323 109.125C205.675 112.56 208.429 108.962 213.143 111.202C213.143 111.202 217.415 115.713 220.65 119.03C221.469 119.87 226.082 118.315 225.283 116.314C223.605 112.917 221.813 113.88 218.574 110.882C214.299 106.926 210.948 106.05 207.073 105.77C205.155 105.29 204.518 100.977 202.601 101.456C201.162 101.456 203.719 103.373 203.719 104.332C203.239 105.291 202.761 105.77 202.281 105.77C200.363 106.25 196.691 104.972 195.732 104.013C191.498 97.4612 197.808 98.9796 197.329 96.8232C196.851 94.6668 191.66 97.0635 189.822 92.3498C188.383 91.3907 182.632 90.9142 185.988 86.5983C194.619 75.5686 195.408 87.2397 204.517 83.403C215.065 78.6075 211.383 71.2628 216.657 67.9059C228.165 61.7506 220.084 74.0606 235.346 69.184C237.743 64.9492 240.935 63.0346 244.451 60.5567C250.683 52.8847 246.557 60.6146 251.798 60.0778C253.934 59.8579 255.822 58.9737 259.146 59.2789C262.471 59.5842 266.013 61.2759 269.848 61.5156C274.643 61.9952 287.257 57.2005 291.093 60.0778C298.764 66.7915 292.926 64.9482 295.885 68.8648L296.364 63.5923C300.079 62.5133 299.158 57.2635 301.316 53.8466C303.473 50.4298 305.728 49.1981 306.906 47.2963C305.931 46.7468 305.225 46.2023 306.427 44.101C302.587 39.6405 301.096 30.1111 301.476 29.5625C304.471 29.8595 309.462 22.6926 309.462 22.6926C309.462 22.6926 310.22 21.9953 313.296 22.2137C314.076 15.5611 311.152 10.6433 309.143 5.91772C307.054 5.34599 303.036 2.12397 296.524 0.805265C296.468 0.810377 296.42 0.800152 296.364 0.805265C294.249 2.24785 291.573 0.802612 290.134 0.802612ZM231.512 73.4951C227.998 73.8147 228.637 73.8147 224.803 79.2466C220.97 84.6786 227.678 85.6372 229.595 87.5544C231.512 89.4716 235.346 86.5958 236.943 84.3591C238.54 82.1225 236.943 75.0928 231.512 73.4951ZM276.238 113.915C276.085 113.885 275.878 113.916 275.598 114.075C273.362 115.353 271.126 116.951 270.806 119.826C270.487 122.702 268.57 116.951 265.695 118.229C262.82 119.507 260.264 117.59 259.306 123.98C258.347 130.371 260.903 129.093 264.098 130.69C267.292 132.288 268.89 131.969 267.292 125.897C265.695 119.826 269.529 128.134 273.043 130.371C276.557 132.608 274.001 128.454 275.279 120.146C275.559 118.468 277.303 114.125 276.238 113.915ZM324.796 145.708C320.643 146.347 317.449 149.862 308.823 154.975C300.197 160.087 303.392 163.282 312.337 165.2C321.282 167.117 317.129 164.88 322.241 158.49C327.352 152.099 327.033 159.129 322.88 163.921C318.727 168.714 320.643 168.714 332.464 170.312C344.284 171.91 342.367 166.158 340.45 166.158C338.533 166.158 335.019 161.046 336.936 160.407C338.853 159.768 340.77 163.921 344.284 164.561C347.798 165.2 343.645 161.046 332.464 151.779C330.227 149.543 328.95 145.069 324.796 145.708ZM261.223 147.306C260.587 147.429 260.104 148.112 260.104 149.383C260.104 152.772 259.536 153.466 262.021 150.981C263.433 148.439 262.281 147.101 261.223 147.306ZM11.8787 173.507C11.4518 173.559 10.9202 173.627 10.441 173.827C6.60739 175.425 -1.37925 176.064 0.857034 179.578C3.09332 183.093 4.69059 181.496 6.92682 183.093C15.233 196.513 18.1082 197.472 23.5392 198.75C28.9701 200.028 29.6091 199.389 27.0534 196.833C24.4976 194.277 18.4277 194.916 17.4692 191.401C16.5108 187.886 16.5109 188.525 15.8719 185.33C15.233 182.135 12.6773 184.371 12.3579 182.135C12.0383 179.898 15.233 180.217 15.8719 177.981C16.4309 176.024 14.8662 173.14 11.8787 173.507ZM214.101 174.785C213.395 174.644 212.336 175.9 211.545 177.821C209.964 181.662 207.39 187.514 213.941 180.058C215.071 176.443 214.808 174.927 214.101 174.785ZM197.649 182.135C196.717 182.191 197.518 183.761 202.6 188.845C207.118 188.619 206.103 190.024 207.233 187.087C208.362 184.15 208.077 186.564 203.559 184.531C201.3 183.514 198.58 182.078 197.649 182.135ZM190.461 183.093C189.85 183.195 189.259 183.647 188.863 184.212C187.282 186.471 188.631 190.223 192.697 186.608C194.391 184.405 192.292 182.786 190.461 183.093ZM243.332 188.046C240.741 187.885 240.793 191.623 242.374 193.797C244.181 196.283 246.548 197.714 250.84 199.07C255.132 200.425 255.545 197.401 251.479 194.916C247.413 192.43 248.225 190.399 244.61 188.365C244.13 188.168 243.703 188.069 243.332 188.046ZM185.03 194.756C182.579 194.847 180.668 197.621 177.522 198.111C175.604 199.55 175.127 201.625 173.209 203.543C171.771 204.982 169.696 205.14 168.258 206.579C165.382 208.976 163.945 212.33 163.945 212.33C163.945 212.33 168.897 211.052 170.813 209.774C172.73 208.496 171.611 207.218 173.05 206.738C177.683 212.01 177.101 201.875 191.259 214.567C199.532 221.983 206.833 221.036 207.552 223.194C208.511 224.633 208.19 229.584 209.149 231.022C219.855 231.825 220.487 228.945 227.199 228.466C227.681 231.343 227.677 232.618 232.63 232.46C232.791 234.378 233.589 236.134 233.589 237.892C236.145 237.893 237.262 239.969 238.221 239.969C238.542 242.366 239.498 243.803 239.978 245.242C242.693 245.083 249.562 250.673 250.041 251.632C250.202 247.799 252.275 248.281 256.91 251.632C261.145 241.723 257.23 242.564 257.868 237.733C252.597 239.771 245.171 240.767 242.055 237.252C239.656 232.617 233.11 224.95 235.665 218.4C234.227 216.002 232.783 215.696 230.394 214.086C228.637 212.902 229.677 212.169 230.873 211.21C227.701 208.647 224.026 210.414 219.692 211.849C216.815 210.89 213.623 212.09 211.066 211.21C210.107 210.731 208.511 207.536 207.552 207.536C205.634 207.536 203.24 208.656 201.802 207.695C195.809 206.336 193.173 204.203 193.016 198.269C188.136 199.289 190.023 195.713 186.148 194.914C185.768 194.804 185.38 194.743 185.03 194.756ZM320.643 197.472C315.212 198.111 313.615 201.306 313.615 203.223C313.615 205.141 322.88 210.573 321.921 213.768C320.963 216.963 317.768 217.602 319.685 220.478C321.602 223.354 326.394 223.354 328.311 222.076C330.227 220.798 332.144 214.726 329.588 204.821C328.311 198.43 326.074 196.833 320.643 197.472ZM299.559 200.348C294.815 201.477 300.393 205.686 301.635 205.46C302.878 205.234 305.319 199.783 299.559 200.348ZM30.0883 207.218C28.9393 207.096 29.737 208.832 31.6856 209.934C34.2834 211.402 34.8954 210.502 31.845 208.016C30.998 207.452 30.4712 207.258 30.0883 207.218ZM380.384 236.454C379.785 236.695 378.627 237.253 375.272 237.413C368.564 237.73 367.924 238.372 362.813 240.608C357.702 242.845 360.896 247.318 365.049 245.401C370.48 245.401 370.48 248.916 373.036 247.638C375.592 246.36 376.231 241.247 378.467 241.247C380.703 241.247 383.898 238.691 381.981 237.093C381.023 236.295 380.983 236.215 380.384 236.454ZM269.209 246.999C265.695 247.638 263.778 249.555 269.529 254.348C280.391 263.614 285.183 267.768 290.933 269.685C296.683 271.603 297.642 269.046 297.322 266.81C297.003 264.573 286.78 262.975 283.585 262.336C280.391 261.697 283.585 257.863 280.391 254.668C277.196 251.472 272.723 246.36 269.209 246.999ZM347.958 250.194C347.539 250.347 346.68 250.833 345.562 251.792C341.089 255.626 341.089 252.75 336.936 255.626C332.783 258.502 333.103 264.253 336.936 262.017C340.77 259.78 338.853 262.334 347.159 255.307L336.617 256.585C346.68 252.511 349.216 249.73 347.958 250.194ZM61.7155 250.833C60.8966 250.946 60.7268 252.069 62.1945 254.668C66.4865 262.349 68.4516 262.772 68.9033 260.739C69.3552 258.705 66.7171 256.007 64.91 253.07C64.0064 251.602 62.5343 250.72 61.7155 250.833ZM57.4026 251.792C56.9824 252.346 56.6645 252.837 56.2846 253.389C57.7955 257.037 58.0434 258.819 57.0832 260.419C55.6456 262.816 56.6042 265.052 52.7704 261.378C52.5741 261.188 52.4545 260.958 52.2914 260.739C48.1165 270.709 50.1059 277.785 53.0901 271.443C54.049 269.525 51.6517 266.171 53.0901 265.212C55.9668 262.814 54.5258 273.839 57.8821 274.798C59.7999 275.278 61.7146 272.881 63.6325 272.881C66.9887 273.361 68.4223 278.155 72.258 274.798C77.5321 270.482 65.0714 265.212 62.6741 264.733C60.2768 264.252 61.7156 259.94 61.7156 259.46C60.7567 256.583 58.841 254.19 57.4026 251.792ZM206.753 258.502C204.043 258.952 202.021 260.579 205.635 260.579C209.25 260.579 207.377 260.794 205.795 261.697C204.214 262.601 201.261 264.402 204.197 265.531C207.134 266.661 205.601 265.961 208.989 261.218C208.538 259.41 209.464 258.05 206.753 258.502ZM250.68 268.248C249.625 268.14 248.679 269.191 248.763 272.242C248.989 280.375 248.239 281.499 252.757 276.076C254.451 271.981 252.438 268.426 250.68 268.248ZM306.267 270.644C301.475 271.283 298.92 277.674 304.67 276.715C309.782 273.2 311.059 270.005 306.267 270.644ZM209.629 271.443C209.172 271.448 208.578 271.566 207.872 271.76C202.224 272.664 207.408 278.614 208.99 277.032C210.373 275.648 212.828 271.399 209.629 271.443ZM377.189 273.839C376.116 274.095 375.888 275.367 378.147 277.514C382.665 280.677 386.734 282.576 387.412 284.384C388.09 286.191 387.896 292.593 390.607 289.656C393.317 286.719 393.808 285.112 389.968 282.626C386.128 280.141 383.601 279.079 381.342 275.916C380.213 274.335 378.262 273.585 377.189 273.839ZM282.307 275.437C279.752 275.335 280.79 284.304 283.585 283.745C286.78 283.106 285.822 280.549 283.585 276.076C283.066 275.636 282.672 275.451 282.307 275.437ZM257.868 281.987C256.396 282.412 255.206 285.187 257.069 287.898C256.617 292.869 257.845 294.627 260.104 289.656C262.363 284.685 261.113 284.274 259.306 282.466C258.854 282.017 258.359 281.847 257.868 281.987ZM70.5008 285.662C70.1945 285.662 69.8618 285.82 69.5424 285.979C66.9866 287.257 65.0699 288.535 66.0283 290.772C70.5008 297.162 73.0566 304.192 77.2096 300.996C81.3627 297.801 78.8069 293.647 82.6405 295.245C86.4741 296.843 83.599 292.689 78.807 290.452C74.614 288.495 72.6454 285.509 70.5008 285.662ZM409.455 286.94C408.831 286.781 407.458 287.098 404.983 287.898C395.079 291.094 398.274 294.609 393.482 297.484C388.69 300.36 390.607 307.709 394.44 301.638C398.274 295.567 397.635 296.206 400.83 294.928C406.101 291.573 411.327 287.419 409.455 286.94ZM315.851 287.739C313.707 288.25 311.059 293.85 308.823 295.248C306.267 296.845 309.143 299.401 311.379 301.638C316.171 306.431 318.088 307.39 319.366 302.277C320.643 297.165 319.046 289.177 316.81 287.898C316.53 287.74 316.158 287.662 315.851 287.739ZM303.073 292.851C300.647 292.509 296.124 299.961 292.53 304.514C287.738 310.585 294.447 305.792 300.197 305.473C305.948 305.156 303.712 300.999 304.67 296.206C304.43 293.969 303.881 292.966 303.073 292.851ZM438.207 297.325C437.614 297.325 436.641 297.81 435.172 298.603C432.236 300.184 434.472 300.968 437.409 302.437C440.345 303.905 440.455 305.587 439.325 298.922C439.099 297.736 438.8 297.31 438.207 297.325ZM263.139 298.283C262.834 298.345 262.623 298.564 262.341 298.764C260.082 301.701 264.367 306.174 266.174 303.237C267.756 300.667 265.277 297.87 263.139 298.283ZM342.527 300.041C341.877 300.153 341.522 300.48 341.409 301.159C341.183 302.514 338.474 304.546 334.86 307.709C331.245 310.873 331.802 311.808 334.061 310.904C336.32 310.001 337.128 309.765 340.291 305.473C342.324 302.309 347.501 300.652 345.242 300.2C344.113 299.976 343.176 299.928 342.527 300.041ZM458.334 304.993C455.835 305.645 450.467 311.064 442.68 318.253C440.763 320.17 435.013 327.519 439.485 330.076C443.958 332.632 440.763 334.868 441.402 341.579C442.041 348.289 446.194 343.176 450.347 334.868C454.5 326.561 457.695 319.531 459.612 309.626C460.33 305.912 459.833 304.602 458.334 304.993ZM274.8 306.431C273.522 306.482 273.043 307.39 274.959 309.626C279.432 316.975 282.946 310.585 279.751 308.348C278.154 307.23 276.078 306.391 274.8 306.431ZM309.143 315.377C307.388 315.689 307.212 318.832 309.782 320.809C314.074 323.521 317.246 324.264 315.212 320.651C313.179 317.036 312.426 316.057 309.941 315.379C309.63 315.292 309.393 315.326 309.143 315.377ZM361.216 317.294C360.114 317.151 359.494 317.985 360.737 320.809C363.899 323.295 365.926 321.95 364.57 319.691C363.893 318.561 362.317 317.436 361.216 317.294ZM271.925 318.892C270.09 319.148 269.332 322.02 271.605 323.206C274.203 324.562 275.886 320.248 272.723 318.892C272.427 318.805 272.187 318.841 271.925 318.892ZM303.712 320.969C303.326 320.969 302.474 321.529 301.156 322.726C297.642 325.922 297.642 328.158 301.475 325.922C303.672 322.726 304.354 321.013 303.712 320.969ZM276.397 322.247C275.344 322.529 275.211 323.966 276.397 324.644C277.978 325.547 279.077 323.311 277.835 322.407C277.298 322.208 276.748 322.15 276.397 322.247ZM267.452 324.644C265.815 324.761 264.737 325.602 266.334 326.88C269.529 329.437 266.973 331.034 265.056 328.797C263.139 326.561 256.111 335.508 267.292 331.993C274.001 329.117 272.723 330.395 271.765 326.88C271.286 325.123 269.089 324.524 267.452 324.644ZM288.856 327.519C288.581 327.586 288.33 327.744 288.218 328C287.766 329.017 290.018 329.088 292.051 330.556C294.084 332.025 295.993 330.72 293.169 328.799C291.136 327.782 289.682 327.313 288.856 327.519ZM317.928 333.59C316.998 333.595 318.407 335.508 320.004 337.105C322.56 339.661 317.768 341.259 322.241 341.898C326.713 342.537 325.116 340.62 322.56 336.147C319.925 334.229 318.486 333.587 317.928 333.59ZM337.096 335.029C334.375 335.029 335.516 338.064 339.172 338.064C343.352 338.064 343.503 335.866 338.534 335.188C337.983 335.045 337.485 335.023 337.096 335.029ZM417.122 348.928C416.449 349.794 415.535 355.578 416.164 358.514C417.122 362.987 414.886 364.265 413.608 367.46C412.33 370.656 413.608 371.934 416.164 378.005C417.608 378.225 419.955 377.626 420.637 377.366C421.914 374.49 423.192 373.851 419.359 370.336C415.525 366.821 417.442 362.348 417.761 352.762C417.841 350.366 417.651 349.187 417.442 348.928C417.363 348.831 417.218 348.805 417.122 348.928ZM197.968 363.307C190.301 363.307 198.927 376.407 203.399 377.685C207.872 378.963 204.038 372.573 206.274 371.614C208.51 370.656 205.955 367.78 197.968 363.307ZM411.053 380.561C410.348 380.796 409.054 381.546 407.698 382.478C404.084 384.964 402.651 392 408.976 385.673C412.082 381.296 412.226 380.173 411.053 380.561ZM377.828 395.898C377.828 395.898 375.37 402.311 372.237 403.887C369.104 405.462 367.847 400.13 361.056 407.242C359.138 408.681 358.182 413.633 355.785 412.674C342.84 412.832 352.75 402.449 350.673 399.413C346.358 398.454 339.493 405.324 337.096 405.804C335.658 406.284 332.464 404.686 330.387 403.248C324.634 402.767 320.646 407.881 315.372 406.443C312.495 405.962 315.374 401.809 312.018 402.769C306.744 403.728 303.076 402.927 297.801 404.366C293.486 405.805 290.137 409.638 285.342 411.076C282.945 412.035 279.753 414.112 277.356 413.633C274.479 413.152 273.683 409.799 271.925 407.082C269.527 407.399 264.737 409.16 264.258 406.765C263.299 404.367 272.246 408.044 268.091 401.173C259.944 398.456 263.3 404.847 260.903 405.806C257.547 407.245 252.599 408.044 249.243 406.605C237.421 387.593 246.746 408.623 243.173 409.321C240.268 409.889 239.74 397.734 238.381 404.369C236.942 407.726 239.179 412.035 239.179 415.872C238.7 418.749 235.821 427.854 243.013 427.854C246.369 427.373 252.755 426.417 256.111 425.458C259.467 424.977 260.422 423.539 263.299 424.02C264.738 424.02 263.298 426.097 264.737 426.097C276.57 425.78 271.271 424.018 283.426 423.061C294.69 429.4 297.978 423.501 302.753 426.256C304.63 427.34 300.967 431.405 304.031 435.043C306.908 437.441 333.74 425.778 336.617 424.819C338.534 424.099 351.093 421.603 362.334 418.108C372.198 415.042 372.796 420.026 379.745 412.517C379.907 397.97 377.828 395.898 377.828 395.898Z"/>
</svg>
