<svg width="280" height="197" viewBox="0 0 280 197" xmlns="http://www.w3.org/2000/svg">
<path d="M212.8 0.2677C208.005 0.2677 205.133 6.97754 200.338 7.45709C192.187 8.89573 181.648 0.262843 174.456 9.37426C171.579 13.2106 173.499 26.1482 168.225 28.546C166.307 29.0255 163.273 27.1069 161.355 28.067C153.684 32.8625 164.715 36.2139 152.728 38.1321C148.893 38.6117 140.268 28.0633 136.432 34.7771C134.994 37.1748 137.391 41.4861 135.474 43.4043C130.2 48.6794 115.346 45.3189 108.633 50.1144C102.4 53.9509 109.112 60.6573 111.03 63.5346C112.948 66.8915 72.209 74.0796 66.4556 73.1205C57.3458 71.2022 50.6419 58.7423 42.0116 57.7831C40.0938 57.3036 39.3053 57.5602 37.4975 58.3418C35.6898 59.1235 37.4872 63.722 37.0588 66.5701C36.5222 70.1471 31.7816 67.3831 34.8221 70.2447C37.8627 73.1064 36.4459 72.4955 37.6979 75.3572C38.9498 78.2188 37.0709 78.6619 35.4612 80.6294C33.8515 82.5969 29.1852 79.5371 28.112 80.7888C27.0389 82.0408 23.956 81.0179 19.4847 78.8717C15.0134 76.7254 15.0425 80.7959 13.2539 82.2267C11.4654 83.6575 10.9289 85.5506 13.2539 87.3392C15.579 89.1277 20.9679 87.2318 22.041 89.7356C23.1141 92.2396 19.8304 92.1461 21.0824 95.0078C22.3344 97.8695 21.7335 97.4757 20.1238 99.8008C18.5141 102.126 12.3979 97.7188 12.9344 100.759C13.4712 103.8 11.8423 103.528 13.094 106.032C14.346 108.536 16.1034 107.918 14.8514 109.706C13.5994 111.495 11.8612 113.753 12.9343 116.256C14.0074 118.76 18.0206 115.944 16.7686 117.375C15.5166 118.806 14.9349 120.348 15.6502 123.925C16.3657 127.502 15.4381 126.737 12.9343 125.842C10.4303 124.948 6.45325 125.717 4.307 130.635C2.46079 133.237 1.27398 134.745 1.11171 134.949C0.888299 135.035 0.697604 135.185 0.472656 135.268C0.62603 135.222 0.794684 135.309 0.951637 135.268L5.42503 134.629C6.13091 134.576 6.79456 134.47 7.50197 134.47C7.74174 134.47 7.92477 134.709 8.14102 135.109C10.0735 137.808 13.2368 150.378 22.2003 157.636C22.2105 157.687 22.19 157.745 22.2003 157.795C22.4794 157.816 22.7912 157.943 23.1589 158.115C24.0059 158.51 25.076 158.434 25.076 158.434L27.6322 162.428L28.5908 161.789L29.0698 162.748L31.4663 162.588L31.9454 163.067H33.0638C34.3457 165.151 35.7421 165.762 35.62 168.659C37.1368 169.234 37.7774 170.169 38.8153 170.896L39.7739 170.736L39.9333 171.855C43.5865 172.846 46.868 173.903 48.241 175.21C45.9865 177.689 48.5815 175.683 49.5192 176.648C54.6688 181.948 54.3879 182.623 53.673 183.837C55.3957 184.268 55.1424 185.545 57.5074 184.796C56.9053 185.779 56.0565 185.522 56.2292 186.553C57.1339 185.968 57.9951 185.214 58.9452 184.796C59.5561 186.018 58.1924 186.269 59.9038 186.713C60.0168 187.165 59.2373 187.089 58.7855 187.032C57.0149 188.058 61.7471 189.395 61.9808 186.873C63.4639 187.167 65.5445 188.094 67.253 187.192C69.0337 188.529 70.6594 189.356 71.7264 191.186C74.9592 193.32 78.3964 193.193 81.9513 196.618C82.5439 195.117 86.3366 193.456 88.3418 195.021L91.8567 195.34C93.5473 194.003 95.4388 192.794 98.0875 194.861C98.9611 194.807 99.9302 195.587 100.644 194.702L102.561 195.181C102.854 195.196 105.426 192.388 105.437 195.34C106.138 194.746 108.538 196.608 107.354 193.583C108.479 193.328 110.033 193.588 109.111 191.506L110.07 191.985C110.831 191.376 112.686 191.293 112.466 190.068C113.224 189.666 115.041 188.316 114.224 187.352C115.122 185.225 115.285 185.969 115.662 183.198L117.419 182.719C119.088 183.509 120.2 184.641 122.372 184.636C122.426 183.819 121.671 182.952 122.531 182.24C122.866 182.74 124.697 183.049 124.448 181.6C124.448 181.6 124.785 181.599 124.927 181.6C124.968 181.482 125.045 181.4 125.087 181.281C126.652 179.612 130.867 182.21 129.56 179.044C129.097 178.132 133.168 178.163 132.915 176.328C132.713 174.864 133.269 174.103 134.034 172.654C136.221 170.861 134.375 175.703 139.306 175.05C144.485 174.365 141.902 172.986 142.661 172.015C144.88 169.173 145.097 171.735 146.176 170.896C148.333 169.218 150.007 166.481 150.969 164.346C152.953 159.942 153.342 162.189 154.803 161.31C161.36 157.369 157.529 162.099 163.59 162.748C166.879 161.336 167.654 160.055 169.501 159.393C173.437 157.984 172.829 162.201 174.614 159.553C175.643 158.025 176.473 160.776 178.768 159.393C180.398 158.41 181.658 160.848 183.56 161.47C183.45 161.131 183.396 160.698 183.082 160.192C184.69 154.681 201.317 156.21 204.969 153.961C205.238 153.698 205.525 153.454 205.608 153.162C206.567 151.244 199.374 148.85 208.005 147.411C209.683 147.171 211.341 147.87 212.957 148.529C213.766 148.859 214.583 149.156 215.354 149.328C216.125 149.5 216.871 149.568 217.591 149.328C219.299 148.699 220.606 147.569 221.585 146.133C225.826 139.911 224.27 127.732 226.218 123.446C227.177 122.008 229.573 122.009 230.531 120.571L235.806 103.795C236.285 102.596 236.924 101.518 237.403 100.44C237.643 99.9008 237.892 99.3963 238.042 98.8422C238.192 98.288 238.202 97.6842 238.202 97.0848C238.202 96.845 238.107 96.5955 237.882 96.4457C237.433 96.1461 236.574 96.1062 236.125 95.8067C235.9 95.6569 235.805 95.4074 235.805 95.1676C235.925 94.0886 236.325 92.4591 236.924 90.5344C238.72 84.7606 242.155 76.4767 243.953 73.5994C244.433 73.1199 245.311 73.1793 246.03 73.1205C246.39 73.0898 246.749 72.9282 246.989 72.8009C247.228 72.6736 247.308 72.5218 247.308 72.1619C249.706 63.0504 246.346 56.3506 256.894 46.2801C257.733 45.3209 258.537 44.7074 259.45 44.3629C259.907 44.1906 260.407 44.1237 260.888 44.0434C262.812 43.7218 264.975 43.9064 267.439 43.4043C268.055 43.2791 268.696 43.1645 269.356 42.9252C273.311 41.1269 274.546 36.612 276.545 32.8601C276.878 32.2347 277.273 31.671 277.663 31.1026C278.054 30.5343 278.462 29.9846 278.942 29.505C273.188 24.7095 280.861 25.673 274.628 21.357C273.669 20.8775 272.232 19.9192 270.794 19.9192C268.876 20.3987 267.439 22.7952 265.521 22.3156C262.645 20.3974 262.327 16.0858 259.45 14.1676C258.012 13.2085 255.617 15.6058 254.178 15.1262C246.607 12.2867 252.46 6.72223 242.995 6.65873C242.949 6.70986 242.879 6.76875 242.835 6.81834C241.477 9.61629 235.807 9.8533 231.971 10.8124C230.053 11.292 228.137 13.6888 226.699 12.7296C217.589 9.85233 224.786 0.747197 212.8 0.2677Z"/>
</svg>
