<svg width="193" height="224" viewBox="0 0 193 224" xmlns="http://www.w3.org/2000/svg">
<path d="M165.774 0.880683C165.774 0.880683 165.875 2.59744 165.295 5.19432C165.066 6.21972 161.207 4.28951 159.064 7.59078C156.75 11.1561 160.353 13.6674 158.745 18.4547C158.389 19.512 158.266 20.6912 157.786 21.1707C155.389 23.5685 148.36 24.5258 148.36 24.5258C148.36 24.5258 152.23 21.8976 154.271 19.0938C156.313 16.29 156.541 13.344 155.39 11.9044C153.244 9.22175 156.907 7.83106 155.23 6.63219C149.477 2.79581 145.995 9.76459 138.455 9.66771C136.537 9.18816 134.621 7.75029 133.183 8.22983C108.251 19.739 125.611 14.2413 125.514 19.4133C125.035 20.852 121.2 19.7323 122.159 20.6914C123.598 22.1301 127.752 25.8036 125.354 26.2832C122.957 26.7627 119.444 24.0453 117.526 25.9637C116.087 27.8818 124.556 30.7561 122.638 31.7152C119.762 32.6743 110.018 22.1241 107.141 31.7152C105.703 37.4698 115.448 37.9455 117.366 38.9046C118.01 40.3305 117.387 43.028 117.366 43.2182C123.599 43.6977 122.159 36.5053 123.597 41.7803C123.597 42.7395 132.225 40.8206 130.786 42.7389C128.389 45.6162 125.515 48.4897 121.68 49.9283C121.68 50.4078 107.142 48.9674 106.183 53.2833C105.703 57.1198 110.497 60.9502 109.058 64.3071C108.579 65.7457 96.119 51.3649 91.8039 53.7626C89.4066 55.2013 89.4084 60.9525 86.5316 59.9934C83.6549 59.0344 85.5736 53.7645 84.1352 50.4076C81.7379 44.1735 59.2135 44.1763 54.8983 45.1354C50.5832 46.0945 54.0997 45.9329 53.6202 47.8513C52.6613 50.2491 47.5485 53.1225 49.4664 55.0407C51.3842 56.959 55.2173 48.9687 57.135 50.8869C48.6495 61.8461 55.3398 57.6707 57.9339 57.4372C59.5387 57.2925 54.5788 60.5517 54.5788 62.2301C55.0584 62.7097 60.1426 66.6967 58.0936 68.7804C55.662 68.5632 50.2533 67.9399 51.5433 71.0171C52.5022 75.3331 62.1551 66.8756 63.2061 76.6089C62.7265 77.5679 61.7686 79.9639 60.8096 79.9639C56.9739 79.9639 55.8581 76.7681 52.5019 77.7272C48.6662 78.6864 46.2717 82.0391 44.3539 85.3959C43.8744 85.8755 46.2712 87.3128 45.7918 87.7924C45.3122 87.7924 33.935 87.3318 36.2059 95.9404C38.1238 98.8176 38.6236 100.974 42.7563 101.213C44.8226 101.332 50.2709 98.62 48.9871 100.893C48.3867 101.956 41.8697 104.027 43.5551 104.727C44.0459 104.931 45.6719 108.859 48.1883 107.284C50.6365 105.751 55.7071 103.549 55.8569 104.088C56.9299 108.764 48.7449 113.08 56.496 114.633C66.4588 118.447 78.3835 115.591 78.863 117.029C78.863 118.468 75.5079 117.987 75.5079 119.426C75.5079 120.613 78.7385 120.307 79.3423 120.384C75.986 122.302 72.1542 123.739 68.3185 123.739C66.8802 124.219 66.4019 120.384 64.9635 120.864C62.5662 121.343 61.6089 123.738 60.1706 125.656C58.2528 127.575 52.0219 129.49 53.9398 131.887C54.8987 133.326 59.2123 132.366 58.2534 133.325C56.8151 133.805 55.378 134.283 54.4191 135.242C52.0218 137.64 51.544 140.993 49.6261 142.911C48.6672 143.391 46.7507 141.952 45.7918 142.911C41.9562 144.35 39.083 146.744 35.2474 148.663C34.0787 149.052 30.9109 148.99 30.4544 149.142C32.3723 150.101 46.2711 147.224 46.2711 147.224C46.7506 147.704 45.7915 148.662 46.2711 149.621C47.23 151.059 48.6668 152.496 50.5847 152.976C52.5026 153.455 54.4186 151.538 55.8569 152.017C56.8159 152.337 55.4847 153.526 54.7386 154.414C48.4212 153.507 41.6732 152.497 41.4782 152.497C39.5603 152.976 39.5617 155.851 37.6438 156.81C34.2876 158.249 28.5378 155.85 27.0994 159.207C25.1816 163.043 36.2072 172.788 32.3716 170.869C28.5359 168.951 25.663 164.479 21.3479 164.479C17.9918 163.999 11.2836 163.52 8.88628 164.958C7.92728 165.438 8.88668 167.514 7.92769 167.994C6.9688 168.473 0.738152 171.348 1.2176 172.307C4.09432 176.144 21.3477 178.059 21.8272 177.579C22.7861 177.1 21.3476 175.183 21.8272 174.224C24.2245 172.786 30.9344 176.141 29.0166 177.579C26.6193 179.977 22.3076 179.496 18.9514 179.976C14.6363 180.935 6.96941 178.536 6.01052 182.852C6.01052 184.29 8.40749 185.727 6.96911 186.686C5.53072 187.645 1.69704 183.809 1.2176 185.727C0.738049 190.523 4.09182 197.23 8.40698 198.189C9.36587 198.189 30.9336 195.313 31.413 195.792C33.3309 198.19 25.1832 198.668 22.3065 199.627C16.553 202.025 18.4736 195.79 14.1585 199.627C13.6789 200.106 15.1171 200.585 15.1171 201.065C15.1171 202.024 13.5198 204.42 12.5609 204.42C6.3279 206.338 3.13461 208.414 3.61406 208.414C18.8427 210.846 27.4572 207.748 31.413 204.899C32.372 205.379 34.2889 205.378 33.8095 206.337C30.0706 211.15 13.6785 218.318 15.5964 221.195C16.5553 222.154 28.057 218.32 30.9337 217.361C38.6051 215.922 23.741 223.592 33.3302 222.633C36.6864 222.153 39.8791 222.154 43.7149 221.674C46.5916 221.195 54.8967 224.071 59.6913 223.591C61.1296 223.112 60.4897 221.355 61.4487 220.396C62.8871 219.917 64.1644 221.035 65.1232 221.994C66.0822 222.473 65.4428 223.112 66.4014 223.112C68.3192 222.633 69.2767 219.758 70.715 218.799C73.1123 217.36 75.6672 219.439 77.1056 217.52C79.0577 213.964 74.583 208.272 76.4665 207.296C83.093 205.691 78.6997 221.358 88.7683 216.083C91.6451 214.164 95.637 210.971 98.9932 209.532C100.911 209.053 100.43 210.97 102.348 210.97C102.348 210.97 110.496 207.776 110.976 205.378C110.976 203.94 108.898 203.781 109.857 203.301C116.57 200.904 118.322 202.982 125.514 203.461C126.952 203.94 130.787 201.064 130.307 202.502C130.307 203.461 127.91 203.46 128.39 204.419C130.787 207.297 141.33 202.022 144.686 202.982C146.604 203.461 146.602 206.336 148.52 206.816C153.315 208.734 154.271 204.418 155.71 207.774C155.71 208.254 159.544 208.893 159.544 208.414C161.182 204.229 155.709 200.587 156.668 197.23C157.148 195.312 158.556 198.528 160.343 197.071C173.98 184.242 168.73 181.282 181.591 162.562C183.509 156.327 182.55 153.938 182.07 147.703V143.39C181.591 140.992 177.756 139.077 179.195 137.159C180.153 135.241 183.987 139.557 185.425 137.638C186.384 135.72 183.348 133.965 183.828 132.046C183.828 129.169 187.822 128.693 187.822 126.295C187.822 122.938 183.349 121.344 182.869 117.987C182.869 114.151 185.426 108.883 184.946 105.046C184.946 103.128 179.673 102.171 181.112 100.733C183.988 98.8143 189.738 101.213 191.656 98.336C193.574 96.4179 189.26 94.0237 188.301 91.6259L187.662 90.6674C183.694 88.2861 184.933 90.5401 184.147 92.1052C183.518 91.8343 182.836 91.596 182.23 91.3064C180.647 90.5494 179.548 90.3463 178.396 90.5076C177.18 90.6497 176.017 91.168 174.242 91.6259C173.942 91.5661 173.739 91.4751 173.603 91.3064C172.652 90.127 175.32 86.5346 176.159 84.4366C176.279 83.5973 176.077 83.0911 175.68 82.6792C173.949 81.8238 172.309 80.8364 170.888 80.1229C169.052 76.4513 169.989 68.8405 168.172 65.9039C168.057 65.3559 167.44 65.172 167.214 64.9453C166.682 64.9709 166.139 64.838 165.616 64.7859C164.872 64.8626 164.928 65.5362 163.699 66.3835C162.061 67.5132 161.098 68.9124 160.024 68.4605C158.951 68.0085 159.932 69.277 158.746 69.8983C157.56 70.5197 158.162 70.5632 159.066 71.9753C159.97 73.3874 159.899 75.6141 158.906 75.6498C157.35 75.0753 156.012 76.2133 154.912 76.4483C154.617 77.4342 154.331 78.5406 154.114 79.3241C153.549 80.1147 152.293 80.7814 150.599 80.4425C148.404 78.7711 146.059 78.5129 143.25 78.0463C142.346 77.7073 141.399 77.0717 141.173 75.4901C139.845 72.2149 138.006 72.2833 135.102 71.0167L133.824 69.8983C133.828 68.1091 134.105 66.7465 134.303 64.9456C134.303 64.9456 130.468 60.7918 129.35 59.6734C128.232 58.5551 129.829 56.8776 127.593 54.4012C126.661 53.3694 125.963 52.9306 125.675 52.6438C125.388 52.357 127.288 51.833 127.912 51.6852C129.05 51.6648 131.107 51.6852 131.107 51.6852C131.61 50.9318 132.103 50.0708 132.705 49.2888C133.722 48.1021 134.753 48.5447 135.261 49.4482C135.926 49.7069 136.765 50.4876 137.658 50.4068C138.602 50.5428 139.497 50.4529 140.054 49.9278C141.063 48.9787 142.505 48.3069 143.569 47.8509C143.661 47.8253 144.832 47.4305 144.847 47.3717C145.161 47.1872 145.853 46.1396 144.368 46.0936C142.882 46.0476 142.28 44.9866 140.374 44.1765C138.888 43.5451 138.78 42.3811 139.256 41.3007C139.04 40.9735 138.837 40.7077 138.777 40.3421C138.491 39.4855 139.564 39.1931 141.013 39.2238C141.715 38.6479 142.133 38.6345 142.93 39.3834C144.371 39.5541 145.761 39.7857 147.244 40.0224C149.3 39.1027 149.683 39.1893 151.238 40.342C151.648 40.1139 152.358 40.2234 152.676 39.5431C152.674 39.1827 152.821 38.9399 152.835 38.5846C152.871 37.647 154.155 36.744 155.871 35.7088C156.601 34.3607 157.221 32.9461 158.437 29.5006C159.653 26.0552 161.606 23.3507 167.214 23.5669C165.958 22.1626 166.181 22.1411 165.457 20.8509C166.467 20.023 168.688 18.1393 171.208 17.1763C172.38 16.7285 179.1 14.9722 179.516 13.0224C179.872 11.354 173.882 10.5314 172.486 5.35377C171.783 2.74616 165.774 0.880683 165.774 0.880683ZM68.957 147.225C69.1805 147.12 69.2275 147.126 69.2766 147.225C69.7561 148.663 67.8385 151.058 68.318 152.497C69.7564 154.895 78.3839 154.413 75.9867 155.852C74.2763 156.829 65.7445 156.002 57.454 154.893C61.8159 153.139 67.3917 147.958 68.957 147.225Z"/>
</svg>
