<svg width="566" height="646" viewBox="0 0 566 646" xmlns="http://www.w3.org/2000/svg">
<path d="M248.561 0.497272C248.075 0.543284 247.422 0.622494 246.548 0.706339C246.512 0.70956 246.472 0.752401 246.438 0.757513C246.433 0.759967 246.423 0.767654 246.417 0.767654C245.783 0.793217 245.168 0.907767 244.554 1.01666C243.819 1.14703 243.094 1.32855 242.382 1.55477C242.06 1.65753 241.733 1.72547 241.415 1.84357C241.41 1.84612 241.4 1.8485 241.395 1.85386C241.125 1.95407 240.865 2.1033 240.598 2.21271C236.05 4.06531 231.769 7.08215 226.786 7.41441C224.629 7.65418 219.37 7.2968 214.171 7.23545C211.569 7.20478 208.987 7.24559 206.807 7.47463C204.632 7.70674 202.873 8.13052 201.914 8.84979L195.696 21.7643C195.676 21.7745 195.655 21.7847 195.636 21.7949C195.179 22.0485 194.733 22.2567 194.301 22.4129C190.164 23.9487 187.276 21.2808 184.784 18.8255C183.704 17.7771 182.645 16.7363 181.685 16.125C181.212 15.8234 180.744 15.6348 180.28 15.5671C174.532 14.8548 176.88 17.3743 175.129 17.0318C174.555 16.9188 173.562 16.5126 171.671 15.5671C171.191 17.4853 171.673 19.8767 170.714 21.7949C170.235 23.7132 168.793 25.1481 167.834 27.0663C167.834 27.3623 168.727 28.2763 169.758 29.3583L171.78 29.4974L173.454 30.8526L171.86 35.8749L167.396 34.8385L166.12 35.8749L162.135 33.6427V31.4405C160.877 29.75 159.383 28.8335 155.857 31.3808C154.962 32.02 154.368 32.6655 153.963 33.3138L153.923 33.3241C151.387 37.9188 152.086 41.6385 153.892 42.7009L153.802 42.8109C154.546 43.4735 155.01 43.139 155.815 42.7699C156.745 42.3471 156.946 42.3502 158.017 43.4774C159.088 44.6049 158.859 45.1105 157.957 45.4207C157.055 45.731 157.452 46.349 156.183 47.1944C154.915 48.04 156.354 49.3101 157.848 51.1703C159.341 53.0305 159.171 53.4279 158.157 54.6679C157.142 55.908 156.774 55.2844 154.998 55.4253C153.22 55.5659 152.888 55.0081 153.254 54.6979C153.621 54.3876 154.067 52.3873 152.686 52.0771C151.305 51.7668 150.548 51.8231 150.942 50.7518C151.336 49.6808 150.006 49.0278 150.006 49.0278L150.882 48.131L150.065 46.6064C149.801 46.4285 149.509 46.2844 149.139 46.2379C147.675 45.9669 147.242 45.9695 146.259 45.8294L141.007 48.6295L139.493 47.3539L137.978 48.6295L139.254 49.905L137.739 51.6588L136.145 50.4629C136.145 50.4629 134.391 51.9774 131.521 50.782C128.651 49.5862 129.687 47.2745 128.492 46.5569C127.296 45.8395 126.1 45.3611 126.1 45.3611C126.1 45.3611 127.535 44.1653 127.216 42.1723C127.151 41.7649 127.043 41.4168 126.927 40.8671C126.636 40.3563 126.372 39.767 125.901 39.0036L124.306 40.4984L121.965 37.5687C119.114 37.9552 118.98 41.0613 119.484 44.1255C119.479 44.3229 119.448 44.5023 119.484 44.7234C119.962 47.9121 118.686 49.6659 117.73 52.1371C116.773 54.6084 114.302 58.5148 113.425 58.9132C112.548 59.3115 110.874 60.9068 109.758 61.544C108.642 62.1818 110.156 64.9705 108.642 65.2111C107.127 65.4504 105.134 66.5668 106.729 68.2404C108.323 69.9145 105.692 72.5452 107.526 73.1032C109.359 73.6613 110.635 74.6187 108.642 78.1255C106.649 81.6332 105.294 80.4373 103.62 79.3212C101.943 78.2052 104.711 74.009 101.975 70.8213C101.274 70.0046 100.167 69.0903 99.0257 68.2204C99.9009 67.3243 100.962 66.4349 101.218 65.4104C101.218 64.4512 100.253 63.4971 99.7731 63.4971C94.499 61.5789 86.8369 60.1451 83.4807 53.9109C83.0012 51.9927 84.4373 50.0781 84.4373 48.6395C84.4373 45.7622 84.9168 42.8873 83.9592 40.01C83.5017 39.7145 83.1978 39.8761 82.7735 39.92C82.3936 39.9609 78.6679 40.5766 76.7547 41.6141C74.8414 42.6504 75.4011 43.2084 77.2328 44.2447C77.3309 44.3005 77.4572 44.3404 77.562 44.394C76.6867 45.1674 75.8193 45.9411 74.8516 46.7158C72.4544 48.634 68.6258 49.5884 67.6669 52.4656C67.1873 54.3838 71.4945 55.3392 71.0151 57.737C71.0151 57.8602 70.8434 58.1245 70.7759 58.3049C67.4852 60.3044 65.0791 61.1522 63.5116 61.992C61.9333 62.8375 63.8485 66.0539 62.4951 67.8014C61.1423 69.5488 58.83 66.8444 57.7021 68.3095C57.1685 69.0033 56.7674 70.3162 56.4366 71.6279C54.8885 71.3406 53.9636 71.175 52.8392 70.9503C51.8405 70.7504 51.2598 70.8506 50.8562 71.0101C50.4856 70.756 50.0953 70.5975 49.7203 70.3723C49.5485 70.1417 49.3971 69.9276 49.0924 69.5951C47.3387 67.6817 45.8239 67.7613 44.0702 67.6021C42.3164 67.4431 41.1306 68.9274 41.1306 68.9274C39.7778 70.5057 35.7199 73.8864 33.9161 71.8571C32.4081 70.1606 29.1435 72.1403 25.4859 74.9263C23.8212 74.503 22.3753 73.519 21.3304 71.6379C-0.72468 84.5857 11.7482 78.8227 18.4606 90.3319C19.4196 92.2501 17.5026 95.6083 18.9387 97.5264C20.377 100.883 25.1632 101.355 26.6016 104.233C27.8932 106.558 24.0519 111.195 19.8454 115.144C16.3542 115.902 13.966 118.269 12.7207 118.981C12.0191 119.381 11.0191 120.377 10.1098 121.342C9.22996 120.67 8.44918 119.25 7.42924 119.25C5.03201 119.729 0.72305 119.732 0.72305 122.13C0.53031 123.674 1.03993 125.149 1.96855 126.564C3.43225 126.256 5.62087 125.937 5.96453 127.311C6.33518 128.795 6.94119 129.555 5.95423 131.586C5.81006 133.301 5.76658 134.503 7.30942 135.891C9.56422 137.92 11.3719 139.168 13.2884 138.492C14.2043 138.168 15.3102 137.938 16.1582 138.054C16.7061 138.492 17.0863 138.894 17.4337 139.289C17.4439 139.515 17.4236 139.766 17.3438 140.066C16.6674 142.66 16.4436 145.589 18.3601 146.604C18.8748 146.876 19.3276 147.264 19.6955 147.67C19.7415 148.331 19.8233 148.972 19.8345 149.643C19.6254 149.653 19.3678 149.617 19.0374 149.533C16.4444 148.856 16.4374 148.188 14.9717 149.652C13.7681 150.856 13.9109 152.136 14.9818 153.429C13.5343 155.728 11.225 157.156 9.35172 159.029C7.91338 161.907 12.6988 163.34 13.1783 164.779C13.1783 165.738 10.7866 165.743 10.7866 166.702C10.506 170.627 14.5359 174.883 19.0775 178.431C20.8709 178.802 22.6824 179.088 24.4983 180.065C26.8831 181.348 28.8256 182.795 30.0986 183.842C32.4532 183.896 34.9184 183.473 37.1437 183.473C40.0204 182.994 43.3758 181.078 45.7731 182.516C46.0885 182.748 46.3235 183.001 46.5504 183.254C46.466 183.816 46.3336 184.281 46.3014 184.868C46.24 185.969 46.8375 186.438 47.5371 186.712C48.6616 187.152 50.1279 186.941 50.1279 186.941L46.69 189.203C45.8545 191.1 44.603 193.131 43.2323 195.261C40.6788 195.557 41.0103 196.007 40.8806 197.304C40.7216 198.899 39.9241 200.174 37.6919 200.493C35.8169 200.761 37.7582 207.027 38.9972 206.97C39.0279 207.125 39.0227 207.285 39.0672 207.438C46.2591 206.479 57.1185 206.966 63.3515 200.732C67.1872 197.375 69.5817 189.71 72.9377 186.353C74.3761 184.914 78.2056 185.391 79.6441 183.473C81.0824 182.034 79.6417 179.163 80.6006 177.245C81.5596 175.327 94.0187 168.137 95.9366 168.137C100.731 168.137 110.798 172.933 113.195 175.81C113.675 176.769 115.117 177.246 116.075 176.767C117.034 176.287 115.599 173.887 116.553 173.887C120.389 173.887 132.364 186.35 133.803 187.309C137.159 189.707 140.031 192.578 143.867 193.537C145.305 194.017 142.429 189.711 143.867 189.711C146.264 189.711 147.708 192.578 150.105 193.537C150.584 194.017 151.06 192.581 151.54 192.581C152.978 193.06 154.896 193.544 155.855 194.982C167.841 206.012 160.643 218.94 170.712 233.327C175.986 241.479 177.422 244.821 175.984 254.412C175.984 257.29 172.151 261.605 174.549 262.564C178.384 264.002 183.171 261.122 186.048 263.52C188.445 264.959 184.132 268.787 185.57 270.705C187.487 273.582 192.28 272.145 194.677 274.063C196.595 275.502 196.587 278.364 198.026 280.281C198.984 281.24 200.903 280.291 201.862 281.248C203.3 282.686 209.054 288.921 206.177 292.757C205.789 293.145 204.894 293.583 204.104 294.032C203.754 294.029 203.302 293.963 203.138 294.032C202.853 294.154 202.905 294.339 203.138 294.67C202.592 295.057 202.264 295.442 202.818 295.627C203.391 295.856 203.876 295.931 204.423 296.095C206.137 297.771 208.15 299.463 208.259 297.062C208.262 297.001 208.254 296.969 208.259 296.912C214.855 297.593 220.032 295.287 227.262 301.377C232.536 305.693 232.541 313.841 237.815 318.157C238.774 318.637 240.683 317.197 241.641 317.679C244.998 319.597 248.351 321.51 251.227 323.907C257.94 329.183 251.233 327.742 256.987 336.373C259.864 339.73 265.13 340.202 268.487 343.08L275.671 353.144C278.548 355.062 287.332 354.102 290.688 356.981C293.223 359.516 293.158 364.646 296.059 366.487L296.259 366.109C299.415 364.305 301.667 361.034 304.26 361.485C306.853 361.936 307.193 359.461 308.884 360.588C309.071 360.714 309.605 361.114 309.92 361.336C313.213 361.548 316.091 364.192 319.038 365.87C319.575 365.462 320.402 365.114 322.077 365.202C322.288 365.212 322.473 365.303 322.675 365.341C321.913 363.289 320.587 360.559 329.033 363.687C333.827 365.605 343.896 380.941 345.814 386.696C346.293 388.135 344.856 390.531 346.292 391.011C346.857 391.083 347.294 391.096 347.796 391.141C347.761 388.232 349.039 387.676 350.377 388.191C351.843 388.755 352.515 391.128 353.416 389.776C354.318 388.423 354.314 384.699 358.598 387.743C359.351 388.278 359.927 388.877 360.422 389.477C361.728 390.333 362.616 390.867 365.464 392.924C366.165 393.415 366.446 394.012 366.59 394.648C366.661 394.966 366.549 395.152 366.271 395.196C364.019 395.554 363.449 398.907 362.434 399.132C361.42 399.358 360.292 398.685 359.953 401.165C359.615 403.645 361.195 402.849 362.773 401.046C364.352 399.242 367.508 398.454 368.523 399.581C369.538 400.708 373.263 398.901 373.376 397.887C373.489 396.872 375.736 398.119 376.864 398.345C377.289 398.43 377.626 398.039 377.98 397.538L378.329 397.628C380.963 396.534 383.851 397.293 387.985 402.979C389.903 405.856 392.787 409.366 393.266 413.203C393.328 413.696 393.271 414.179 393.156 414.658C390.871 415.692 390.347 416.976 391.323 418.265C390.397 419.669 389.493 421.039 389.529 422.39C393.019 422.426 393.461 422.072 394.9 425.848C394.925 425.912 395.041 426.107 395.069 426.177C397.03 426.387 399.071 426.424 400.45 427.114C403.327 428.552 405.717 430.955 407.635 432.873C408.114 433.832 407.155 435.266 407.635 435.265C408.403 435.214 409.036 435.068 409.747 434.976C412.455 436.063 415.044 436.295 415.876 434.767L416.494 433.631C417.043 432.794 417.59 432.107 418.128 431.727C421.961 429.022 428.73 429.246 430.534 436.461C430.589 436.68 430.587 437.006 430.614 437.278C431.551 438.861 432.508 440.842 433.524 443.416C439.277 457.803 430.165 450.119 438.795 463.067C439.754 464.026 441.673 464.021 442.153 464.98C444.55 467.857 446.464 471.208 447.903 475.044C450.779 481.279 448.86 489.419 452.696 495.174C456.531 500.449 466.118 501.885 457.967 511.476C454.611 516.271 443.104 511.466 441.186 520.095C440.707 522.973 445.5 524.413 445.98 527.29C446.459 529.688 444.546 531.599 444.066 533.996C443.587 536.394 443.591 539.273 442.153 541.191C439.756 543.589 434.963 543.107 433.045 545.984C430.816 549.638 434.199 549.512 432.567 554.454C431.901 556.468 434.057 556.939 434.002 560.204C433.956 562.829 438.075 565.116 439.273 565.475C463.246 572.189 456.047 548.86 467.554 538.789C472.348 534.953 477.136 536.875 478.575 529.682C480.492 521.05 472.342 513.876 478.575 506.683C485.401 498.717 498.785 499.432 504.334 495.104C503.826 494.595 503.442 494.141 503.407 493.858C503.088 491.307 508.19 490.032 504.045 489.234C500.263 488.507 500.321 484.133 502.759 478.662C501.93 477.795 501.249 476.201 501.105 472.175C501.105 470.257 503.977 468.342 503.018 466.903C502.06 464.985 499.186 465.939 497.269 464.98C491.995 462.582 488.165 456.834 482.411 454.916C477.137 453.477 475.696 458.757 470.902 453.002C462.751 442.452 472.342 442.941 474.26 433.83C474.74 431.912 472.347 430.476 472.347 429.037C472.347 428.078 484.322 403.949 485.281 402.511C494.391 392.92 499.657 403.947 509.246 407.304C516.438 409.701 530.342 403.951 534.657 409.705C542.328 419.776 536.086 428.554 550.949 434.308C553.826 435.747 557.182 437.181 559.1 435.743C561.018 434.784 559.576 425.197 560.535 422.799C561.974 418.483 566.29 420.414 564.372 414.179C559.577 397.395 544.237 398.685 538.483 390.533C537.045 389.094 538.966 385.744 537.048 384.305C532.254 380.469 516.445 378.073 510.691 375.675C503.5 373.278 501.1 368.011 494.867 364.654C477.127 355.543 453.176 356.503 435.915 344.994C417.696 332.525 453.652 327.75 441.665 314.322C437.35 309.527 430.164 314.799 426.808 315.279C411.465 317.677 387.039 322 374.094 308.572C373.135 307.613 374.566 304.738 373.127 303.779C370.73 301.382 366.418 300.904 363.541 298.986C354.911 292.273 341.661 282.859 336.387 272.789C331.113 263.198 321.844 224.056 315.132 218.301C308.899 213.026 313.461 220.724 306.672 217.026C300.04 213.413 282.586 196.488 278.71 196.259C274.274 195.997 270.192 194.299 259.379 180.604C257.941 177.727 251.714 151.842 252.673 149.444C252.837 149.046 253.11 148.667 253.31 148.328C253.205 148.166 253.085 148.038 252.991 147.85C252.991 145.345 253.084 143.324 253.589 142.449L253.45 142.14C253.874 141.148 254.366 140.306 255.004 140.306C255.961 140.306 257.157 142.379 255.482 142.937C253.808 143.495 255.163 144.451 256.678 144.611C258.193 144.77 260.265 144.452 261.62 141.9C262.976 139.349 262.736 136.639 264.251 135.762C265.766 134.885 265.606 132.414 263.853 131.457C262.099 130.501 260.744 131.138 259.229 129.146C258.002 127.531 257.183 126.402 256.2 126.515L256.379 125.997C255.463 126.073 254.565 126.904 254.107 126.445C253.627 125.486 254.105 124.525 255.064 124.044C256.981 122.605 255.066 118.777 254.107 116.859C253.148 115.9 252.664 119.252 251.705 118.772C250.339 118.089 250.85 115.143 250.43 113.501C250.358 113.506 250.361 113.501 250.271 113.501C248.356 113.501 246.474 118.486 246.115 113.82C245.757 109.153 248.556 105.358 249.633 107.751C250.607 109.916 247.777 111.711 249.155 112.225C249.989 110.997 250.86 109.652 251.228 108.548C252.187 106.63 250.276 103.756 252.194 103.277C252.019 102.698 253.589 101.572 254.905 100.716C257.298 99.1606 257.067 97.766 257.785 98.4839C258.503 99.2019 260.057 99.1603 259.698 98.3249C259.339 97.4874 259.378 97.3593 260.814 95.9235C262.25 94.4875 265.368 96.3308 264.65 97.5277C263.932 98.7242 263.176 100.518 262.099 99.9193C261.023 99.321 260.298 100.246 257.306 103.118C256.603 103.262 256.401 103.193 255.861 103.277C256.859 103.603 257.864 103.965 258.901 103.755C266.572 102.316 272.796 94.6446 279.508 91.7674C282.385 90.8083 284.785 91.932 286.702 90.0136C288.62 88.0954 288.132 87.6157 290.529 86.1771C295.243 83.6997 298.351 87.5991 301.082 87.2931C302.737 87.1075 306.152 84.6641 307.15 83.7856C303.359 82.2642 306.032 76.2697 315.142 84.9016C317.06 87.2993 316.576 88.8912 317.534 91.2891C331.378 92.1352 313.858 80.106 309.064 77.2287C305.707 75.3105 312.265 69.7214 311.306 67.3236C310.347 64.9259 302.671 71.6447 304.589 65.4105C306.028 61.0946 313.376 57.9043 310.02 55.0271C307.623 53.1089 297.881 55.1918 298.84 49.4369C298.695 43.9567 311.796 39.995 312.521 33.0647C312.436 33.0095 312.311 32.9981 312.242 32.925C295.561 29.3914 297.065 34.8351 281.79 30.0552C277.795 29.4406 274.455 28.7436 271.317 27.9527C265.145 26.7593 261.569 25.2136 256.579 21.7745C255.439 21.0458 254.283 20.2511 253.091 19.373C252.87 19.1516 252.618 19.1092 252.364 19.124C251.787 19.1864 251.189 19.6097 250.749 19.6421C250.554 19.6575 250.381 19.6165 250.271 19.3931C250.261 19.3727 250.23 19.3956 250.22 19.3727C249.26 17.4545 251.658 15.5499 250.698 14.1112C249.705 12.6209 248.597 12.112 247.5 11.8093C247.079 11.6974 246.653 11.5257 246.244 11.4705V11.4602C246.482 10.8927 246.645 10.3013 246.423 9.85596C245.86 8.72861 243.16 5.23478 245.865 4.78376C248.571 4.33284 249.354 4.55732 249.692 2.30258C249.782 1.70606 249.837 1.31823 249.821 1.0371C249.811 0.796304 249.73 0.658781 249.572 0.579027C249.542 0.563689 249.51 0.538077 249.473 0.527852C249.274 0.467525 249.007 0.458418 248.561 0.497272ZM312.565 32.6039C312.563 32.6658 312.562 32.7251 312.565 32.7834C312.567 32.7374 312.585 32.7005 312.585 32.654C313.02 32.8268 313.406 32.8948 313.801 32.9828C313.399 32.8846 312.993 32.7737 312.565 32.6039ZM314.119 33.0625C314.191 33.0778 314.266 33.1084 314.339 33.1222C314.323 33.112 314.308 33.0967 314.287 33.0814C314.23 33.0711 314.176 33.0727 314.119 33.0625ZM265.292 194.323C265.545 194.364 265.591 194.922 265.929 195.768C266.606 197.46 267.54 199.357 264.494 200.88C261.787 199.357 261.315 201.486 260.977 199.285C260.638 197.086 262.164 196.643 263.857 195.29C264.703 194.613 265.038 194.282 265.292 194.323ZM172.151 266.538C171.399 266.528 170.601 267.678 170.078 269.099C169.24 271.372 168.155 270.814 167.198 269.737C166.241 268.66 164.806 269.417 164.806 270.853C164.806 272.289 161.201 269.297 158.568 270.853C155.936 272.408 157.659 275.048 161.129 275.646C164.599 276.244 163.84 274.458 164.318 275.177C164.797 275.895 165.962 273.423 167.039 274.38C168.116 275.338 167.476 274.022 168.792 273.424C170.109 272.826 168.482 276.254 170.397 276.134C172.311 276.015 172.868 277.45 172.629 276.134C172.39 274.818 170.077 273.264 171.991 273.264C173.906 273.264 173.426 272.061 173.426 267.993C172.977 266.916 172.601 266.554 172.151 266.548V266.538ZM267.693 324.852C268.207 324.852 268.65 325.305 268.65 325.819C268.65 326.333 268.207 326.775 267.693 326.775C267.179 326.775 266.896 326.333 266.896 325.819C266.896 325.305 267.179 324.852 267.693 324.852ZM115.59 367.99C111.275 373.265 84.9259 394.836 77.7341 394.357C69.1038 394.357 65.7474 384.291 65.2679 384.77C63.8295 386.209 66.2276 388.124 65.746 390.042C65.2664 393.399 61.9108 395.793 61.4312 399.15C60.3569 417.06 62.225 410.087 65.6364 408.008C65.6467 410.058 65.757 411.062 66.872 410.938C67.4299 410.876 68.5811 410.011 69.7619 409.045C72.7352 413.047 79.617 435.815 77.7337 440.524C76.7748 442.442 73.8996 441.965 72.9405 443.403C72.461 443.883 74.3756 443.88 74.3756 444.36C74.3756 446.758 71.9805 449.625 73.4189 452.023C74.8572 453.941 80.1241 451.548 80.6036 453.946C81.5626 456.823 76.29 458.254 75.8105 461.131C74.8516 464.488 76.7703 467.36 76.2885 470.717C74.8502 478.87 68.1404 485.091 71.0171 494.682C71.976 497.56 76.7667 499.477 76.7667 502.833C77.255 502.706 77.7277 502.639 78.2118 502.833C87.3215 506.67 75.8052 524.41 94.5041 515.778C107.929 509.544 100.257 511.462 103.134 500.432C103.613 498.034 106.013 497.079 106.492 495.161C106.492 493.722 101.695 491.812 103.134 491.812C111.284 491.332 119.908 498.034 126.621 500.432C127.58 500.913 127.098 503.314 127.577 502.355C136.687 486.53 134.769 464.5 136.207 448.675C136.207 446.277 138.598 444.355 138.598 442.437C137.64 437.162 130.451 437.172 132.849 430.937C135.246 424.224 143.871 421.352 143.391 413.2C142.433 390.182 138.117 414.49 135.24 397.226C135.24 395.788 138.601 395.316 137.642 394.357C135.245 391.479 128.536 392.442 127.577 389.085C126.618 385.728 134.761 386.681 135.24 383.804C138.117 373.254 117.029 374.703 115.59 367.99ZM337.995 394.147C337.808 394.112 337.645 394.127 337.507 394.207C336.674 394.675 336.584 396.509 337.348 397.715C338.363 399.322 341.783 398.196 342.46 396.758C343.137 395.32 341.669 395.467 338.623 394.367C338.39 394.271 338.182 394.193 337.995 394.157L337.995 394.147ZM391.346 526.161C389.827 526.304 388.94 527.121 390.549 528.393C392.582 529.636 395.2 526.773 392.941 526.321C392.376 526.208 391.853 526.123 391.346 526.171V526.161ZM395.98 530.157C395.165 530.236 394.47 530.669 394.386 531.432C393.369 535.048 395.92 533.08 396.937 533.984C397.953 534.887 398.018 530.383 396.778 530.157C396.467 530.101 396.252 530.131 395.98 530.157ZM397.415 536.385C396.977 536.583 397 537.189 397.734 537.979C399.428 539.335 401.464 538.764 399.657 537.182C398.754 536.392 397.853 536.187 397.415 536.385ZM426.811 542.135C424.384 542.135 420.509 546.765 414.036 548.203C412.598 548.684 413.871 543.416 412.432 544.855C408.596 548.691 414.936 546.469 406.363 553.953C402.009 554.658 405.723 551.98 399.179 552.837C397.14 549.516 396.233 549.826 388.477 553.156C382.244 556.513 388.565 558.69 372.174 562.104C366.368 563.314 355.256 564.747 353.002 562.742C353.002 562.742 340.865 568.173 340.387 568.173C337.03 568.173 332.391 566.095 329.515 564.177C328.556 563.696 328.402 560.192 326.964 559.713C323.663 561.352 324.753 562.247 320.576 561.626C317.813 553.635 317.018 556.711 316.262 554.112C309.68 559.168 311.581 556.286 306.675 556.036C302.685 555.831 309.147 563.625 296.93 567.535C292.615 568.016 289.897 560.185 288.938 558.746C283.858 555.445 292.256 563.581 283.986 562.902C285.913 567.423 280.631 564.661 279.192 566.579C277.754 568.497 277.678 571.27 276.323 574.092C274.628 577.677 277.53 578.895 275.356 581.914C273.21 583.24 273.775 583.514 275.356 585.432C277.714 587.069 275.857 589.179 278.236 590.863C281.225 592.979 282.738 590.093 285.42 596.772C289.736 598.69 294.528 594.378 298.843 595.337C304.117 596.776 300.401 596.278 304.593 599.333C308.784 602.388 308.469 595.438 325.688 610.673C328.086 611.632 330.477 610.19 332.395 611.629C334.792 612.589 338.787 617.066 340.705 618.505C345.871 619.464 348.401 620.178 350.291 622.013C353.104 625.397 359.229 617.864 367.859 623.139C380.305 631.607 375.429 634.522 380.166 638.953C394.381 640.556 387.336 646.171 400.454 641.823C409.564 641.342 409.908 646.008 413.239 645.022C415.92 644.228 411.474 639.907 411.954 637.03C412.433 634.632 412.917 631.764 414.355 629.367C415.793 626.969 418.186 625.534 420.583 624.095C421.542 623.136 423.464 623.618 422.985 622.661C421.546 618.824 419.695 623.137 418.511 617.379C416.789 615.376 414.674 612.27 414.674 611.311C416.112 607.954 414.669 610.358 417.065 608.919C418.361 605.532 411.958 607.8 410.04 604.923C404.707 588.913 413.688 591.046 412.92 577.44C422.995 560.897 428.976 545.248 432.093 543.57C430.175 542.251 429.238 543.476 426.811 542.135ZM267.374 570.415C267.845 572.768 268.877 572.471 268.969 571.372L267.374 570.415ZM268.969 571.372L269.925 572.009C269.448 571.407 269.215 571.112 268.969 570.734C269.044 571.016 268.989 571.151 268.969 571.372ZM267.693 574.251C265.999 574.701 265.278 575.559 266.408 576.802C268.215 577.932 267.979 575.86 269.447 576.653C270.915 577.444 269.387 573.81 267.693 574.261V574.251Z" fill="#171717"/>
<path d="M268.969 571.372C268.877 572.471 267.845 572.768 267.374 570.415L268.969 571.372ZM268.969 571.372L269.925 572.009C269.448 571.407 269.215 571.112 268.969 570.734C269.044 571.016 268.989 571.151 268.969 571.372ZM248.561 0.497272C248.075 0.543284 247.422 0.622494 246.548 0.706339C246.512 0.70956 246.472 0.752401 246.438 0.757513C246.433 0.759967 246.423 0.767654 246.417 0.767654C245.783 0.793217 245.168 0.907767 244.554 1.01666C243.819 1.14703 243.094 1.32855 242.382 1.55477C242.06 1.65753 241.733 1.72547 241.415 1.84357C241.41 1.84612 241.4 1.8485 241.395 1.85386C241.125 1.95407 240.865 2.1033 240.598 2.21271C236.05 4.06531 231.769 7.08215 226.786 7.41441C224.629 7.65418 219.37 7.2968 214.171 7.23545C211.569 7.20478 208.987 7.24559 206.807 7.47463C204.632 7.70674 202.873 8.13052 201.914 8.84979L195.696 21.7643C195.676 21.7745 195.655 21.7847 195.636 21.7949C195.179 22.0485 194.733 22.2567 194.301 22.4129C190.164 23.9487 187.276 21.2808 184.784 18.8255C183.704 17.7771 182.645 16.7363 181.685 16.125C181.212 15.8234 180.744 15.6348 180.28 15.5671C174.532 14.8548 176.88 17.3743 175.129 17.0318C174.555 16.9188 173.562 16.5126 171.671 15.5671C171.191 17.4853 171.673 19.8767 170.714 21.7949C170.235 23.7132 168.793 25.1481 167.834 27.0663C167.834 27.3623 168.727 28.2763 169.758 29.3583L171.78 29.4974L173.454 30.8526L171.86 35.8749L167.396 34.8385L166.12 35.8749L162.135 33.6427V31.4405C160.877 29.75 159.383 28.8335 155.857 31.3808C154.962 32.02 154.368 32.6655 153.963 33.3138L153.923 33.3241C151.387 37.9188 152.086 41.6385 153.892 42.7009L153.802 42.8109C154.546 43.4735 155.01 43.139 155.815 42.7699C156.745 42.3471 156.946 42.3502 158.017 43.4774C159.088 44.6049 158.859 45.1105 157.957 45.4207C157.055 45.731 157.452 46.349 156.183 47.1944C154.915 48.04 156.354 49.3101 157.848 51.1703C159.341 53.0305 159.171 53.4279 158.157 54.6679C157.142 55.908 156.774 55.2844 154.998 55.4253C153.22 55.5659 152.888 55.0081 153.254 54.6979C153.621 54.3876 154.067 52.3873 152.686 52.0771C151.305 51.7668 150.548 51.8231 150.942 50.7518C151.336 49.6808 150.006 49.0278 150.006 49.0278L150.882 48.131L150.065 46.6064C149.801 46.4285 149.509 46.2844 149.139 46.2379C147.675 45.9669 147.242 45.9695 146.259 45.8294L141.007 48.6295L139.493 47.3539L137.978 48.6295L139.254 49.905L137.739 51.6588L136.145 50.4629C136.145 50.4629 134.391 51.9774 131.521 50.782C128.651 49.5862 129.687 47.2745 128.492 46.5569C127.296 45.8395 126.1 45.3611 126.1 45.3611C126.1 45.3611 127.535 44.1653 127.216 42.1723C127.151 41.7649 127.043 41.4168 126.927 40.8671C126.636 40.3563 126.372 39.767 125.901 39.0036L124.306 40.4984L121.965 37.5687C119.114 37.9552 118.98 41.0613 119.484 44.1255C119.479 44.3229 119.448 44.5023 119.484 44.7234C119.962 47.9121 118.686 49.6659 117.73 52.1371C116.773 54.6084 114.302 58.5148 113.425 58.9132C112.548 59.3115 110.874 60.9068 109.758 61.544C108.642 62.1818 110.156 64.9705 108.642 65.2111C107.127 65.4504 105.134 66.5668 106.729 68.2404C108.323 69.9145 105.692 72.5452 107.526 73.1032C109.359 73.6613 110.635 74.6187 108.642 78.1255C106.649 81.6332 105.294 80.4373 103.62 79.3212C101.943 78.2052 104.711 74.009 101.975 70.8213C101.274 70.0046 100.167 69.0903 99.0257 68.2204C99.9009 67.3243 100.962 66.4349 101.218 65.4104C101.218 64.4512 100.253 63.4971 99.7731 63.4971C94.499 61.5789 86.8369 60.1451 83.4807 53.9109C83.0012 51.9927 84.4373 50.0781 84.4373 48.6395C84.4373 45.7622 84.9168 42.8873 83.9592 40.01C83.5017 39.7145 83.1978 39.8761 82.7735 39.92C82.3936 39.9609 78.6679 40.5766 76.7547 41.6141C74.8414 42.6504 75.4011 43.2084 77.2328 44.2447C77.3309 44.3005 77.4572 44.3404 77.562 44.394C76.6867 45.1674 75.8193 45.9411 74.8516 46.7158C72.4544 48.634 68.6258 49.5884 67.6669 52.4656C67.1873 54.3838 71.4945 55.3392 71.0151 57.737C71.0151 57.8602 70.8434 58.1245 70.7759 58.3049C67.4852 60.3044 65.0791 61.1522 63.5116 61.992C61.9333 62.8375 63.8485 66.0539 62.4951 67.8014C61.1423 69.5488 58.83 66.8444 57.7021 68.3095C57.1685 69.0033 56.7674 70.3162 56.4366 71.6279C54.8885 71.3406 53.9636 71.175 52.8392 70.9503C51.8405 70.7504 51.2598 70.8506 50.8562 71.0101C50.4856 70.756 50.0953 70.5975 49.7203 70.3723C49.5485 70.1417 49.3971 69.9276 49.0924 69.5951C47.3387 67.6817 45.8239 67.7613 44.0702 67.6021C42.3164 67.4431 41.1306 68.9274 41.1306 68.9274C39.7778 70.5057 35.7199 73.8864 33.9161 71.8571C32.4081 70.1606 29.1435 72.1403 25.4859 74.9263C23.8212 74.503 22.3753 73.519 21.3304 71.6379C-0.72468 84.5857 11.7482 78.8227 18.4606 90.3319C19.4196 92.2501 17.5026 95.6083 18.9387 97.5264C20.377 100.883 25.1632 101.355 26.6016 104.233C27.8932 106.558 24.0519 111.195 19.8454 115.144C16.3542 115.902 13.966 118.269 12.7207 118.981C12.0191 119.381 11.0191 120.377 10.1098 121.342C9.22996 120.67 8.44918 119.25 7.42924 119.25C5.03201 119.729 0.72305 119.732 0.72305 122.13C0.53031 123.674 1.03993 125.149 1.96855 126.564C3.43225 126.256 5.62087 125.937 5.96453 127.311C6.33518 128.795 6.94119 129.555 5.95423 131.586C5.81006 133.301 5.76658 134.503 7.30942 135.891C9.56422 137.92 11.3719 139.168 13.2884 138.492C14.2043 138.168 15.3102 137.938 16.1582 138.054C16.7061 138.492 17.0863 138.894 17.4337 139.289C17.4439 139.515 17.4236 139.766 17.3438 140.066C16.6674 142.66 16.4436 145.589 18.3601 146.604C18.8748 146.876 19.3276 147.264 19.6955 147.67C19.7415 148.331 19.8233 148.972 19.8345 149.643C19.6254 149.653 19.3678 149.617 19.0374 149.533C16.4444 148.856 16.4374 148.188 14.9717 149.652C13.7681 150.856 13.9109 152.136 14.9818 153.429C13.5343 155.728 11.225 157.156 9.35172 159.029C7.91338 161.907 12.6988 163.34 13.1783 164.779C13.1783 165.738 10.7866 165.743 10.7866 166.702C10.506 170.627 14.5359 174.883 19.0775 178.431C20.8709 178.802 22.6824 179.088 24.4983 180.065C26.8831 181.348 28.8256 182.795 30.0986 183.842C32.4532 183.896 34.9184 183.473 37.1437 183.473C40.0204 182.994 43.3758 181.078 45.7731 182.516C46.0885 182.748 46.3235 183.001 46.5504 183.254C46.466 183.816 46.3336 184.281 46.3014 184.868C46.24 185.969 46.8375 186.438 47.5371 186.712C48.6616 187.152 50.1279 186.941 50.1279 186.941L46.69 189.203C45.8545 191.1 44.603 193.131 43.2323 195.261C40.6788 195.557 41.0103 196.007 40.8806 197.304C40.7216 198.899 39.9241 200.174 37.6919 200.493C35.8169 200.761 37.7582 207.027 38.9972 206.97C39.0279 207.125 39.0227 207.285 39.0672 207.438C46.2591 206.479 57.1185 206.966 63.3515 200.732C67.1872 197.375 69.5817 189.71 72.9377 186.353C74.3761 184.914 78.2056 185.391 79.6441 183.473C81.0824 182.034 79.6417 179.163 80.6006 177.245C81.5596 175.327 94.0187 168.137 95.9366 168.137C100.731 168.137 110.798 172.933 113.195 175.81C113.675 176.769 115.117 177.246 116.075 176.767C117.034 176.287 115.599 173.887 116.553 173.887C120.389 173.887 132.364 186.35 133.803 187.309C137.159 189.707 140.031 192.578 143.867 193.537C145.305 194.017 142.429 189.711 143.867 189.711C146.264 189.711 147.708 192.578 150.105 193.537C150.584 194.017 151.06 192.581 151.54 192.581C152.978 193.06 154.896 193.544 155.855 194.982C167.841 206.012 160.643 218.94 170.712 233.327C175.986 241.479 177.422 244.821 175.984 254.412C175.984 257.29 172.151 261.605 174.549 262.564C178.384 264.002 183.171 261.122 186.048 263.52C188.445 264.959 184.132 268.787 185.57 270.705C187.487 273.582 192.28 272.145 194.677 274.063C196.595 275.502 196.587 278.364 198.026 280.281C198.984 281.24 200.903 280.291 201.862 281.248C203.3 282.686 209.054 288.921 206.177 292.757C205.789 293.145 204.894 293.583 204.104 294.032C203.754 294.029 203.302 293.963 203.138 294.032C202.853 294.154 202.905 294.339 203.138 294.67C202.592 295.057 202.264 295.442 202.818 295.627C203.391 295.856 203.876 295.931 204.423 296.095C206.137 297.771 208.15 299.463 208.259 297.062C208.262 297.001 208.254 296.969 208.259 296.912C214.855 297.593 220.032 295.287 227.262 301.377C232.536 305.693 232.541 313.841 237.815 318.157C238.774 318.637 240.683 317.197 241.641 317.679C244.998 319.597 248.351 321.51 251.227 323.907C257.94 329.183 251.233 327.742 256.987 336.373C259.864 339.73 265.13 340.202 268.487 343.08L275.671 353.144C278.548 355.062 287.332 354.102 290.688 356.981C293.223 359.516 293.158 364.646 296.059 366.487L296.259 366.109C299.415 364.305 301.667 361.034 304.26 361.485C306.853 361.936 307.193 359.461 308.884 360.588C309.071 360.714 309.605 361.114 309.92 361.336C313.213 361.548 316.091 364.192 319.038 365.87C319.575 365.462 320.402 365.114 322.077 365.202C322.288 365.212 322.473 365.303 322.675 365.341C321.913 363.289 320.587 360.559 329.033 363.687C333.827 365.605 343.896 380.941 345.814 386.696C346.293 388.135 344.856 390.531 346.292 391.011C346.857 391.083 347.294 391.096 347.796 391.141C347.761 388.232 349.039 387.676 350.377 388.191C351.843 388.755 352.515 391.128 353.416 389.776C354.318 388.423 354.314 384.699 358.598 387.743C359.351 388.278 359.927 388.877 360.422 389.477C361.728 390.333 362.616 390.867 365.464 392.924C366.165 393.415 366.446 394.012 366.59 394.648C366.661 394.966 366.549 395.152 366.271 395.196C364.019 395.554 363.449 398.907 362.434 399.132C361.42 399.358 360.292 398.685 359.953 401.165C359.615 403.645 361.195 402.849 362.773 401.046C364.352 399.242 367.508 398.454 368.523 399.581C369.538 400.708 373.263 398.901 373.376 397.887C373.489 396.872 375.736 398.119 376.864 398.345C377.289 398.43 377.626 398.039 377.98 397.538L378.329 397.628C380.963 396.534 383.851 397.293 387.985 402.979C389.903 405.856 392.787 409.366 393.266 413.203C393.328 413.696 393.271 414.179 393.156 414.658C390.871 415.692 390.347 416.976 391.323 418.265C390.397 419.669 389.493 421.039 389.529 422.39C393.019 422.426 393.461 422.072 394.9 425.848C394.925 425.912 395.041 426.107 395.069 426.177C397.03 426.387 399.071 426.424 400.45 427.114C403.327 428.552 405.717 430.955 407.635 432.873C408.114 433.832 407.155 435.266 407.635 435.265C408.403 435.214 409.036 435.068 409.747 434.976C412.455 436.063 415.044 436.295 415.876 434.767L416.494 433.631C417.043 432.794 417.59 432.107 418.128 431.727C421.961 429.022 428.73 429.246 430.534 436.461C430.589 436.68 430.587 437.006 430.614 437.278C431.551 438.861 432.508 440.842 433.524 443.416C439.277 457.803 430.165 450.119 438.795 463.067C439.754 464.026 441.673 464.021 442.153 464.98C444.55 467.857 446.464 471.208 447.903 475.044C450.779 481.279 448.86 489.419 452.696 495.174C456.531 500.449 466.118 501.885 457.967 511.476C454.611 516.271 443.104 511.466 441.186 520.095C440.707 522.973 445.5 524.413 445.98 527.29C446.459 529.688 444.546 531.599 444.066 533.996C443.587 536.394 443.591 539.273 442.153 541.191C439.756 543.589 434.963 543.107 433.045 545.984C430.816 549.638 434.199 549.512 432.567 554.454C431.901 556.468 434.057 556.939 434.002 560.204C433.956 562.829 438.075 565.116 439.273 565.475C463.246 572.189 456.047 548.86 467.554 538.789C472.348 534.953 477.136 536.875 478.575 529.682C480.492 521.05 472.342 513.876 478.575 506.683C485.401 498.717 498.785 499.432 504.334 495.104C503.826 494.595 503.442 494.141 503.407 493.858C503.088 491.307 508.19 490.032 504.045 489.234C500.263 488.507 500.321 484.133 502.759 478.662C501.93 477.795 501.249 476.201 501.105 472.175C501.105 470.257 503.977 468.342 503.018 466.903C502.06 464.985 499.186 465.939 497.269 464.98C491.995 462.582 488.165 456.834 482.411 454.916C477.137 453.477 475.696 458.757 470.902 453.002C462.751 442.452 472.342 442.941 474.26 433.83C474.74 431.912 472.347 430.476 472.347 429.037C472.347 428.078 484.322 403.949 485.281 402.511C494.391 392.92 499.657 403.947 509.246 407.304C516.438 409.701 530.342 403.951 534.657 409.705C542.328 419.776 536.086 428.554 550.949 434.308C553.826 435.747 557.182 437.181 559.1 435.743C561.018 434.784 559.576 425.197 560.535 422.799C561.974 418.483 566.29 420.414 564.372 414.179C559.577 397.395 544.237 398.685 538.483 390.533C537.045 389.094 538.966 385.744 537.048 384.305C532.254 380.469 516.445 378.073 510.691 375.675C503.5 373.278 501.1 368.011 494.867 364.654C477.127 355.543 453.176 356.503 435.915 344.994C417.696 332.525 453.652 327.75 441.665 314.322C437.35 309.527 430.164 314.799 426.808 315.279C411.465 317.677 387.039 322 374.094 308.572C373.135 307.613 374.566 304.738 373.127 303.779C370.73 301.382 366.418 300.904 363.541 298.986C354.911 292.273 341.661 282.859 336.387 272.789C331.113 263.198 321.844 224.056 315.132 218.301C308.899 213.026 313.461 220.724 306.672 217.026C300.04 213.413 282.586 196.488 278.71 196.259C274.274 195.997 270.192 194.299 259.379 180.604C257.941 177.727 251.714 151.842 252.673 149.444C252.837 149.046 253.11 148.667 253.31 148.328C253.205 148.166 253.085 148.038 252.991 147.85C252.991 145.345 253.084 143.324 253.589 142.449L253.45 142.14C253.874 141.148 254.366 140.306 255.004 140.306C255.961 140.306 257.157 142.379 255.482 142.937C253.808 143.495 255.163 144.451 256.678 144.611C258.193 144.77 260.265 144.452 261.62 141.9C262.976 139.349 262.736 136.639 264.251 135.762C265.766 134.885 265.606 132.414 263.853 131.457C262.099 130.501 260.744 131.138 259.229 129.146C258.002 127.531 257.183 126.402 256.2 126.515L256.379 125.997C255.463 126.073 254.565 126.904 254.107 126.445C253.627 125.486 254.105 124.525 255.064 124.044C256.981 122.605 255.066 118.777 254.107 116.859C253.148 115.9 252.664 119.252 251.705 118.772C250.339 118.089 250.85 115.143 250.43 113.501C250.358 113.506 250.361 113.501 250.271 113.501C248.356 113.501 246.474 118.486 246.115 113.82C245.757 109.153 248.556 105.358 249.633 107.751C250.607 109.916 247.777 111.711 249.155 112.225C249.989 110.997 250.86 109.652 251.228 108.548C252.187 106.63 250.276 103.756 252.194 103.277C252.019 102.698 253.589 101.572 254.905 100.716C257.298 99.1606 257.067 97.766 257.785 98.4839C258.503 99.2019 260.057 99.1603 259.698 98.3249C259.339 97.4874 259.378 97.3593 260.814 95.9235C262.25 94.4875 265.368 96.3308 264.65 97.5277C263.932 98.7242 263.176 100.518 262.099 99.9193C261.023 99.321 260.298 100.246 257.306 103.118C256.603 103.262 256.401 103.193 255.861 103.277C256.859 103.603 257.864 103.965 258.901 103.755C266.572 102.316 272.796 94.6446 279.508 91.7674C282.385 90.8083 284.785 91.932 286.702 90.0136C288.62 88.0954 288.132 87.6157 290.529 86.1771C295.243 83.6997 298.351 87.5991 301.082 87.2931C302.737 87.1075 306.152 84.6641 307.15 83.7856C303.359 82.2642 306.032 76.2697 315.142 84.9016C317.06 87.2993 316.576 88.8912 317.534 91.2891C331.378 92.1352 313.858 80.106 309.064 77.2287C305.707 75.3105 312.265 69.7214 311.306 67.3236C310.347 64.9259 302.671 71.6447 304.589 65.4105C306.028 61.0946 313.376 57.9043 310.02 55.0271C307.623 53.1089 297.881 55.1918 298.84 49.4369C298.695 43.9567 311.796 39.995 312.521 33.0647C312.436 33.0095 312.311 32.9981 312.242 32.925C295.561 29.3914 297.065 34.8351 281.79 30.0552C277.795 29.4406 274.455 28.7436 271.317 27.9527C265.145 26.7593 261.569 25.2136 256.579 21.7745C255.439 21.0458 254.283 20.2511 253.091 19.373C252.87 19.1516 252.618 19.1092 252.364 19.124C251.787 19.1864 251.189 19.6097 250.749 19.6421C250.554 19.6575 250.381 19.6165 250.271 19.3931C250.261 19.3727 250.23 19.3956 250.22 19.3727C249.26 17.4545 251.658 15.5499 250.698 14.1112C249.705 12.6209 248.597 12.112 247.5 11.8093C247.079 11.6974 246.653 11.5257 246.244 11.4705V11.4602C246.482 10.8927 246.645 10.3013 246.423 9.85596C245.86 8.72861 243.16 5.23478 245.865 4.78376C248.571 4.33284 249.354 4.55732 249.692 2.30258C249.782 1.70606 249.837 1.31823 249.821 1.0371C249.811 0.796304 249.73 0.658781 249.572 0.579027C249.542 0.563689 249.51 0.538077 249.473 0.527852C249.274 0.467525 249.007 0.458418 248.561 0.497272ZM312.565 32.6039C312.563 32.6658 312.562 32.7251 312.565 32.7834C312.567 32.7374 312.585 32.7005 312.585 32.654C313.02 32.8268 313.406 32.8948 313.801 32.9828C313.399 32.8846 312.993 32.7737 312.565 32.6039ZM314.119 33.0625C314.191 33.0778 314.266 33.1084 314.339 33.1222C314.323 33.112 314.308 33.0967 314.287 33.0814C314.23 33.0711 314.176 33.0727 314.119 33.0625ZM265.292 194.323C265.545 194.364 265.591 194.922 265.929 195.768C266.606 197.46 267.54 199.357 264.494 200.88C261.787 199.357 261.315 201.486 260.977 199.285C260.638 197.086 262.164 196.643 263.857 195.29C264.703 194.613 265.038 194.282 265.292 194.323ZM172.151 266.538C171.399 266.528 170.601 267.678 170.078 269.099C169.24 271.372 168.155 270.814 167.198 269.737C166.241 268.66 164.806 269.417 164.806 270.853C164.806 272.289 161.201 269.297 158.568 270.853C155.936 272.408 157.659 275.048 161.129 275.646C164.599 276.244 163.84 274.458 164.318 275.177C164.797 275.895 165.962 273.423 167.039 274.38C168.116 275.338 167.476 274.022 168.792 273.424C170.109 272.826 168.482 276.254 170.397 276.134C172.311 276.015 172.868 277.45 172.629 276.134C172.39 274.818 170.077 273.264 171.991 273.264C173.906 273.264 173.426 272.061 173.426 267.993C172.977 266.916 172.601 266.554 172.151 266.548V266.538ZM267.693 324.852C268.207 324.852 268.65 325.305 268.65 325.819C268.65 326.333 268.207 326.775 267.693 326.775C267.179 326.775 266.896 326.333 266.896 325.819C266.896 325.305 267.179 324.852 267.693 324.852ZM115.59 367.99C111.275 373.265 84.9259 394.836 77.7341 394.357C69.1038 394.357 65.7474 384.291 65.2679 384.77C63.8295 386.209 66.2276 388.124 65.746 390.042C65.2664 393.399 61.9108 395.793 61.4312 399.15C60.3569 417.06 62.225 410.087 65.6364 408.008C65.6467 410.058 65.757 411.062 66.872 410.938C67.4299 410.876 68.5811 410.011 69.7619 409.045C72.7352 413.047 79.617 435.815 77.7337 440.524C76.7748 442.442 73.8996 441.965 72.9405 443.403C72.461 443.883 74.3756 443.88 74.3756 444.36C74.3756 446.758 71.9805 449.625 73.4189 452.023C74.8572 453.941 80.1241 451.548 80.6036 453.946C81.5626 456.823 76.29 458.254 75.8105 461.131C74.8516 464.488 76.7703 467.36 76.2885 470.717C74.8502 478.87 68.1404 485.091 71.0171 494.682C71.976 497.56 76.7667 499.477 76.7667 502.833C77.255 502.706 77.7277 502.639 78.2118 502.833C87.3215 506.67 75.8052 524.41 94.5041 515.778C107.929 509.544 100.257 511.462 103.134 500.432C103.613 498.034 106.013 497.079 106.492 495.161C106.492 493.722 101.695 491.812 103.134 491.812C111.284 491.332 119.908 498.034 126.621 500.432C127.58 500.913 127.098 503.314 127.577 502.355C136.687 486.53 134.769 464.5 136.207 448.675C136.207 446.277 138.598 444.355 138.598 442.437C137.64 437.162 130.451 437.172 132.849 430.937C135.246 424.224 143.871 421.352 143.391 413.2C142.433 390.182 138.117 414.49 135.24 397.226C135.24 395.788 138.601 395.316 137.642 394.357C135.245 391.479 128.536 392.442 127.577 389.085C126.618 385.728 134.761 386.681 135.24 383.804C138.117 373.254 117.029 374.703 115.59 367.99ZM337.995 394.147C337.808 394.112 337.645 394.127 337.507 394.207C336.674 394.675 336.584 396.509 337.348 397.715C338.363 399.322 341.783 398.196 342.46 396.758C343.137 395.32 341.669 395.467 338.623 394.367C338.39 394.271 338.182 394.193 337.995 394.157L337.995 394.147ZM391.346 526.161C389.827 526.304 388.94 527.121 390.549 528.393C392.582 529.636 395.2 526.773 392.941 526.321C392.376 526.208 391.853 526.123 391.346 526.171V526.161ZM395.98 530.157C395.165 530.236 394.47 530.669 394.386 531.432C393.369 535.048 395.92 533.08 396.937 533.984C397.953 534.887 398.018 530.383 396.778 530.157C396.467 530.101 396.252 530.131 395.98 530.157ZM397.415 536.385C396.977 536.583 397 537.189 397.734 537.979C399.428 539.335 401.464 538.764 399.657 537.182C398.754 536.392 397.853 536.187 397.415 536.385ZM426.811 542.135C424.384 542.135 420.509 546.765 414.036 548.203C412.598 548.684 413.871 543.416 412.432 544.855C408.596 548.691 414.936 546.469 406.363 553.953C402.009 554.658 405.723 551.98 399.179 552.837C397.14 549.516 396.233 549.826 388.477 553.156C382.244 556.513 388.565 558.69 372.174 562.104C366.368 563.314 355.256 564.747 353.002 562.742C353.002 562.742 340.865 568.173 340.387 568.173C337.03 568.173 332.391 566.095 329.515 564.177C328.556 563.696 328.402 560.192 326.964 559.713C323.663 561.352 324.753 562.247 320.576 561.626C317.813 553.635 317.018 556.711 316.262 554.112C309.68 559.168 311.581 556.286 306.675 556.036C302.685 555.831 309.147 563.625 296.93 567.535C292.615 568.016 289.897 560.185 288.938 558.746C283.858 555.445 292.256 563.581 283.986 562.902C285.913 567.423 280.631 564.661 279.192 566.579C277.754 568.497 277.678 571.27 276.323 574.092C274.628 577.677 277.53 578.895 275.356 581.914C273.21 583.24 273.775 583.514 275.356 585.432C277.714 587.069 275.857 589.179 278.236 590.863C281.225 592.979 282.738 590.093 285.42 596.772C289.736 598.69 294.528 594.378 298.843 595.337C304.117 596.776 300.401 596.278 304.593 599.333C308.784 602.388 308.469 595.438 325.688 610.673C328.086 611.632 330.477 610.19 332.395 611.629C334.792 612.589 338.787 617.066 340.705 618.505C345.871 619.464 348.401 620.178 350.291 622.013C353.104 625.397 359.229 617.864 367.859 623.139C380.305 631.607 375.429 634.522 380.166 638.953C394.381 640.556 387.336 646.171 400.454 641.823C409.564 641.342 409.908 646.008 413.239 645.022C415.92 644.228 411.474 639.907 411.954 637.03C412.433 634.632 412.917 631.764 414.355 629.367C415.793 626.969 418.186 625.534 420.583 624.095C421.542 623.136 423.464 623.618 422.985 622.661C421.546 618.824 419.695 623.137 418.511 617.379C416.789 615.376 414.674 612.27 414.674 611.311C416.112 607.954 414.669 610.358 417.065 608.919C418.361 605.532 411.958 607.8 410.04 604.923C404.707 588.913 413.688 591.046 412.92 577.44C422.995 560.897 428.976 545.248 432.093 543.57C430.175 542.251 429.238 543.476 426.811 542.135ZM267.693 574.251C265.999 574.701 265.278 575.559 266.408 576.802C268.215 577.932 267.979 575.86 269.447 576.653C270.915 577.444 269.387 573.81 267.693 574.261V574.251Z"/>
</svg>
