<svg width="118" height="62" viewBox="0 0 118 62" xmlns="http://www.w3.org/2000/svg">
<path d="M40.4639 6.03273C38.9611 8.5593 36.6084 13.1142 35.3524 14.9794C32.8404 18.7098 32.6372 18.7992 29.7618 22.4883C28.9151 24.0727 26.8948 25.171 23.7113 25.8433C22.1196 26.1797 22.0654 24.814 20.0374 24.8847C18.0094 24.9553 13.9905 26.4889 13.0091 26.4824C11.3235 26.4722 11.1227 24.7339 10.4534 25.6836C9.34189 27.3082 10.1109 31.6477 10.1339 32.2339C10.6592 34.4256 10.875 35.5613 9.6257 43.8208C9.19626 44.5298 8.73742 46.3501 10.2139 46.6925C12.558 47.2362 11.8875 46.3373 12.1791 45.3871C12.7937 43.3845 12.5028 39.0648 14.6865 40.7814C16.4418 42.1614 15.6817 44.9073 16.3636 45.015C18.0352 45.2788 17.4816 41.5401 20.9958 41.66C23.5515 41.4999 25.4684 40.3019 26.906 41.3404C27.6248 41.8597 25.9675 42.4189 25.1489 43.4174C23.8329 45.0226 22.6731 46.4928 21.6349 47.0919C19.7181 48.7694 16.763 51.086 15.8844 51.4056C15.4453 51.5656 14.781 48.6501 13.9676 50.2872C13.1689 51.8948 12.7297 54.8804 12.3702 55.3997C11.4915 56.4381 9.97425 56.5979 9.17559 57.4766C8.68121 58.0204 8.18424 58.5051 7.41849 59.8731C37.9764 62.4992 96.5707 61.9308 116.676 50.1275L117.155 49.6485C106.607 35.262 116.677 22.3314 113.801 17.5359C112.362 15.6177 110.448 14.1814 108.53 13.2223C107.571 12.7427 106.134 14.1813 105.654 13.7012C103.737 12.2626 104.697 8.42929 102.779 7.94974C96.0669 6.0316 89.3655 12.2634 82.1736 12.2634C81.2146 12.2634 82.6527 10.8257 81.6946 10.3462C75.4617 8.42796 65.7243 8.91027 59.9708 5.55343C58.5324 4.59434 58.534 2.19864 57.0956 1.71909C55.6572 1.71909 55.1795 3.63601 53.7412 4.11556C54.2208 5.5542 52.9429 5.07358 52.4634 6.03273C51.9839 6.99182 54.6996 13.8605 54.6996 14.8196C55.3383 20.0947 60.3772 21.0021 53.1023 24.5652C48.4332 27.4869 43.7923 26.4962 41.921 24.7248C39.9441 22.8537 38.8739 23.5537 37.129 24.7248C34.3735 26.5739 34.1351 25.6749 31.9449 24.5198C35.0627 19.0763 35.47 19.9986 37.7228 16.4186C39.298 13.5217 40.67 13.1181 41.5564 10.8269C42.4691 8.46765 42.938 5.56422 45.2302 2.43928C44.4585 2.06198 42.8598 1 42.8598 1C42.8598 1 40.7433 5.56294 40.4639 6.03273ZM8.18798 46.2173C8.18798 46.2173 7.66882 48.4939 6.59065 49.8919C5.51244 51.2898 4.35443 53.4865 3.55576 55.0043C2.75709 56.5221 1 58.1996 1 58.1996L3.15416 59.5259C3.19506 59.0066 3.19501 59.2463 3.63314 58.7271C4.0723 58.2078 5.23047 57.6088 6.02914 55.5318C6.82781 53.4549 7.90607 52.4963 8.74466 50.8987C9.58331 49.3012 9.82292 49.3409 10.1822 48.9815C10.5416 48.6221 9.3352 47.2514 9.3352 47.2514L8.18798 46.2173Z"/>
</svg>
