<svg width="81" height="94" viewBox="0 0 81 94" xmlns="http://www.w3.org/2000/svg">
<path d="M32.3317 0.914356C30.7504 1.14033 29.4017 4.04011 28.4981 6.18657C27.5945 8.33304 26.6862 6.81428 25.7826 7.94398C24.8791 9.07373 22.8412 7.3404 23.0671 8.58304C23.2931 9.82572 23.5125 10.5002 26.9008 10.5002C30.2892 10.5002 27.5397 11.2215 27.5397 12.5771C27.5397 13.9328 30.36 13.2516 29.4564 14.4943C28.5529 15.737 28.6464 15.9676 29.7759 17.2103C30.9054 18.453 27.898 19.2986 27.2203 18.1689C26.5426 17.0392 26.3006 17.8652 25.623 19.447C24.9452 21.0286 22.2606 22.9779 21.4699 24.5594C20.6793 26.141 23.6125 25.8536 23.3866 27.4352C23.1816 28.8695 18.9198 30.3727 14.6013 31.9086C14.52 32.8283 13.7478 33.9258 12.8442 34.7844C11.7147 35.8576 10.5807 37.8941 10.1288 38.4589C9.6769 39.0238 4.27674 38.1588 3.26023 37.8199C2.24367 37.4809 1.53208 38.9931 1.024 39.8968C0.515313 40.8006 0.768834 41.5025 1.50298 42.2933C2.23713 43.0841 3.35194 43.6555 4.53788 44.0507C5.72366 44.4459 5.41231 45.1577 5.01701 46.2874C4.62182 47.4171 3.59882 47.7429 3.25992 48.3643C2.92096 48.9856 3.53287 50.346 3.41937 51.0803C3.40915 51.1508 3.28804 51.182 3.25992 51.2397C3.69908 51.16 3.77919 51.4396 3.89882 52.0386C4.01845 52.6377 4.49789 52.6377 5.97544 53.3167C7.45299 53.9957 7.05354 54.0756 8.53104 55.0741C10.0085 56.0726 9.28978 56.7117 10.2881 57.6303C11.2866 58.5489 12.0054 58.3093 11.4063 59.867C10.8074 61.4247 13.0837 61.1451 13.1634 63.3818C13.2432 65.6185 13.5628 65.219 14.2816 64.8197C15.0004 64.4204 16.398 64.0208 17.6359 64.3406C18.8738 64.6601 21.0702 66.3776 23.2265 66.737C25.383 67.0964 27.4595 70.0921 28.338 72.4885C29.2165 74.885 30.3347 73.2474 30.2549 76.4826C30.1752 79.7178 30.3745 78.7992 31.8522 79.9975C33.3298 81.1957 34.5209 85.0606 34.408 86.388C34.295 87.7154 32.725 88.4722 33.2898 89.7431C33.8545 91.014 32.8205 91.4248 32.6509 91.82C32.5834 91.978 32.6304 92.5125 32.6509 93.0981C32.8999 93.2096 33.1891 93.3144 33.4496 93.4176C33.4956 93.4381 33.5625 93.3972 33.609 93.4176C33.724 93.3818 33.8099 93.3768 33.9285 93.2582C34.6062 92.5804 34.8005 91.9801 35.8452 91.9801C36.89 91.9801 37.6016 90.5422 38.0816 90.5422C38.5617 90.5422 38.9632 92.1139 39.8386 90.7016C40.7139 89.2895 40.9012 87.4161 40.4776 85.2697C40.0538 83.1232 38.96 83.1736 41.7554 77.9205C44.5509 72.6674 43.7342 75.7541 45.9085 73.1276C48.0827 70.501 50.4899 71.1961 52.7771 68.6542C55.0643 66.1124 56.4121 65.8333 57.0898 66.737C60.9431 68.4357 60.4179 73.44 63.4793 73.1276C66.5553 72.8137 64.7415 68.5755 65.8753 65.1394C66.2424 64.4051 67.2547 61.4454 68.2713 61.7843C69.2878 62.1233 70.3953 61.7384 70.0282 59.5478C70.3953 57.7543 72.4363 60.7654 76.4177 59.0687C76.7934 58.9086 77.0344 58.856 77.376 58.7491C76.9092 57.6228 76.5887 57.0202 76.2579 56.1929C75.1284 53.3687 75.401 52.8606 76.4174 50.6012C77.434 48.3418 76.8965 48.0015 76.8965 45.968C76.8965 43.9345 77.5434 43.3022 78.3341 41.4946C79.1246 39.6871 78.3698 38.6577 79.6119 37.9798C80.8544 37.302 79.846 36.1241 80.4105 33.1869C80.9753 30.2496 78.6649 28.5972 77.5354 30.6306C76.4059 32.6641 75.8639 33.1046 75.2992 31.749C74.7344 30.3933 70.8379 29.0604 69.7084 29.5123C68.5789 29.9642 64.702 30.7436 63.7983 30.6306C62.8948 30.5177 62.9141 28.1746 63.4788 24.5596C64.0435 20.9446 62.3719 21.5903 61.2424 21.3643C60.1129 21.1384 59.1499 19.1163 57.5686 20.246C55.9874 21.3757 55.8504 21.0368 55.1726 20.246C54.4949 19.4552 55.0161 15.04 53.096 14.814C51.1758 14.588 51.9974 15.9404 51.6585 16.7312C51.3195 17.522 48.9429 15.7953 48.9429 13.5359C48.9429 11.2764 48.2492 8.15876 47.3456 9.06248C46.4421 9.96626 45.7951 9.55328 45.908 8.42343C46.021 7.29368 45.5339 6.49491 44.6302 7.62461C43.7267 8.75436 43.504 8.39608 42.7134 7.94413C41.9227 7.49219 40.0834 9.30778 39.5187 8.74296C38.954 8.17803 37.247 9.48703 36.0045 8.5835C34.7621 7.67978 37.6487 6.45176 37.7616 5.54798C37.8746 4.64426 33.913 0.688386 32.3317 0.914356Z"/>
</svg>
