<svg width="252" height="153" viewBox="0 0 252 153" xmlns="http://www.w3.org/2000/svg">
<path d="M8.53706 151.993C10.4549 151.993 12.3727 152.472 13.811 151.034C15.7289 148.157 15.2494 143.841 17.1673 140.963C21.0029 136.168 36.3456 126.577 42.0991 125.138C45.4552 124.179 60.798 125.138 64.1542 124.179C66.072 123.699 67.5104 119.863 69.4282 119.863C72.7845 120.343 74.7024 128.495 76.6203 126.097C78.0587 125.138 77.5791 122.74 79.0175 121.302C83.3326 116.986 85.2505 121.781 90.5246 121.302C93.4013 120.822 94.8397 117.945 97.7165 117.945C98.196 117.465 112.58 121.302 113.059 120.822C115.456 120.343 116.415 116.986 118.813 116.506C123.128 115.547 123.128 122.74 126.963 116.986C129.84 113.629 129.84 105.476 135.594 104.517C140.388 103.558 142.306 118.904 148.539 118.904C154.772 118.904 161.005 115.068 167.238 116.986C176.348 119.384 190.731 137.127 201.759 139.045C213.746 140.963 214.225 122.74 221.417 123.22C223.814 123.22 225.252 126.097 227.17 126.097C228.609 126.097 227.65 122.74 228.609 122.261C231.485 121.302 235.321 124.179 237.719 122.261C237.719 122.261 240.116 107.874 241.075 106.436C242.034 103.558 251.143 96.365 251.143 95.8855C254.979 81.9786 241.075 69.0306 232.924 62.3169C229.568 59.9192 236.28 55.6032 229.568 54.6441C227.17 54.1646 225.253 58.001 222.855 57.5214C221.896 57.5214 222.855 56.0827 222.855 55.1236C222.855 54.6441 223.335 53.6851 223.335 53.2055C223.335 49.8486 224.294 46.4918 223.814 43.1349C223.335 41.6963 219.979 42.1758 219.979 40.7371C219.979 34.5031 231.486 30.6666 215.663 24.912C213.746 24.4324 210.869 24.4324 209.431 22.9937C207.992 21.0755 210.389 17.7187 208.472 16.7597C206.554 15.321 204.636 17.7187 202.239 18.1982C201.759 20.596 187.375 15.3211 185.458 15.8006C185.458 15.8006 176.348 25.8711 175.868 25.8711C172.512 26.3507 157.169 16.2801 155.252 13.4028C154.293 12.4437 156.211 9.56644 154.772 9.08684C151.895 8.12774 149.019 11.0051 146.142 10.046C144.703 9.56642 145.183 6.68907 143.745 6.20952C142.306 6.20952 140.868 9.08681 139.429 8.60731C136.553 7.64817 131.279 0.454895 126.964 0.454895C126.005 0.454895 126.964 1.89354 126.964 2.85268C126.964 3.33223 127.443 3.33227 127.443 3.81181C128.882 10.046 123.608 0.93444 120.731 2.85268C116.416 6.20952 101.553 20.1165 97.7168 21.0755L96.7579 20.596C97.2374 21.5551 97.2373 22.9937 97.2373 24.4323C99.1552 34.503 111.621 48.41 108.744 59.4396C107.306 66.1533 95.799 80.0604 88.6071 81.0194C85.7304 81.4989 83.8125 78.6216 81.4152 78.1421C76.6207 76.7034 75.6618 80.0603 72.785 75.2648C69.4288 70.4692 69.4288 63.7555 65.1137 59.9191C60.7986 55.6032 50.7298 53.685 45.9353 49.369C43.0585 46.9713 45.9353 40.7371 43.0584 39.2984C38.7433 37.3803 35.3872 44.094 31.5515 46.4918C26.757 50.3282 20.0445 51.2872 15.7294 56.0827C4.2223 68.0715 14.291 81.9785 9.97587 93.9672C8.53748 98.7628 2.30448 100.681 0.866041 105.476C-0.0928502 108.354 2.30454 111.231 2.30454 114.588C2.30454 117.945 0.866046 121.302 1.82494 124.179C1.82494 124.659 2.3046 125.138 2.78399 125.138C-2.01052 130.893 5.66028 145.279 8.53706 151.993Z"/>
</svg>
