<svg width="9" height="14" viewBox="0 0 9 14" xmlns="http://www.w3.org/2000/svg">
<path d="M3.7615 0.402954C3.11763 1.49161 2.01943 3.72327 1.84826 4.70775C1.66918 5.73646 3.00906 6.98247 2.96431 8.05593C2.9184 9.12938 3.69885 10.2297 2.80519 10.7664C1.91066 11.3031 1.54337 11.3904 1.05138 11.8824C0.559552 12.3742 2.49208 12.4694 2.80519 12.2013C3.11845 11.9329 4.13119 11.6704 4.39956 12.5202C4.66792 13.37 5.93551 12.8334 6.47224 12.5202C6.67632 12.6533 6.62428 12.4401 6.79111 12.5202C6.90387 11.4209 6.71458 11.6676 7.5883 11.2447C8.46227 10.8217 7.92656 10.4491 7.5883 9.49086C7.25003 8.5326 8.29293 8.81694 7.5883 8.05593C6.88397 7.29476 7.88875 7.27813 7.74742 6.93987C7.60661 6.60161 6.74412 7.18476 6.63136 6.62099C6.51861 6.05722 6.26657 6.18988 5.67474 5.82381C5.08291 5.45749 5.74061 5.19652 5.51562 4.54831C5.29011 3.89995 5.65535 4.31464 5.99362 3.75113C6.33188 3.18741 4.38874 2.79614 5.03699 1.83789C5.36097 1.35881 4.08563 0.727083 3.7615 0.402954Z"/>
</svg>
