<svg width="211" height="167" viewBox="0 0 211 167" xmlns="http://www.w3.org/2000/svg">
<path d="M127.624 0.52708C121.871 1.48613 121.876 9.63185 118.999 12.9887C115.163 18.7434 115.167 11.5502 110.852 12.5096C108.455 12.9892 107.499 16.3437 105.102 16.8233C104.622 17.3028 90.247 13.468 89.7676 13.9475C86.8908 13.9475 85.4563 16.823 82.5796 17.3025C77.3055 17.7821 75.3939 12.9866 71.0787 17.3025C69.6404 18.7412 70.1211 21.1364 68.6827 22.0954C66.7649 24.4932 64.8508 16.3442 61.4946 15.8647C59.5767 15.8647 58.1414 19.6987 56.2235 20.1783C52.8673 21.1373 37.3768 20.1778 34.0205 21.1369C28.267 22.5755 12.9378 32.158 9.10211 36.9535C7.18422 39.8309 7.66552 44.1414 5.74769 47.0187C4.3093 48.4573 2.3944 47.9773 0.476562 47.9773C0.956111 48.9364 0.955597 49.4149 1.43499 49.8944C4.79121 62.3627 -0.963575 54.6808 3.83099 66.6695C4.31053 67.6286 4.78874 68.5861 5.74769 69.5453C12.099 69.7717 11.8874 80.1661 13.415 85.3619C13.8945 88.2392 11.977 91.1119 12.4565 93.9892C12.9361 94.9483 13.4143 91.5927 14.3732 91.5927C16.2911 91.1132 16.2899 94.947 16.7694 96.3856V98.3028C18.2078 97.8233 18.6854 95.9063 20.1238 95.9063C21.5622 96.3859 21.5605 98.7815 22.9989 99.7407C28.7524 103.097 38.4896 102.615 44.7226 104.534C45.6816 105.013 44.2425 106.451 45.2016 106.451C52.3935 106.451 59.0949 100.219 65.8073 102.137C67.7252 102.617 66.7647 106.45 68.6826 107.889C69.1621 108.368 70.5989 106.93 71.5577 107.41C73.4756 108.369 75.3905 109.805 76.8288 111.723C79.7056 116.519 69.6354 129.449 80.1834 143.836C81.1424 142.877 81.141 140.96 82.5794 140.481C89.7713 138.083 86.4104 144.314 91.205 146.232C104.63 151.987 99.3467 141.433 107.977 153.901C110.854 157.737 107.975 163.006 110.852 164.925C116.606 168.761 130.497 161.091 134.333 159.173C138.169 157.734 140.081 166.364 144.396 162.528C147.273 160.61 147.749 155.819 150.626 153.901C153.023 152.462 155.896 153.901 158.293 153.422C160.69 152.463 153.979 147.192 155.897 145.274C158.294 142.397 163.083 143.358 166.439 141.919C174.111 137.603 163.561 138.087 168.835 132.812C170.274 130.894 181.294 125.62 182.253 131.854C182.733 133.292 180.336 134.249 180.336 135.688C179.857 140.004 189.441 136.648 190.399 134.25C194.715 123.7 179.857 126.583 179.857 124.664C179.378 122.746 184.17 109.327 184.17 108.848L179.857 95.4275C179.857 94.948 181.774 94.949 181.774 93.9896C187.527 76.2463 183.206 94.9562 192.316 80.5696C194.713 77.6923 192.315 72.9027 194.233 69.5459C196.63 66.189 203.816 70.9856 206.692 67.6287C208.131 65.7105 206.213 62.8369 206.692 60.9186C207.651 59.48 210.046 59.4815 210.526 58.0429C212.444 51.3292 196.629 59.9623 197.108 55.6464C197.588 48.4531 200.943 42.2301 198.067 35.0368V34.5578C196.628 35.0373 195.192 35.0368 193.754 35.0368C182.726 33.1186 168.361 15.3873 159.251 12.9895C153.018 11.0713 146.796 14.9066 140.563 14.9066C134.33 14.9066 132.419 -0.432067 127.624 0.52708ZM8.4409 72.8739C8.72055 75.1106 9.59907 78.2261 9.07996 82.1403C8.56084 86.0545 8.40108 88.6906 7.32286 91.5663C6.24465 94.4421 5.82195 95.1735 5.82195 95.1735L8.2866 96.6409C8.2866 96.6409 8.878 95.83 8.99758 95.1099C9.11721 94.3909 9.19737 93.7519 10.1156 93.1927C11.0341 92.6335 10.9543 92.3938 10.7547 91.4353C10.5548 90.4767 10.7547 90.2371 11.3936 88.7193C12.0325 87.2016 12.1922 86.6823 11.7131 86.1631C11.2341 85.6438 10.7149 84.9648 11.3936 83.7666C12.0725 82.5684 11.8726 84.0463 11.7131 81.8494C11.5536 79.6527 12.1527 78.5344 11.5535 76.4175C11.1041 74.8298 9.36562 72.4923 9.16327 72.4714C8.96082 72.451 8.37091 72.3146 8.4409 72.8739Z"/>
</svg>
