<svg width="32" height="46" viewBox="0 0 32 46" xmlns="http://www.w3.org/2000/svg">
<path d="M12.9776 0.575994C10.9812 0.244876 11.101 2.71593 9.78884 3.51561C7.76483 3.89826 6.88859 5.70621 7.02859 7.67094C7.33726 9.49857 5.50255 9.85372 4.67689 10.9593C5.47979 12.148 4.80495 13.2636 3.43129 13.5601C3.10936 14.2257 2.44155 15.1196 2.08604 15.9816C1.73044 16.8435 1.69318 17.6723 2.65404 18.2037C1.99629 19.2725 1.03888 20.525 1.16928 22.0103C0.93306 23.1365 1.49327 23.4983 2.16576 23.804C2.83825 24.1096 3.62026 24.3653 3.80996 25.2787C3.95128 26.9696 4.72275 28.1861 6.17162 29.0056C5.6379 29.8826 5.20491 30.9322 6.37107 31.7459C7.47207 33.4121 4.92531 34.7973 5.05571 36.539C5.36744 37.6909 4.30742 38.5037 3.60085 39.4288C4.23487 39.616 4.8956 39.8165 4.82652 40.6445C4.73877 41.6984 9.57155 42.2306 9.65945 43.7236C9.73292 44.9679 11.58 44.8291 13.1272 44.6603C14.0041 44.244 14.8626 43.9296 15.7081 43.7934C15.9331 43.4995 16.1162 43.179 16.5053 42.5777C17.4712 41.0846 22.3882 42.1389 22.5639 43.5442C22.6047 43.883 23.2554 44.5149 23.7696 45.0788C24.539 44.1305 25.4761 43.6542 25.1348 42.6873C24.4584 40.7707 24.5194 38.3511 25.8722 37.5056C27.2251 36.66 26.6045 35.3645 27.5064 34.2371C28.4083 33.1097 27.1646 31.9263 29.4197 30.6298C30.547 29.9816 30.9469 28.9834 31.0738 27.9194C31.2009 26.8555 31.0586 25.7223 31.1148 24.8204C31.227 23.0165 30.7723 23.1834 28.743 23.4652C26.7137 23.7468 27.4523 23.0743 26.3813 21.5519C25.3103 20.03 24.6296 22.4026 23.8405 20.6551C23.0513 18.9076 21.5309 19.0702 20.9108 16.9282C20.2908 14.7862 20.2941 13.6009 18.9976 14.1082C17.7011 14.6153 17.4726 10.9599 17.3036 9.32509C17.2831 9.1603 16.2073 6.64455 17.1239 5.96695C18.0406 5.28936 18.5587 5.01031 17.5622 3.81456C16.7601 2.85207 17.2642 2.59639 17.0141 2.05079C16.4725 0.860697 15.7969 1.38512 15.071 2.07118C13.5105 2.92474 14.0048 0.851552 12.9776 0.575994Z"/>
</svg>
