<svg width="119" height="103" viewBox="0 0 119 103" xmlns="http://www.w3.org/2000/svg">
<path d="M78.4076 0.205357C77.8702 0.119468 78.6761 1.24078 77.1298 1.64323C75.0686 2.17989 75.7189 2.82523 76.6508 4.0397C77.5827 5.2539 73.636 3.6532 72.8171 4.35922C71.9982 5.06505 68.9281 4.91341 68.5044 4.99828C68.0806 5.08264 67.3782 5.43172 66.5875 4.83867C65.7969 4.24573 62.4151 2.28884 62.754 4.03985C63.0929 5.79077 62.87 7.24649 60.8371 6.11679C58.8041 4.98704 57.2586 7.61913 56.5244 8.35348C55.7902 9.08753 54.7867 8.78549 54.4478 9.15231C54.1089 9.51938 54.4785 10.9404 53.9688 10.9097C53.4607 10.8841 51.4012 9.375 47.4198 11.0693C43.4383 12.7663 41.3975 9.75511 41.0304 11.5483C41.3975 13.737 40.2899 14.124 39.2733 13.785C38.2567 13.446 37.2443 16.4057 36.8773 17.14C35.7436 20.5762 37.5574 24.8143 34.4814 25.1283C31.42 25.4406 31.9453 20.4364 28.092 18.7377C27.4143 17.834 26.0663 18.113 23.7792 20.6549C21.4919 23.1967 19.0848 22.5017 16.9106 25.1283C14.7363 27.7548 15.553 24.6681 12.7575 29.9212C9.96205 35.1743 11.056 35.1239 11.4797 37.2703C11.9035 39.4167 11.7159 41.2902 10.8408 42.7023C9.96543 44.1143 9.56365 42.5427 9.08369 42.5427C8.60363 42.5427 7.89225 43.9806 6.84746 43.9806C5.80268 43.9806 5.60826 44.5809 4.93061 45.2587C4.812 45.3773 4.72611 45.3805 4.61108 45.4183C4.56507 45.3978 4.49815 45.4387 4.45163 45.4183C4.19089 45.315 3.90199 45.2102 3.65296 45.0988C3.94693 49.7929 4.43138 53.1381 4.77115 59.7969C4.71134 59.9769 4.60142 60.136 4.45163 60.2761C3.55301 61.1187 1.29664 61.3505 0.93744 62.1932C0.877624 62.3338 0.877624 62.4933 0.93744 62.6722C0.997256 63.0919 1.07905 63.4104 1.25697 63.7906C2.32399 66.0714 5.30146 67.9003 6.36848 70.1811C6.5464 70.5615 6.6282 70.8799 6.68801 71.2995C6.80815 71.6594 6.72897 72.0584 6.52856 72.4178C6.32611 72.7772 6.05908 73.017 5.72974 73.3764C5.0708 74.0952 4.29217 74.8938 4.29217 75.6131C4.29217 79.4495 16.7503 97.1797 18.6681 100.057C19.0281 100.477 19.2961 100.839 19.6266 101.016C19.9568 101.192 20.2817 101.187 20.585 101.175C22.4045 101.108 23.8191 98.1395 24.8978 98.1395C26.8157 97.66 29.2099 98.139 30.6483 99.0981C30.7684 99.2183 30.7801 99.3588 30.8077 99.5771C31.1881 100.678 30.2886 102.453 31.1272 102.453C31.9663 102.573 38.7733 97.9884 42.6281 98.4587C47.068 99.0005 46.248 96.1902 50.455 94.7842C57.5614 92.4088 56.828 97.6089 60.5182 94.3052C62.313 92.698 61.7715 91.2513 63.3934 90.9501C66.6369 90.3484 67.7061 90.8311 68.1855 90.4712C69.5042 89.0325 67.9841 89.0811 68.505 87.7552C69.0258 86.4292 71.6041 83.8312 71.6997 82.6427C71.8914 80.2657 71.5371 78.0904 76.3319 76.4119C79.0379 73.8179 79.2184 76.4528 81.2837 75.2936C83.734 73.9201 87.1717 71.9171 90.2287 73.0569C93.0973 74.1263 95.8724 74.3901 98.2154 73.5359C101.036 72.5085 103.566 72.7373 104.285 72.2577C105.723 71.2986 104.764 69.2227 106.202 68.2636C107.161 67.7841 108.118 71.1399 109.077 70.1808C114.831 66.3444 100.514 57.7094 118.342 55.9618H118.661C118.878 51.9951 117.321 46.8041 116.265 42.7015C114.701 36.6253 118.167 36.1214 118.022 32.4766C118.007 32.4613 118.058 32.1954 118.022 32.1571C117.971 32.161 117.913 32.1531 117.863 32.1571C117.473 31.7547 116.625 30.8193 116.106 29.4411C114.769 25.8946 113.692 26.116 113.071 25.1275C112.45 24.139 111.268 22.1922 110.675 18.5771C110.082 14.9621 108.384 16.3499 107.48 16.1807C106.577 16.0089 106.148 16.2746 104.765 16.0211C103.381 15.767 102.568 14.7798 101.41 15.0625C100.253 15.3447 99.233 14.471 97.7364 14.1039C96.2398 13.7368 95.1082 12.5169 93.5833 11.8674C92.0585 11.2178 91.5262 9.13363 91.1873 8.51231C90.8484 7.89089 89.6943 8.24135 89.2706 7.39396C88.8468 6.54668 87.3749 5.3566 86.076 4.19868C84.777 3.04091 83.7937 1.94174 83.2007 2.7608C82.6077 3.57982 82.0963 2.20897 79.5267 0.68387C78.8843 0.302481 78.5867 0.233987 78.4076 0.205357Z"/>
</svg>
