<svg width="174" height="178" viewBox="0 0 174 178" xmlns="http://www.w3.org/2000/svg">
<path d="M35.2311 1.19739C34.0865 1.26334 33.1443 1.4663 32.356 1.83644C31.9618 2.02151 31.528 2.34769 31.2378 2.63526C30.9474 2.92309 30.7751 3.18608 30.5989 3.59385C30.4113 4.02841 30.2089 4.43428 29.96 4.7122C29.711 4.99031 29.4677 5.16874 29.1613 5.35125C27.3223 6.44752 24.4311 6.35299 21.0149 11.7418C20.056 12.2214 5.20125 15.0966 5.20125 15.5762C5.20125 16.5352 6.15932 17.4928 6.63881 18.4519L1.84682 17.4933L1.36784 19.4105V20.3691L0.888863 21.4874C0.899088 22.3903 0.853076 23.2684 0.888863 24.2034C7.60131 20.8465 11.9076 23.7218 17.1817 28.0378C27.2503 35.231 29.317 47.2052 37.4678 55.3574C50.8927 68.3054 87.3023 91.2941 91.6174 109.997C94.9737 121.985 90.6576 135.393 93.5343 147.381C94.3376 151.8 100.456 160.927 102.16 166.873H101.681C102.576 169.071 102.5 168.69 101.521 171.346C100.962 172.864 101.521 173.293 102.16 173.583C102.799 173.872 103.598 174.022 103.758 174.701C104.077 176.059 103.598 175.979 104.556 176.458C105.515 176.938 105.115 176.458 105.834 177.577C106.004 177.841 106.37 177.67 106.633 177.736L107.591 174.861L109.668 171.985L115.418 172.943L115.578 174.701C116.664 174.129 117.939 173.397 119.571 172.624L119.251 172.145L117.974 169.748V166.713C117.974 166.713 117.832 165.629 117.814 163.837C117.814 163.791 117.814 163.723 117.814 163.678C117.665 162.11 117.744 160.268 118.453 156.968C119.891 155.049 122.765 153.614 124.683 151.216C127.08 147.859 121.166 144.029 125.481 140.672C127.399 138.753 130.752 138.116 131.711 136.198C132.67 134.28 130.593 133.483 130.593 131.086C130.593 128.688 132.669 126.773 132.19 124.376C131.231 120.539 123.731 121.059 124.683 109.997C125.282 109.278 126.103 108.207 126.919 107.121C128.143 105.492 129.503 103.844 130.752 102.808C131.169 102.462 131.493 102.162 131.871 102.009C132.627 101.702 133.308 101.808 133.787 102.648C134.746 104.566 136.183 105.842 136.663 108.24C136.663 109.199 135.704 109.677 135.704 110.636C136.064 110.995 136.762 111.32 137.302 111.275C137.481 111.26 137.661 111.234 137.781 111.116C138.14 110.636 138.345 110.132 138.419 109.518C138.488 108.951 138.404 108.209 138.419 107.601C138.421 107.55 138.418 107.49 138.419 107.441C138.44 106.782 138.544 106.138 138.739 105.524C138.846 105.186 139.004 105.029 139.218 104.725C139.393 104.477 139.587 104.142 139.857 103.926C140.337 102.967 141.933 107.441 142.892 106.962C143.132 106.902 143.341 106.792 143.531 106.642C144.859 105.598 145.088 102.629 145.927 101.37C145.927 101.37 151.996 105.843 153.914 106.323C154.633 106.443 155.042 106.061 155.191 105.364C155.341 104.668 155.232 103.637 155.191 102.648C155.111 100.671 155.031 98.6541 156.469 98.6541C159.346 98.6541 160.83 104.573 162.379 106.483C162.638 106.801 162.906 106.908 163.178 106.962C163.45 107.016 163.677 106.941 163.977 106.642C164.456 105.683 163.976 104.726 164.935 103.766C165.534 103.287 166.156 102.833 166.852 102.488C168.244 101.799 169.812 101.42 171.324 100.731C172.081 100.386 172.842 99.9323 173.561 99.4528C173.561 98.9732 162.54 97.5375 161.581 94.1806C161.101 93.2215 163.977 93.2225 163.977 92.2634L159.025 75.9675C157.587 74.7686 153.793 74.07 150.08 73.4112C148.223 73.082 146.381 72.8046 144.809 72.4527C143.236 72.1009 142.014 71.6541 141.295 71.1745C139.377 69.2563 142.624 63.3957 138.419 63.0266C132.187 66.863 143.695 54.0823 135.065 49.2869C133.387 48.3278 132.521 48.2917 132.03 48.8079C131.539 49.3238 131.376 50.3839 131.391 51.3641C131.406 52.3442 131.552 53.3271 131.391 53.7606C131.35 53.869 131.309 53.8858 131.232 53.92C130.998 54.0243 130.557 53.8045 129.794 52.9614C125.449 48.1614 117.876 46.7547 114.46 42.0975C111.103 31.5474 118.139 21.0126 107.112 13.8194C102.797 11.4217 106.156 21.0097 101.361 19.0914C89.8544 14.296 96.738 5.98863 80.4364 10.3046C77.5597 11.2637 80.1179 19.412 78.2002 17.4938C76.7618 16.0552 76.7633 13.6607 75.3249 11.7424C74.366 10.7833 71.971 17.9752 71.0121 14.1389C70.5325 12.2207 72.9299 7.42855 71.0121 7.9081C68.1353 8.26802 65.5634 10.2972 63.0254 11.2631C62.6021 11.4242 62.168 11.4901 61.7476 11.5827C61.3274 11.6752 60.8892 11.7421 60.4697 11.7421C60.2897 11.7421 60.1088 11.689 59.9907 11.5827C59.1606 10.8357 59.6517 7.78878 58.3933 6.94952C57.854 6.52979 57.4096 6.20325 56.9556 5.99093C54.6861 4.92943 53.1707 6.03695 49.4483 4.71282C48.7037 4.448 47.8387 4.08777 46.8925 3.59447C45.9463 3.10112 44.8937 2.47157 43.6979 1.6773C40.4615 1.43753 37.5204 1.06569 35.2311 1.19739ZM162.698 140.192C162.584 140.246 162.641 140.424 162.698 140.671C162.756 140.918 162.854 141.254 163.018 141.63C163.345 142.399 163.768 143.275 164.136 144.186C164.658 143.497 165.247 142.805 165.733 142.109C165.421 141.698 165.052 141.285 164.615 140.991C164.2 140.687 163.762 140.488 163.178 140.351C162.938 140.231 162.79 140.149 162.698 140.192Z"/>
</svg>
