<svg width="88" height="106" viewBox="0 0 88 106" xmlns="http://www.w3.org/2000/svg">
<path d="M18.5956 0.802728C18.5256 0.78739 18.4883 0.828389 18.4362 0.962336C18.3661 1.14025 18.3262 1.54142 18.2766 2.08068C18.0767 4.23763 16.6394 3.9181 16.3597 4.31738C16.0801 4.71666 17.5579 6.11466 18.7559 7.03337C19.9539 7.95157 21.0719 7.07421 21.7907 7.51235C22.5095 7.95151 22.9887 10.8674 24.1867 11.826C25.3848 12.7846 25.825 13.6633 25.7841 14.542C25.7432 15.4207 24.1068 15.5804 23.3881 17.258C22.6693 18.9349 22.27 18.7756 20.8323 17.7369C19.3948 16.6984 19.9141 15.3806 19.7143 15.1807C19.5144 14.9808 17.8373 13.6233 17.4779 13.4233C17.1185 13.2234 14.4429 14.341 14.1235 14.3819C13.8039 14.4228 13.6843 16.0994 13.4846 16.4588C13.2847 16.8182 9.41124 18.9752 9.01211 19.6541C8.61283 20.3332 10.4495 21.771 10.4495 22.5299C10.4495 23.2888 8.85204 24.8464 8.69258 26.2044C8.53308 27.5624 10.0503 32.2356 10.7691 33.8731C11.4878 35.5107 9.85076 35.95 9.01211 36.2696C8.17347 36.5891 4.85872 35.0316 4.69926 35.4708C4.53975 35.9099 2.86211 40.1838 2.7824 41.2223C2.70265 42.2608 4.02038 43.6587 3.74083 44.7371C3.46118 45.8157 2.02367 45.9354 1.34484 46.3347C0.665751 46.734 0.705631 47.6128 0.546173 49.2105C0.386665 50.8081 1.30496 53.1646 2.94217 53.8436C4.57938 54.5226 5.25815 54.8422 5.1784 56.0803C5.09864 57.3185 5.49792 57.3984 6.13683 58.4768C6.77578 59.5554 5.61766 59.3954 4.37973 60.0744C3.1418 60.7534 3.78081 61.5921 5.01879 62.3111C6.25672 63.03 5.97706 63.9088 5.97706 63.9088C5.97706 63.9088 4.37974 63.5483 3.58107 63.5892L2.94217 62.9502C3.16558 63.262 3.34809 63.6087 3.58107 63.9088C3.22422 65.6109 1.34484 65.6662 1.34484 65.6662C1.34484 65.6662 0.922095 65.4116 0.865858 65.3466C1.50681 66.1591 2.00235 66.8967 2.14366 67.2638C2.26482 67.5787 2.20194 67.8972 2.14366 68.2224C2.13343 68.2766 2.15388 68.3287 2.14366 68.3819L2.6228 70.1393C2.77975 70.2364 2.96016 70.3775 3.10178 70.4588C3.49697 70.6848 3.28945 71.6612 3.74083 72.0564L4.85887 72.5354L5.33785 72.695C6.18498 72.2998 7.73221 72.14 8.69227 72.5354C9.65229 72.9306 11.3593 73.073 12.2065 72.0564C13.0536 71.0397 14.3137 70.3007 12.8454 69.3404C11.3771 68.3802 13.305 68.5239 13.644 67.9026C13.6185 68.3284 13.598 69.2539 14.7622 69.0209C16.4564 68.682 17.1952 67.7105 17.4776 70.1393C17.7598 72.5682 18.72 74.4094 17.4776 72.376C16.2351 70.3425 16.0143 70.3281 14.6025 69.8197C13.1906 69.3115 13.4553 71.5384 13.9636 72.2162C14.4717 72.8939 15.6367 73.7089 15.2414 74.6127C14.8462 75.5165 13.6941 74.1995 11.8869 73.9736C10.0798 73.7476 8.06303 73.1637 7.89361 74.2931C7.72387 75.4228 9.7055 76.6702 10.6091 77.0091C11.5127 77.3481 12.6097 77.5367 13.0051 76.6896C13.4003 75.8423 13.8683 75.4567 14.6025 76.5301C15.3367 77.6033 15.2477 78.8957 16.9984 80.3643C18.7491 81.8329 19.1298 82.7996 20.0333 82.1217C20.937 81.444 23.5458 79.9186 24.506 82.1217C25.4659 84.3246 28.2539 85.4655 28.8187 86.5951C29.3834 87.7249 31.3533 89.81 32.6522 89.471C33.9511 89.1321 35.4532 91.5285 34.8884 91.8673C34.3238 92.2063 35.1304 93.0971 36.4859 93.9444C37.8413 94.7916 38.7318 95.4724 38.5624 97.6188C38.3932 99.7653 39.4868 101.744 42.8753 102.252C46.2638 102.76 47.3461 103.199 48.3061 104.329C49.2662 105.459 50.3826 105.607 50.3826 105.607C50.3826 105.607 50.6751 103.55 50.2232 103.211C49.7712 102.872 48.3435 102.394 48.6258 101.773C48.9085 101.151 49.7633 100.947 49.4245 100.495C49.0855 100.043 47.8448 99.1892 48.4661 98.7373C49.0872 98.2854 50.3458 98.3902 50.0634 97.9385C49.7812 97.4866 48.3531 94.1817 48.4661 92.8261C48.579 91.4703 44.2355 87.0909 45.5908 83.0805C46.9462 79.0699 48.2128 78.0083 47.9869 76.3702C47.761 74.7321 47.0365 72.2455 47.8268 71.7372C48.6174 71.229 49.9404 70.8932 50.2228 69.82C50.505 68.7468 50.6166 68.2612 51.1813 67.5833C51.746 66.9055 51.5846 66.3536 51.9799 65.5064C52.3751 64.6592 53.2577 63.252 53.2577 62.6307C53.2577 62.0093 53.858 61.2687 54.5357 60.8732C55.2134 60.4781 55.0811 59.5032 54.8552 58.317C54.6293 57.1308 54.9471 56.9196 56.133 55.2815C57.319 53.6434 58.2935 53.5629 58.6889 52.885C59.0841 52.2073 59.7682 51.2857 60.4459 52.246C61.1236 53.2062 60.7737 53.9646 61.5641 54.6425C62.3547 55.3203 62.3921 56.8502 61.8836 57.3584C61.3754 57.8666 60.9332 59.3401 61.724 60.0744C62.5146 60.8087 63.6391 62.8743 64.5991 63.2697C65.5592 63.6649 66.6466 62.8761 67.1549 62.3111C67.6631 61.7463 68.8362 62.1434 69.2315 61.3525C69.6267 60.5617 69.6057 59.7549 70.5093 59.7549C71.4129 59.7549 74.2864 60.0663 74.3429 59.2759C74.3996 58.4851 73.825 57.5943 74.5025 57.199C75.1802 56.8038 76.3062 56.815 76.4192 56.0806C76.5322 55.3463 75.9208 53.9859 76.2593 53.3645C76.5982 52.7431 77.6209 52.4174 78.0162 51.2877C78.4114 50.158 78.7228 49.4464 77.5372 49.051C76.3513 48.6558 75.2365 48.0844 74.5023 47.2936C73.7681 46.5028 73.5147 45.8008 74.0233 44.897C74.5315 43.9933 75.243 42.4813 76.2596 42.8202C77.2761 43.1592 82.6763 44.0242 83.128 43.4593C83.58 42.8945 84.7141 40.8579 85.8435 39.7847C86.973 38.7115 88.0525 37.2866 87.6006 36.2699C87.1487 35.2532 87.4329 33.1602 86.6422 32.5953C85.8516 32.0305 82.557 31.3833 81.3711 31.1573C80.1851 30.9313 78.2813 29.2111 77.3778 29.7196C76.4742 30.2277 75.4255 30.9995 74.1831 30.0391C72.9406 29.0788 71.7402 31.309 71.6272 30.5181C71.5142 29.7273 72.3521 28.0846 71.7868 27.8022C71.222 27.52 68.555 24.7958 68.2726 24.2874C67.9904 23.7792 67.4579 23.0932 65.8766 23.4886C64.2954 23.8838 63.8855 23.4629 63.3209 23.0095C62.7561 22.5575 62.1755 23.6212 61.7237 23.1691C61.2717 22.7171 61.1528 21.8441 59.9666 21.7312C58.7806 21.6182 57.8061 21.5441 57.4108 21.0921C57.0156 20.6402 57.0836 19.175 56.2926 19.175C55.502 19.175 54.6969 20.1723 53.7369 19.4945C52.7768 18.8167 52.8641 18.4325 52.2993 18.376C51.7346 18.3192 51.0585 18.0586 51.3409 17.098C51.6231 16.1378 51.2197 15.623 50.5422 15.3406C49.8645 15.0579 49.5289 14.5418 48.6254 14.5418C47.7218 14.5418 47.6396 14.4113 47.1878 13.9026C46.7359 13.3944 46.5602 12.71 45.4307 12.1452C44.3012 11.5804 42.7347 12.0246 42.3958 11.3465C42.0568 10.6687 40.6775 9.16633 39.9998 9.10984C39.3221 9.05309 38.3847 8.88529 37.7636 8.1511C37.1423 7.41679 37.3791 7.09906 36.6454 6.87314C35.9112 6.64717 34.7948 6.15985 34.5689 5.59503C34.3429 5.03015 33.575 5.11589 32.3325 5.11589C31.0902 5.11589 30.2561 5.77596 30.2561 4.47683C30.2561 3.17766 30.2408 2.15619 29.6172 1.76084C29.5967 1.75062 29.3329 1.46995 29.2976 1.44132C28.8273 1.61003 28.4191 1.36111 27.7003 1.28186C26.6221 1.16172 26.3026 1.04209 25.3043 1.60139C24.3059 2.16075 23.5072 2.36034 22.7486 2.71974C21.9898 3.07915 20.3126 2.36034 19.5539 1.76116C19.127 1.42425 18.8062 0.847053 18.5956 0.802728Z"/>
</svg>
