<svg width="157" height="176" viewBox="0 0 157 176" xmlns="http://www.w3.org/2000/svg">
<path d="M127.946 0.890711C127.502 1.01193 127.019 1.85729 127.887 2.3655C128.684 3.60115 128.564 2.80407 129.68 2.52494C130.796 2.24581 130.556 2.04694 129.72 1.56832C128.883 1.09031 128.684 1.68795 128.325 1.05015C128.235 0.890966 128.095 0.850202 127.946 0.890711ZM133.507 1.15976C133.249 1.19838 132.969 1.29927 132.71 1.4886C131.673 2.24629 133.188 2.4054 134.144 1.88719C134.862 1.49837 134.28 1.0439 133.507 1.15976ZM124.389 2.9335C123.847 2.9437 123.1 3.04446 122.316 3.09293C120.749 3.19089 118.821 3.41181 117.683 3.41181C117.145 3.37099 116.815 4.74936 116.567 5.49445C116.319 6.23944 116.471 6.98321 116.885 6.61051C117.3 6.23756 117.499 5.49445 118.161 5.49445C118.823 5.49445 121.505 4.9165 122.954 4.37839C124.402 3.84024 125.687 3.46563 125.355 3.09293C125.273 3.00008 124.931 2.92074 124.389 2.9335ZM99.3175 4.21896C99.0741 4.121 98.698 4.17329 98.2014 4.37839C97.2081 4.79267 96.8974 5.67073 97.3943 6.29164C97.8904 6.91239 98.6078 7.37249 99.4769 7.24826C100.346 7.12377 101.165 6.09128 101.868 6.1322C102.572 6.17302 103.251 7.23754 106.024 6.45107C108.797 5.66455 110.403 5.90236 110.817 5.65389C111.231 5.40593 110.332 4.93334 108.096 5.01614C105.862 5.09879 101.623 5.23553 99.6363 4.69727C99.6159 4.59421 99.5608 4.31589 99.3175 4.21896ZM93.8866 5.33502C92.711 5.38093 90.9419 5.85271 89.7313 6.1322C88.1173 6.50464 82.3726 7.4305 81.4207 7.88601C80.6757 8.25845 79.7145 9.71401 79.5074 10.1281C79.3003 10.5419 80.6404 10.8976 81.2612 10.6064C81.8819 10.3166 82.1376 9.73881 83.5033 9.49034C84.8691 9.24187 86.5412 9.35155 87.6586 8.52375C88.776 7.69586 88.749 7.84509 90.5285 7.88601C92.3081 7.92682 93.0952 6.77617 94.0461 6.61051C94.998 6.4447 95.8769 5.94996 94.8433 5.49445C94.5846 5.38017 94.2775 5.31767 93.8866 5.33502ZM138.868 7.32798C138.253 7.35349 137.661 7.44625 137.154 7.58706C135.125 8.15001 131.29 8.93659 128.584 9.5003C125.878 10.0633 122.514 9.98474 120.353 9.5003C120.024 9.42633 119.689 9.4545 119.357 9.41062C119.145 9.95602 118.718 10.6581 118.48 11.1345C117.962 12.1708 121.031 14.2436 119.197 13.6058C117.487 13.0111 116.833 11.7082 118.131 9.31097C116.733 9.25995 115.337 9.30796 114.026 9.37076C111.203 9.50596 108.214 9.9429 106.492 10.5167C104.572 11.1569 101.551 12.5003 98.1416 14.2635C96.4968 15.1115 92.1169 17.2108 90.379 18.6879C90.1821 18.8552 90.0341 19.0751 89.8908 19.2359C88.3071 21.1367 87.3917 23.0649 86.3732 24.8262L73.5983 36.3256L71.3662 36.0067C69.7466 37.6862 69.3223 39.059 65.9354 37.9199C63.791 37.1988 63.564 36.103 64.4905 33.6151C63.0542 33.5371 62.1 32.1688 61.6206 32.6486C55.3876 40.3213 57.3027 55.656 54.426 63.8085C51.5493 71.0017 45.8091 79.1394 40.5351 84.894C38.6173 87.2918 37.1827 90.1727 34.7854 91.6103C33.347 92.5695 30.4717 91.1271 29.9923 93.0452C28.685 95.021 28.3874 99.2417 37.3364 105.501C39.721 107.169 44.1408 110.743 47.8791 111.101C49.956 111.301 52.6722 110.454 52.6722 110.454C52.6722 110.454 54.2182 112.052 49.9618 112.536C45.8159 113.008 44.7817 110.517 43.2455 112.377C41.5507 114.43 39.6065 114.526 37.0175 115.247C35.2384 115.742 34.5239 112.646 32.2244 113.334C29.8648 114.039 33.1811 116.213 33.1811 116.213C33.1811 116.213 27.7515 114.273 26.4747 116.851C25.7914 118.231 28.2314 119.731 30.6301 120.847C33.0288 121.963 35.0453 122.685 35.5826 125.471C35.6642 125.894 30.6765 126.61 29.3546 124.674C27.8816 122.516 23.12 115.805 21.6817 115.566C16.8785 116.561 13.8616 115.145 10.82 115.087C8.2519 115.036 6.04925 115.776 4.9109 118.286C4.12938 120.01 7.04354 123.128 8.74735 123.876C10.5372 124.663 15.3771 125.66 15.932 126.597C17.3681 129.022 20.5621 128.909 22.0005 128.669C22.9595 128.669 22.3271 126.599 23.286 125.64C25.2039 124.201 27.1178 127.552 29.0357 128.032C30.5876 128.771 31.0443 127.028 34.6259 129.945C34.9754 130.295 35.5359 130.443 36.1406 130.563C36.3921 131.122 36.485 131.349 36.7385 131.888L38.9606 131.539L39.7479 133.004L40.0468 132.994C40.5208 133.453 41.1431 133.579 41.97 133.303C43.516 133.303 42.4449 130.943 41.9302 128.749C42.487 128.759 43.0802 128.964 43.4149 129.178C44.098 129.612 45.4677 129.611 45.4677 128.679C45.4677 128.255 46.4649 127.695 47.5304 127.205C47.2768 127.762 47.0394 128.308 47.2414 128.51C50.6172 131.324 52.501 128.536 54.3563 126.417L54.4459 127.444L56.6581 124.693L58.7308 125.57L59.8469 127.962L58.8105 129.795C58.8105 129.795 56.977 128.121 56.7379 129.636C56.4988 131.151 58.5714 130.672 59.528 130.513C60.4846 130.353 61.7601 129.796 62.3181 131.549C62.3832 131.754 62.3591 132.053 62.3779 132.307L65.9055 129.716L66.7027 127.085L68.9348 127.484L69.9711 130.114L68.8152 132.237C69.4921 134.255 70.2295 136.357 71.0772 138.066L73.6382 137.528L74.6745 139.123L74.3855 141.086C75.944 141.349 77.5592 141.571 79.2384 141.793L81.1915 141.564L84.0016 139.411L86.2038 142.042H86.1938L86.1041 144.683L89.8409 146.566L90.0602 147.573L94.2254 147.682L94.4148 149.775L96.4376 148.898C96.8063 149.3 97.2082 149.631 97.5537 150.084C98.0333 151.043 95.6406 151.995 95.1621 152.954C94.6155 154.594 93.6206 156.081 92.7606 157.587L93.3984 158.952L91.4154 160.826C91.395 160.921 91.342 161.008 91.3257 161.105C91.3257 162.064 93.7273 161.58 93.2489 162.54C92.8504 163.734 91.1864 164.314 90.3392 165.559L90.5783 165.868L88.4359 166.725C88.4359 166.725 87.5569 169.141 88.6551 170.063C89.753 170.985 90.1498 170.765 90.1498 171.688C90.1498 172.61 89.9758 173.393 89.2729 173.92C88.5703 174.447 91.7276 174.974 92.1229 173.969C92.5183 172.96 93.8801 173.618 94.2753 174.408C94.6707 175.198 96.8296 174.892 97.2249 174.498C97.6203 174.102 98.4535 176.039 99.0683 175.424C99.6629 174.83 102.577 175.369 102.775 175.404L102.865 175.484H102.985C102.896 175.351 102.866 175.238 102.785 175.105L101.739 171.727C102.564 170.215 105.422 170.058 105.864 168.29C107.303 158.217 96.5071 163.833 99.6363 156.152C101.075 155.673 100.113 157.747 101.071 157.747L110.179 149.596C110.659 147.198 104.425 150.084 106.343 146.247C107.781 142.89 111.132 140.496 112.571 137.14C115.174 130.774 112.351 125.479 109.083 121.106L109.591 119.193C109.591 119.193 106.482 118.157 106.562 116.482C106.642 114.809 106.881 114.33 106.881 114.33L103.851 112.975L105.446 111.38L104.18 109.178C103.971 108.449 103.802 107.738 104.429 107.424C106.827 105.986 109.694 107.427 112.571 106.468C113.53 105.988 111.612 103.108 112.571 103.588C115.447 104.547 117.366 107.903 120.722 107.903C122.939 108.22 129.285 106.436 133.786 104.226L134.384 104.923C134.384 104.923 135.996 103.731 137.194 102.153C137.784 101.663 138.249 101.176 138.449 100.708C138.533 100.513 138.451 100.357 138.459 100.18C138.502 100.021 138.539 99.8403 138.479 99.6718C138.372 99.3583 138.139 99.0776 137.841 98.8149C137.698 98.6882 137.527 98.5737 137.353 98.4561C136.924 98.1135 136.489 97.7753 135.739 97.2703C131.833 94.6396 134.464 94.6396 135.34 93.125C135.402 93.0188 135.387 93.0105 135.44 92.9157C136.295 92.3867 137.141 91.8619 137.991 91.3712C139.09 91.3787 140.233 91.2884 140.362 90.8131C140.451 90.4884 140.759 89.9771 141.06 89.4978C143.28 88.1298 145.295 86.6871 146.69 84.7645C147.378 84.5295 147.611 84.0618 147.388 83.4292C148.55 81.2455 149.111 78.5605 148.514 74.8296C148.421 73.5339 147.676 72.602 146.581 71.88C146.306 71.2555 145.863 70.166 145.863 70.166L145.036 71.1027C144.967 71.0736 144.877 71.0613 144.807 71.033L144.089 72.1789L134.334 68.2927L134.762 67.4158C133.875 66.5821 133.607 65.4849 134.613 63.8085C135.092 62.3698 137.493 63.811 137.493 62.8519C137.972 61.4132 135.578 59.9758 136.058 58.5371C136.058 57.578 137.49 57.5805 138.449 57.5805C141.805 57.5805 144.679 59.0154 148.035 59.0154C150.912 59.0154 149.739 54.7077 149.58 50.934V50.924C150.004 48.4365 150.516 45.7171 151.922 43.9985C153.951 41.5183 154.743 38.2484 155.419 36.1063C155.717 35.1622 155.731 34.2859 155.649 33.3959V33.3859C155.648 33.3763 155.639 33.3656 155.639 33.3561C155.53 32.2398 155.268 31.0969 155.081 29.7887C154.742 27.4211 153.844 28.6659 155.31 26.7494C156.414 25.3048 155.816 22.8972 155.409 21.5478C154.967 21.7197 154.478 21.8211 153.845 21.6773C153.115 21.5115 152.651 21.1036 152.28 20.641L152.27 20.631C151.357 20.034 150.553 19.1186 149.789 18.09C148.294 17.9104 145.627 15.9178 144.598 14.682C143.47 13.3292 144.141 10.2883 143.352 8.8227C142.76 7.72353 140.712 7.254 138.868 7.32798ZM76.3087 12.8385C74.8603 12.5487 68.4755 16.9631 67.6892 17.791C67.3994 18.2454 67.7251 18.0956 67.8486 18.7576C67.9731 19.4198 68.7686 18.1097 69.7619 18.1099C70.7551 18.1099 72.1096 16.7459 72.4822 15.8778C72.8547 15.0087 73.3548 14.8911 74.5549 14.6023C75.7551 14.3125 76.2882 13.6405 77.1159 13.8051C77.9436 13.9709 77.7572 13.1284 76.3087 12.8385ZM67.5297 20.0331C66.7848 19.9505 64.9715 22.8607 62.7367 26.4205C62.0745 27.4968 61.3845 27.7673 61.3017 30.4164C61.2191 33.0657 62.5928 31.7932 64.331 31.2136C66.0692 30.6341 65.6504 30.0455 66.892 29.3004C68.1336 28.5554 68.8819 27.2546 68.9647 26.2611C69.0473 25.2677 69.5319 23.5776 69.2835 22.5841C69.0351 21.5906 68.2747 20.1159 67.5297 20.0331ZM86.9312 27.9352C86.9312 27.9352 86.7517 29.4458 86.6921 29.9381C86.5385 31.2139 87.6051 33.9374 87.4992 34.8906C87.1247 38.2608 85.7367 37.124 85.2571 40.4809C85.2571 42.6389 87.0303 42.2137 91.0068 43.0418C92.8033 43.4163 96.2708 41.4667 97.7131 43.0418C99.0325 44.4838 97.8093 44.5514 95.481 45.4334C93.3089 46.256 92.4504 51.3438 93.4083 54.7007C93.8879 56.3791 94.5953 57.7171 95.7999 57.7399C97.6252 57.7756 100.617 57.9823 101.968 58.298C104.567 57.8658 105.396 57.8919 106.283 57.4111C107.239 56.8929 108.356 55.9762 108.356 55.9762L109.671 57.0922C109.671 57.0922 107.518 58.3683 106.522 58.4474C105.525 58.527 104.968 58.2089 103.732 58.567C102.639 58.8844 102.332 59.7947 102.287 60.2909C102.527 60.7149 102.99 61.0323 103.144 61.407C103.446 62.1397 103.834 64.6315 102.028 67.4855C101.552 68.2365 100.867 68.8859 99.4769 70.0365C96.6918 72.0078 94.5028 72.9723 93.4083 73.873C91.4981 75.4459 90.7424 76.52 90.3691 77.7094C89.7733 79.6071 88.4843 79.7607 85.8949 80.101C84.5163 80.2821 83.5814 80.1647 83.025 79.3038C82.0433 77.7842 80.3304 77.6931 79.8263 77.0717C78.9521 75.9941 76.2308 76.0318 75.671 75.9456C74.8902 75.8252 75.2011 75.2497 74.7144 74.6701L68.4864 71.9497C66.8967 71.2704 75.0344 67.6451 74.3955 64.7651C73.8848 62.4647 69.1284 58.217 71.5256 54.8601C74.5331 52.9475 74.0955 56.5633 75.8304 56.1356C77.5653 55.7075 82.1977 51.9552 81.7395 49.9076C81.3304 49.5102 80.8418 48.3207 79.0291 48.4727C76.6438 48.6727 76.4504 47.1981 75.8304 46.39C74.5905 44.774 76.0664 42.6214 75.9899 41.5969C75.9113 40.5252 75.2724 38.3285 75.2724 38.3285L86.9312 27.9352ZM94.923 58.3478C94.6572 58.3223 94.236 58.3573 93.4083 58.3777C91.7539 58.4185 89.7144 60.8396 89.0936 61.0881C88.4728 61.3366 87.8678 61.0575 87.3298 61.8853C86.7921 62.7132 86.8094 62.9161 86.8515 63.3302C86.8923 63.7445 84.7788 64.7651 84.7788 64.7651C84.7788 64.7651 74.5259 70.6556 74.236 71.1526C73.9468 71.649 74.7144 73.873 74.7144 73.873C74.9628 74.4113 75.1684 74.1574 75.8304 74.0324C76.4926 73.9079 77.2448 74.063 78.0725 74.3513C78.9002 74.6411 80.3093 75.4781 81.2612 76.2645C82.2131 77.051 83.5676 78.6829 83.9816 79.3038C84.3959 79.9245 86.1687 79.4331 87.6586 79.1443C89.1485 78.8545 89.1519 78.7627 89.7313 77.2311C90.311 75.6995 90.1413 75.0136 89.8908 74.3513C89.6423 73.6891 90.9058 73.1462 91.4851 73.3946C92.0645 73.6431 92.8762 73.3365 93.2489 72.7569C93.6211 72.1774 97.0217 70.3616 97.3943 70.1959C97.6726 70.072 98.0821 70.2689 99.4769 69.3988C102.348 66.6354 103.05 63.5411 102.347 61.8853C101.643 60.2296 100.712 60.1315 99.6363 60.1315C98.5603 60.1315 95.8526 59.1521 95.481 58.6966C95.2948 58.469 95.1887 58.3758 94.923 58.3478ZM28.1389 100.808C27.9935 100.793 27.8236 100.813 27.5908 100.868C27.125 100.976 26.47 101.205 25.5181 101.515C23.6144 102.136 22.8101 102.176 22.4789 102.631C22.1477 103.087 22.6299 104.131 23.1266 104.545C23.623 104.959 23.7996 104.604 23.9237 104.066C24.0482 103.528 24.9083 103.518 26.3153 103.269C27.7225 103.021 28.0133 104.029 28.7168 105.023C29.4199 106.016 28.3444 106.479 28.7168 107.265C29.0898 108.052 29.0939 108.593 29.6734 109.338C30.2528 110.083 31.5622 109.81 32.2244 109.975C32.8866 110.141 33.7421 110.805 33.6594 111.261C33.6185 111.489 33.214 111.554 32.8622 111.58C33.5088 111.528 34.2267 111.692 34.7854 111.899C35.9028 112.313 35.9767 112.872 37.1769 113.493C38.3771 114.114 40.8709 113.186 41.4917 112.855C42.1128 112.524 41.6511 111.42 41.6511 111.42L43.0861 111.58V110.773C43.0861 110.773 40.5181 111.038 39.8973 110.294C39.2766 109.549 38.7898 109.952 38.293 109.497C37.7961 109.042 35.4231 106.149 35.4231 106.149C35.092 105.818 35.0813 105.743 34.6259 105.661C34.1703 105.578 33.0413 104.381 31.4272 103.429C29.8132 102.476 29.1368 101.617 28.5574 101.037C28.4125 100.892 28.2838 100.825 28.1389 100.808ZM32.8622 111.58C32.5107 111.605 32.1126 111.58 31.9056 111.58C31.4913 111.58 30.9489 112.218 30.9489 112.218C30.9387 112.151 30.8421 112.037 30.4706 112.058C29.7257 112.099 30.2778 111.35 29.0357 111.101C27.7942 110.853 28.2057 110.236 27.7502 109.657C27.2946 109.077 26.7353 107.791 26.1559 107.584C25.5764 107.377 24.255 107.885 23.9237 107.265C23.5926 106.644 22.8635 106.987 22.16 106.946C21.4565 106.905 21.6549 106.633 19.1307 106.468C16.6062 106.302 15.7142 107.382 15.1348 108.541C14.5555 109.7 15.8539 110.936 16.8886 111.101C17.9232 111.267 19.1063 110.035 19.7684 109.497C20.4305 108.959 20.5247 109.916 20.5656 110.454C20.6064 110.992 21.2909 110.363 22.16 110.942C23.029 111.522 22.961 112.99 23.1266 113.652C23.2924 114.315 24.5906 113.73 24.8804 113.812C25.1702 113.895 24.6064 115.046 26.6342 115.087C28.6621 115.128 30.2393 114.197 31.1084 113.493C31.9779 112.789 30.9303 112.555 31.4272 112.058C31.6757 111.81 32.2155 111.631 32.8622 111.58ZM7.08323 127.135C5.81952 127.334 3.59826 127.711 0.476562 128.43L0.755577 128.988C0.237828 135.72 3.00367 136.408 6.7245 136.173C6.65562 135.231 6.7755 134.353 7.64126 134.2C9.2768 133.911 12.5045 134.891 14.4173 135.924C15.3183 136.052 16.2036 136.267 17.048 136.661C18.007 137.141 16.0892 139.05 17.048 140.009C20.6816 142.432 23.8864 140.564 26.7538 138.076C28.1717 138.169 29.2515 138.575 30.5005 137.688C30.9158 137.392 31.2397 137.088 31.5767 136.781C31.5971 136.791 31.6176 136.8 31.6365 136.811L33.0415 135.824L35.6822 133.034C35.4868 132.885 35.6564 132.947 35.3534 132.606C34.5562 131.713 34.0931 131.373 33.191 131.41C32.8788 130.738 31.7107 130.349 29.8329 130.752C27.7232 131.205 26.4759 129.228 25.9964 128.988C23.8098 127.895 21.8469 132.187 19.4496 132.187C13.2026 131.111 15.8381 130.1 11.4578 128.669C9.76565 128.116 8.32668 127.577 7.08323 127.135Z"/>
<path d="M32.8622 111.58C33.214 111.554 33.6185 111.489 33.6594 111.261C33.7421 110.805 32.8866 110.141 32.2244 109.975C31.5622 109.81 30.2528 110.083 29.6734 109.338C29.0939 108.593 29.0898 108.052 28.7168 107.265C28.3444 106.479 29.4199 106.016 28.7168 105.023C28.0133 104.029 27.7225 103.021 26.3153 103.269C24.9083 103.518 24.0482 103.528 23.9237 104.066C23.7996 104.604 23.623 104.959 23.1266 104.545C22.6299 104.131 22.1477 103.087 22.4789 102.631C22.8101 102.176 23.6144 102.136 25.5181 101.515C26.47 101.205 27.125 100.976 27.5908 100.868C27.8236 100.813 27.9935 100.793 28.1389 100.808C28.2838 100.825 28.4125 100.892 28.5574 101.037C29.1368 101.617 29.8132 102.476 31.4272 103.429C33.0413 104.381 34.1703 105.578 34.6259 105.661C35.0813 105.743 35.092 105.818 35.4231 106.149C35.4231 106.149 37.7961 109.042 38.293 109.497C38.7898 109.952 39.2766 109.549 39.8973 110.294C40.5181 111.038 43.0861 110.773 43.0861 110.773V111.58L41.6511 111.42C41.6511 111.42 42.1128 112.524 41.4917 112.855C40.8709 113.186 38.3771 114.114 37.1769 113.493C35.9767 112.872 35.9028 112.313 34.7854 111.899C34.2267 111.692 33.5088 111.528 32.8622 111.58ZM32.8622 111.58C32.5107 111.605 32.1126 111.58 31.9056 111.58C31.4913 111.58 30.9489 112.218 30.9489 112.218C30.9387 112.151 30.8421 112.037 30.4706 112.058C29.7257 112.099 30.2778 111.35 29.0357 111.101C27.7942 110.853 28.2057 110.236 27.7502 109.657C27.2946 109.077 26.7353 107.791 26.1559 107.584C25.5764 107.377 24.255 107.885 23.9237 107.265C23.5926 106.644 22.8635 106.987 22.16 106.946C21.4565 106.905 21.6549 106.633 19.1307 106.468C16.6062 106.302 15.7142 107.382 15.1348 108.541C14.5555 109.7 15.8539 110.936 16.8886 111.101C17.9232 111.267 19.1063 110.035 19.7684 109.497C20.4305 108.959 20.5247 109.916 20.5656 110.454C20.6064 110.992 21.2909 110.363 22.16 110.942C23.029 111.522 22.961 112.99 23.1266 113.652C23.2924 114.315 24.5906 113.73 24.8804 113.812C25.1702 113.895 24.6064 115.046 26.6342 115.087C28.6621 115.128 30.2393 114.197 31.1084 113.493C31.9779 112.789 30.9303 112.555 31.4272 112.058C31.6757 111.81 32.2155 111.631 32.8622 111.58ZM127.946 0.890711C127.502 1.01193 127.019 1.85729 127.887 2.3655C128.684 3.60115 128.564 2.80407 129.68 2.52494C130.796 2.24581 130.556 2.04694 129.72 1.56832C128.883 1.09031 128.684 1.68795 128.325 1.05015C128.235 0.890966 128.095 0.850202 127.946 0.890711ZM133.507 1.15976C133.249 1.19838 132.969 1.29927 132.71 1.4886C131.673 2.24629 133.188 2.4054 134.144 1.88719C134.862 1.49837 134.28 1.0439 133.507 1.15976ZM124.389 2.9335C123.847 2.9437 123.1 3.04446 122.316 3.09293C120.749 3.19089 118.821 3.41181 117.683 3.41181C117.145 3.37099 116.815 4.74936 116.567 5.49445C116.319 6.23944 116.471 6.98321 116.885 6.61051C117.3 6.23756 117.499 5.49445 118.161 5.49445C118.823 5.49445 121.505 4.9165 122.954 4.37839C124.402 3.84024 125.687 3.46563 125.355 3.09293C125.273 3.00008 124.931 2.92074 124.389 2.9335ZM99.3175 4.21896C99.0741 4.121 98.698 4.17329 98.2014 4.37839C97.2081 4.79267 96.8974 5.67073 97.3943 6.29164C97.8904 6.91239 98.6078 7.37249 99.4769 7.24826C100.346 7.12377 101.165 6.09128 101.868 6.1322C102.572 6.17302 103.251 7.23754 106.024 6.45107C108.797 5.66455 110.403 5.90236 110.817 5.65389C111.231 5.40593 110.332 4.93334 108.096 5.01614C105.862 5.09879 101.623 5.23553 99.6363 4.69727C99.6159 4.59421 99.5608 4.31589 99.3175 4.21896ZM93.8866 5.33502C92.711 5.38093 90.9419 5.85271 89.7313 6.1322C88.1173 6.50464 82.3726 7.4305 81.4207 7.88601C80.6757 8.25845 79.7145 9.71401 79.5074 10.1281C79.3003 10.5419 80.6404 10.8976 81.2612 10.6064C81.8819 10.3166 82.1376 9.73881 83.5033 9.49034C84.8691 9.24187 86.5412 9.35155 87.6586 8.52375C88.776 7.69586 88.749 7.84509 90.5285 7.88601C92.3081 7.92682 93.0952 6.77617 94.0461 6.61051C94.998 6.4447 95.8769 5.94996 94.8433 5.49445C94.5846 5.38017 94.2775 5.31767 93.8866 5.33502ZM138.868 7.32798C138.253 7.35349 137.661 7.44625 137.154 7.58706C135.125 8.15001 131.29 8.93659 128.584 9.5003C125.878 10.0633 122.514 9.98474 120.353 9.5003C120.024 9.42633 119.689 9.4545 119.357 9.41062C119.145 9.95602 118.718 10.6581 118.48 11.1345C117.962 12.1708 121.031 14.2436 119.197 13.6058C117.487 13.0111 116.833 11.7082 118.131 9.31097C116.733 9.25995 115.337 9.30796 114.026 9.37076C111.203 9.50596 108.214 9.9429 106.492 10.5167C104.572 11.1569 101.551 12.5003 98.1416 14.2635C96.4968 15.1115 92.1169 17.2108 90.379 18.6879C90.1821 18.8552 90.0341 19.0751 89.8908 19.2359C88.3071 21.1367 87.3917 23.0649 86.3732 24.8262L73.5983 36.3256L71.3662 36.0067C69.7466 37.6862 69.3223 39.059 65.9354 37.9199C63.791 37.1988 63.564 36.103 64.4905 33.6151C63.0542 33.5371 62.1 32.1688 61.6206 32.6486C55.3876 40.3213 57.3027 55.656 54.426 63.8085C51.5493 71.0017 45.8091 79.1394 40.5351 84.894C38.6173 87.2918 37.1827 90.1727 34.7854 91.6103C33.347 92.5695 30.4717 91.1271 29.9923 93.0452C28.685 95.021 28.3874 99.2417 37.3364 105.501C39.721 107.169 44.1408 110.743 47.8791 111.101C49.956 111.301 52.6722 110.454 52.6722 110.454C52.6722 110.454 54.2182 112.052 49.9618 112.536C45.8159 113.008 44.7817 110.517 43.2455 112.377C41.5507 114.43 39.6065 114.526 37.0175 115.247C35.2384 115.742 34.5239 112.646 32.2244 113.334C29.8648 114.039 33.1811 116.213 33.1811 116.213C33.1811 116.213 27.7515 114.273 26.4747 116.851C25.7914 118.231 28.2314 119.731 30.6301 120.847C33.0288 121.963 35.0453 122.685 35.5826 125.471C35.6642 125.894 30.6765 126.61 29.3546 124.674C27.8816 122.516 23.12 115.805 21.6817 115.566C16.8785 116.561 13.8616 115.145 10.82 115.087C8.2519 115.036 6.04925 115.776 4.9109 118.286C4.12938 120.01 7.04354 123.128 8.74735 123.876C10.5372 124.663 15.3771 125.66 15.932 126.597C17.3681 129.022 20.5621 128.909 22.0005 128.669C22.9595 128.669 22.3271 126.599 23.286 125.64C25.2039 124.201 27.1178 127.552 29.0357 128.032C30.5876 128.771 31.0443 127.028 34.6259 129.945C34.9754 130.295 35.5359 130.443 36.1406 130.563C36.3921 131.122 36.485 131.349 36.7385 131.888L38.9606 131.539L39.7479 133.004L40.0468 132.994C40.5208 133.453 41.1431 133.579 41.97 133.303C43.516 133.303 42.4449 130.943 41.9302 128.749C42.487 128.759 43.0802 128.964 43.4149 129.178C44.098 129.612 45.4677 129.611 45.4677 128.679C45.4677 128.255 46.4649 127.695 47.5304 127.205C47.2768 127.762 47.0394 128.308 47.2414 128.51C50.6172 131.324 52.501 128.536 54.3563 126.417L54.4459 127.444L56.6581 124.693L58.7308 125.57L59.8469 127.962L58.8105 129.795C58.8105 129.795 56.977 128.121 56.7379 129.636C56.4988 131.151 58.5714 130.672 59.528 130.513C60.4846 130.353 61.7601 129.796 62.3181 131.549C62.3832 131.754 62.3591 132.053 62.3779 132.307L65.9055 129.716L66.7027 127.085L68.9348 127.484L69.9711 130.114L68.8152 132.237C69.4921 134.255 70.2295 136.357 71.0772 138.066L73.6382 137.528L74.6745 139.123L74.3855 141.086C75.944 141.349 77.5592 141.571 79.2384 141.793L81.1915 141.564L84.0016 139.411L86.2038 142.042H86.1938L86.1041 144.683L89.8409 146.566L90.0602 147.573L94.2254 147.682L94.4148 149.775L96.4376 148.898C96.8063 149.3 97.2082 149.631 97.5537 150.084C98.0333 151.043 95.6406 151.995 95.1621 152.954C94.6155 154.594 93.6206 156.081 92.7606 157.587L93.3984 158.952L91.4154 160.826C91.395 160.921 91.342 161.008 91.3257 161.105C91.3257 162.064 93.7273 161.58 93.2489 162.54C92.8504 163.734 91.1864 164.314 90.3392 165.559L90.5783 165.868L88.4359 166.725C88.4359 166.725 87.5569 169.141 88.6551 170.063C89.753 170.985 90.1498 170.765 90.1498 171.688C90.1498 172.61 89.9758 173.393 89.2729 173.92C88.5703 174.447 91.7276 174.974 92.1229 173.969C92.5183 172.96 93.8801 173.618 94.2753 174.408C94.6707 175.198 96.8296 174.892 97.2249 174.498C97.6203 174.102 98.4535 176.039 99.0683 175.424C99.6629 174.83 102.577 175.369 102.775 175.404L102.865 175.484H102.985C102.896 175.351 102.866 175.238 102.785 175.105L101.739 171.727C102.564 170.215 105.422 170.058 105.864 168.29C107.303 158.217 96.5071 163.833 99.6363 156.152C101.075 155.673 100.113 157.747 101.071 157.747L110.179 149.596C110.659 147.198 104.425 150.084 106.343 146.247C107.781 142.89 111.132 140.496 112.571 137.14C115.174 130.774 112.351 125.479 109.083 121.106L109.591 119.193C109.591 119.193 106.482 118.157 106.562 116.482C106.642 114.809 106.881 114.33 106.881 114.33L103.851 112.975L105.446 111.38L104.18 109.178C103.971 108.449 103.802 107.738 104.429 107.424C106.827 105.986 109.694 107.427 112.571 106.468C113.53 105.988 111.612 103.108 112.571 103.588C115.447 104.547 117.366 107.903 120.722 107.903C122.939 108.22 129.285 106.436 133.786 104.226L134.384 104.923C134.384 104.923 135.996 103.731 137.194 102.153C137.784 101.663 138.249 101.176 138.449 100.708C138.533 100.513 138.451 100.357 138.459 100.18C138.502 100.021 138.539 99.8403 138.479 99.6718C138.372 99.3583 138.139 99.0776 137.841 98.8149C137.698 98.6882 137.527 98.5737 137.353 98.4561C136.924 98.1135 136.489 97.7753 135.739 97.2703C131.833 94.6396 134.464 94.6396 135.34 93.125C135.402 93.0188 135.387 93.0105 135.44 92.9157C136.295 92.3867 137.141 91.8619 137.991 91.3712C139.09 91.3787 140.233 91.2884 140.362 90.8131C140.451 90.4884 140.759 89.9771 141.06 89.4978C143.28 88.1298 145.295 86.6871 146.69 84.7645C147.378 84.5295 147.611 84.0618 147.388 83.4292C148.55 81.2455 149.111 78.5605 148.514 74.8296C148.421 73.5339 147.676 72.602 146.581 71.88C146.306 71.2555 145.863 70.166 145.863 70.166L145.036 71.1027C144.967 71.0736 144.877 71.0613 144.807 71.033L144.089 72.1789L134.334 68.2927L134.762 67.4158C133.875 66.5821 133.607 65.4849 134.613 63.8085C135.092 62.3698 137.493 63.811 137.493 62.8519C137.972 61.4132 135.578 59.9758 136.058 58.5371C136.058 57.578 137.49 57.5805 138.449 57.5805C141.805 57.5805 144.679 59.0154 148.035 59.0154C150.912 59.0154 149.739 54.7077 149.58 50.934V50.924C150.004 48.4365 150.516 45.7171 151.922 43.9985C153.951 41.5183 154.743 38.2484 155.419 36.1063C155.717 35.1622 155.731 34.2859 155.649 33.3959V33.3859C155.648 33.3763 155.639 33.3656 155.639 33.3561C155.53 32.2398 155.268 31.0969 155.081 29.7887C154.742 27.4211 153.844 28.6659 155.31 26.7494C156.414 25.3048 155.816 22.8972 155.409 21.5478C154.967 21.7197 154.478 21.8211 153.845 21.6773C153.115 21.5115 152.651 21.1036 152.28 20.641L152.27 20.631C151.357 20.034 150.553 19.1186 149.789 18.09C148.294 17.9104 145.627 15.9178 144.598 14.682C143.47 13.3292 144.141 10.2883 143.352 8.8227C142.76 7.72353 140.712 7.254 138.868 7.32798ZM76.3087 12.8385C74.8603 12.5487 68.4755 16.9631 67.6892 17.791C67.3994 18.2454 67.7251 18.0956 67.8486 18.7576C67.9731 19.4198 68.7686 18.1097 69.7619 18.1099C70.7551 18.1099 72.1096 16.7459 72.4822 15.8778C72.8547 15.0087 73.3548 14.8911 74.5549 14.6023C75.7551 14.3125 76.2882 13.6405 77.1159 13.8051C77.9436 13.9709 77.7572 13.1284 76.3087 12.8385ZM67.5297 20.0331C66.7848 19.9505 64.9715 22.8607 62.7367 26.4205C62.0745 27.4968 61.3845 27.7673 61.3017 30.4164C61.2191 33.0657 62.5928 31.7932 64.331 31.2136C66.0692 30.6341 65.6504 30.0455 66.892 29.3004C68.1336 28.5554 68.8819 27.2546 68.9647 26.2611C69.0473 25.2677 69.5319 23.5776 69.2835 22.5841C69.0351 21.5906 68.2747 20.1159 67.5297 20.0331ZM86.9312 27.9352C86.9312 27.9352 86.7517 29.4458 86.6921 29.9381C86.5385 31.2139 87.6051 33.9374 87.4992 34.8906C87.1247 38.2608 85.7367 37.124 85.2571 40.4809C85.2571 42.6389 87.0303 42.2137 91.0068 43.0418C92.8033 43.4163 96.2708 41.4667 97.7131 43.0418C99.0325 44.4838 97.8093 44.5514 95.481 45.4334C93.3089 46.256 92.4504 51.3438 93.4083 54.7007C93.8879 56.3791 94.5953 57.7171 95.7999 57.7399C97.6252 57.7756 100.617 57.9823 101.968 58.298C104.567 57.8658 105.396 57.8919 106.283 57.4111C107.239 56.8929 108.356 55.9762 108.356 55.9762L109.671 57.0922C109.671 57.0922 107.518 58.3683 106.522 58.4474C105.525 58.527 104.968 58.2089 103.732 58.567C102.639 58.8844 102.332 59.7947 102.287 60.2909C102.527 60.7149 102.99 61.0323 103.144 61.407C103.446 62.1397 103.834 64.6315 102.028 67.4855C101.552 68.2365 100.867 68.8859 99.4769 70.0365C96.6918 72.0078 94.5028 72.9723 93.4083 73.873C91.4981 75.4459 90.7424 76.52 90.3691 77.7094C89.7733 79.6071 88.4843 79.7607 85.8949 80.101C84.5163 80.2821 83.5814 80.1647 83.025 79.3038C82.0433 77.7842 80.3304 77.6931 79.8263 77.0717C78.9521 75.9941 76.2308 76.0318 75.671 75.9456C74.8902 75.8252 75.2011 75.2497 74.7144 74.6701L68.4864 71.9497C66.8967 71.2704 75.0344 67.6451 74.3955 64.7651C73.8848 62.4647 69.1284 58.217 71.5256 54.8601C74.5331 52.9475 74.0955 56.5633 75.8304 56.1356C77.5653 55.7075 82.1977 51.9552 81.7395 49.9076C81.3304 49.5102 80.8418 48.3207 79.0291 48.4727C76.6438 48.6727 76.4504 47.1981 75.8304 46.39C74.5905 44.774 76.0664 42.6214 75.9899 41.5969C75.9113 40.5252 75.2724 38.3285 75.2724 38.3285L86.9312 27.9352ZM94.923 58.3478C94.6572 58.3223 94.236 58.3573 93.4083 58.3777C91.7539 58.4185 89.7144 60.8396 89.0936 61.0881C88.4728 61.3366 87.8678 61.0575 87.3298 61.8853C86.7921 62.7132 86.8094 62.9161 86.8515 63.3302C86.8923 63.7445 84.7788 64.7651 84.7788 64.7651C84.7788 64.7651 74.5259 70.6556 74.236 71.1526C73.9468 71.649 74.7144 73.873 74.7144 73.873C74.9628 74.4113 75.1684 74.1574 75.8304 74.0324C76.4926 73.9079 77.2448 74.063 78.0725 74.3513C78.9002 74.6411 80.3093 75.4781 81.2612 76.2645C82.2131 77.051 83.5676 78.6829 83.9816 79.3038C84.3959 79.9245 86.1687 79.4331 87.6586 79.1443C89.1485 78.8545 89.1519 78.7627 89.7313 77.2311C90.311 75.6995 90.1413 75.0136 89.8908 74.3513C89.6423 73.6891 90.9058 73.1462 91.4851 73.3946C92.0645 73.6431 92.8762 73.3365 93.2489 72.7569C93.6211 72.1774 97.0217 70.3616 97.3943 70.1959C97.6726 70.072 98.0821 70.2689 99.4769 69.3988C102.348 66.6354 103.05 63.5411 102.347 61.8853C101.643 60.2296 100.712 60.1315 99.6363 60.1315C98.5603 60.1315 95.8526 59.1521 95.481 58.6966C95.2948 58.469 95.1887 58.3758 94.923 58.3478ZM7.08323 127.135C5.81952 127.334 3.59826 127.711 0.476562 128.43L0.755577 128.988C0.237828 135.72 3.00367 136.408 6.7245 136.173C6.65562 135.231 6.7755 134.353 7.64126 134.2C9.2768 133.911 12.5045 134.891 14.4173 135.924C15.3183 136.052 16.2036 136.267 17.048 136.661C18.007 137.141 16.0892 139.05 17.048 140.009C20.6816 142.432 23.8864 140.564 26.7538 138.076C28.1717 138.169 29.2515 138.575 30.5005 137.688C30.9158 137.392 31.2397 137.088 31.5767 136.781C31.5971 136.791 31.6176 136.8 31.6365 136.811L33.0415 135.824L35.6822 133.034C35.4868 132.885 35.6564 132.947 35.3534 132.606C34.5562 131.713 34.0931 131.373 33.191 131.41C32.8788 130.738 31.7107 130.349 29.8329 130.752C27.7232 131.205 26.4759 129.228 25.9964 128.988C23.8098 127.895 21.8469 132.187 19.4496 132.187C13.2026 131.111 15.8381 130.1 11.4578 128.669C9.76565 128.116 8.32668 127.577 7.08323 127.135Z"/>
</svg>
