<svg width="99" height="81" viewBox="0 0 99 81" xmlns="http://www.w3.org/2000/svg">
<path d="M81.6749 3.57317C81.6749 4.36396 81.8896 5.26774 82.7932 3.57317C83.697 1.87865 84.0198 1.46888 81.1956 1.01694C80.9134 0.960196 80.4585 0.930578 79.6958 1.10338C78.9332 1.27618 77.8838 2.05051 80.2563 2.14933C82.6288 2.248 81.6749 2.78238 81.6749 3.57317ZM55.1538 1.81576C54.7811 1.88223 54.395 2.05548 54.0354 2.29474C51.1587 3.73339 50.2021 8.52478 47.3253 9.96342C45.4075 10.9226 43.4915 9.48541 42.0531 7.56696C34.1421 7.56696 33.7899 14.3166 30.8696 19.709C29.1538 20.7442 27.8716 21.6472 27.8341 22.5848C27.8188 22.9401 27.672 23.1829 27.6746 23.5434C27.3566 24.2234 26.6466 24.1144 26.2367 24.3422C24.6818 23.1895 24.2983 23.1029 22.2426 24.0227C20.7593 23.786 19.3697 23.5544 17.929 23.3836C17.1316 22.6345 16.7134 22.648 16.0118 23.2242C14.5626 23.1935 13.4896 23.4859 13.7751 24.3425C13.8359 24.708 14.0384 24.9741 14.2542 25.3011C13.7787 26.3815 13.8871 27.5455 15.3725 28.1768C17.2789 28.987 17.8811 30.0495 19.3666 30.094C20.8521 30.14 20.1597 31.1876 19.8457 31.3721C19.8303 31.4309 18.6598 31.8281 18.5676 31.8511C17.5033 32.3071 16.0612 32.9789 15.0527 33.928C14.4957 34.4522 13.601 34.5435 12.6563 34.4072C11.7635 34.488 10.9248 33.7072 10.2598 33.4486C9.75164 32.5448 8.72036 32.1021 7.70359 33.289C7.10186 34.071 6.60825 34.932 6.10595 35.6854C6.10595 35.6854 4.04901 35.665 2.91067 35.6854C2.28664 35.8332 0.386291 36.3573 0.673969 36.644C0.9618 36.9308 1.65919 37.3696 2.59114 38.4014C4.82784 40.8778 3.2302 42.5553 4.34854 43.6737C5.46689 44.792 9.30123 48.9459 9.30123 48.9459C8.90195 50.5895 8.92085 51.9454 8.82217 53.8986L10.1003 55.0169C13.442 55.3707 14.5608 57.213 16.1713 59.4903C16.3973 61.0719 17.3445 61.7076 18.2483 62.0465C21.1945 62.0721 23.2685 63.2541 25.5974 64.4428C27.292 64.7818 28.5473 64.1151 29.1122 63.3245C29.6683 62.2876 29.6189 61.5 29.911 60.4487C30.9886 59.3036 32.7181 59.782 33.9051 59.6501C34.8986 59.6143 34.9692 57.3877 34.0647 55.9755C33.1609 54.5634 32.5588 54.5199 33.7451 53.8986C34.9313 53.2772 33.9502 52.0088 35.0233 52.4607C36.0965 52.9126 37.0598 51.5134 38.6978 50.3837C39.9264 49.5365 39.871 48.8629 40.615 48.7861C41.2313 48.8556 41.6645 48.891 42.2123 48.9457C45.3191 50.5701 43.7893 59.9272 45.8869 64.1233C46.8458 66.0415 51.6386 65.08 51.1591 68.4369C50.2002 70.8347 46.8446 75.1468 49.242 75.6263C52.6504 74.7471 54.0112 73.7673 57.2302 75.3068C57.8363 75.5967 58.5179 75.8346 59.1473 76.1056C59.9333 74.5406 58.6944 72.2865 62.6622 74.6677C62.9582 74.5159 62.8155 74.591 62.9817 74.5081C65.2184 74.6676 66.0172 74.5081 65.8574 76.2655C65.6979 78.0229 67.2155 77.2241 68.0941 77.7034C68.9729 78.1824 70.0913 78.662 68.5732 78.9815C68.0671 79.0879 67.9667 79.4698 67.9341 79.9401C68.659 80.5554 69.4529 80.2654 70.1708 80.4192C72.9324 79.1957 72.423 79.4876 74.4845 78.3423C75.9342 77.5369 76.985 76.9938 77.3602 76.1056C77.8551 74.838 78.4033 74.0966 78.4786 72.7506C78.5537 71.4046 78.7107 71.0808 78.9576 70.8334C80.1673 69.4722 82.4029 69.4499 84.8689 69.5553C86.6711 70.7939 87.5405 72.0765 89.8216 69.5553C91.7354 67.9356 92.9796 66.9163 92.6973 65.0819C92.5429 64.0768 92.2602 63.4075 92.0583 63.005C91.8563 62.6026 91.7991 62.4421 91.5792 62.3659C90.5113 62.187 89.644 62.4676 88.5437 62.5254C88.0759 62.5049 87.9047 62.3659 87.9047 62.3659C87.9047 62.3659 90.9402 60.187 90.9402 56.2949C90.9402 52.4028 89.023 51.5019 89.023 51.5019L90.4609 49.7445C93.3377 51.4368 95.4703 53.8879 94.455 56.9339C93.4397 59.9799 91.1935 59.9968 92.378 62.3659C93.3052 64.2203 93.9451 65.4498 94.2952 67.6381C96.1655 65.9641 97.5939 63.1164 98.1296 57.8925C98.7589 49.5004 97.4347 45.9429 95.094 44.7918C94.6988 44.2052 94.2195 43.8812 93.3366 44.1528C91.7811 44.6313 90.8987 43.9923 89.8218 43.5137C88.7449 43.0352 85.5082 45.1114 85.5082 45.1114L84.0703 44.1528C84.443 43.422 84.6257 43.3359 85.0289 42.3954C85.8542 41.7533 87.0168 41.0733 88.7035 40.638C92.4129 39.6807 93.0572 39.6755 93.1769 36.8036C93.2965 33.9318 93.0158 33.6866 92.0585 32.49C91.1025 31.2925 90.3019 32.1709 90.3019 32.1709C90.3019 32.1709 88.4643 29.9711 88.225 27.6976C87.9857 25.424 85.3492 22.5851 85.3492 22.5851C85.3492 22.5851 87.3861 20.5857 87.2664 18.9105C87.2459 18.6314 87.0332 18.4591 86.7873 18.2715C87.2924 14.6837 86.4248 10.5701 84.7104 7.56727C84.2308 6.12863 81.3558 8.04637 79.9175 7.08829C77.0407 6.12925 75.1257 2.77492 71.7695 2.29537C68.8928 1.81582 66.4984 4.21254 63.1422 4.21254C60.6251 4.63227 57.7627 1.35028 55.1538 1.81576Z"/>
</svg>
