<svg width="613" height="873" viewBox="0 0 613 873" xmlns="http://www.w3.org/2000/svg">
<path d="M402.095 161.184C402.574 161.184 402.574 161.184 402.574 161.664ZM480.247 243.187H479.767ZM606.344 61.917C609.221 65.7535 615.933 74.8649 610.18 76.7831C604.426 78.7014 589.563 71.0285 594.358 75.3445C603.468 83.0173 585.248 94.047 582.851 99.8016C582.851 100.281 588.604 120.902 581.892 118.504C563.672 111.311 585.248 99.322 579.015 88.7719C569.426 71.9876 554.563 78.2218 542.097 64.7943L541.617 62.3966C541.138 62.3966 540.658 62.3967 540.179 62.8762C540.179 62.3967 539.699 62.3966 539.699 61.917V62.8762C530.11 64.7944 532.028 75.824 523.877 78.2218C516.685 80.14 519.562 70.0694 511.411 79.1809C510.452 80.6196 511.411 83.0173 510.932 84.9355C510.452 85.415 505.178 95.4856 505.178 95.9652C503.74 99.8016 506.617 112.27 507.096 115.627C507.096 117.065 506.137 118.025 506.137 119.463C506.137 122.34 506.617 124.738 507.096 127.616C508.535 131.452 511.891 134.329 512.37 138.166C514.767 154.95 510.452 143.441 504.699 148.716C497.986 155.429 504.219 157.348 502.301 165.5C501.822 167.418 499.904 168.377 499.425 170.296C499.425 170.775 493.192 165.021 492.233 164.541C490.794 163.582 473.054 157.348 471.616 159.266C469.698 161.184 471.137 165.02 469.698 166.939C463.945 177.009 456.273 170.775 448.123 172.214C445.725 172.214 442.369 174.612 440.451 173.173C438.054 171.255 439.013 167.418 437.574 165.02C434.218 159.266 423.191 144.4 417.437 141.043C398.259 130.013 406.889 158.786 406.889 158.786C404.012 159.266 401.615 155.909 398.738 155.909C397.3 155.909 394.903 157.348 395.382 158.307C395.862 158.786 396.341 159.266 396.82 159.266H395.862C392.026 160.225 386.752 157.827 384.834 161.184C383.395 163.582 389.629 165.021 391.067 167.418C392.505 170.296 393.464 173.652 393.464 177.009C393.464 182.764 385.313 187.08 386.752 192.834C387.231 197.15 404.012 196.191 388.19 206.262C383.875 209.139 350.792 192.834 344.08 201.466C341.203 205.303 353.19 232.637 343.6 236.474L328.258 229.76C325.381 229.76 316.271 246.544 315.792 250.381C314.833 255.656 314.833 262.369 310.997 267.165C308.12 270.522 302.846 265.247 304.285 273.878C306.203 284.429 318.668 285.388 313.394 298.336C310.518 306.488 294.696 325.19 291.819 333.822C290.86 338.138 297.093 341.975 295.654 346.291L285.106 355.402C281.271 357.32 273.599 353.004 271.681 357.32L276.476 376.023C276.476 376.023 274.079 390.409 274.079 390.889L275.517 408.632C275.038 410.55 272.64 411.03 272.161 412.948C267.846 425.896 261.133 439.324 256.818 452.751C253.942 461.383 274.079 456.587 270.723 480.085C267.366 502.624 254.421 480.085 234.763 492.554C228.53 496.39 217.982 512.695 216.544 520.367C216.064 522.765 218.941 524.684 218.462 526.602C217.982 531.877 211.27 535.234 211.27 540.509C211.27 598.534 218.462 497.829 218.462 555.854C218.462 558.732 215.105 560.65 215.105 563.527C214.626 566.884 216.544 569.761 217.023 573.118C217.023 575.995 214.626 579.352 215.105 582.23C215.585 589.423 223.256 595.657 224.215 602.85C225.174 613.4 217.503 626.828 219.9 636.898C222.777 647.928 240.996 646.969 242.914 658.958L237.64 678.14C233.804 681.497 224.215 679.099 224.694 683.894C227.092 704.515 239.558 699.24 234.284 726.574L234.763 740.481C230.448 751.511 215.105 752.47 214.146 755.827C213.667 756.786 216.064 757.266 216.064 758.704C217.023 760.623 217.982 763.02 217.023 764.938C215.585 767.816 210.79 768.295 209.831 771.652C206.955 780.284 220.379 799.466 209.831 814.332C205.516 820.566 203.598 815.771 202.16 810.975C202.64 810.975 202.639 810.975 203.119 810.496C205.037 809.057 202.16 805.221 200.721 803.303C190.653 787.477 195.927 810.975 180.105 796.109C178.666 794.671 181.543 791.793 181.543 789.875C181.543 786.998 178.667 789.875 178.667 789.875C175.79 785.559 176.749 778.366 177.707 779.325C177.707 778.366 177.228 777.886 177.228 777.407C176.269 772.611 174.831 768.295 173.872 763.5C173.392 760.623 177.707 754.388 174.351 754.388C162.365 754.388 182.981 769.254 170.995 777.407C170.515 777.407 170.036 776.927 170.036 776.448C169.557 773.57 170.995 770.214 170.036 767.816C168.598 765.418 163.803 761.102 163.324 763.5C162.844 767.336 167.639 769.734 169.077 773.091C170.036 775.009 167.159 779.325 168.118 781.723C171.954 791.793 174.831 786.518 171.954 793.232C171.954 793.712 171.954 795.15 170.995 795.15C170.036 795.15 169.077 792.273 168.118 793.232C164.762 799.466 169.077 807.619 165.241 807.619C163.324 807.619 165.721 801.384 164.283 802.343C156.132 807.619 171.475 812.894 151.337 812.894C148.94 812.894 151.337 808.098 149.419 806.659C147.022 805.221 142.707 799.946 141.269 802.343C139.83 805.7 146.063 807.619 147.502 810.975C147.981 812.414 135.036 813.373 133.597 818.169C133.118 820.087 138.392 822.005 136.953 823.444C134.556 826.321 128.323 823.923 125.926 826.321C124.488 828.239 130.72 828.719 130.241 830.637C127.364 850.298 123.529 824.882 121.131 834.953C120.652 835.912 122.57 836.871 122.09 837.83C119.693 841.187 107.227 856.053 106.748 856.533C105.789 857.492 104.35 854.614 103.391 855.574C100.514 857.971 100.994 864.206 97.1584 864.685C94.2816 865.644 93.8022 857.492 90.446 858.451C87.0897 859.41 88.528 865.644 86.1308 867.562C84.2129 869.001 80.8567 866.603 78.9389 867.562C77.5005 868.042 77.021 869.96 75.5826 870.44C70.788 873.317 72.2264 869.001 65.514 869.001C62.1578 869.001 58.3221 874.276 56.4043 871.878C54.4865 869.481 62.6373 867.562 61.6784 864.685C60.24 862.287 57.3633 868.521 54.4865 868.521C50.6509 869.001 46.8151 867.562 42.9795 866.124C34.8286 862.287 50.6507 857.012 52.0891 853.655C52.5687 851.737 49.2125 849.819 47.2946 850.299C45.3768 850.778 45.8562 855.094 43.4589 855.574C40.5822 856.053 37.7054 854.135 34.8287 852.696C29.0752 850.298 25.7189 841.667 22.8421 839.748C21.4037 838.31 18.527 839.269 16.6092 838.31C13.253 836.392 7.49938 823.923 7.97893 820.566C7.97893 817.689 11.3351 815.771 12.294 812.414C12.7735 809.537 8.93779 802.343 12.294 803.303C16.1297 804.262 13.253 812.414 17.0886 813.853C19.0064 815.291 19.4859 809.057 21.8833 808.098C22.8422 807.139 23.801 808.098 24.7599 809.057C23.801 806.659 23.3217 804.262 22.3627 801.864C21.8832 798.507 29.0751 799.466 30.9929 797.068C31.9518 796.109 26.6778 797.068 27.1572 795.63C28.1162 793.232 30.5135 791.793 32.9107 790.834C35.7875 788.916 41.541 790.355 42.9795 786.998C44.8972 782.682 31.4725 788.916 28.5957 786.039C26.6779 788.437 25.7188 788.437 25.7188 784.121C26.1984 780.284 34.3491 779.325 33.3902 775.968C31.9518 772.132 26.1984 771.173 22.3627 772.132C16.1298 774.05 18.527 788.916 12.294 788.437C8.93779 788.437 11.3351 782.202 9.89672 779.805C8.93783 778.366 7.01997 777.407 5.10208 776.448C5.10208 776.448 5.10214 776.927 5.58169 776.927C5.10214 776.927 5.10208 776.927 4.62263 777.407C4.62263 776.927 5.10208 776.448 5.10208 776.448C3.66374 775.489 2.22555 774.529 2.22555 773.091C2.22555 770.693 7.9791 775.009 9.89688 773.57C12.7737 771.173 11.8145 764.938 15.1708 763.5C17.5681 762.061 19.0065 767.336 21.4038 767.816C22.3627 768.295 20.9243 765.418 21.8834 764.938C22.8423 763.979 24.2806 765.418 25.2395 764.938C27.1573 764.459 20.4451 764.459 20.9245 762.541C20.9245 762.061 40.5823 753.429 39.1439 753.429C23.8011 752.47 33.3903 765.418 18.5271 751.991C18.0476 751.511 20.9245 751.991 21.404 751.032C22.3628 750.072 21.4039 747.675 22.8423 747.195C24.7601 745.756 27.1574 747.675 29.0753 746.236C30.0342 745.756 28.5957 744.318 28.5957 743.359C29.5546 741.44 30.5136 740.002 31.4725 739.043C33.8699 737.604 39.1438 739.043 39.6233 736.645C40.1029 733.768 33.3903 734.247 33.3903 731.849C32.9108 730.89 33.8698 729.452 34.8287 728.013C33.8698 728.013 32.4315 725.615 31.4725 726.574C29.0753 728.013 27.6368 730.411 26.1984 732.329C24.2806 736.165 25.2395 740.961 22.3627 743.838C20.9244 745.277 21.4038 740.002 20.9244 738.563C18.0476 733.288 15.6504 734.727 17.5682 729.931C19.486 726.095 27.1574 717.463 22.8423 718.422C18.0477 719.861 14.6915 740.961 8.93798 730.411C7.49954 727.054 6.06118 723.218 5.10224 719.381C4.62269 715.545 11.8146 719.381 20.4449 716.504C22.3627 716.024 23.3216 714.106 23.801 711.708C20.4449 715.065 14.2121 707.872 14.2121 705.954C14.2121 701.638 20.9244 700.679 24.7601 698.76C23.8012 693.485 19.4859 698.281 15.6503 702.597C15.6503 702.597 15.1708 702.597 15.1708 702.117C14.6913 701.638 14.2119 700.679 13.253 699.72C14.6914 701.158 15.1708 703.076 15.6503 702.597C13.253 704.995 11.3351 706.913 9.89672 707.392C7.49939 707.392 8.45832 702.597 7.49932 700.679C7.01978 699.72 -1.61029 691.088 0.787045 690.608C4.14322 690.608 7.02 693.485 9.89672 695.883C9.89672 695.404 9.41718 694.444 9.89672 693.485C10.8557 690.128 16.6091 690.129 19.4859 687.731C19.9654 687.251 19.0063 685.333 18.0475 685.813C14.2118 686.292 7.97891 691.088 4.62263 689.169C0.307467 686.772 3.6637 675.742 6.06098 674.303C9.4172 671.906 13.253 679.099 17.5681 679.099C18.0476 679.578 27.6367 668.069 38.1848 673.344C41.541 674.783 42.0205 679.578 45.3767 681.017C48.7329 682.456 42.4999 673.824 53.5275 670.946C67.4318 667.11 53.0479 691.567 67.9112 690.608C77.021 689.649 64.5551 681.976 65.0346 675.742C65.5141 669.028 89.9664 684.853 86.6102 668.069C86.1307 664.712 79.8978 670.946 77.0211 669.987C75.1032 669.508 74.6238 666.631 74.6238 664.712C74.6238 659.437 88.0487 654.162 83.2541 652.244C71.2676 647.449 75.1032 669.508 74.1444 671.906C74.1444 672.385 68.3908 673.824 63.5962 674.303C62.6373 674.783 63.1167 672.865 62.6373 672.385C59.2811 670.467 55.4453 669.508 52.0891 667.59C52.0891 667.59 52.0892 667.59 51.6097 667.11C50.1713 670.467 48.7328 672.865 47.7739 673.824C47.2944 674.303 32.4313 667.59 28.5955 667.59C27.1571 667.11 28.116 669.987 27.1572 670.467C21.8832 672.865 15.6501 673.824 10.376 672.385C9.41712 672.385 2.22535 664.233 3.18429 662.794C5.58162 659.437 9.89659 657.999 13.2529 657.039C17.0885 656.08 24.2803 660.396 24.2803 656.56C24.7599 653.203 17.0885 655.601 13.2529 656.08C10.8555 656.08 8.93771 659.437 6.54043 658.478C-3.52824 654.642 8.45834 649.367 11.3351 649.367C16.1297 649.846 24.2805 655.601 30.034 651.764C35.7875 647.448 13.2528 653.203 10.376 646.489C9.41712 643.612 21.4037 644.092 19.0064 642.653C16.1297 641.214 11.8143 643.132 9.41712 640.735C1.74578 634.5 13.2529 622.032 20.4447 621.553C25.7188 621.553 32.4312 622.512 35.308 626.828C36.7463 628.746 32.4312 632.103 33.8696 634.021C35.308 635.939 34.3492 628.266 36.2669 627.787C38.6642 627.307 39.6231 632.103 42.0204 632.582C43.9382 632.582 38.1848 629.226 39.1437 628.266C41.541 625.389 53.048 635.46 61.6783 627.307C63.1166 625.869 59.281 624.91 57.3631 624.91C40.582 623.95 65.514 628.746 51.6097 629.705C49.2124 630.185 34.349 622.991 27.6366 622.032C25.2394 622.032 23.3215 620.594 20.9242 620.594C18.0475 620.594 12.7735 624.91 12.294 622.032C11.8144 618.675 19.4858 618.675 20.4447 615.318C21.4036 611.003 11.8144 609.084 11.8144 604.289C11.8144 602.371 16.609 604.289 17.5679 605.727C19.0063 608.125 19.0063 613.88 21.8831 613.4C24.7598 612.921 18.527 605.248 21.4036 604.768C25.2394 604.289 27.1571 611.962 30.9928 611.962C33.8696 611.962 32.9106 602.85 34.8285 604.768C37.2259 606.687 33.8696 611.002 33.8696 614.359C33.8696 614.839 32.9106 616.278 33.39 616.278C36.2667 615.319 34.8285 609.084 37.7052 609.084C39.1436 609.084 38.1847 612.441 39.623 613.4C42.4997 614.839 47.2943 617.716 48.7327 614.839C49.6916 612.441 42.4997 613.4 41.0613 611.482C38.6641 608.605 37.7052 605.248 37.7052 601.891C37.2257 597.575 44.4176 594.218 48.7327 595.177C50.6506 595.657 49.6917 599.493 50.6506 601.412C52.089 604.289 54.4862 606.207 55.4451 609.084C55.4451 610.043 53.0479 611.962 54.0068 611.962C55.4452 611.962 55.9246 610.043 55.9246 609.084C54.0067 599.493 43.4587 593.259 60.2398 590.382C65.9933 589.423 66.9522 597.575 66.9522 605.248C67.4317 604.289 67.911 602.85 68.87 602.371C71.7467 599.973 79.8976 605.248 78.9387 601.891C77.9797 598.055 71.2674 601.412 67.9111 599.014C65.5138 597.096 66.4728 592.78 64.555 590.382C62.1577 587.025 49.2122 582.709 47.2943 581.271C46.8148 580.791 48.7327 579.352 50.1712 579.352C52.089 578.873 54.4863 578.873 56.4042 579.832C57.3631 580.311 56.8837 582.709 57.8425 582.709C59.281 583.189 65.0344 573.118 71.7468 578.393C73.6647 579.832 70.7878 584.627 73.1852 585.586C75.103 586.545 72.2262 580.311 74.1441 579.352C77.5003 577.434 84.6921 587.984 84.6921 588.464C87.5689 588.943 93.3225 586.545 91.8841 584.148C90.4458 581.27 84.6922 586.066 82.2949 584.148C78.9387 581.27 85.6512 575.995 90.9252 574.077C87.0895 575.516 83.7333 576.475 80.3771 576.475C51.6096 576.954 77.0208 573.598 76.0619 567.843C75.5823 564.007 69.3495 564.486 66.9522 561.129C63.5959 557.293 65.0343 553.936 77.9797 555.375C80.8564 555.854 80.8566 561.129 83.7334 562.088C85.6512 562.568 87.0894 559.211 89.0073 559.211C91.884 558.732 94.2813 558.732 97.1581 559.211C96.6785 558.732 96.1992 557.772 95.7197 557.293C95.2402 554.416 99.076 551.538 101.953 551.059C103.391 550.579 101.953 553.936 102.912 555.375C104.35 557.293 107.706 557.293 108.665 559.691C109.624 561.609 106.747 564.486 108.665 565.925C111.062 568.323 117.295 572.638 119.213 569.282C120.652 565.925 111.542 564.486 111.062 560.65C111.062 558.252 116.336 560.17 118.254 558.732C119.213 557.773 114.898 559.691 113.939 558.732C113.46 558.252 116.816 556.334 115.857 556.813C113.46 557.293 111.542 560.65 109.624 559.691C106.268 557.773 105.309 553.456 104.35 550.1C103.391 548.661 106.747 551.538 108.186 552.018C109.624 552.977 103.391 547.222 108.186 548.181C108.665 548.181 127.844 558.252 125.926 545.304C124.008 529.479 110.583 559.211 113.46 538.59C113.939 534.274 125.446 526.602 128.802 528.52C131.679 529.959 128.323 536.193 130.72 539.07C131.679 540.509 133.118 536.672 134.556 535.713C136.953 534.754 143.666 534.754 141.748 532.836C140.31 530.918 133.597 537.631 134.077 534.754C134.077 531.397 139.351 530.438 141.748 527.561C144.625 524.683 144.625 518.929 148.46 518.449C151.337 517.49 149.899 523.245 151.337 525.643C152.296 527.561 155.652 528.52 155.652 530.918C155.652 533.795 151.337 535.234 151.816 538.111C152.296 540.029 154.693 535.713 156.611 536.193C159.488 536.672 162.844 543.865 164.282 541.468C165.721 537.631 158.529 534.754 159.008 530.918C159.008 527.081 178.666 531.877 179.146 531.877C182.502 529.479 182.981 524.204 182.502 520.367C182.022 518.449 176.269 522.286 176.748 520.367C178.187 514.133 197.845 513.174 196.886 508.379C196.406 504.542 184.899 504.542 187.296 501.185C189.214 497.829 197.845 498.788 198.324 494.951C199.762 475.769 182.502 499.267 178.666 502.624C176.748 504.063 170.995 505.501 172.433 507.899C174.351 511.256 180.105 509.338 183.461 510.777C183.94 510.777 182.502 511.256 182.022 511.736C179.625 513.174 176.748 514.133 174.351 516.051C171.954 517.97 159.967 528.52 156.132 527.561C153.734 527.081 154.693 523.245 153.734 521.327C152.775 519.408 149.419 517.97 150.378 516.051C151.817 512.695 156.611 512.215 159.488 509.817C159.968 509.338 157.57 511.256 156.611 510.777C155.652 510.777 158.049 508.379 157.57 508.858C154.214 510.297 148.94 517.97 144.145 516.051C136.953 513.174 147.501 506.94 152.775 503.583C155.652 502.145 159.488 502.145 161.406 499.267C162.844 497.829 157.091 500.706 155.173 500.226C154.214 500.226 154.693 499.267 154.693 498.308C155.173 494.951 154.693 491.594 156.611 488.717C157.57 487.279 160.447 489.676 161.885 488.717C162.844 488.717 159.967 488.717 159.967 487.758C159.967 486.319 160.447 484.881 160.926 483.442C162.364 482.003 165.721 485.36 166.68 483.442C167.639 482.003 166.2 479.126 167.639 477.208C169.077 475.29 173.392 475.769 174.351 472.892C174.831 470.974 168.118 468.576 170.036 468.096C173.392 467.137 176.269 472.892 179.625 471.933C182.022 471.453 175.789 469.056 174.351 466.658C171.954 463.301 179.146 459.465 182.981 457.067C186.817 454.669 188.255 465.699 193.05 467.617C195.927 468.576 199.762 467.617 201.68 465.219C202.639 463.78 194.968 465.219 195.927 463.301C197.365 460.424 203.598 460.903 205.036 458.026C207.434 451.312 190.173 469.056 194.488 450.833C194.968 447.955 195.927 446.037 196.406 445.078C194.488 446.517 192.57 447.955 190.173 448.914C182.981 452.271 203.598 439.803 202.16 437.885C201.68 436.926 200.721 436.926 199.283 437.405V436.926C199.283 435.967 195.927 436.926 196.406 435.967C197.844 432.61 212.708 433.569 215.105 432.61C216.064 431.651 214.146 429.253 215.105 428.294C222.297 421.58 231.886 425.896 234.283 411.989C234.283 409.591 230.448 414.387 228.53 415.346C226.133 415.825 223.735 415.346 221.338 415.346C219.42 415.825 216.064 418.703 216.064 416.785C217.023 410.55 234.283 410.55 229.489 402.398C229.009 400.959 224.694 401.919 221.338 401.919C221.818 402.878 222.776 403.837 223.735 405.755C221.338 408.153 219.42 411.03 217.023 413.428C216.064 413.907 214.146 416.785 213.667 415.346C213.187 412.948 213.187 399.521 217.023 399.041C217.023 397.602 217.023 396.643 217.982 394.725C219.42 390.889 225.653 392.807 229.009 390.889C229.968 390.409 226.612 390.889 226.133 390.409C224.694 388.491 223.256 386.093 222.776 384.175C222.297 381.298 226.612 370.268 229.489 370.268C233.325 369.789 235.242 376.023 239.078 376.982C240.516 377.461 237.64 373.625 237.16 371.707C236.201 369.309 236.681 364.993 234.283 363.555C231.886 362.116 227.571 365.952 225.174 364.034C217.502 357.8 233.325 360.198 235.722 359.239C240.037 357.32 240.516 351.086 247.229 352.525C250.105 353.484 251.544 357.32 254.421 357.32C256.818 357.32 250.585 354.443 250.105 352.525C250.105 352.045 250.105 352.045 250.105 352.045C249.626 352.045 249.147 352.525 248.667 352.525C247.708 352.525 248.667 349.648 247.708 349.168C242.914 348.209 239.557 356.841 234.283 356.361C217.502 353.964 243.393 350.607 246.27 348.209C247.229 347.729 244.352 347.729 242.914 347.729C239.557 347.25 236.681 348.688 233.324 348.209C229.009 347.25 230.448 339.577 231.407 335.741C234.763 317.997 241.955 325.67 253.941 320.875C260.654 317.997 246.27 313.202 244.352 309.845C243.393 307.927 248.667 309.365 250.585 308.406C252.503 307.447 242.434 300.254 254.421 304.09C255.38 304.09 252.982 306.008 252.982 306.967C253.462 313.681 255.859 303.611 255.859 302.652C255.859 302.172 256.818 299.774 257.297 300.733C258.736 302.172 256.818 306.488 259.215 306.967C263.051 307.447 268.325 305.529 269.284 302.172C270.722 298.815 264.01 297.376 263.53 294.02C263.53 293.54 275.038 286.826 278.873 288.745C281.27 289.704 276.476 297.376 279.353 296.897C282.229 296.897 278.873 290.183 281.271 288.745C281.75 288.265 281.75 288.265 282.229 287.786C281.75 287.306 281.271 286.826 280.791 286.347C279.353 285.388 283.668 282.51 282.229 282.031C280.791 281.551 279.832 284.908 277.914 285.867C273.12 287.786 267.366 291.622 262.572 288.745C260.654 287.306 266.407 284.429 267.846 282.031C270.722 275.797 271.681 261.41 278.873 266.685C281.27 268.603 271.681 271.481 274.079 273.399C275.996 275.317 278.873 270.042 282.229 269.563C284.627 269.563 287.024 270.522 288.942 272.44C291.819 275.317 297.093 285.867 295.654 282.031C294.695 278.674 289.901 275.797 290.86 271.96C291.339 268.603 297.093 268.124 299.01 265.247C299.969 263.808 296.134 266.206 294.695 266.685C287.503 269.083 285.106 272.44 281.75 263.328C279.832 258.533 284.147 261.41 284.627 259.012C285.106 258.533 283.188 259.492 283.188 259.012C281.75 254.697 295.175 261.41 297.093 259.012C300.449 253.258 285.586 248.462 284.627 248.462C283.668 248.462 285.586 250.381 285.106 251.34C283.668 254.217 275.517 264.287 272.64 262.849C269.284 261.41 268.805 256.135 270.243 252.778C271.202 249.901 275.997 251.819 277.914 249.901C279.353 248.462 273.599 251.819 272.64 250.381C270.722 247.503 278.873 245.585 281.271 247.503C282.229 247.983 280.312 250.381 280.791 249.901C288.462 242.228 300.928 247.024 299.969 236.474C299.969 235.035 297.093 237.912 295.654 236.953C294.695 236.473 296.134 234.555 295.175 234.076C294.695 233.596 294.695 235.994 294.216 235.994C292.298 236.953 290.86 236.473 289.421 236.473C286.544 236.953 282.709 239.351 281.75 236.953C275.517 224.485 294.216 233.117 294.695 233.117C297.572 230.719 295.175 225.444 296.613 222.087C297.093 220.648 298.052 225.444 298.531 227.362C299.011 227.842 300.449 226.882 300.449 227.362C300.449 230.239 298.531 233.117 299.49 235.514C299.49 236.473 310.038 251.819 312.435 248.942C318.189 242.228 294.216 221.128 301.408 217.771C303.805 216.332 308.6 220.169 312.435 223.526C311.956 222.087 311.956 220.648 310.997 219.689C308.599 217.771 301.408 218.73 302.367 215.373C302.846 211.537 309.079 212.016 312.915 211.537C333.532 208.18 316.271 218.251 329.216 224.485C338.326 228.801 318.668 209.619 327.299 209.619C329.696 209.619 331.134 212.496 333.052 212.496C335.929 212.016 340.244 212.016 339.764 209.619C336.888 189.478 324.901 209.619 320.107 208.659C319.148 208.18 322.024 207.221 321.545 206.262C321.545 205.303 320.107 203.864 319.148 204.344C317.709 204.823 317.709 207.7 315.791 207.7C312.915 208.18 308.12 208.659 306.682 205.782C305.723 203.864 306.202 201.466 307.161 199.548C304.764 200.028 301.887 200.507 300.449 201.946C298.052 204.344 300.449 210.578 297.572 212.496C295.654 213.935 297.572 206.741 295.654 205.303C293.257 203.864 290.38 204.344 287.983 204.823C286.065 205.303 287.024 209.139 285.586 210.578C284.147 212.016 282.229 213.455 280.791 214.894C278.873 216.812 277.435 218.73 275.996 220.648C275.996 219.689 275.996 219.21 275.996 218.73C277.435 215.373 280.312 212.016 280.791 208.66C281.271 206.741 278.873 204.344 279.832 202.425C282.229 200.028 287.024 200.987 289.421 198.589C299.49 188.998 273.599 191.875 287.504 177.009C297.572 165.5 295.654 187.08 293.257 197.63C294.216 195.712 295.654 194.273 297.093 193.793C298.052 193.314 299.011 196.671 299.49 195.712C300.928 193.314 298.528 170.295 306.682 181.325C310.997 187.08 312.435 191.396 312.435 193.793C314.353 192.834 315.792 191.875 317.23 191.875C319.148 191.875 320.107 195.712 322.025 195.712C325.86 196.191 330.175 195.232 333.532 193.314C338.326 190.437 323.463 194.273 322.504 188.039C322.504 186.121 324.901 183.723 327.299 183.723C327.299 183.723 327.778 183.723 328.258 183.723C327.778 183.243 327.299 183.243 327.299 182.284C327.299 179.407 333.052 180.366 335.449 178.448C335.929 177.968 333.532 177.968 333.052 177.489C329.696 175.091 328.258 169.816 329.216 165.5C329.696 161.664 339.285 165.02 340.244 161.184C341.203 158.307 338.806 155.429 337.847 152.552C337.847 155.909 337.367 157.827 336.888 158.307C333.532 158.307 330.175 155.429 327.299 157.348C322.504 159.266 321.545 165.5 318.668 169.816C316.271 168.377 311.956 168.377 311.956 165.98C312.915 162.143 319.148 161.664 320.107 157.827C321.066 155.909 314.833 160.225 314.353 158.307C313.394 155.429 318.668 153.032 318.189 149.675C318.189 147.757 311.477 150.154 312.915 149.195C319.627 145.838 330.655 148.716 325.86 142.482C323.942 140.563 316.751 141.522 318.668 140.084C321.066 138.645 324.901 142.961 327.778 141.522C330.655 139.604 329.217 133.37 332.093 132.411C336.888 130.972 337.847 140.084 338.326 147.757C338.326 144.879 339.285 142.482 340.244 140.084C342.641 136.247 343.6 149.675 346.957 151.593C350.313 153.511 354.628 151.593 357.984 150.154C358.464 150.154 343.6 144.879 344.559 141.522C345.518 138.166 348.874 133.85 352.23 134.329C355.587 134.329 355.107 140.563 357.505 142.961C359.902 145.359 363.258 144.879 366.135 147.277C367.573 148.716 369.012 154.95 369.971 153.032C373.806 141.522 345.518 144.4 356.066 121.861C357.984 118.024 366.135 113.229 369.971 116.106C373.327 118.025 369.012 140.563 369.012 141.522C369.971 142.482 371.409 140.084 371.888 138.645C372.368 135.768 369.97 131.931 371.888 129.534C373.327 127.136 379.56 130.972 380.039 128.095C380.039 125.218 373.327 125.697 372.368 122.82C371.409 120.422 376.204 99.8015 383.395 108.433C385.313 111.311 383.395 138.166 383.395 139.125C382.437 142.482 376.203 148.236 379.56 149.195C388.19 152.073 383.875 135.288 386.752 133.37C389.628 131.452 393.943 133.37 396.82 131.931C398.259 130.972 394.423 130.013 393.464 129.054C390.108 126.177 382.916 122.34 385.793 115.627C398.259 87.8127 385.793 119.463 400.176 109.872C404.012 107.474 400.177 100.281 403.053 96.9242C404.012 95.9651 405.45 97.4037 406.409 98.3629C407.368 99.3219 406.889 101.24 407.848 102.199C410.245 104.117 413.122 104.597 415.519 106.515C417.437 107.954 418.875 110.831 421.273 111.79C423.67 112.27 416.958 108.433 415.999 106.036C415.999 105.556 417.916 105.556 417.916 104.597C418.875 97.8833 417.437 87.8127 416.478 88.2923C414.081 88.2923 400.176 100.281 396.341 86.374C394.423 78.7013 408.327 75.3444 412.163 76.3036C415.519 76.7831 417.437 81.0991 420.793 82.0582C421.752 82.0582 420.314 79.1808 421.273 78.7013C422.232 77.7422 424.15 78.7013 425.109 79.1809C427.985 79.1809 431.341 78.7013 433.739 79.6604C439.972 81.5786 431.821 95.4855 444.766 94.5265C447.164 94.0469 448.602 90.69 448.123 88.2922C448.123 86.8536 445.246 88.7718 443.807 88.2922C442.369 87.8127 439.972 87.3331 439.972 85.8945C439.972 83.9763 445.725 84.9354 443.807 81.5786C441.889 78.7013 441.41 75.8239 443.328 66.7124C443.328 66.2329 443.328 66.2329 443.328 65.7534C442.369 67.6716 440.931 69.5898 439.492 71.9875C437.095 69.5898 432.78 68.1511 431.821 65.2738C429.424 56.6419 458.191 36.0213 447.163 59.0396C451.479 55.2033 457.712 59.5192 459.15 58.0806C461.547 56.6419 453.876 56.6419 452.917 54.2442C449.561 46.0918 463.945 47.5305 464.904 46.0918C466.821 41.7759 451.958 36.5008 451.958 35.0621C452.438 32.1849 459.15 38.8986 460.109 36.5008C462.027 33.1439 455.794 29.3075 456.753 25.4711C458.191 21.6347 484.561 24.0324 485.041 25.4711C486 26.9097 473.054 50.4077 473.534 51.8464C473.534 52.3259 474.013 52.3259 474.493 52.3259C473.534 52.3259 473.054 52.3259 473.054 52.8055C474.013 54.2442 476.89 51.8464 478.328 52.8055C484.561 57.1215 470.177 59.0396 478.328 61.4374C481.205 62.3965 476.41 66.7125 475.931 69.5898C475.931 70.5489 474.972 84.4558 483.123 76.3035C484.561 74.8649 483.123 71.9875 483.602 70.0693C484.082 67.192 485.52 65.2738 486.479 62.8761C487.438 59.9988 482.164 63.3556 483.602 59.0396C486.479 50.8873 494.151 19.2369 499.425 16.3596C499.425 16.3596 502.781 28.8279 502.781 29.7871C501.822 32.6644 497.027 34.103 497.507 37.4599C497.986 39.3781 502.301 34.103 503.74 36.0213C505.658 38.419 501.822 44.6531 504.699 46.0918C508.055 48.4896 512.849 46.0918 515.726 43.6941C517.644 41.7759 511.411 40.3372 511.411 37.9394C511.411 34.5825 509.973 30.2667 511.891 27.3893C513.329 24.0325 518.124 23.5529 520.521 20.6756C521.48 19.7165 518.124 20.6756 517.165 20.1961C513.808 18.7574 508.055 17.7983 508.055 13.9619C507.575 11.0846 515.247 14.4415 516.685 12.0438C518.603 8.6869 514.288 4.85046 515.247 1.49362C515.726 -0.90412 519.082 6.28913 521.48 4.85044C525.315 3.41179 528.192 0.0549638 535.864 5.32999C541.617 9.16643 525.795 29.7871 524.357 32.6644C523.877 33.6235 527.233 31.2257 527.713 30.2667C530.589 27.8689 532.028 22.5938 535.384 21.6347C537.781 21.1551 536.343 25.9507 535.864 28.3484C534.425 31.7053 528.672 35.0621 530.59 38.419C532.507 41.2963 537.302 32.6644 540.179 34.5826C540.658 35.0622 541.138 35.5417 541.138 36.0213C542.097 35.5417 544.014 36.9804 544.973 36.5008C547.85 33.6235 540.658 31.2257 540.658 31.2257C540.179 29.3075 539.699 13.0029 541.617 10.1255C550.247 -0.904139 556.001 20.1961 556.48 20.1961C587.645 21.6347 540.658 1.49363 571.344 11.0846C587.166 15.8801 575.659 16.3596 573.262 22.5939C572.782 23.5529 575.659 23.0734 576.618 22.5939C579.495 21.6347 581.892 19.237 584.768 18.7575C585.727 18.7575 584.769 20.6756 585.248 21.1552C586.686 22.1143 588.604 22.1143 590.043 22.5939C590.522 23.0734 591.002 24.0325 591.961 24.512C594.358 26.4302 598.194 27.8689 600.111 30.7462C600.591 31.7053 598.194 31.7053 597.235 32.6644C594.837 34.1031 591.481 34.5826 590.043 36.9804C587.166 40.8168 589.563 47.5305 585.728 49.4487C575.179 54.7237 562.234 47.5305 553.604 57.1215C552.165 58.0806 556.481 55.6829 558.398 55.6829C560.796 55.6829 562.714 56.1624 565.111 56.642C565.59 57.1215 566.07 57.6011 566.549 57.6011C570.385 58.0806 575.659 55.2033 578.056 58.5601C579.974 60.9579 572.303 64.3148 573.741 67.1921C575.179 69.5898 577.097 60.4784 579.974 60.9579C583.33 61.917 582.371 69.5898 580.933 74.3853C581.413 73.4262 581.892 72.9467 582.371 72.4671C585.728 71.0284 590.522 73.4262 594.358 71.9875C595.317 71.508 591.481 70.0693 591.481 68.6307C591.002 65.2738 591.481 62.3965 592.44 59.5192C592.92 58.5601 591.96 62.3965 593.399 62.3965C597.235 63.3555 601.07 62.3965 604.906 61.917C605.386 61.917 605.865 61.917 606.344 61.917ZM487.918 13.962C488.398 17.7984 481.685 18.7575 479.288 21.6347C460.109 2.93234 486 2.93235 487.918 13.962ZM415.04 51.3669C416.958 51.3669 417.917 54.7238 419.355 53.7647C421.273 52.326 415.999 47.051 417.917 47.5305C418.876 48.0101 418.876 50.4078 420.314 50.4078C421.273 49.9282 419.355 47.5306 420.314 47.051C424.629 45.1329 422.712 57.1216 427.027 50.8874C427.986 49.9282 424.629 48.0102 425.588 47.051C428.465 43.2146 433.26 41.776 437.575 38.8987C437.575 39.3782 437.095 39.3782 437.095 39.3782C437.095 39.8578 439.013 39.8578 439.013 40.3373C438.534 42.2556 436.616 44.1737 435.657 46.0919C431.821 56.642 426.547 60.958 415.04 62.8762C415.999 59.9989 419.355 56.642 417.917 53.7647C417.437 53.2852 416.479 52.8056 415.52 52.8056C415.52 52.326 414.561 51.3669 415.04 51.3669ZM411.684 53.2851C410.725 53.2851 410.246 53.2851 409.766 53.2851C408.807 52.8056 409.766 53.2851 411.684 53.2851ZM382.917 87.3332C383.875 85.415 386.752 84.4559 389.15 83.4969C389.629 83.0174 391.067 83.4969 390.588 83.9765C389.15 87.8127 386.752 91.1696 384.834 94.5265C384.355 92.1287 381.958 89.731 382.917 87.3332ZM373.807 99.322L374.286 100.281C374.286 100.761 373.807 101.24 373.807 101.72C373.807 100.761 373.327 100.281 373.807 99.322ZM348.395 108.433C352.231 97.8833 390.588 100.281 357.505 115.627C355.108 112.749 347.437 111.79 348.395 108.433ZM281.751 186.6C282.71 187.559 279.833 188.519 280.312 189.957C281.271 195.232 293.737 194.753 276.477 201.946C274.559 202.425 272.641 200.028 270.244 199.069C282.709 188.998 275.518 187.559 275.518 190.437C275.997 196.191 269.764 192.355 266.887 194.273C264.49 195.232 262.572 203.385 262.093 200.507C260.654 192.355 273.12 178.448 281.751 186.6ZM243.394 230.239C244.353 227.362 242.435 222.087 245.312 221.608C263.052 218.251 247.229 235.035 241.476 236.474C241.476 235.994 240.517 235.994 240.517 235.514C241.476 233.596 242.914 232.158 243.394 230.239ZM124.967 504.063C127.365 504.542 125.926 507.899 126.406 510.297C125.926 510.777 124.967 511.256 124.488 511.256C122.57 511.736 120.173 511.736 118.255 512.215C98.1177 515.092 124.488 503.583 124.967 504.063ZM35.7879 593.739C37.7057 592.78 40.103 593.739 42.5003 594.218C42.5003 593.739 42.5004 593.259 42.9799 593.259C42.9799 592.78 43.4595 593.739 43.4595 594.218C42.98 594.698 42.5006 594.698 42.0212 595.178L42.5006 594.698C40.5828 595.657 38.665 598.055 36.7471 598.055C35.3088 598.055 34.829 594.698 35.7879 593.739ZM4.6231 777.886C5.10265 777.407 5.10224 777.407 5.58169 776.927C6.54058 781.723 8.45878 786.998 6.0616 791.793C0.787596 801.384 3.66421 783.641 4.6231 777.886ZM12.2944 742.4V741.92V741.441C13.2534 742.4 14.6917 742.879 14.6917 743.838C17.5684 764.459 7.02042 749.593 11.3355 742.879C11.3355 742.879 11.3355 743.359 10.8559 743.838C11.3355 743.359 12.2944 742.879 12.2944 742.4ZM196.407 438.364C194.489 438.844 193.051 439.324 191.612 439.324C188.256 438.844 192.571 438.844 196.407 438.364ZM477.849 51.8465C476.891 52.326 475.452 52.3259 474.493 52.3259C475.931 52.3259 478.808 51.3669 477.849 51.8465Z" fill="#171717"/>
<path d="M397.3 159.745L396.821 159.745M402.095 161.184C402.574 161.184 402.574 161.184 402.574 161.664M480.247 243.187H479.767M5.10208 776.448C7.01997 777.407 8.93783 778.366 9.89672 779.805C11.3351 782.202 8.93779 788.437 12.294 788.437C18.527 788.916 16.1298 774.05 22.3627 772.132C26.1984 771.173 31.9518 772.132 33.3902 775.968C34.3491 779.325 26.1984 780.284 25.7188 784.121C25.7188 788.437 26.6779 788.437 28.5957 786.039C31.4725 788.916 44.8972 782.682 42.9795 786.998C41.541 790.355 35.7875 788.916 32.9107 790.834C30.5135 791.793 28.1162 793.232 27.1572 795.63C26.6778 797.068 31.9518 796.109 30.9929 797.068C29.0751 799.466 21.8832 798.507 22.3627 801.864C23.3217 804.262 23.801 806.659 24.7599 809.057C23.801 808.098 22.8422 807.139 21.8833 808.098C19.4859 809.057 19.0064 815.291 17.0886 813.853C13.253 812.414 16.1297 804.262 12.294 803.303C8.93779 802.343 12.7735 809.537 12.294 812.414C11.3351 815.771 7.97893 817.689 7.97893 820.566C7.49938 823.923 13.253 836.392 16.6092 838.31C18.527 839.269 21.4037 838.31 22.8421 839.748C25.7189 841.667 29.0752 850.298 34.8287 852.696C37.7054 854.135 40.5822 856.053 43.4589 855.574C45.8562 855.094 45.3768 850.778 47.2946 850.299C49.2125 849.819 52.5687 851.737 52.0891 853.655C50.6507 857.012 34.8286 862.287 42.9795 866.124C46.8151 867.562 50.6509 869.001 54.4865 868.521C57.3633 868.521 60.24 862.287 61.6784 864.685C62.6373 867.562 54.4865 869.481 56.4043 871.878C58.3221 874.276 62.1578 869.001 65.514 869.001C72.2264 869.001 70.788 873.317 75.5826 870.44C77.021 869.96 77.5005 868.042 78.9389 867.562C80.8567 866.603 84.2129 869.001 86.1308 867.562C88.528 865.644 87.0897 859.41 90.446 858.451C93.8022 857.492 94.2816 865.644 97.1584 864.685C100.994 864.206 100.514 857.971 103.391 855.574C104.35 854.614 105.789 857.492 106.748 856.533C107.227 856.053 119.693 841.187 122.09 837.83C122.57 836.871 120.652 835.912 121.131 834.953C123.529 824.882 127.364 850.298 130.241 830.637C130.72 828.719 124.488 828.239 125.926 826.321C128.323 823.923 134.556 826.321 136.953 823.444C138.392 822.005 133.118 820.087 133.597 818.169C135.036 813.373 147.981 812.414 147.502 810.975C146.063 807.619 139.83 805.7 141.269 802.343C142.707 799.946 147.022 805.221 149.419 806.659C151.337 808.098 148.94 812.894 151.337 812.894C171.475 812.894 156.132 807.619 164.283 802.343C165.721 801.384 163.324 807.619 165.241 807.619C169.077 807.619 164.762 799.466 168.118 793.232C169.077 792.273 170.036 795.15 170.995 795.15C171.954 795.15 171.954 793.712 171.954 793.232C174.831 786.518 171.954 791.793 168.118 781.723C167.159 779.325 170.036 775.009 169.077 773.091C167.639 769.734 162.844 767.336 163.324 763.5C163.803 761.102 168.598 765.418 170.036 767.816C170.995 770.214 169.557 773.57 170.036 776.448C170.036 776.927 170.515 777.407 170.995 777.407C182.981 769.254 162.365 754.388 174.351 754.388C177.707 754.388 173.392 760.623 173.872 763.5C174.831 768.295 176.269 772.611 177.228 777.407C177.228 777.886 177.707 778.366 177.707 779.325C176.749 778.366 175.79 785.559 178.667 789.875C178.667 789.875 181.543 786.998 181.543 789.875C181.543 791.793 178.666 794.671 180.105 796.109C195.927 810.975 190.653 787.477 200.721 803.303C202.16 805.221 205.037 809.057 203.119 810.496C202.639 810.975 202.64 810.975 202.16 810.975C203.598 815.771 205.516 820.566 209.831 814.332C220.379 799.466 206.955 780.284 209.831 771.652C210.79 768.295 215.585 767.816 217.023 764.938C217.982 763.02 217.023 760.623 216.064 758.704C216.064 757.266 213.667 756.786 214.146 755.827C215.105 752.47 230.448 751.511 234.763 740.481L234.284 726.574C239.558 699.24 227.092 704.515 224.694 683.894C224.215 679.099 233.804 681.497 237.64 678.14L242.914 658.958C240.996 646.969 222.777 647.928 219.9 636.898C217.503 626.828 225.174 613.4 224.215 602.85C223.256 595.657 215.585 589.423 215.105 582.23C214.626 579.352 217.023 575.995 217.023 573.118C216.544 569.761 214.626 566.884 215.105 563.527C215.105 560.65 218.462 558.732 218.462 555.854C218.462 497.829 211.27 598.534 211.27 540.509C211.27 535.234 217.982 531.877 218.462 526.602C218.941 524.684 216.064 522.765 216.544 520.367C217.982 512.695 228.53 496.39 234.763 492.554C254.421 480.085 267.366 502.624 270.723 480.085C274.079 456.587 253.942 461.383 256.818 452.751C261.133 439.324 267.846 425.896 272.161 412.948C272.64 411.03 275.038 410.55 275.517 408.632L274.079 390.889C274.079 390.409 276.476 376.023 276.476 376.023L271.681 357.32C273.599 353.004 281.271 357.32 285.106 355.402L295.654 346.291C297.093 341.975 290.86 338.138 291.819 333.822C294.696 325.19 310.518 306.488 313.394 298.336C318.668 285.388 306.203 284.429 304.285 273.878C302.846 265.247 308.12 270.522 310.997 267.165C314.833 262.369 314.833 255.656 315.792 250.381C316.271 246.544 325.381 229.76 328.258 229.76L343.6 236.474C353.19 232.637 341.203 205.303 344.08 201.466C350.792 192.834 383.875 209.139 388.19 206.262C404.012 196.191 387.231 197.15 386.752 192.834C385.313 187.08 393.464 182.764 393.464 177.009C393.464 173.652 392.505 170.296 391.067 167.418C389.629 165.021 383.395 163.582 384.834 161.184C386.752 157.827 392.026 160.225 395.862 159.266H396.82C396.341 159.266 395.862 158.786 395.382 158.307C394.903 157.348 397.3 155.909 398.738 155.909C401.615 155.909 404.012 159.266 406.889 158.786C406.889 158.786 398.259 130.013 417.437 141.043C423.191 144.4 434.218 159.266 437.574 165.02C439.013 167.418 438.054 171.255 440.451 173.173C442.369 174.612 445.725 172.214 448.123 172.214C456.273 170.775 463.945 177.009 469.698 166.939C471.137 165.02 469.698 161.184 471.616 159.266C473.054 157.348 490.794 163.582 492.233 164.541C493.192 165.021 499.425 170.775 499.425 170.296C499.904 168.377 501.822 167.418 502.301 165.5C504.219 157.348 497.986 155.429 504.699 148.716C510.452 143.441 514.767 154.95 512.37 138.166C511.891 134.329 508.535 131.452 507.096 127.616C506.617 124.738 506.137 122.34 506.137 119.463C506.137 118.025 507.096 117.065 507.096 115.627C506.617 112.27 503.74 99.8016 505.178 95.9652C505.178 95.4856 510.452 85.415 510.932 84.9355C511.411 83.0173 510.452 80.6196 511.411 79.1809C519.562 70.0694 516.685 80.14 523.877 78.2218C532.028 75.824 530.11 64.7944 539.699 62.8762V61.917C539.699 62.3966 540.179 62.3967 540.179 62.8762C540.658 62.3967 541.138 62.3966 541.617 62.3966L542.097 64.7943C554.563 78.2218 569.426 71.9876 579.015 88.7719C585.248 99.322 563.672 111.311 581.892 118.504C588.604 120.902 582.851 100.281 582.851 99.8016C585.248 94.047 603.468 83.0173 594.358 75.3445C589.563 71.0285 604.426 78.7014 610.18 76.7831C615.933 74.8649 609.221 65.7535 606.344 61.917C605.865 61.917 605.386 61.917 604.906 61.917C601.07 62.3965 597.235 63.3555 593.399 62.3965C591.96 62.3965 592.92 58.5601 592.44 59.5192C591.481 62.3965 591.002 65.2738 591.481 68.6307C591.481 70.0693 595.317 71.508 594.358 71.9875C590.522 73.4262 585.728 71.0284 582.371 72.4671C581.892 72.9467 581.413 73.4262 580.933 74.3853C582.371 69.5898 583.33 61.917 579.974 60.9579C577.097 60.4784 575.179 69.5898 573.741 67.1921C572.303 64.3148 579.974 60.9579 578.056 58.5601C575.659 55.2033 570.385 58.0806 566.549 57.6011C566.07 57.6011 565.59 57.1215 565.111 56.642C562.714 56.1624 560.796 55.6829 558.398 55.6829C556.481 55.6829 552.165 58.0806 553.604 57.1215C562.234 47.5305 575.179 54.7237 585.728 49.4487C589.563 47.5305 587.166 40.8168 590.043 36.9804C591.481 34.5826 594.837 34.1031 597.235 32.6644C598.194 31.7053 600.591 31.7053 600.111 30.7462C598.194 27.8689 594.358 26.4302 591.961 24.512C591.002 24.0325 590.522 23.0734 590.043 22.5939C588.604 22.1143 586.686 22.1143 585.248 21.1552C584.769 20.6756 585.727 18.7575 584.768 18.7575C581.892 19.237 579.495 21.6347 576.618 22.5939C575.659 23.0734 572.782 23.5529 573.262 22.5939C575.659 16.3596 587.166 15.8801 571.344 11.0846C540.658 1.49363 587.645 21.6347 556.48 20.1961C556.001 20.1961 550.247 -0.904139 541.617 10.1255C539.699 13.0029 540.179 29.3075 540.658 31.2257C540.658 31.2257 547.85 33.6235 544.973 36.5008C544.014 36.9804 542.097 35.5417 541.138 36.0213C541.138 35.5417 540.658 35.0622 540.179 34.5826C537.302 32.6644 532.507 41.2963 530.59 38.419C528.672 35.0621 534.425 31.7053 535.864 28.3484C536.343 25.9507 537.781 21.1551 535.384 21.6347C532.028 22.5938 530.589 27.8689 527.713 30.2667C527.233 31.2257 523.877 33.6235 524.357 32.6644C525.795 29.7871 541.617 9.16643 535.864 5.32999C528.192 0.0549638 525.315 3.41179 521.48 4.85044C519.082 6.28913 515.726 -0.90412 515.247 1.49362C514.288 4.85046 518.603 8.6869 516.685 12.0438C515.247 14.4415 507.575 11.0846 508.055 13.9619C508.055 17.7983 513.808 18.7574 517.165 20.1961C518.124 20.6756 521.48 19.7165 520.521 20.6756C518.124 23.5529 513.329 24.0325 511.891 27.3893C509.973 30.2667 511.411 34.5825 511.411 37.9394C511.411 40.3372 517.644 41.7759 515.726 43.6941C512.849 46.0918 508.055 48.4896 504.699 46.0918C501.822 44.6531 505.658 38.419 503.74 36.0213C502.301 34.103 497.986 39.3781 497.507 37.4599C497.027 34.103 501.822 32.6644 502.781 29.7871C502.781 28.8279 499.425 16.3596 499.425 16.3596C494.151 19.2369 486.479 50.8873 483.602 59.0396C482.164 63.3556 487.438 59.9988 486.479 62.8761C485.52 65.2738 484.082 67.192 483.602 70.0693C483.123 71.9875 484.561 74.8649 483.123 76.3035C474.972 84.4558 475.931 70.5489 475.931 69.5898C476.41 66.7125 481.205 62.3965 478.328 61.4374C470.177 59.0396 484.561 57.1215 478.328 52.8055C476.89 51.8464 474.013 54.2442 473.054 52.8055C473.054 52.3259 473.534 52.3259 474.493 52.3259M5.10208 776.448C5.10208 776.448 5.10214 776.927 5.58169 776.927M5.10208 776.448C5.10208 776.448 4.62263 776.927 4.62263 777.407C5.10208 776.927 5.10214 776.927 5.58169 776.927M5.10208 776.448C3.66374 775.489 2.22555 774.529 2.22555 773.091C2.22555 770.693 7.9791 775.009 9.89688 773.57C12.7737 771.173 11.8145 764.938 15.1708 763.5C17.5681 762.061 19.0065 767.336 21.4038 767.816C22.3627 768.295 20.9243 765.418 21.8834 764.938C22.8423 763.979 24.2806 765.418 25.2395 764.938C27.1573 764.459 20.4451 764.459 20.9245 762.541C20.9245 762.061 40.5823 753.429 39.1439 753.429C23.8011 752.47 33.3903 765.418 18.5271 751.991C18.0476 751.511 20.9245 751.991 21.404 751.032C22.3628 750.072 21.4039 747.675 22.8423 747.195C24.7601 745.756 27.1574 747.675 29.0753 746.236C30.0342 745.756 28.5957 744.318 28.5957 743.359C29.5546 741.44 30.5136 740.002 31.4725 739.043C33.8699 737.604 39.1438 739.043 39.6233 736.645C40.1029 733.768 33.3903 734.247 33.3903 731.849C32.9108 730.89 33.8698 729.452 34.8287 728.013C33.8698 728.013 32.4315 725.615 31.4725 726.574C29.0753 728.013 27.6368 730.411 26.1984 732.329C24.2806 736.165 25.2395 740.961 22.3627 743.838C20.9244 745.277 21.4038 740.002 20.9244 738.563C18.0476 733.288 15.6504 734.727 17.5682 729.931C19.486 726.095 27.1574 717.463 22.8423 718.422C18.0477 719.861 14.6915 740.961 8.93798 730.411C7.49954 727.054 6.06118 723.218 5.10224 719.381C4.62269 715.545 11.8146 719.381 20.4449 716.504C22.3627 716.024 23.3216 714.106 23.801 711.708C20.4449 715.065 14.2121 707.872 14.2121 705.954C14.2121 701.638 20.9244 700.679 24.7601 698.76C23.8012 693.485 19.4859 698.281 15.6503 702.597M5.58169 776.927C5.10224 777.407 5.10265 777.407 4.6231 777.886C3.66421 783.641 0.787596 801.384 6.0616 791.793C8.45878 786.998 6.54058 781.723 5.58169 776.927ZM15.6503 702.597C15.6503 702.597 15.1708 702.597 15.1708 702.117C14.6913 701.638 14.2119 700.679 13.253 699.72C14.6914 701.158 15.1708 703.076 15.6503 702.597ZM15.6503 702.597C13.253 704.995 11.3351 706.913 9.89672 707.392C7.49939 707.392 8.45832 702.597 7.49932 700.679C7.01978 699.72 -1.61029 691.088 0.787045 690.608C4.14322 690.608 7.02 693.485 9.89672 695.883C9.89672 695.404 9.41718 694.444 9.89672 693.485C10.8557 690.128 16.6091 690.129 19.4859 687.731C19.9654 687.251 19.0063 685.333 18.0475 685.813C14.2118 686.292 7.97891 691.088 4.62263 689.169C0.307467 686.772 3.6637 675.742 6.06098 674.303C9.4172 671.906 13.253 679.099 17.5681 679.099C18.0476 679.578 27.6367 668.069 38.1848 673.344C41.541 674.783 42.0205 679.578 45.3767 681.017C48.7329 682.456 42.4999 673.824 53.5275 670.946C67.4318 667.11 53.0479 691.567 67.9112 690.608C77.021 689.649 64.5551 681.976 65.0346 675.742C65.5141 669.028 89.9664 684.853 86.6102 668.069C86.1307 664.712 79.8978 670.946 77.0211 669.987C75.1032 669.508 74.6238 666.631 74.6238 664.712C74.6238 659.437 88.0487 654.162 83.2541 652.244C71.2676 647.449 75.1032 669.508 74.1444 671.906C74.1444 672.385 68.3908 673.824 63.5962 674.303C62.6373 674.783 63.1167 672.865 62.6373 672.385C59.2811 670.467 55.4453 669.508 52.0891 667.59C52.0891 667.59 52.0892 667.59 51.6097 667.11C50.1713 670.467 48.7328 672.865 47.7739 673.824C47.2944 674.303 32.4313 667.59 28.5955 667.59C27.1571 667.11 28.116 669.987 27.1572 670.467C21.8832 672.865 15.6501 673.824 10.376 672.385C9.41712 672.385 2.22535 664.233 3.18429 662.794C5.58162 659.437 9.89659 657.999 13.2529 657.039C17.0885 656.08 24.2803 660.396 24.2803 656.56C24.7599 653.203 17.0885 655.601 13.2529 656.08C10.8555 656.08 8.93771 659.437 6.54043 658.478C-3.52824 654.642 8.45834 649.367 11.3351 649.367C16.1297 649.846 24.2805 655.601 30.034 651.764C35.7875 647.448 13.2528 653.203 10.376 646.489C9.41712 643.612 21.4037 644.092 19.0064 642.653C16.1297 641.214 11.8143 643.132 9.41712 640.735C1.74578 634.5 13.2529 622.032 20.4447 621.553C25.7188 621.553 32.4312 622.512 35.308 626.828C36.7463 628.746 32.4312 632.103 33.8696 634.021C35.308 635.939 34.3492 628.266 36.2669 627.787C38.6642 627.307 39.6231 632.103 42.0204 632.582C43.9382 632.582 38.1848 629.226 39.1437 628.266C41.541 625.389 53.048 635.46 61.6783 627.307C63.1166 625.869 59.281 624.91 57.3631 624.91C40.582 623.95 65.514 628.746 51.6097 629.705C49.2124 630.185 34.349 622.991 27.6366 622.032C25.2394 622.032 23.3215 620.594 20.9242 620.594C18.0475 620.594 12.7735 624.91 12.294 622.032C11.8144 618.675 19.4858 618.675 20.4447 615.318C21.4036 611.003 11.8144 609.084 11.8144 604.289C11.8144 602.371 16.609 604.289 17.5679 605.727C19.0063 608.125 19.0063 613.88 21.8831 613.4C24.7598 612.921 18.527 605.248 21.4036 604.768C25.2394 604.289 27.1571 611.962 30.9928 611.962C33.8696 611.962 32.9106 602.85 34.8285 604.768C37.2259 606.687 33.8696 611.002 33.8696 614.359C33.8696 614.839 32.9106 616.278 33.39 616.278C36.2667 615.319 34.8285 609.084 37.7052 609.084C39.1436 609.084 38.1847 612.441 39.623 613.4C42.4997 614.839 47.2943 617.716 48.7327 614.839C49.6916 612.441 42.4997 613.4 41.0613 611.482C38.6641 608.605 37.7052 605.248 37.7052 601.891C37.2257 597.575 44.4176 594.218 48.7327 595.177C50.6506 595.657 49.6917 599.493 50.6506 601.412C52.089 604.289 54.4862 606.207 55.4451 609.084C55.4451 610.043 53.0479 611.962 54.0068 611.962C55.4452 611.962 55.9246 610.043 55.9246 609.084C54.0067 599.493 43.4587 593.259 60.2398 590.382C65.9933 589.423 66.9522 597.575 66.9522 605.248C67.4317 604.289 67.911 602.85 68.87 602.371C71.7467 599.973 79.8976 605.248 78.9387 601.891C77.9797 598.055 71.2674 601.412 67.9111 599.014C65.5138 597.096 66.4728 592.78 64.555 590.382C62.1577 587.025 49.2122 582.709 47.2943 581.271C46.8148 580.791 48.7327 579.352 50.1712 579.352C52.089 578.873 54.4863 578.873 56.4042 579.832C57.3631 580.311 56.8837 582.709 57.8425 582.709C59.281 583.189 65.0344 573.118 71.7468 578.393C73.6647 579.832 70.7878 584.627 73.1852 585.586C75.103 586.545 72.2262 580.311 74.1441 579.352C77.5003 577.434 84.6921 587.984 84.6921 588.464C87.5689 588.943 93.3225 586.545 91.8841 584.148C90.4458 581.27 84.6922 586.066 82.2949 584.148C78.9387 581.27 85.6512 575.995 90.9252 574.077C87.0895 575.516 83.7333 576.475 80.3771 576.475C51.6096 576.954 77.0208 573.598 76.0619 567.843C75.5823 564.007 69.3495 564.486 66.9522 561.129C63.5959 557.293 65.0343 553.936 77.9797 555.375C80.8564 555.854 80.8566 561.129 83.7334 562.088C85.6512 562.568 87.0894 559.211 89.0073 559.211C91.884 558.732 94.2813 558.732 97.1581 559.211C96.6785 558.732 96.1992 557.772 95.7197 557.293C95.2402 554.416 99.076 551.538 101.953 551.059C103.391 550.579 101.953 553.936 102.912 555.375C104.35 557.293 107.706 557.293 108.665 559.691C109.624 561.609 106.747 564.486 108.665 565.925C111.062 568.323 117.295 572.638 119.213 569.282C120.652 565.925 111.542 564.486 111.062 560.65C111.062 558.252 116.336 560.17 118.254 558.732C119.213 557.773 114.898 559.691 113.939 558.732C113.46 558.252 116.816 556.334 115.857 556.813C113.46 557.293 111.542 560.65 109.624 559.691C106.268 557.773 105.309 553.456 104.35 550.1C103.391 548.661 106.747 551.538 108.186 552.018C109.624 552.977 103.391 547.222 108.186 548.181C108.665 548.181 127.844 558.252 125.926 545.304C124.008 529.479 110.583 559.211 113.46 538.59C113.939 534.274 125.446 526.602 128.802 528.52C131.679 529.959 128.323 536.193 130.72 539.07C131.679 540.509 133.118 536.672 134.556 535.713C136.953 534.754 143.666 534.754 141.748 532.836C140.31 530.918 133.597 537.631 134.077 534.754C134.077 531.397 139.351 530.438 141.748 527.561C144.625 524.683 144.625 518.929 148.46 518.449C151.337 517.49 149.899 523.245 151.337 525.643C152.296 527.561 155.652 528.52 155.652 530.918C155.652 533.795 151.337 535.234 151.816 538.111C152.296 540.029 154.693 535.713 156.611 536.193C159.488 536.672 162.844 543.865 164.282 541.468C165.721 537.631 158.529 534.754 159.008 530.918C159.008 527.081 178.666 531.877 179.146 531.877C182.502 529.479 182.981 524.204 182.502 520.367C182.022 518.449 176.269 522.286 176.748 520.367C178.187 514.133 197.845 513.174 196.886 508.379C196.406 504.542 184.899 504.542 187.296 501.185C189.214 497.829 197.845 498.788 198.324 494.951C199.762 475.769 182.502 499.267 178.666 502.624C176.748 504.063 170.995 505.501 172.433 507.899C174.351 511.256 180.105 509.338 183.461 510.777C183.94 510.777 182.502 511.256 182.022 511.736C179.625 513.174 176.748 514.133 174.351 516.051C171.954 517.97 159.967 528.52 156.132 527.561C153.734 527.081 154.693 523.245 153.734 521.327C152.775 519.408 149.419 517.97 150.378 516.051C151.817 512.695 156.611 512.215 159.488 509.817C159.968 509.338 157.57 511.256 156.611 510.777C155.652 510.777 158.049 508.379 157.57 508.858C154.214 510.297 148.94 517.97 144.145 516.051C136.953 513.174 147.501 506.94 152.775 503.583C155.652 502.145 159.488 502.145 161.406 499.267C162.844 497.829 157.091 500.706 155.173 500.226C154.214 500.226 154.693 499.267 154.693 498.308C155.173 494.951 154.693 491.594 156.611 488.717C157.57 487.279 160.447 489.676 161.885 488.717C162.844 488.717 159.967 488.717 159.967 487.758C159.967 486.319 160.447 484.881 160.926 483.442C162.364 482.003 165.721 485.36 166.68 483.442C167.639 482.003 166.2 479.126 167.639 477.208C169.077 475.29 173.392 475.769 174.351 472.892C174.831 470.974 168.118 468.576 170.036 468.096C173.392 467.137 176.269 472.892 179.625 471.933C182.022 471.453 175.789 469.056 174.351 466.658C171.954 463.301 179.146 459.465 182.981 457.067C186.817 454.669 188.255 465.699 193.05 467.617C195.927 468.576 199.762 467.617 201.68 465.219C202.639 463.78 194.968 465.219 195.927 463.301C197.365 460.424 203.598 460.903 205.036 458.026C207.434 451.312 190.173 469.056 194.488 450.833C194.968 447.955 195.927 446.037 196.406 445.078C194.488 446.517 192.57 447.955 190.173 448.914C182.981 452.271 203.598 439.803 202.16 437.885C201.68 436.926 200.721 436.926 199.283 437.405V436.926C199.283 435.967 195.927 436.926 196.406 435.967C197.844 432.61 212.708 433.569 215.105 432.61C216.064 431.651 214.146 429.253 215.105 428.294C222.297 421.58 231.886 425.896 234.283 411.989C234.283 409.591 230.448 414.387 228.53 415.346C226.133 415.825 223.735 415.346 221.338 415.346C219.42 415.825 216.064 418.703 216.064 416.785C217.023 410.55 234.283 410.55 229.489 402.398C229.009 400.959 224.694 401.919 221.338 401.919C221.818 402.878 222.776 403.837 223.735 405.755C221.338 408.153 219.42 411.03 217.023 413.428C216.064 413.907 214.146 416.785 213.667 415.346C213.187 412.948 213.187 399.521 217.023 399.041C217.023 397.602 217.023 396.643 217.982 394.725C219.42 390.889 225.653 392.807 229.009 390.889C229.968 390.409 226.612 390.889 226.133 390.409C224.694 388.491 223.256 386.093 222.776 384.175C222.297 381.298 226.612 370.268 229.489 370.268C233.325 369.789 235.242 376.023 239.078 376.982C240.516 377.461 237.64 373.625 237.16 371.707C236.201 369.309 236.681 364.993 234.283 363.555C231.886 362.116 227.571 365.952 225.174 364.034C217.502 357.8 233.325 360.198 235.722 359.239C240.037 357.32 240.516 351.086 247.229 352.525C250.105 353.484 251.544 357.32 254.421 357.32C256.818 357.32 250.585 354.443 250.105 352.525C250.105 352.045 250.105 352.045 250.105 352.045C249.626 352.045 249.147 352.525 248.667 352.525C247.708 352.525 248.667 349.648 247.708 349.168C242.914 348.209 239.557 356.841 234.283 356.361C217.502 353.964 243.393 350.607 246.27 348.209C247.229 347.729 244.352 347.729 242.914 347.729C239.557 347.25 236.681 348.688 233.324 348.209C229.009 347.25 230.448 339.577 231.407 335.741C234.763 317.997 241.955 325.67 253.941 320.875C260.654 317.997 246.27 313.202 244.352 309.845C243.393 307.927 248.667 309.365 250.585 308.406C252.503 307.447 242.434 300.254 254.421 304.09C255.38 304.09 252.982 306.008 252.982 306.967C253.462 313.681 255.859 303.611 255.859 302.652C255.859 302.172 256.818 299.774 257.297 300.733C258.736 302.172 256.818 306.488 259.215 306.967C263.051 307.447 268.325 305.529 269.284 302.172C270.722 298.815 264.01 297.376 263.53 294.02C263.53 293.54 275.038 286.826 278.873 288.745C281.27 289.704 276.476 297.376 279.353 296.897C282.229 296.897 278.873 290.183 281.271 288.745C281.75 288.265 281.75 288.265 282.229 287.786C281.75 287.306 281.271 286.826 280.791 286.347C279.353 285.388 283.668 282.51 282.229 282.031C280.791 281.551 279.832 284.908 277.914 285.867C273.12 287.786 267.366 291.622 262.572 288.745C260.654 287.306 266.407 284.429 267.846 282.031C270.722 275.797 271.681 261.41 278.873 266.685C281.27 268.603 271.681 271.481 274.079 273.399C275.996 275.317 278.873 270.042 282.229 269.563C284.627 269.563 287.024 270.522 288.942 272.44C291.819 275.317 297.093 285.867 295.654 282.031C294.695 278.674 289.901 275.797 290.86 271.96C291.339 268.603 297.093 268.124 299.01 265.247C299.969 263.808 296.134 266.206 294.695 266.685C287.503 269.083 285.106 272.44 281.75 263.328C279.832 258.533 284.147 261.41 284.627 259.012C285.106 258.533 283.188 259.492 283.188 259.012C281.75 254.697 295.175 261.41 297.093 259.012C300.449 253.258 285.586 248.462 284.627 248.462C283.668 248.462 285.586 250.381 285.106 251.34C283.668 254.217 275.517 264.287 272.64 262.849C269.284 261.41 268.805 256.135 270.243 252.778C271.202 249.901 275.997 251.819 277.914 249.901C279.353 248.462 273.599 251.819 272.64 250.381C270.722 247.503 278.873 245.585 281.271 247.503C282.229 247.983 280.312 250.381 280.791 249.901C288.462 242.228 300.928 247.024 299.969 236.474C299.969 235.035 297.093 237.912 295.654 236.953C294.695 236.473 296.134 234.555 295.175 234.076C294.695 233.596 294.695 235.994 294.216 235.994C292.298 236.953 290.86 236.473 289.421 236.473C286.544 236.953 282.709 239.351 281.75 236.953C275.517 224.485 294.216 233.117 294.695 233.117C297.572 230.719 295.175 225.444 296.613 222.087C297.093 220.648 298.052 225.444 298.531 227.362C299.011 227.842 300.449 226.882 300.449 227.362C300.449 230.239 298.531 233.117 299.49 235.514C299.49 236.473 310.038 251.819 312.435 248.942C318.189 242.228 294.216 221.128 301.408 217.771C303.805 216.332 308.6 220.169 312.435 223.526C311.956 222.087 311.956 220.648 310.997 219.689C308.599 217.771 301.408 218.73 302.367 215.373C302.846 211.537 309.079 212.016 312.915 211.537C333.532 208.18 316.271 218.251 329.216 224.485C338.326 228.801 318.668 209.619 327.299 209.619C329.696 209.619 331.134 212.496 333.052 212.496C335.929 212.016 340.244 212.016 339.764 209.619C336.888 189.478 324.901 209.619 320.107 208.659C319.148 208.18 322.024 207.221 321.545 206.262C321.545 205.303 320.107 203.864 319.148 204.344C317.709 204.823 317.709 207.7 315.791 207.7C312.915 208.18 308.12 208.659 306.682 205.782C305.723 203.864 306.202 201.466 307.161 199.548C304.764 200.028 301.887 200.507 300.449 201.946C298.052 204.344 300.449 210.578 297.572 212.496C295.654 213.935 297.572 206.741 295.654 205.303C293.257 203.864 290.38 204.344 287.983 204.823C286.065 205.303 287.024 209.139 285.586 210.578C284.147 212.016 282.229 213.455 280.791 214.894C278.873 216.812 277.435 218.73 275.996 220.648C275.996 219.689 275.996 219.21 275.996 218.73C277.435 215.373 280.312 212.016 280.791 208.66C281.271 206.741 278.873 204.344 279.832 202.425C282.229 200.028 287.024 200.987 289.421 198.589C299.49 188.998 273.599 191.875 287.504 177.009C297.572 165.5 295.654 187.08 293.257 197.63C294.216 195.712 295.654 194.273 297.093 193.793C298.052 193.314 299.011 196.671 299.49 195.712C300.928 193.314 298.528 170.295 306.682 181.325C310.997 187.08 312.435 191.396 312.435 193.793C314.353 192.834 315.792 191.875 317.23 191.875C319.148 191.875 320.107 195.712 322.025 195.712C325.86 196.191 330.175 195.232 333.532 193.314C338.326 190.437 323.463 194.273 322.504 188.039C322.504 186.121 324.901 183.723 327.299 183.723C327.299 183.723 327.778 183.723 328.258 183.723C327.778 183.243 327.299 183.243 327.299 182.284C327.299 179.407 333.052 180.366 335.449 178.448C335.929 177.968 333.532 177.968 333.052 177.489C329.696 175.091 328.258 169.816 329.216 165.5C329.696 161.664 339.285 165.02 340.244 161.184C341.203 158.307 338.806 155.429 337.847 152.552C337.847 155.909 337.367 157.827 336.888 158.307C333.532 158.307 330.175 155.429 327.299 157.348C322.504 159.266 321.545 165.5 318.668 169.816C316.271 168.377 311.956 168.377 311.956 165.98C312.915 162.143 319.148 161.664 320.107 157.827C321.066 155.909 314.833 160.225 314.353 158.307C313.394 155.429 318.668 153.032 318.189 149.675C318.189 147.757 311.477 150.154 312.915 149.195C319.627 145.838 330.655 148.716 325.86 142.482C323.942 140.563 316.751 141.522 318.668 140.084C321.066 138.645 324.901 142.961 327.778 141.522C330.655 139.604 329.217 133.37 332.093 132.411C336.888 130.972 337.847 140.084 338.326 147.757C338.326 144.879 339.285 142.482 340.244 140.084C342.641 136.247 343.6 149.675 346.957 151.593C350.313 153.511 354.628 151.593 357.984 150.154C358.464 150.154 343.6 144.879 344.559 141.522C345.518 138.166 348.874 133.85 352.23 134.329C355.587 134.329 355.107 140.563 357.505 142.961C359.902 145.359 363.258 144.879 366.135 147.277C367.573 148.716 369.012 154.95 369.971 153.032C373.806 141.522 345.518 144.4 356.066 121.861C357.984 118.024 366.135 113.229 369.971 116.106C373.327 118.025 369.012 140.563 369.012 141.522C369.971 142.482 371.409 140.084 371.888 138.645C372.368 135.768 369.97 131.931 371.888 129.534C373.327 127.136 379.56 130.972 380.039 128.095C380.039 125.218 373.327 125.697 372.368 122.82C371.409 120.422 376.204 99.8015 383.395 108.433C385.313 111.311 383.395 138.166 383.395 139.125C382.437 142.482 376.203 148.236 379.56 149.195C388.19 152.073 383.875 135.288 386.752 133.37C389.628 131.452 393.943 133.37 396.82 131.931C398.259 130.972 394.423 130.013 393.464 129.054C390.108 126.177 382.916 122.34 385.793 115.627C398.259 87.8127 385.793 119.463 400.176 109.872C404.012 107.474 400.177 100.281 403.053 96.9242C404.012 95.9651 405.45 97.4037 406.409 98.3629C407.368 99.3219 406.889 101.24 407.848 102.199C410.245 104.117 413.122 104.597 415.519 106.515C417.437 107.954 418.875 110.831 421.273 111.79C423.67 112.27 416.958 108.433 415.999 106.036C415.999 105.556 417.916 105.556 417.916 104.597C418.875 97.8833 417.437 87.8127 416.478 88.2923C414.081 88.2923 400.176 100.281 396.341 86.374C394.423 78.7013 408.327 75.3444 412.163 76.3036C415.519 76.7831 417.437 81.0991 420.793 82.0582C421.752 82.0582 420.314 79.1808 421.273 78.7013C422.232 77.7422 424.15 78.7013 425.109 79.1809C427.985 79.1809 431.341 78.7013 433.739 79.6604C439.972 81.5786 431.821 95.4855 444.766 94.5265C447.164 94.0469 448.602 90.69 448.123 88.2922C448.123 86.8536 445.246 88.7718 443.807 88.2922C442.369 87.8127 439.972 87.3331 439.972 85.8945C439.972 83.9763 445.725 84.9354 443.807 81.5786C441.889 78.7013 441.41 75.8239 443.328 66.7124C443.328 66.2329 443.328 66.2329 443.328 65.7534C442.369 67.6716 440.931 69.5898 439.492 71.9875C437.095 69.5898 432.78 68.1511 431.821 65.2738C429.424 56.6419 458.191 36.0213 447.163 59.0396C451.479 55.2033 457.712 59.5192 459.15 58.0806C461.547 56.6419 453.876 56.6419 452.917 54.2442C449.561 46.0918 463.945 47.5305 464.904 46.0918C466.821 41.7759 451.958 36.5008 451.958 35.0621C452.438 32.1849 459.15 38.8986 460.109 36.5008C462.027 33.1439 455.794 29.3075 456.753 25.4711C458.191 21.6347 484.561 24.0324 485.041 25.4711C486 26.9097 473.054 50.4077 473.534 51.8464C473.534 52.3259 474.013 52.3259 474.493 52.3259M474.493 52.3259C475.452 52.3259 476.891 52.326 477.849 51.8465C478.808 51.3669 475.931 52.3259 474.493 52.3259ZM399.218 160.225C398.739 160.225 398.739 160.225 398.259 160.225M400.177 160.705C399.697 160.705 399.698 160.704 399.698 160.225M400.656 160.705C400.656 160.705 400.656 160.705 401.136 160.705M487.918 13.962C488.398 17.7984 481.685 18.7575 479.288 21.6347C460.109 2.93234 486 2.93235 487.918 13.962ZM415.04 51.3669C416.958 51.3669 417.917 54.7238 419.355 53.7647C421.273 52.326 415.999 47.051 417.917 47.5305C418.876 48.0101 418.876 50.4078 420.314 50.4078C421.273 49.9282 419.355 47.5306 420.314 47.051C424.629 45.1329 422.712 57.1216 427.027 50.8874C427.986 49.9282 424.629 48.0102 425.588 47.051C428.465 43.2146 433.26 41.776 437.575 38.8987C437.575 39.3782 437.095 39.3782 437.095 39.3782C437.095 39.8578 439.013 39.8578 439.013 40.3373C438.534 42.2556 436.616 44.1737 435.657 46.0919C431.821 56.642 426.547 60.958 415.04 62.8762C415.999 59.9989 419.355 56.642 417.917 53.7647C417.437 53.2852 416.479 52.8056 415.52 52.8056C415.52 52.326 414.561 51.3669 415.04 51.3669ZM411.684 53.2851C410.725 53.2851 410.246 53.2851 409.766 53.2851C408.807 52.8056 409.766 53.2851 411.684 53.2851ZM382.917 87.3332C383.875 85.415 386.752 84.4559 389.15 83.4969C389.629 83.0174 391.067 83.4969 390.588 83.9765C389.15 87.8127 386.752 91.1696 384.834 94.5265C384.355 92.1287 381.958 89.731 382.917 87.3332ZM373.807 99.322L374.286 100.281C374.286 100.761 373.807 101.24 373.807 101.72C373.807 100.761 373.327 100.281 373.807 99.322ZM348.395 108.433C352.231 97.8833 390.588 100.281 357.505 115.627C355.108 112.749 347.437 111.79 348.395 108.433ZM281.751 186.6C282.71 187.559 279.833 188.519 280.312 189.957C281.271 195.232 293.737 194.753 276.477 201.946C274.559 202.425 272.641 200.028 270.244 199.069C282.709 188.998 275.518 187.559 275.518 190.437C275.997 196.191 269.764 192.355 266.887 194.273C264.49 195.232 262.572 203.385 262.093 200.507C260.654 192.355 273.12 178.448 281.751 186.6ZM243.394 230.239C244.353 227.362 242.435 222.087 245.312 221.608C263.052 218.251 247.229 235.035 241.476 236.474C241.476 235.994 240.517 235.994 240.517 235.514C241.476 233.596 242.914 232.158 243.394 230.239ZM124.967 504.063C127.365 504.542 125.926 507.899 126.406 510.297C125.926 510.777 124.967 511.256 124.488 511.256C122.57 511.736 120.173 511.736 118.255 512.215C98.1177 515.092 124.488 503.583 124.967 504.063ZM35.7879 593.739C37.7057 592.78 40.103 593.739 42.5003 594.218C42.5003 593.739 42.5004 593.259 42.9799 593.259C42.9799 592.78 43.4595 593.739 43.4595 594.218C42.98 594.698 42.5006 594.698 42.0212 595.178L42.5006 594.698C40.5828 595.657 38.665 598.055 36.7471 598.055C35.3088 598.055 34.829 594.698 35.7879 593.739ZM12.2944 742.4V741.92V741.441C13.2534 742.4 14.6917 742.879 14.6917 743.838C17.5684 764.459 7.02042 749.593 11.3355 742.879C11.3355 742.879 11.3355 743.359 10.8559 743.838C11.3355 743.359 12.2944 742.879 12.2944 742.4ZM196.407 438.364C194.489 438.844 193.051 439.324 191.612 439.324C188.256 438.844 192.571 438.844 196.407 438.364Z"/>
</svg>
