<svg width="402" height="350" viewBox="0 0 402 350" xmlns="http://www.w3.org/2000/svg">
<path d="M146.297 1.00732C146.297 1.00732 122.418 4.5681 112.912 9.79435C106.297 13.4312 106.127 16.9816 99.6545 20.8181C95.3393 23.2158 90.5514 21.2961 87.1952 24.1731C79.0445 31.3663 83.3629 35.8357 78.889 39.3507C71.5365 45.5028 57.2076 52.9189 44.5464 56.765C40.7306 57.9242 33.996 62.0303 30.1703 63.3153C26.7787 64.4545 22.5032 67.1495 22.5032 67.1495C22.5032 67.1495 18.0813 73.7524 17.2319 79.7709C16.3433 86.0672 14.8042 84.5116 14.3568 87.2798C13.5499 92.2718 16.4318 91.296 16.7528 92.552C16.3596 98.9111 21.1327 97.3733 21.2252 103.096C21.2355 103.736 20.2805 106.474 18.3501 105.493C16.6517 104.63 19.446 101.03 14.3568 93.0313C11.9258 89.2105 8.84258 92.1841 5.09219 86.6407C2.37435 86.4823 6.061 88.9899 3.81438 89.5165C3.85528 89.537 3.75508 89.6812 3.81438 89.6761C4.77333 97.3489 10.5227 111.082 11.4817 115.877C11.8416 118.755 11.1263 119.953 10.3635 122.587C9.60053 125.221 8.83894 129.298 7.00904 131.374C5.27858 133.338 1.75929 135.131 2.05729 137.605C2.69517 142.905 0.100042 141.878 0.939097 144.156C1.89809 147.033 6.49835 146.011 10.5232 149.428C14.8633 153.112 20.4722 155.946 21.0656 159.493C21.8563 164.219 21.1658 165.128 20.267 167.002C19.3683 168.875 17.4703 171.713 19.6279 174.351C20.9533 178.443 24.4194 177.704 25.3783 180.582C26.8167 182.979 24.8988 186.332 25.3783 188.73C25.8579 190.168 27.7741 189.688 28.2536 190.647C26.4718 197.845 30.0957 198.194 23.4616 205.026C22.0232 207.184 24.8035 206.887 25.2186 209.179C25.7068 211.873 28.041 214.456 29.212 216.049C32.6558 220.029 26.8152 221.32 28.2536 223.239C30.1714 226.116 34.4821 225.155 36.4 227.073C40.72 229.903 39.3792 233.105 41.192 236.819C44.3293 243.245 42.2409 246.07 40.8725 250.558C39.4324 255.282 38.5302 259.066 37.8376 262.061C37.6489 263.412 37.3007 264.008 36.8792 265.576C51.6216 268.051 34.9551 253.433 48.38 255.831C57.0103 256.79 49.8146 260.621 55.0887 264.458C62.76 270.692 68.9823 266.373 75.2152 270.209C77.1331 271.648 76.6523 274.043 77.6112 275.481C78.5701 275.961 79.0485 274.523 79.5279 274.523C80.9663 274.043 82.4029 273.084 82.8824 274.044C84.3207 275.483 82.8815 277.878 84.3199 279.316C84.3199 279.316 94.861 273.564 97.2583 275.003C110.204 281.237 91.9868 283.626 92.9456 289.861L103.967 296.571C105.406 298.489 108.276 310.951 115.468 308.074C117.386 307.115 116.905 303.761 118.343 302.322C120.74 300.404 125.53 301.365 126.969 298.488C127.448 297.529 116.904 286.985 119.781 286.506C126.973 285.546 135.113 292.736 139.428 294.174C141.346 294.654 143.74 293.695 145.658 293.695C147.576 293.695 149.969 294.654 151.887 293.695C152.846 293.216 152.366 291.299 152.846 290.34C153.325 289.86 154.283 289.86 154.283 290.34C160.037 301.849 156.203 294.65 149.97 300.405C148.053 301.844 154.761 302.322 156.679 303.76C158.118 305.199 157.637 307.594 159.075 309.032C160.034 309.992 161.471 310.47 162.43 310.47C176.334 309.032 160.508 308.076 168.659 304.719C169.618 304.239 169.617 306.156 170.576 306.636C172.494 308.075 177.763 309.511 180.16 309.991C183.037 310.95 187.347 309.51 189.744 311.429C190.224 311.908 194.536 323.411 195.015 323.89C196.933 325.329 200.765 323.889 202.683 325.808C204.6 328.205 203.161 332.676 205.079 335.074C205.318 335.434 205.725 335.553 206.197 335.553C207.14 335.553 208.328 335.074 209.391 335.074C209.923 335.074 210.469 335.194 210.829 335.553C211.189 335.913 211.308 336.452 211.308 336.991C211.308 338.069 210.829 339.268 210.829 340.346C210.829 340.885 210.949 341.424 211.308 341.784C218.979 348.018 225.202 323.409 229.997 326.766C232.873 328.684 232.871 333.155 235.268 335.553C235.388 335.673 235.652 335.613 235.907 335.553C236.162 335.493 236.406 335.354 236.706 335.233C237.305 334.994 237.903 334.834 238.143 335.074C238.623 336.033 236.705 337.95 237.664 338.429C240.061 338.909 242.455 336.511 244.373 337.47C247.729 338.909 244.852 348.014 244.852 348.973C244.852 351.371 249.164 347.536 251.561 347.056C253.479 346.577 255.393 350.412 257.311 349.453C257.431 349.333 257.878 348.379 258.589 346.897C259.3 345.414 260.297 343.442 261.464 341.465C262.048 340.476 262.708 339.378 263.381 338.429C264.054 337.48 264.713 336.674 265.458 335.873C266.203 335.071 267.053 334.341 267.854 333.796C268.654 333.251 269.411 332.857 270.25 332.678C272.168 332.198 274.242 334.115 276.16 334.115C278.078 333.636 279.034 330.76 280.952 331.24C284.787 331.719 287.179 336.991 291.015 336.991C293.892 336.991 296.285 334.117 297.724 331.719C298.203 330.76 295.328 330.761 295.328 329.802C296.766 323.088 299.64 329.802 301.557 328.843C301.917 328.723 302.131 328.396 302.356 328.044C302.805 327.34 303.185 326.392 303.634 325.808C303.746 325.661 303.813 325.572 303.953 325.488C304.094 325.404 304.253 325.329 304.432 325.329C306.23 324.849 308.504 324.52 311.141 324.37C313.119 324.258 315.209 324.253 317.371 324.37C317.691 324.385 318.008 324.508 318.329 324.53C320.194 324.658 322.125 324.86 323.92 325.169C324.964 325.35 325.977 325.562 326.955 325.808C327.911 326.047 328.809 326.303 329.67 326.606C330.254 326.813 330.9 327.009 331.427 327.246C331.645 327.345 331.861 327.46 332.066 327.565C332.84 327.953 333.54 328.379 334.143 328.843C334.862 329.563 335.122 330.741 335.421 331.879C335.571 332.448 335.653 333.005 335.9 333.476C336.147 333.948 336.539 334.355 337.018 334.595C339.895 336.513 343.246 336.511 346.602 337.47C350.917 338.909 352.19 339.228 356.505 339.707C357.393 339.921 358.183 340.106 358.981 340.266C360.739 341.145 362.574 340.666 364.013 341.145C366.41 341.145 367.206 340.026 369.604 340.506C370.293 340.851 371.566 342.055 372 342.423C367.376 331.43 367.28 341.147 363.534 332.997C361.616 331.079 364.812 329.324 364.332 326.926C362.894 322.13 357.943 316.225 356.985 310.95C356.916 310.618 356.995 310.151 357.144 309.512C357.597 307.593 359.023 304.378 360.978 300.405C362.281 297.756 363.743 294.782 365.45 291.618C373.984 275.8 386.27 255.5 389.091 250.719C397.721 243.525 399.952 252.805 401.39 235.541C401.39 231.705 394.203 224.358 393.723 223.878C392.525 221.48 394.362 220.742 396.279 220.363C397.237 220.174 398.176 220.011 398.835 219.884C399.494 219.757 399.833 219.605 399.474 219.245C391.802 213.491 378.71 202.635 374.395 193.523C373.916 192.325 373.876 191.147 373.916 189.849C373.937 189.2 373.962 188.453 373.916 187.772C373.87 187.09 373.837 186.414 373.597 185.695C373.638 184.239 368.326 178.186 368.326 178.186V178.026C368.169 178.031 368.002 178.022 367.847 178.026C364.49 170.474 373.565 155.357 369.444 146.553C369.423 146.512 369.464 146.434 369.444 146.393C369.119 145.795 368.78 145.339 368.326 144.796C367.888 144.237 367.328 143.678 366.728 143.198C362.893 140.321 358.105 138.885 353.79 138.405C353.31 138.165 352.831 138.565 352.352 139.044C352.322 139.075 352.383 139.174 352.352 139.204C352.203 139.353 352.023 139.405 351.873 139.523C351.782 139.602 351.645 139.627 351.554 139.683C351.36 139.773 351.109 139.94 350.915 139.842C337.011 134.567 367.206 109.17 370.562 105.813C370.802 105.573 371.221 105.273 371.52 104.854C371.67 104.645 371.743 104.288 371.84 104.055C371.937 103.823 372 103.656 372 103.416C371.73 98.471 370.723 93.5982 369.284 88.8778C368.805 87.3043 368.265 85.7985 367.687 84.2446C365.389 78.0718 362.3 72.0004 359.061 66.0315C359.041 65.9906 359.082 65.9124 359.061 65.872C352.533 53.8533 345.167 42.1537 340.852 29.9251C337.975 28.0069 340.853 22.7378 337.976 18.9014C329.346 6.43308 334.629 16.9873 321.204 11.2327C316.41 9.31445 319.771 3.08345 312.579 5.48119C311.14 5.96074 311.142 8.35638 309.704 9.31553C289.634 21.0975 231.362 21.3698 200.765 18.7416C199.809 19.6126 198.351 22.3679 197.251 23.6943C194.536 26.9695 192.459 26.4106 190.063 28.4872C189.584 29.286 188.795 29.945 187.188 30.4044C185.581 30.8635 183.075 31.2033 182.236 31.6825C182.636 28.647 180.419 28.9392 181.137 27.8209C181.856 26.7025 188.604 24.5327 190.721 23.0279C192.789 21.5587 196.153 18.6817 196.153 18.6817L194.017 17.3839C194.017 17.3839 190.547 19.788 189.113 20.8171C177.607 26.7333 174.735 30.407 163.068 27.2094C153.479 23.373 160.354 21.9403 151.887 12.1916C150.928 10.753 150.927 8.03742 152.686 6.75961C154.443 5.64126 163.707 10.7535 165.943 11.233C165.304 7.7977 161.052 4.31709 149.651 3.72409C147.441 3.60906 146.297 1.00732 146.297 1.00732ZM21.385 66.83C21.2863 66.7027 20.8703 66.9512 19.6279 67.6288C17.1431 68.9844 12.5449 71.4712 11.6413 72.262C10.7376 73.0528 10.1797 75.1183 7.80771 75.4573C5.43579 75.7962 4.19199 75.1377 3.17548 75.1377C2.15892 75.1377 1.57815 74.9783 1.57815 74.9783C1.61905 75.0192 1.57815 75.1377 1.57815 75.1377L0.459961 75.9366L0.938941 76.7354L1.09855 77.0549V77.8537L1.258 78.9721C1.258 78.9721 1.119 78.9772 1.09855 78.9721V79.1317C1.09855 79.1317 2.36505 80.5308 3.49454 81.2086C4.62399 81.8864 5.77755 83.2307 5.89054 82.327C6.00352 81.4232 6.21814 80.0903 7.00858 80.0903C7.79922 80.0903 8.83182 80.289 8.6059 79.6111C8.37993 78.9333 7.66696 79.077 7.3281 78.1732C6.98915 77.2695 6.90422 76.7821 7.80708 76.8951C8.71066 77.0081 7.7764 78.4928 9.24465 78.4928C10.713 78.4928 11.902 78.8123 12.9186 78.8123C13.9351 78.8123 15.6728 79.1865 14.9951 80.0904C14.3174 80.9942 14.6561 80.5311 14.9951 81.2088C15.0462 81.3105 15.1325 81.3362 15.1545 81.3684C15.1954 81.1424 15.3416 80.6357 15.7934 80.4098C16.697 79.9578 16.3865 80.8265 16.2726 79.1317C16.1596 77.4372 16.2623 76.8127 17.3906 75.4571C18.5201 74.1014 18.6686 73.9758 18.6686 71.9423C18.6686 69.9088 17.0678 69.9041 18.9881 69.2263C20.9082 68.5484 21.497 68.5792 21.3841 67.7884C21.3273 67.3932 21.4837 66.9571 21.385 66.83Z"/>
</svg>
