<svg width="196" height="322" viewBox="0 0 196 322" xmlns="http://www.w3.org/2000/svg">
<path d="M104.385 0.20778C97.036 0.38788 88.8929 2.75132 83.499 5.62863C82.5401 10.4241 70.5777 12.7922 73.4544 17.1081C75.3722 19.5058 81.1052 18.5356 82.064 21.4129C83.0229 23.8106 76.8061 20.9297 75.3677 22.8478C72.491 27.1637 72.9738 47.8657 73.9328 53.1408C73.9328 54.5795 76.3243 55.0492 76.3243 56.9673C75.8447 65.1196 72.5058 69.8643 69.1496 76.5781C67.7112 79.4554 61.4886 85.6672 64.8449 85.1876C68.201 84.2285 68.1849 77.0589 71.5412 76.0997C73.9385 75.6202 75.3699 80.3996 74.4111 82.3178C72.0137 85.6747 65.3289 84.2211 62.9316 88.0575C59.5754 93.8122 57.6794 100.638 53.8437 106.393C52.4054 108.791 49.5377 110.213 50.0172 112.611C50.0172 115.009 54.3198 115.953 55.2786 118.351C54.7827 117.943 52.6209 115.658 51.4522 116.437C49.0548 117.876 48.1086 121.691 46.1907 124.569C41.3961 132.241 36.1599 141.77 30.4065 148.484C28.968 150.402 25.9469 150.869 24.029 153.267C23.5494 153.747 26.4228 155.179 25.4639 155.659C21.6282 156.618 16.8601 153.261 14.4628 155.659C12.0655 158.056 16.3783 162.029 15.4194 164.906C14.9582 166.443 13.1294 169.676 10.9552 173.356C9.32592 183.253 10.4991 185.569 4.57771 190.257C3.66241 190.981 2.53584 191.788 1.22953 192.489C1.04484 193.343 0.912207 194.036 1.07037 194.561C1.37292 195.621 1.81669 196.596 2.34586 197.591C3.4532 197.601 4.43446 197.717 4.89685 197.91C8.11345 199.25 10.1812 199.765 13.6659 200.301C17.1505 200.837 20.6602 201.669 23.0727 197.112C25.4851 192.555 28.2763 190.809 28.8124 194.561C29.3485 198.314 29.0573 200.243 25.3048 200.779C21.5521 201.315 26.0212 204.874 23.0727 204.606C20.1241 204.338 19.579 207.554 17.9707 204.606C16.3624 201.657 18.4908 201.57 13.6659 202.374C8.84094 203.178 16.6144 203.811 13.6659 209.708C12.9306 211.178 11.733 213.514 10.3177 216.245C13.8736 216.887 17.6762 216.521 21.1594 216.086C23.0773 216.086 24.0246 213.693 25.9425 214.172C27.8603 214.172 28.9661 217.041 31.3634 217.521C32.8018 218 32.7961 211.299 33.7549 212.737C35.1934 215.135 32.7961 218.632 33.7549 220.55C35.1934 222.468 41.8909 223.417 39.973 224.376C27.0276 230.61 34.5774 214.169 24.0293 215.607C21.1526 216.087 27.5347 220.065 28.4935 222.463C28.9731 225.34 28.4947 228.672 28.0154 232.029C27.0566 238.263 18.7681 243.975 18.7681 248.77C18.7681 250.688 21.638 252.113 21.638 254.032C22.1175 257.389 16.8468 263.595 20.203 264.554C21.1619 264.554 24.5101 263.117 23.5512 264.076C22.5923 265.515 19.727 264.551 18.7681 265.99C16.3708 270.785 17.8172 276.659 15.4199 281.455C13.5021 285.291 2.02498 301.052 2.98384 306.327C3.46343 308.245 6.80569 304.414 8.72357 304.414C11.6003 303.933 14.4564 304.894 17.3332 304.414C18.7716 304.414 20.1996 302.978 21.638 303.457C29.3092 305.375 54.3146 321.634 57.6707 321.155C59.1092 321.155 73.9311 313.981 74.8899 313.502H81.108C82.0668 293.361 77.403 289.941 93.2252 276.034C96.1019 273.636 95.6098 268.385 98.4866 266.946C99.4454 266.467 122.894 266.014 117.141 256.423C115.702 254.026 110.928 257.862 108.531 256.423C106.134 254.505 106.62 250.691 105.661 247.814C104.702 244.936 104.709 241.602 102.791 239.204C102.312 238.245 99.4432 239.207 99.4432 238.248C100.882 234.891 104.223 232.517 105.661 229.16C108.538 223.405 100.38 227.742 108.531 221.028C115.723 215.274 125.27 216.118 126.229 203.65C126.229 202.691 117.145 196.485 115.227 192.649C112.351 186.414 115.705 176.389 115.705 175.429C115.226 174.95 107.574 160.125 107.574 159.645C107.095 158.686 109.007 160.123 109.966 160.123C114.281 161.562 117.13 162.034 121.445 162.993C132.473 165.871 134.824 166.689 140.578 155.659C147.29 142.232 140.103 147.075 138.664 137.005C137.226 127.893 152.056 132.239 152.535 125.525C153.015 120.73 147.745 125.062 150.622 119.307C151.102 118.348 153.013 118.355 153.492 116.916C154.93 113.559 154.926 110.228 155.405 106.871C155.885 103.035 158.755 99.2283 158.275 95.3919L153.97 83.753C155.409 82.3143 158.908 85.1904 160.826 84.231L170.871 73.7082C178.063 69.8718 191.429 69.4306 195.264 58.8806C198.141 49.2895 185.706 50.2722 182.35 49.7927C179.953 49.3131 184.268 30.9816 182.35 30.0225C173.24 25.2269 171.375 29.5551 160.348 25.2394C158.43 24.2803 158.764 19.4922 154.449 22.3695C153.49 23.3287 155.407 25.7152 154.449 26.6743C147.736 32.4289 140.582 25.7189 138.664 25.2394C136.747 24.2803 134.363 26.6767 132.925 25.7174C131.966 25.2378 135.797 24.2848 134.838 23.3258C134.358 21.4076 131.973 20.9343 130.055 20.9343C127.178 20.4547 123.844 21.4139 120.967 20.9343C120.487 20.4547 121.445 19.5018 121.445 18.5427C121.445 18.0631 121.925 16.1499 121.445 16.6295C119.048 17.1091 113.324 23.8116 109.009 20.9343C97.5019 12.782 120.024 10.9046 114.27 5.15001C113.311 4.19089 111.403 5.15251 110.444 4.19339C109.964 3.23427 112.359 1.3247 111.4 0.845216C109.243 0.36563 106.835 0.147831 104.385 0.20778Z"/>
</svg>
