<svg width="424" height="313" viewBox="0 0 424 313" xmlns="http://www.w3.org/2000/svg">
<path d="M251.519 0.765216C250.089 0.900185 248.565 1.36388 246.887 2.20309C246.637 1.95361 246.22 1.79512 245.928 1.56404L245.449 2.68239L244.97 4.12026C241.134 5.07936 238.102 6.19566 235.705 9.07295C232.807 13.6057 234.823 16.3318 230.913 22.8127C224.15 28.4894 207.347 29.5833 198.168 34.9547C196.856 35.7221 195.765 36.5415 194.813 37.511C191.088 45.3037 190.882 48.7988 182.674 52.0495C180.263 48.8449 179.111 47.1942 174.367 46.1382C173.824 46.0176 173.401 45.8697 172.93 45.6591C169.63 44.1837 167.659 40.8312 162.228 40.5466C161.149 40.6668 160.261 40.9112 159.512 41.3455C158.764 41.7795 158.074 42.364 157.436 42.9431C156.797 43.5222 156.268 44.1463 155.519 44.7005C155.145 44.9776 154.684 45.2603 154.241 45.4993C153.798 45.7386 153.343 45.9584 152.803 46.1384C149.291 45.5862 145.481 44.8286 141.622 45.3396C140.979 45.4249 140.353 45.4935 139.705 45.6591C139.057 45.8247 138.44 46.0374 137.789 46.2982C130.592 44.5924 128.798 47.3894 123.253 44.8603C122.294 45.3398 120.534 47.8155 119.579 47.8958C115.543 48.2347 111.506 42.0975 106.002 41.9845C105.043 41.9641 105.043 43.4219 104.564 44.381C103.979 46.9412 103.265 48.5518 102.487 49.6532C101.709 50.7546 100.863 51.3699 100.091 51.7301C98.548 52.4507 97.2206 52.3839 96.8967 54.4461C93.061 58.2826 92.5868 65.4686 87.3127 67.8663C82.0387 69.7846 78.2096 67.3847 74.8535 71.2214C64.3054 81.2919 67.6668 87.9917 65.2695 97.1031C65.2695 98.5418 62.874 97.5817 61.9151 98.541C59.5178 102.377 54.2481 115.793 53.7687 120.109C53.7687 121.068 56.1647 121.067 56.1647 122.026C56.1647 124.424 54.7276 126.339 53.7687 128.736L48.4975 145.512C47.5386 146.95 45.1436 146.949 44.1847 148.387C41.7874 153.662 44.6689 170.912 35.5591 174.269C32.6824 175.228 29.3314 171.872 25.9752 172.352C17.3449 173.791 24.5381 176.185 23.5792 178.103C22.6202 181.46 2.821 179.087 1.05664 185.133C1.56635 185.951 1.37003 186.669 1.85531 187.05C3.38996 188.257 4.62793 188.468 6.64729 193.441C7.2657 194.963 9.84619 193.826 11.4393 194.559C13.0324 195.293 13.5115 197.911 13.8353 198.553C14.9631 198.114 15.7407 197.916 16.2313 198.074C16.7221 198.232 17.0309 198.647 17.5092 199.352C22.1931 202.315 20.3826 204.144 23.7388 206.062C27.8603 206.061 25.4951 204.785 26.9334 204.305L27.5725 204.625C27.7432 205.102 28.5597 205.948 28.3712 207.82C28.1483 210.03 29.2473 210.581 27.892 213.731C26.415 217.162 30.4657 216.078 30.7673 218.843C30.9856 220.843 28.4528 221.418 29.17 222.518C29.398 222.868 33.6352 222.029 34.2813 224.755C34.8028 226.955 35.6612 224.831 37.6358 228.11C38.1499 228.963 43.0868 231.79 45.1433 231.944C47.1997 232.098 46.312 229.494 47.699 230.027C49.0044 230.528 49.7332 234.002 51.6924 234.021C56.4923 234.067 59.7845 234.721 64.1515 237.057C65.5875 237.901 65.1078 239.353 63.8319 239.773C61.7261 240.465 63.3897 241.284 63.193 243.128C62.6961 247.776 59.7188 245.094 59.8386 247.281C60.7699 248.833 62.3944 250.317 62.3944 250.317C62.3944 250.317 67.4255 251.355 68.6241 252.074C72.4898 256.873 58.2797 254.19 61.2763 260.063C64.1634 259.703 62.7566 262.155 65.4293 262.299C68.1019 262.443 72.8562 260.7 74.055 263.098C75.0139 265.016 74.5335 266.932 75.9718 267.891C78.8485 268.85 80.6026 267.252 83.4793 267.252C85.8766 267.252 89.2283 265.813 91.6256 267.252C94.9818 268.691 96.936 276.952 100.251 276.039C102.265 275.485 102.275 272.109 103.765 267.891C106.324 260.647 106.69 263.664 108.557 261.5C113.188 256.135 114.286 260.346 117.023 262.299C120.684 264.912 122.297 262.238 126.128 265.335C126.526 265.657 126.839 265.895 127.087 266.134C127.334 266.372 127.48 266.554 127.565 266.773C127.651 266.991 127.775 267.204 127.725 267.412C127.674 267.619 127.564 267.846 127.406 268.051C124.106 272.316 121.569 268.824 119.738 269.489C117.907 270.154 119.458 272.713 117.821 273.483C116.185 274.253 114.906 273.842 114.787 274.921C115.479 275.814 116.324 276.115 117.183 277.477C117.93 278.662 118.942 281.911 120.377 282.909C121.813 283.907 126.034 283.479 126.926 284.826C127.819 286.173 127.348 286.606 127.086 288.501C130.179 288.485 131.888 289.686 134.913 291.696C138.873 294.327 142.978 292.794 144.657 294.412C146.614 296.21 144.114 298.381 140.663 300.163C137.808 301.638 136.149 308.989 141.142 310.708C152.649 315.503 152.957 305.276 163.505 304.317C175.252 303.058 188.841 308.797 201.042 307.033C201.914 306.907 202.741 306.761 203.598 306.554C204.454 306.347 205.315 306.055 206.154 305.755C206.873 305.515 207.531 305.146 208.071 304.637C208.61 304.128 209.029 303.479 209.508 302.88C210.466 301.681 211.424 300.483 212.863 300.004C220.054 297.606 228.193 298.086 235.864 298.566C241.857 298.865 246.87 300.402 252.157 300.164C253.214 300.118 254.266 300.065 255.352 299.844C257.523 299.402 259.823 298.567 262.22 297.128C263.539 296.289 264.665 295.345 265.734 294.412C266.803 293.479 267.889 292.543 268.769 291.536C269.649 290.529 270.414 289.561 271.165 288.501C271.917 287.44 272.558 286.239 273.242 285.146C275.732 281.164 279.528 271.834 283.784 267.732V268.051L284.742 267.092V266.933C284.855 266.847 284.949 266.691 285.062 266.613C285.077 266.521 285.047 266.388 285.062 266.294C286.612 265.288 289.27 263.3 290.174 262.939C290.412 262.844 290.709 262.853 290.972 262.779C291.773 262.552 292.594 262.285 293.368 262.14C294.396 261.948 295.564 261.635 297.042 260.543C298.52 259.45 299.143 259.553 300.556 259.424C301.97 259.295 303.78 258.822 304.23 257.986C304.68 257.151 305.725 256.613 306.945 256.549C308.166 256.484 309.176 255.917 310.14 254.631C311.104 253.346 311.732 253.069 312.696 252.554C313.66 252.04 313.04 251.405 314.453 251.276C315.866 251.147 316.043 250.766 317.328 250.637C318.613 250.508 318.182 249.519 319.724 249.519C321.266 249.519 321.634 249.809 322.919 249.359C324.204 248.91 325.502 248.814 326.273 249.2C327.044 249.585 327.735 250.004 329.148 249.04C329.496 248.803 329.69 248.807 329.947 248.561C329.947 248.561 331.255 251.277 332.183 251.277C333.112 251.277 334.624 251.123 336.017 252.715C337.41 254.308 337.393 254.217 339.052 253.354C340.711 252.492 343.264 252.435 345.122 252.236C346.979 252.037 347.412 251.7 347.678 250.638C347.81 250.108 347.746 249.576 347.837 249.36C347.929 249.144 348.192 249.242 348.955 249.839C350.481 251.034 351.197 254.445 352.789 254.313C354.381 254.18 358.06 252.555 358.06 252.555L361.095 249.04L362.532 250.319L363.491 253.674L364.928 254.952L366.526 258.307L378.666 261.502L384.096 260.224L388.569 260.703L394.319 258.786C394.279 258.449 394.15 258.08 393.84 257.348C393.324 256.128 393.916 254.254 393.681 253.034C393.445 251.814 394.103 251.689 393.681 250.797C393.259 249.906 393.635 249.452 393.681 248.561C393.727 247.669 394.094 246.839 394 245.525C393.906 244.212 394.753 243.053 394.799 242.49C394.845 241.927 392.412 238.429 392.084 237.537C391.755 236.646 393.362 236.259 393.362 236.259C393.362 236.259 393.117 236.061 392.883 235.78C392.648 235.498 392.055 233.504 391.445 232.425C390.836 231.346 391.576 230.816 390.966 229.549C390.356 228.282 389.968 229.836 388.889 226.833C387.81 223.83 388.111 223.485 389.049 221.561C389.781 220.06 390.25 220.787 390.486 221.241C390.416 220.913 390.393 220.263 390.486 219.324C390.674 217.447 392.341 215.013 394.639 209.898C396.938 204.784 396.632 202.667 397.195 199.993C397.758 197.318 401.324 191.343 403.904 188.809C406.484 186.276 412.553 184.391 415.884 183.218C419.215 182.045 421.099 181.431 421.475 180.821C421.85 180.211 422.752 180.022 422.752 180.022C422.752 180.022 421.633 182.665 420.836 183.697C420.038 184.729 418.28 185.135 418.28 185.135C418.28 185.135 419.494 185.322 420.996 184.336C422.497 183.351 422.65 180.801 423.072 179.863C423.494 178.924 423.213 177.512 423.072 176.667C422.931 175.823 421.455 165.245 421.315 162.289C421.174 159.333 423.232 158.454 423.232 158.454C423.232 158.454 421.924 158.53 420.516 159.093C419.109 159.656 419.05 158.302 418.44 157.176C417.83 156.05 419.851 156.491 420.836 156.537C420.663 156.326 420.518 155.976 419.877 155.419C418.4 154.134 419.238 153.342 419.238 153.342C419.238 153.342 420.009 152.644 419.238 151.744C418.467 150.845 417.389 148.552 416.683 147.91C415.976 147.267 413.657 145.77 412.05 145.513C410.444 145.256 408.384 145.132 407.099 144.874C406.456 144.746 406.163 144.699 405.981 144.715C405.798 144.73 405.727 144.809 405.342 145.034C404.571 145.484 404.29 145.065 403.904 145.513C403.519 145.963 403.269 145.93 402.626 145.673C401.984 145.416 401.703 144.9 401.189 145.992C400.675 147.085 400.526 147.08 399.112 146.951C397.699 146.823 397.326 148.068 396.876 148.389C396.426 148.71 396.206 148.8 396.077 149.507C395.949 150.214 395.186 150.751 394.48 151.265C393.773 151.779 392.5 152.06 392.243 152.702C391.986 153.345 391.289 153.435 390.646 153.821C390.004 154.206 389.408 155.349 387.931 156.377C386.453 157.405 388.157 158.351 387.771 159.572C387.386 160.793 385.445 159.321 384.417 158.614C383.389 157.907 383.111 158.775 382.34 158.454C381.569 158.133 381.453 157.235 380.104 158.135C378.755 159.034 381.031 159.121 380.903 159.892C380.774 160.663 380.877 160.722 379.785 160.851C378.692 160.979 378.918 161.644 379.625 162.608C380.332 163.572 381.253 162.765 381.382 163.407C381.51 164.05 381.387 164.011 380.104 164.525C378.819 165.039 379.059 165.965 377.389 165.644C375.718 165.322 374.779 165.322 372.916 165.644C371.053 165.965 369.826 165.262 368.284 165.005C366.742 164.747 364.751 164.11 362.374 164.046C359.997 163.982 360.146 162.714 358.54 160.851C356.934 158.987 356.783 159.132 356.783 157.975C356.783 156.818 355.898 156.219 354.227 155.898C353.392 155.738 353.092 155.842 352.95 156.058C352.519 156.042 352.085 155.973 351.831 155.579C351.113 154.46 351.512 154.939 350.554 154.46C349.595 153.981 350.075 154.061 349.755 152.703C349.595 152.024 348.796 151.874 348.157 151.584C347.519 151.295 346.96 150.865 347.519 149.348C347.616 149.082 347.598 149.079 347.678 148.869C348.004 148.564 348.309 148.208 348.637 147.91C349.116 142.635 340.491 130.658 339.532 125.383C336.655 113.395 340.971 99.9874 337.615 87.9986C333.3 69.2961 296.89 46.3074 283.465 33.3594C275.315 25.2072 273.248 13.233 263.179 6.03977C259.224 2.80277 255.809 0.360003 251.519 0.765216ZM396.397 175.707C397.897 175.585 398.918 176.438 398.953 176.825C398.999 177.341 399.664 178.339 397.835 178.902C396.005 179.465 396.83 180.004 396.876 181.458C396.922 182.913 398.061 184.778 398.953 186.091C399.844 187.406 399.818 186.401 399.911 185.932C400.005 185.463 401.516 185.63 400.39 184.973C399.264 184.316 400.071 183.376 400.071 183.376C400.071 183.376 401.153 183.753 402.467 184.973C403.78 186.193 403.228 187.39 402.946 188.328C402.664 189.267 400.642 189.684 399.751 191.044C398.86 192.405 396.876 192.642 396.876 192.642C396.876 192.642 397.12 193.123 397.355 193.92C397.589 194.718 398.633 195.518 398.633 195.518C398.633 195.518 398.643 195.811 398.313 196.796C397.985 197.781 397.739 198.273 397.035 199.352C396.332 200.431 397.071 200.745 396.556 202.388C396.04 204.03 396.546 203.573 395.278 204.464C394.012 205.356 394.741 204.993 393.521 206.541C392.302 208.09 392.187 209.918 391.764 211.654C391.342 213.39 391.228 211.83 390.806 210.376C390.384 208.921 391.181 207.348 390.806 206.222C390.431 205.096 391.108 205.197 391.764 205.104C392.421 205.009 392.13 204.191 391.285 204.145C390.441 204.099 390.582 204.171 391.285 203.186C391.989 202.201 393.57 199.501 394.32 198.234C395.071 196.968 395.768 196.412 396.237 197.115C396.706 197.819 397.093 198.139 397.515 197.435C397.936 196.731 398.191 196.513 397.674 195.997C397.158 195.481 395.944 195.912 394.959 195.677C394.507 195.57 394.105 195.703 393.681 195.837C394.271 195.896 394.678 196.46 394.959 196.636C395.334 196.87 393.248 198.79 392.403 200.151C391.559 201.511 391.058 201.08 390.167 200.47C389.276 199.86 389.491 198.797 390.007 198.233C390.523 197.671 391.133 197.144 390.007 197.754C388.881 198.364 389.021 197.828 389.209 196.796C389.396 195.764 389.361 195.902 390.487 195.198C391.613 194.494 390.791 193.872 393.042 193.121C395.294 192.37 395.766 192.434 394.64 191.683C393.514 190.933 393.297 190.668 394.001 190.245C394.704 189.823 394.199 189.473 394.48 188.488C394.762 187.503 394.355 187.594 392.244 186.89C390.133 186.187 390.447 185.365 389.368 183.535C388.289 181.705 388.656 180.921 389.688 179.701C390.72 178.481 392.449 178.121 392.403 177.464C392.357 176.807 392.313 177.406 394.799 176.186C395.421 175.882 395.897 175.747 396.397 175.707ZM393.043 195.997C392.746 196.112 392.444 196.106 392.084 196.316C390.958 196.973 390.994 197.793 390.806 198.872C390.619 199.952 391.305 198.805 391.445 197.914C391.586 197.022 392.057 196.466 393.043 195.997Z"/>
</svg>
