<svg width="211" height="270" viewBox="0 0 211 270" xmlns="http://www.w3.org/2000/svg">
<path d="M46.7571 1.01513C46.3936 1.04069 45.971 1.15828 45.4791 1.33466C43.6318 1.99636 42.8582 3.27759 39.5689 4.68971C33.5076 4.04073 37.3411 -0.689566 30.7836 3.25183C29.3222 4.13015 28.9342 1.88338 26.9501 6.28735C25.9882 8.4222 24.3157 11.1592 22.1581 12.8377C21.0793 13.6767 20.863 11.1142 18.6439 13.956C17.8852 14.9275 20.4685 16.306 15.2895 16.9915C10.3582 17.6443 12.2058 12.8025 10.0183 14.5951C9.25361 16.0447 8.69825 16.8057 8.90014 18.2697C9.1532 20.1044 5.08258 20.0735 5.54571 20.9856C7.38078 23.951 2.84886 21.2592 1.23302 23.5419C1.69518 23.5572 2.08618 23.6023 2.35105 23.7015C2.2897 24.1601 1.24447 24.7976 1.87207 25.9382C1.96154 25.9791 1.92314 26.0598 2.03153 26.0976C2.05709 26.1334 2.00085 26.2187 2.03153 26.2571C2.1077 26.3558 2.08633 26.4703 2.19113 26.5766C3.14041 27.9995 -0.301539 27.6327 0.434041 30.0914C3.63801 27.6552 6.21903 32.6891 1.55223 32.3281C0.422739 32.4973 2.0943 33.8402 3.78846 34.4051C7.19172 29.2657 8.97407 38.2893 4.42736 37.121C4.69372 38.1742 6.68435 37.7458 7.30249 39.837C6.90986 41.2489 3.26489 40.6111 6.50383 42.7128C6.43992 43.5423 4.37573 43.1315 4.42736 44.4702C4.92378 45.1192 5.70307 45.8258 6.50383 47.1862C7.65822 46.7557 9.09573 45.7281 10.6569 45.9081C11.0383 46.1427 10.9729 47.7678 12.7335 47.1862C13.8064 47.6381 14.1066 48.3029 13.3724 49.2631C12.6383 50.2227 10.8829 49.9685 10.6569 49.7423C10.1779 50.4878 9.05269 51.1084 9.21935 51.979C9.21935 53.0522 10.6182 53.1618 11.2958 53.8961C11.0596 54.2228 10.0835 55.6781 9.21935 56.7719C12.4776 58.2951 15.5545 60.3194 18.1644 62.3635C20.6091 62.9719 23.9403 60.1731 23.1162 62.8426C25.3521 63.3789 28.1304 64.8415 29.9848 63.4817C31.2634 65.1147 32.0216 65.5206 30.7835 67.7953C29.166 67.8878 27.9044 67.6118 26.79 67.7953C26.79 67.7953 25.8802 65.8372 25.0329 65.8781C23.2567 65.963 24.3479 67.7194 25.0329 68.2746C20.062 66.2538 17.6487 66.5846 20.5604 68.434L18.6436 71.6293C15.7279 69.4977 14.0443 72.5645 16.7269 73.7063C17.1599 76.3952 18.26 79.5427 15.9282 81.8542C16.0028 82.8179 19.2092 81.0342 19.9215 81.5347C19.8418 81.9739 20.4608 82.6531 20.2411 82.9726C19.197 84.1561 17.5813 84.039 17.8451 85.6886C16.3935 87.5259 15.6511 84.8149 14.331 85.6886C13.0016 86.2863 13.8954 87.4853 15.1297 89.5229C16.5069 90.6004 17.72 88.8611 18.484 88.2448C19.2765 87.6055 19.9614 86.9667 20.8799 86.3276C21.7984 85.6895 22.4774 84.9696 23.1163 85.6886C23.7552 86.4074 24.2743 86.048 25.033 85.369C25.7918 84.6902 26.7901 85.5689 27.5888 85.369C28.3875 85.1691 29.3859 85.9283 30.4641 86.3276C31.5423 86.7269 30.7039 87.1666 30.4641 87.6057C30.2243 88.0449 30.1446 89.483 30.1446 90.801C30.1446 92.1191 29.9447 93.8765 30.1446 94.7951C30.3445 95.7137 29.3857 97.4711 28.5471 98.3099C27.7083 99.1487 27.4691 100.587 27.2693 101.985C27.0694 103.382 26.1512 104.501 25.1928 105.499C24.2348 106.498 24.9529 106.618 25.0332 107.736C25.1129 108.854 23.5956 109.054 22.6372 110.132C21.6788 111.211 23.9553 114.007 24.0749 115.724C24.1946 117.442 22.6372 117.881 22.6372 119.399C22.6372 120.917 23.8354 121.236 23.9152 121.955C23.9949 122.674 25.1131 124.072 26.1514 125.15C27.1896 126.228 27.9484 124.552 28.7071 125.31C29.4659 126.068 30.1049 126.068 31.5824 125.629C33.0599 125.19 33.9385 125.829 34.2978 126.588C34.6572 127.347 35.2971 128.186 35.2562 128.665C35.2153 129.144 35.336 130.422 36.3744 130.422C37.4127 130.422 38.0515 131.74 39.2495 132.339C40.4476 132.938 41.3261 131.78 41.0066 132.339C40.6871 132.899 41.7254 133.218 42.2844 134.416C42.8435 135.615 43.9617 136.174 45.1597 136.174C46.3577 136.174 45.8386 138.57 47.2362 137.612C48.6337 136.653 48.2744 137.771 48.1946 138.41C48.1149 139.049 47.1563 139.848 46.118 141.446C45.0798 143.043 45.7587 142.565 42.604 143.044C39.4492 143.523 38.0116 142.565 37.4925 142.245C36.9733 141.925 34.2978 141.647 33.4991 141.606C32.7005 141.565 31.8218 140.129 31.742 142.085C31.6623 144.042 34.5773 145.12 34.9367 148.475C35.2961 151.83 36.1348 151.95 37.1731 152.949C38.2113 153.947 42.1647 153.827 44.0415 155.345C45.9184 156.863 46.238 158.461 47.7155 159.02C49.1932 159.579 49.0731 159.619 49.3128 160.937C49.5526 162.255 48.3544 162.894 47.396 163.972C46.4375 165.051 47.3972 166.209 47.5554 167.327C47.7149 168.445 45.5987 167.647 44.9997 167.487C44.4004 167.327 44.0814 167.926 43.8815 167.487C43.6816 167.048 42.963 166.129 42.4439 165.57C41.9247 165.01 41.6055 165.45 41.3259 165.889C41.0462 166.328 40.4473 167.008 39.409 167.327C38.3708 167.647 37.2923 167.926 36.8532 168.605C36.4141 169.284 35.9747 170.682 35.0961 171.801C34.8763 172.08 34.6386 172.333 34.4572 172.44C34.5477 172.531 34.6031 172.75 34.6169 172.759C35.2384 173.154 35.2558 174.176 35.2558 175.475C35.2558 176.774 36.0898 176.114 37.3322 176.114C38.5747 176.114 39.3427 176.029 39.5686 176.593C39.7946 177.158 40.9109 177.645 41.6451 177.871C42.379 178.097 42.1421 178.415 42.7633 179.15C43.3844 179.884 44.3218 180.051 44.9995 180.108C45.6772 180.165 47.0566 181.667 47.3955 182.345C47.7344 183.023 49.3009 182.579 50.4304 183.144C51.5599 183.708 51.7356 184.393 52.1875 184.901C52.6394 185.41 52.7215 185.54 53.625 185.54C54.5286 185.54 54.8642 186.056 55.5419 186.339C56.2196 186.621 56.6227 187.136 56.3406 188.096C56.0578 189.057 56.7343 189.318 57.299 189.374C57.8638 189.431 57.7764 189.815 58.7366 190.493C59.6966 191.171 60.5017 190.173 61.2923 190.173C62.0832 190.173 62.0154 191.638 62.4105 192.09C62.8057 192.542 63.7802 192.616 64.9661 192.729C66.1523 192.842 66.2713 193.715 66.7232 194.167C67.1752 194.619 67.7558 193.555 68.3205 194.008C68.8852 194.46 69.295 194.883 70.8763 194.487C72.4576 194.092 72.9901 194.777 73.2723 195.286C73.5545 195.794 76.2217 198.518 76.7865 198.8C77.3515 199.083 76.5134 200.726 76.6269 201.516C76.7399 202.307 77.9403 200.076 79.1828 201.037C80.4252 201.998 81.4739 201.226 82.3774 200.718C83.281 200.21 85.1848 201.93 86.3708 202.156C87.5567 202.382 90.8512 203.029 91.6419 203.594C92.4325 204.158 92.1486 206.251 92.6003 207.268C93.0523 208.285 91.9727 209.71 90.8432 210.783C89.7137 211.856 88.5795 213.893 88.1277 214.458C87.6758 215.022 82.2758 214.157 81.2592 213.818C80.2427 213.48 79.5311 214.992 79.023 215.895C78.5143 216.799 78.7684 217.501 79.502 218.292C80.2361 219.083 81.351 219.654 82.5369 220.049C83.7227 220.444 83.4122 221.156 83.0159 222.286C82.6207 223.416 81.5978 223.742 81.2589 224.363C80.92 224.984 81.5319 226.345 81.4184 227.079C81.4082 227.149 81.2865 227.181 81.2589 227.238C81.6981 227.159 81.7782 227.438 81.8978 228.037C82.0175 228.636 82.4967 228.636 83.9743 229.315C85.4518 229.994 85.0526 230.074 86.5301 231.073C88.0076 232.071 87.2888 232.71 88.2871 233.629C89.2857 234.548 90.0042 234.308 89.4052 235.866C88.8062 237.423 91.0827 237.144 91.1624 239.38C91.2422 241.617 91.5616 241.218 92.2805 240.818C92.9993 240.419 94.397 240.018 95.6349 240.339C96.8728 240.659 99.0692 242.376 101.226 242.736C103.382 243.095 105.458 246.091 106.337 248.487C107.216 250.884 108.334 249.246 108.254 252.481C108.174 255.716 108.373 254.798 109.851 255.996C111.329 257.194 112.52 261.059 112.407 262.387C112.294 263.714 110.724 264.471 111.289 265.742C111.854 267.013 110.819 267.423 110.65 267.819C110.582 267.977 110.629 268.511 110.65 269.097C110.899 269.208 111.188 269.313 111.448 269.416C111.494 269.437 111.562 269.396 111.608 269.416C111.723 269.38 111.809 269.375 111.928 269.257C112.605 268.579 112.799 267.979 113.844 267.979C114.889 267.979 115.6 266.541 116.08 266.541C116.561 266.541 116.962 268.113 117.838 266.7C118.713 265.288 118.9 263.415 118.476 261.268C118.053 259.122 116.959 259.172 119.754 253.919C122.55 248.666 121.733 251.753 123.908 249.126C126.082 246.5 128.489 247.195 130.776 244.653C133.063 242.111 134.411 241.832 135.089 242.736C138.942 244.434 138.417 249.439 141.478 249.126C144.554 248.812 142.74 244.574 143.874 241.138C144.241 240.404 145.254 237.444 146.27 237.783C147.287 238.122 148.394 237.737 148.027 235.546C148.394 233.753 150.435 236.763 154.417 235.067C158.398 233.373 160.457 234.88 160.966 234.908C161.474 234.938 161.106 233.518 161.445 233.15C161.784 232.783 162.787 233.085 163.521 232.352C164.255 231.617 165.801 228.985 167.834 230.115C169.867 231.245 170.09 229.789 169.751 228.038C169.412 226.287 172.794 228.244 173.585 228.837C174.375 229.43 175.078 229.081 175.501 228.996C175.925 228.911 178.995 229.063 179.814 228.357C180.633 227.651 184.579 229.252 183.648 228.038C182.716 226.823 182.067 226.178 184.127 225.641C185.673 225.239 184.867 224.117 185.405 224.203C185.584 224.234 185.881 224.302 186.523 224.682C189.092 226.208 189.604 227.578 190.197 226.759C190.311 226.602 190.373 226.468 190.516 226.44C190.542 225.243 191.618 225.083 193.871 224.523C195.225 224.185 194.307 222.481 195.148 221.168C194.841 218.562 198.756 220.733 197.225 214.458C196.745 212.539 194.191 210.464 192.752 209.505C191.794 209.025 191.954 210.303 191.475 209.345C190.995 206.947 191.634 206.311 191.634 203.913C190.66 200.639 192.814 199.803 191.953 198.002C191.093 196.201 188.359 194.887 189.078 193.689C193.995 190.447 190.106 187.724 194.19 189.854C194.264 187.296 196.011 187.353 196.905 188.097C198.343 189.293 199.098 187.914 200.739 187.458C201.419 187.269 203.099 187.575 202.656 181.706C202.522 179.94 204.528 181.082 205.691 177.872C206.368 176.002 207.45 173.592 207.927 173.079C209.957 170.898 211.442 167.648 210.003 166.209C209.524 165.849 207.584 166.579 204.732 164.452C201.692 162.183 202.399 160.317 200.739 159.978C198.12 159.444 197.878 155.804 195.947 156.144C191.659 156.899 192.646 153.209 190.516 153.907C188.233 154.656 189.981 152.37 186.523 152.469C185.084 151.27 182.858 149.286 182.529 143.842C182.262 139.429 178.398 141.823 177.578 138.41C176.764 135.027 175.733 134.481 175.022 133.777C174.311 133.073 174.055 132.192 174.702 128.505C175.129 126.072 174.281 125.746 174.223 124.99C174.154 124.079 175.018 124.156 174.702 120.037C175.421 118.36 176.682 119.084 178.376 118.44C179.223 118.118 179.306 116.789 180.133 116.043C180.96 115.298 182.529 115.165 183.008 114.445C181.962 110.241 182.461 107.218 185.085 105.499C185.346 103.604 185.816 103.171 184.925 101.824C184.033 100.477 179.812 100.905 178.376 99.907C176.941 98.9092 175.929 95.6605 175.182 94.4751C174.323 93.1137 173.478 92.8122 172.786 91.9189C172.906 90.8401 174.184 91.2512 175.821 90.481C177.457 89.7109 175.907 87.1519 177.737 86.4869C179.568 85.822 182.105 89.3145 185.405 85.049C185.563 84.844 185.673 84.6176 185.724 84.41C185.775 84.2019 185.65 83.9897 185.565 83.7709C185.479 83.5521 185.333 83.3701 185.086 83.1319C184.838 82.8936 184.525 82.6549 184.127 82.333C180.296 79.2359 178.683 81.9097 175.022 79.2975C172.285 77.3441 171.187 73.1335 166.556 78.4987C164.689 80.6622 164.323 77.6453 161.764 84.8893C160.275 89.1078 160.264 92.4831 158.25 93.0373C154.935 93.9498 152.981 85.6889 149.625 84.2502C147.227 82.8116 143.876 84.2502 141.478 84.2502C138.602 84.2502 136.848 85.8484 133.971 84.8893C132.532 83.9301 133.013 82.0146 132.054 80.0964C130.855 77.6988 126.101 79.4417 123.428 79.2975C120.756 79.1534 122.162 76.7014 119.275 77.0608C116.279 71.1886 130.489 73.8715 126.623 69.0726C125.424 68.3533 120.394 67.3152 120.394 67.3152C120.394 67.3152 118.769 65.8313 117.838 64.2797C117.733 62.3653 119.972 64.1943 120.873 61.5637C119.858 61.3736 120.07 59.5751 120.664 58.2299C120.986 57.5015 121.419 56.906 121.831 56.7708C123.107 56.3516 123.586 54.8997 122.15 54.0548C117.783 51.7193 114.491 51.0653 109.691 51.0193C107.732 50.9988 107.003 47.5267 105.698 47.0252C104.311 46.4921 105.198 49.0962 103.142 48.9423C101.086 48.7885 96.1489 45.9613 95.6347 45.108C93.6602 41.8293 92.8018 43.953 92.2803 41.753C91.6342 39.0272 87.3968 39.866 87.1688 39.5163C86.4516 38.4158 88.9844 37.841 88.7661 35.8417C88.4645 33.0767 84.414 34.1607 85.891 30.7292C87.2465 27.5797 86.1471 27.0279 86.37 24.818C86.5586 22.9464 85.742 22.0997 85.5713 21.6227L84.9324 21.3031C83.4941 21.7827 85.8593 23.0594 81.7378 23.0606C78.3816 21.1423 80.1921 19.313 75.5082 16.3505C75.0297 15.6455 74.721 15.2303 74.2303 15.0723C73.7395 14.9144 72.9621 15.1133 71.8343 15.5515C71.5101 14.9094 71.0314 12.291 69.4383 11.5574C67.8452 10.8239 65.2647 11.9618 64.6463 10.439C62.6269 5.46635 61.3889 5.25485 59.8543 4.04846C59.6687 3.90276 59.6033 3.61953 59.5348 3.40941C57.6323 2.78697 56.3726 0.349247 54.7426 1.33247C53.022 2.37046 52.1359 1.08452 51.3882 1.01295C51.1387 0.987383 50.847 1.11003 50.5895 1.49193C49.0279 3.80868 49.3013 0.840489 46.7571 1.01513ZM190.677 226.442C190.971 226.452 191.391 226.753 191.795 227.081C191.428 226.722 191.184 226.419 190.677 226.442Z"/>
</svg>
