<svg width="140" height="100" viewBox="0 0 140 100" xmlns="http://www.w3.org/2000/svg">
<path d="M124.508 0.411743C117.316 0.411743 110.451 2.16501 111.889 9.83783C112.369 11.2765 115.245 13.8315 113.806 14.3111C102.879 7.33461 104.505 14.3418 98.1524 12.3941C89.8541 15.4995 94.1605 17.5056 91.2838 18.9442C88.324 20.58 90.0378 17.2583 86.0126 16.8673C84.0001 16.6715 81.1279 18.4957 77.0676 17.9856C75.0077 17.727 70.6774 17.3023 69.7198 19.4235C67.6822 23.9371 68.51 19.5734 67.0043 19.9027C66.1001 20.1005 65.8801 22.9721 64.6083 21.021C61.403 24.3628 62.6662 26.9599 60.7747 28.3702C55.1585 28.3668 57.2184 32.6859 52.7881 33.1631C51.8292 33.6426 52.309 37.7965 51.3504 37.3169C48.8733 32.2844 48.1571 36.2787 46.5584 34.2814C43.0422 30.6865 38.7336 34.9205 34.898 34.4409C29.6247 29.8873 27.3925 33.3228 23.3971 30.6065C21.6371 29.033 18.7292 31.1251 14.6118 29.4882C14.3833 36.6777 0.727049 40.6747 0.874748 46.2634C-0.0840925 52.0181 9.65877 49.9369 12.0561 51.8552C15.4123 54.7325 8.0635 57.9239 6.62516 62.2398C4.70728 68.474 12.375 61.7593 13.3339 64.157C14.2928 66.5547 7.74135 72.1441 11.0976 74.0624C15.8922 76.9397 33.408 88.9677 19.5636 88.1216C17.3048 86.7017 16.5285 89.0802 16.5285 89.0802C16.5285 89.0802 20.202 90.4045 16.3691 91.4767C15.1347 91.8218 14.0487 92.5378 12.8549 92.2755C11.8912 92.0638 12.2442 93.4819 10.4589 93.2341C12.295 94.9287 11.7368 96.4294 11.7368 96.4294C12.3416 96.7024 12.8995 96.9979 13.4939 97.2282C14.6181 97.6638 15.7138 97.9185 16.5288 97.5477C18.7325 96.796 19.7713 95.9135 21.4806 97.7072C21.7065 98.4981 23.0665 98.7593 24.1959 98.9853C27.6611 94.4927 29.2809 98.7608 29.627 95.3107C25.6415 92.6382 29.9255 91.534 31.2243 93.3935C34.1011 94.3992 36.0482 95.072 39.0512 94.9912C39.0512 94.9912 38.6996 92.78 40.1694 92.7545C42.3192 92.7187 41.9016 94.0689 44.1627 94.6717C46.8554 93.0216 49.3935 92.2693 51.5105 89.0799C52.0722 86.649 50.4947 87.1365 51.9894 85.5651C53.099 84.3083 53.8017 79.9368 55.8231 80.9319C57.2913 81.6548 55.9826 83.0073 55.9826 83.9675C55.9826 84.9277 57.8687 85.1874 59.337 86.2042C61.1646 87.5005 59.2593 88.9378 59.816 89.3994C65.7013 91.4797 66.6838 94.2245 68.6013 93.2338C70.9167 92.443 70.1107 91.991 70.1986 90.5178C70.351 87.9605 77.9928 91.1021 81.2202 94.6717C81.5162 94.6154 83.5262 94.4636 84.5746 94.0326C84.6835 93.1019 86.1905 91.347 88.5679 92.7545C89.8104 92.8107 92.2714 90.287 91.2834 90.358C87.6982 90.6152 86.048 86.3462 86.811 82.5296C87.683 81.5849 88.8039 81.262 88.7277 80.4526C89.2726 79.7534 90.1445 82.0908 91.2834 80.2932C90.0092 78.0245 87.2748 74.8756 87.2901 78.6955C85.7942 77.3972 85.4022 77.7731 84.8941 75.3405C85.3461 74.7757 86.4494 73.4541 89.0472 71.9855C91.645 70.5172 92.9549 70.7641 93.5197 70.7073C94.0849 70.6506 93.0775 69.8908 93.3602 69.2695C93.6429 68.6483 94.2234 68.5547 94.9576 68.9499C95.6917 69.3451 96.3951 67.1925 96.3951 67.1925C96.3951 67.1925 97.2406 67.6639 97.3535 66.873C97.4272 66.9037 100.338 67.6207 101.027 68.1511C101.197 67.6429 102.294 66.9392 103.423 66.7132C104.553 66.4873 102.927 65.7934 102.305 65.1156C101.683 64.4377 102.351 63.2646 102.465 63.0387C102.8 60.8633 103.352 59.1091 102.784 56.8079C102.784 55.9041 103.443 54.3372 103.104 53.7723C100.642 52.4414 98.5624 52.3629 97.9924 49.2989C98.1054 48.3386 97.1275 48.3503 97.3534 48.1806C98.2671 46.4279 98.9656 44.85 99.7495 43.0681C100.54 42.6162 102.247 43.0681 103.264 43.0681C104.28 43.0681 103.77 43.5278 104.222 43.867C106.319 41.6817 104.678 41.1989 105.819 40.0326C106.873 38.9557 106.238 42.0345 117.001 33.9616C117.622 33.5664 115.53 31.6926 115.883 30.9261C116.235 30.1594 118.54 30.4194 119.556 29.9675C120.573 29.5155 120.739 30.2952 121.473 31.0858C121.85 31.4248 123.466 31.8897 123.709 30.6069C123.709 30.6069 124.187 30.9728 125.147 31.0858C126.107 31.1988 126.744 31.0858 126.744 31.0858C126.922 30.0848 126.709 29.1247 125.626 28.8491C125.012 27.2953 123.964 25.9614 123.55 24.0562C123.319 22.9957 128.508 19.2495 129.46 19.5828C131.199 20.1926 134.693 22.1027 138.245 23.8964C138.525 23.7947 138.896 23.7293 139.204 23.737C139.193 23.6859 139.214 23.628 139.204 23.5774C129.135 15.425 126.426 0.411743 124.508 0.411743Z"/>
</svg>
