<svg width="232" height="128" viewBox="0 0 232 128" xmlns="http://www.w3.org/2000/svg">
<path d="M183.141 0.368986C180.504 0.518781 178.23 0.848023 176.432 1.32757C174.994 1.32757 174.995 4.36283 173.557 4.84238C171.639 5.80148 168.766 -0.912706 167.327 5.80097C167.327 6.76006 170.203 6.75899 169.723 7.71814C168.285 10.1159 165.891 12.9904 163.015 12.9904C159.179 12.9904 156.787 7.71839 152.951 7.23884C151.034 6.7593 150.077 9.63505 148.159 10.1146C146.241 10.1146 144.167 8.19717 142.249 8.67672C135.537 10.1154 129.79 24.9724 129.311 25.452C127.393 26.4111 125.478 22.5759 123.56 23.0555C121.163 23.535 116.852 27.3705 116.852 24.9727C116.852 24.0136 119.729 14.9083 116.372 13.4696C114.455 12.5106 112.061 14.9078 109.664 14.4282C108.705 13.9487 110.622 12.0323 110.143 11.0732C109.663 10.5936 107.747 12.0321 107.267 11.5523C104.87 9.15458 104.873 4.68354 101.996 2.76529C97.2017 -0.591595 90.9789 24.0172 83.3075 17.7831C81.8692 16.3445 84.2666 12.991 82.8284 11.5523C81.3901 10.1137 78.037 12.5116 77.0781 11.0732C68.9274 14.9096 57.4332 21.1342 53.118 28.807C53.118 29.2866 49.2845 44.1444 49.2845 44.1444C47.8461 46.0626 44.4933 45.1019 43.0549 47.0201C42.096 48.4588 43.5344 50.8537 42.5758 52.2923C28.192 70.0357 12.3897 46.5256 5.67728 74.8191C6.15683 81.0532 -1.033 87.7574 1.84372 92.5529C6.15884 99.7461 10.9454 105.97 16.699 112.204C17.6579 111.724 19.094 111.245 21.0118 111.725C29.6421 112.684 36.3413 125.144 45.4511 127.062C51.2045 128.021 91.9346 120.833 90.0167 117.476C88.0988 114.599 81.3876 107.893 87.6205 104.056C94.3329 99.2606 109.182 102.621 114.456 97.346C116.374 95.4277 113.976 91.1165 115.414 88.7187C119.25 82.005 127.871 92.5533 131.707 92.0738C143.693 90.1556 132.661 86.8042 140.333 82.0086C142.251 81.0495 145.283 82.9676 147.201 82.4878C152.475 80.09 150.554 67.1524 153.431 63.3161C160.623 54.2047 171.157 62.8375 179.308 61.3989C184.102 60.9193 186.972 54.2095 191.767 54.2095C203.753 54.6891 196.554 63.7938 205.664 66.6711C207.102 67.6303 209.017 65.2335 210.935 64.7539C214.771 63.7948 219.02 63.8845 221.637 61.0794C221.703 61.0001 221.871 60.7035 221.956 60.6002C221.831 60.5994 221.768 60.5991 221.637 60.6002C221.637 56.7638 218.442 52.614 219.401 49.2571C219.88 45.9002 224.192 44.9453 225.63 41.5885C227.069 38.7112 226.589 35.3594 227.068 32.0026C227.528 27.4069 231.269 21.0908 231.141 16.3857C230.35 16.0017 229.452 16.015 228.506 15.7067C224.19 15.2271 222.917 14.9086 218.602 13.47C215.246 12.5109 211.895 12.5124 209.018 10.5942C207.1 9.63506 207.581 6.28134 206.143 4.84269C201.468 1.24603 191.052 -0.0806029 183.141 0.368986Z"/>
</svg>
