<svg width="597" height="579" viewBox="0 0 597 579" xmlns="http://www.w3.org/2000/svg">
<path d="M72.0408 0.748176C68.6696 1.37756 65.0732 5.20863 61.8368 6.64734C58.6985 7.95518 55.1912 9.72455 51.4734 11.5899C50.3488 17.5345 51.0648 18.8919 53.3867 19.7212C56.0403 20.6689 54.9119 24.0828 54.3433 26.7364C53.7747 29.3899 51.0074 18.5415 48.9224 21.9533C46.8375 25.365 46.0894 20.9844 39.8345 23.0693C33.6914 25.1171 28.6557 25.3176 25.9635 22.2722C24.2918 22.665 22.7387 22.9494 21.1804 23.0693C17.3448 23.5489 14.3373 22.1102 9.06321 23.0693C8.58363 23.0693 6.67044 24.0235 7.14997 24.9826C8.58842 25.9417 12.8909 24.5004 12.4114 25.9392C11.9318 28.3369 -1.46651 23.5067 1.41024 39.3319C2.17034 43.8933 3.55206 46.3609 5.23673 47.7821C4.48138 52.413 4.04843 53.9951 6.67166 52.2463C9.88826 50.1019 9.55749 53.6376 13.8463 52.5652C18.1351 51.493 13.3382 55.4281 10.6576 56.2322C7.9771 57.0364 8.0767 61.1539 5.39617 63.5663C2.71569 65.9788 6.14281 66.5239 5.87424 68.6683C5.60639 70.8127 8.5359 65.7177 14.165 62.7691C18.092 60.7121 15.3906 61.6012 17.6726 63.088C16.9229 63.5625 16.1743 63.9907 15.7593 64.6824C14.3209 66.6006 15.2833 69.1416 14.3244 71.0599C13.8448 71.5394 9.06176 65.3077 9.54129 70.1032C10.0209 72.0215 11.4499 74.4055 13.3678 75.3647C15.765 76.3237 22.6163 72.4873 22.1368 75.3647C21.1779 78.7215 14.8095 77.2729 11.9328 79.1911C10.015 81.1093 10.9705 85.4104 13.3678 84.9309C16.2444 84.4513 19.2601 81.5839 22.1368 81.1044C23.5752 80.6248 21.6608 83.0164 20.7019 83.4959C17.3457 86.3732 10.0218 84.9198 9.06298 89.2357C8.58339 90.1948 10.5004 92.1043 9.54098 92.5838C8.58211 93.543 5.71327 90.1886 6.19281 91.6272C6.19281 95.4636 11.4565 98.7919 10.4976 102.628C17.6895 98.7919 29.7688 95.9271 38.3991 97.8453C39.3579 98.3248 36.9629 100.234 37.4424 101.193C38.4014 102.153 40.3101 101.191 41.2689 102.15C47.0225 107.905 24.5005 109.782 36.0075 117.934C40.3227 120.812 46.0463 114.109 48.4436 113.63C48.9232 113.15 48.4436 115.063 48.4436 115.543C48.4436 116.502 47.4855 117.455 47.9656 117.934C50.8423 118.414 54.1767 117.455 57.0535 117.934C58.9713 117.934 61.3571 118.408 61.8366 120.326C62.7955 121.285 58.9645 122.238 59.9233 122.717C61.3618 123.677 63.7453 121.28 65.6631 122.239C67.581 122.719 74.7349 129.429 81.4473 123.674C82.4062 122.715 80.4884 120.329 81.4473 119.37C85.7624 116.492 85.4287 121.28 87.3465 122.239C98.3742 126.555 100.239 122.229 109.349 127.023C111.267 127.982 106.952 146.313 109.349 146.793C112.705 147.272 125.14 146.29 122.263 155.881C118.427 166.431 105.061 166.872 97.8693 170.708L87.8248 181.231C85.907 182.19 82.4074 179.314 80.969 180.753L85.2738 192.392C85.7534 196.228 82.8835 200.035 82.4039 203.871C81.9244 207.228 81.929 210.559 80.4907 213.916C80.0111 215.354 78.1004 215.348 77.6208 216.307C74.7441 222.062 80.0136 217.73 79.5341 222.525C79.0545 229.239 64.2247 224.893 65.6631 234.005C67.1014 244.075 74.2887 239.232 67.5763 252.659C61.8228 263.689 59.4715 262.87 48.4439 259.993C44.1288 259.034 41.2795 258.562 36.9644 257.123C36.0055 257.123 34.0933 255.686 34.5729 256.645C34.5729 257.125 42.2246 271.95 42.7042 272.429C42.7042 273.389 39.3489 283.414 42.2261 289.649C44.144 293.485 53.2272 299.691 53.2272 300.65C52.2684 313.118 42.7216 312.274 35.5297 318.028C27.3789 324.742 35.5348 320.405 32.6599 326.16C31.2215 329.517 27.8803 331.891 26.4418 335.248C26.4418 336.207 29.3105 335.245 29.79 336.204C31.7078 338.602 31.701 341.936 32.6599 344.814C33.6188 347.691 33.1323 351.505 35.5297 353.423C37.927 354.862 42.7009 351.026 44.1393 353.423C49.8928 363.014 26.4441 363.467 25.4852 363.946C22.6085 365.385 23.1005 370.636 20.2238 373.034C4.40164 386.942 9.06546 390.361 8.10659 410.502C14.3395 410.502 23.0891 411.934 25.0069 412.893C27.4042 414.332 28.8266 418.157 31.7033 417.676C32.6622 417.676 33.137 417.2 33.6165 416.242V417.198L46.5309 429.634C48.4487 432.032 50.3539 434.41 51.7923 437.287C53.0114 439.726 52.1102 444.258 53.865 445.897C51.4002 447.595 49.589 449.172 49.8791 450.042C50.1005 450.706 50.3872 451.222 50.8357 451.796C51.05 459.817 54.638 457.685 57.0537 458.971C57.1155 459.001 57.1532 459.092 57.2129 459.13C59.2855 463.035 57.5568 463.397 54.1836 461.84C54.404 462.569 54.7156 463.223 54.9808 463.913C54.9257 463.887 54.6619 463.722 54.6619 463.754C55.6208 468.549 60.3936 484.312 63.7498 487.669C65.1882 489.108 68.0512 487.666 69.4896 489.104C71.8868 491.022 72.3548 494.359 74.2727 496.757C75.7111 498.196 78.5729 498.667 80.4907 500.105C81.9292 501.064 81.9222 504.572 83.3606 504.091C87.1962 502.653 89.7312 498.677 92.6079 496.279C94.5258 494.84 97.3898 497.716 97.8693 497.235C102.184 491.001 101.197 487.202 109.827 482.886C120.375 477.612 129.898 486.242 137.569 483.364C142.843 480.966 145.687 473.802 151.44 472.363C156.714 471.404 185.066 475.705 191.299 478.103C194.656 479.062 196.553 481.927 199.909 482.886C206.142 483.845 212.331 480.491 218.085 481.929C222.4 482.409 232.583 490.543 236.898 489.104C240.255 488.145 241.675 484.323 244.551 483.364C258.935 479.528 260.8 495.331 266.554 491.974C281.896 484.301 281.983 465.691 296.847 456.1C305.477 450.346 317.39 445.57 327.458 448.447C329.856 448.927 332.236 451.317 334.633 451.317C338.469 451.797 343.718 452.283 345.156 448.926C346.115 445.569 338.46 444.153 338.46 440.316C338.939 424.971 347.538 435.877 351.374 426.286C352.813 423.408 349.935 419.119 351.852 416.241C353.29 413.843 357.268 415.768 359.186 413.85C360.624 411.931 359.181 408.116 361.099 405.718C362.058 404.759 364.444 406.678 365.882 405.718C367.8 404.28 366.836 400.939 368.274 399.5C371.63 397.103 375.918 396.633 379.753 395.674C380.712 395.674 382.143 397.112 383.102 396.152C384.061 395.672 384.056 393.285 385.015 392.326C388.371 389.928 396.486 388.985 399.842 386.107C404.158 383.231 386.453 373.039 385.015 371.12C380.7 364.886 375.439 341.962 379.275 334.769C387.905 317.025 405.55 303.555 418.975 289.648C423.769 284.853 425.817 276.745 431.57 272.429C432.529 271.949 447.355 268.606 447.355 267.168C447.834 263.811 440.662 264.306 439.223 260.95C438.265 256.634 444.955 254.101 448.311 251.224C461.257 240.674 490.523 244.062 506.825 239.266C511.14 238.307 515.427 231.14 518.304 229.222C522.14 225.865 530.249 223.965 535.523 222.047C541.277 219.649 561.984 211.538 564.381 206.263C569.176 198.11 561.507 186.976 563.425 185.058C565.822 182.66 572.032 183.633 572.991 179.796C573.95 176.919 572.04 174.541 569.643 172.143H567.73C560.058 170.225 551.325 165.913 544.133 170.708C542.694 171.667 544.616 175.49 542.698 175.97C537.903 177.408 529.795 167.838 525 167.838C520.685 167.838 517.357 170.229 513.521 170.708C510.644 171.188 510.175 165.928 509.216 164.968C506.819 163.05 503.006 162.102 499.65 160.664C484.787 164.98 485.773 158.284 488.171 153.489V153.011C485.773 151.572 487.06 147.276 484.663 145.358C483.224 143.919 480.364 143.924 477.967 143.445C477.008 143.445 475.576 143.924 475.097 143.445C469.823 138.649 465.072 132.926 456.921 131.487C451.167 130.528 453.573 141.531 453.573 141.531C448.299 141.052 444.018 137.225 439.223 137.705C437.785 137.705 437.792 140.575 436.354 140.575C433.477 140.095 432.056 136.75 429.179 136.27C426.302 135.79 424.403 138.663 421.526 138.183C415.293 138.183 417.548 131.813 414.192 128.936C407.479 123.181 401.292 131.818 395.059 127.023C394.58 127.023 389.799 116.023 389.32 115.543C383.087 110.748 372.595 113.168 365.882 106.934C364.924 105.975 366.362 103.588 365.882 102.629C364.924 101.67 362.063 106.936 359.186 105.977C352.953 103.1 366.849 97.3798 362.534 92.5843C361.096 90.6661 358.235 89.7157 355.838 89.2361C355.358 89.2361 355.84 91.6289 354.881 91.1494C354.881 91.1494 349.467 86.3737 346.591 83.4964C337.481 85.8941 324.125 86.3747 317.892 83.0184C315.495 81.5797 314.072 78.239 311.196 76.8004C310.237 76.0811 308.803 76.5004 307.369 76.8004C305.607 75.9375 303.814 75.147 302.267 74.5682C301.766 73.6194 301.553 72.688 301.47 72.0173C298.797 72.3448 295.581 72.0377 291.107 71.0606C291.043 70.9428 291.007 70.8571 290.947 70.7418C289.856 71.1224 288.828 71.609 288.237 72.4956C287.278 73.4547 289.675 76.8004 288.237 76.8004C284.401 76.8004 273.737 66.5989 269.902 65.6398C270.381 65.1602 270.858 64.2061 270.858 63.7265C270.532 63.0743 270.073 62.464 269.583 61.9727C264.689 62.7328 262.661 60.9345 259.219 62.7699C255.198 64.9143 252.77 65.1823 254.915 62.7699C257.059 60.3572 255.13 59.7916 248.697 60.0595C248.513 59.4483 248.493 59.0093 248.378 58.4651C247.419 58.9447 247.423 60.8554 246.465 61.335C230.642 66.1305 199.459 50.8332 187.473 42.6809C186.034 41.7217 183.17 45.0761 182.211 43.6375C181.253 43.1579 184.127 41.7267 183.168 40.7676C180.291 37.8903 174.565 40.7727 171.689 38.3761C168.812 35.9783 168.348 30.2473 164.992 29.2882C161.157 28.329 157.827 33.1146 153.991 33.1146C151.114 33.1146 149.534 30.2473 146.657 29.2882C143.78 28.8086 137.577 30.2462 134.221 29.7662C120.796 27.8479 128.035 27.3833 114.61 24.0264C113.843 23.8729 113.264 24.3346 112.697 24.9831C106.663 24.0028 103.337 23.4522 100.58 20.9971C96.1121 13.4062 93.682 2.82132 84.7955 2.82132C80.9598 2.82132 78.5867 9.67833 74.751 9.1988C72.3538 8.71921 77.1474 2.82505 75.229 1.38639C74.1502 0.667062 73.1645 0.538382 72.0408 0.748176ZM583.833 322.332C582.139 322.363 580.079 322.591 577.615 322.97C573.066 323.728 573.828 324.182 574.586 327.594C575.344 331.006 575.337 332.497 580.644 331.739C585.952 330.981 584.904 335.463 590.211 338.117C595.518 340.77 597.346 340.355 596.588 334.29C595.83 328.225 593.481 328.334 591.964 325.681C590.827 323.69 588.915 322.244 583.833 322.332ZM545.887 325.681C544.768 325.711 543.06 325.844 540.785 326.318C531.687 328.214 527.577 328.267 523.407 332.058C519.237 335.849 512.752 338.95 505.55 342.74C500.243 342.74 504.469 349.114 508.26 352.147C512.051 355.18 512.384 353.266 513.522 350.234C514.659 347.201 516.647 346.025 520.058 349.437C523.47 352.848 519.598 358.581 521.493 361.235C523.389 363.889 529.065 360.831 530.581 365.38C532.098 369.929 532.509 370.805 537.437 367.772C542.365 364.739 542.794 364.728 546.206 359.8C549.618 354.872 554.196 350.258 556.091 346.089C557.987 341.919 552.545 335.424 551.786 337.319C551.028 339.215 548.463 343.403 544.293 339.233C540.123 335.063 545.09 335.091 545.09 332.058C545.09 329.025 543.198 334.035 542.061 330.623C540.923 327.211 541.997 329.748 545.409 328.232C547.968 327.094 549.246 325.592 545.887 325.681ZM460.907 368.729C458.745 368.729 455.679 370.664 450.703 373.033C447.292 376.824 447.153 374.964 449.428 376.86C451.702 378.755 446.459 376.378 446.08 379.411C445.701 382.443 446.796 383.216 448.312 384.353C449.828 385.491 455.568 387.425 454.052 385.151C452.535 382.876 457.099 383.18 458.994 380.527C460.89 377.873 465.832 375.669 463.937 371.12C463.226 369.414 462.205 368.729 460.907 368.729ZM452.457 392.644C448.666 393.402 449.804 401.477 452.457 398.065C455.111 394.653 455.164 399.16 458.197 400.297C461.23 401.434 465.059 395.372 458.994 397.268C452.929 399.163 458.902 393.402 452.457 392.644ZM93.4053 510.946C88.5302 511.52 82.5551 515.255 81.9259 515.57L85.274 529.441H95.9563C95.9563 528.002 95.4782 527.053 95.4782 525.614C94.9986 522.737 94.0409 519.882 95.0002 517.005C95.4798 515.566 99.7845 515.095 99.305 513.657C98.5859 511.978 97.1566 511.119 95.4785 510.946C94.8493 510.881 94.1018 510.864 93.4053 510.946ZM212.824 564.517C211.408 563.816 208.166 571.507 205.649 573.605L212.824 578.388C212.824 574.072 213.782 569.31 213.302 565.474C213.182 564.994 213.026 564.617 212.824 564.517ZM215.056 575.997C214.876 576.116 214.737 576.474 214.737 576.953V577.431L215.693 575.996C215.454 575.996 215.235 575.877 215.056 575.997Z"/>
</svg>
