<svg width="330" height="881" viewBox="0 0 330 881" xmlns="http://www.w3.org/2000/svg">
<path d="M196.215 1.20408C194.805 1.34161 193.579 1.86247 192.86 3.12125C191.422 5.51904 197.652 6.95431 199.09 9.35205C200.528 12.2293 201.486 15.581 201.486 18.9379C201.486 24.6925 193.339 29 194.777 34.7545C195.257 39.0705 212.037 38.2639 196.215 48.3344C191.9 51.2117 158.841 34.9096 152.128 43.5415C149.252 47.3779 161.235 74.6934 151.649 78.5298L136.315 71.8197C133.438 71.8197 124.335 88.5929 123.856 92.4293C122.897 97.7043 122.899 104.409 119.064 109.204C116.187 112.561 110.917 107.283 112.355 115.915C114.273 126.465 126.734 127.411 121.46 140.358C118.583 148.511 102.772 167.194 99.8956 175.826C98.9366 180.142 105.168 183.972 103.729 188.288L93.0271 197.394C89.1915 199.312 81.5273 194.995 79.6094 199.311L84.4013 218.004C84.4013 218.004 82.0053 232.382 82.0053 232.862L83.4428 250.596C82.9633 252.514 80.5679 252.991 80.0884 254.909C75.7733 267.857 69.0692 281.263 64.754 294.69C61.8773 303.322 82.007 298.512 78.6509 322.01C75.2946 344.549 62.3686 322.163 42.7108 334.631C36.4778 338.468 25.9396 354.757 24.5013 362.43C24.0217 364.828 26.8975 366.743 26.418 368.661C25.9384 373.936 19.23 377.285 19.23 382.561C19.23 440.586 26.418 339.872 26.418 397.898C26.418 400.775 23.0637 402.689 23.0637 405.567C22.5842 408.923 24.501 411.796 24.9804 415.152C24.9804 418.03 22.5843 421.382 23.0637 424.259C23.5433 431.452 31.2094 437.675 32.1684 444.868C33.1273 455.419 25.4584 468.828 27.8557 478.898C30.7324 489.928 48.9394 488.957 50.8572 500.946L45.5861 520.117C41.7504 523.474 32.1682 521.073 32.6477 525.869C35.045 546.49 47.5057 541.191 42.2317 568.526L42.7106 582.425C38.3955 593.455 23.0641 594.406 22.1051 597.763C21.6256 598.722 24.0218 599.2 24.0218 600.638C24.9808 602.557 25.9391 604.951 24.9802 606.869C23.5418 609.746 18.7512 610.222 17.7923 613.579C14.9155 622.211 28.3403 641.53 17.7923 656.396C13.4771 662.63 11.5635 657.836 10.1251 653.041C7.24837 653.52 2.45885 649.205 0.541016 651.603C0.541016 651.603 6.29128 673.168 6.77072 678.923C6.77072 682.28 1.97714 690.903 4.85387 693.781C23.0733 712.004 18.0089 690.145 23.7024 696.656C25.6795 699.213 24.7067 708.042 23.7024 710.875C22.6644 713.81 23.7561 715.645 22.5843 718.065C20.7968 721.757 24.2379 720.034 22.9038 721.739C21.0149 724.155 17.5816 724.904 19.3896 726.532C24.355 731.004 22.3621 730.642 20.9871 734.84C20.0643 737.657 25.7785 733.082 26.7373 734.521C28.4155 737.158 25.0052 735.668 25.6193 737.716C26.3245 740.067 27.423 739.892 28.3347 743.467C29.2465 747.043 27.3361 753.172 30.2515 755.13C31.6899 757.528 32.0073 749.697 34.4046 751.615C37.8395 753.453 30.9701 757.047 36.1617 757.846C35.1237 762.799 35.7211 764.858 38.7175 764.876C37.8355 768.849 40.7934 775.499 43.8288 776.698C44.7878 778.616 44.1485 780.052 45.1068 781.97C47.0247 784.368 50.8561 784.366 52.7739 786.763C55.6507 790.12 54.5289 797.946 58.3646 799.385C60.2824 799.864 63.156 798.425 64.115 800.343C66.0328 803.7 67.6304 807.371 65.2332 810.728C63.7948 813.605 57.0875 809.768 55.6492 813.124C53.7313 816.961 67.1519 822.709 63.3163 824.148C59.0011 826.066 52.2957 816.477 50.3779 820.793C49.419 821.752 50.2159 826.381 54.0519 832.616L57.2465 837.888C63.9589 848.438 69.7058 858.018 69.7058 858.018C68.7468 860.416 64.9136 863.608 64.9136 866.485C64.4341 869.363 67.4694 871.277 67.4694 874.154C67.4694 874.154 62.3561 875.911 65.7123 877.829C67.6301 878.788 70.5033 877.35 72.4211 877.35C75.7774 877.829 79.1278 880.225 82.9636 880.225C94.95 880.225 91.7426 872.077 103.25 873.036C104.688 873.036 112.353 877.83 114.751 875.433C117.627 872.555 120.022 869.204 120.501 865.367C120.98 852.899 105.16 858.667 117.626 840.444C119.064 838.047 119.541 834.693 122.418 833.734C125.774 832.775 130.084 835.65 132.481 833.255C133.919 830.857 128.647 827.984 129.606 825.107C130.085 823.189 132.959 824.628 134.877 824.628C137.274 824.628 139.188 825.59 141.586 825.107C142.545 825.107 146.855 824.15 150.211 822.231C151.65 821.752 148.771 828.943 153.087 825.586C155.484 823.189 155.959 820.794 160.754 820.314C161.233 820.314 159.792 822.231 160.275 822.711C160.275 822.711 167.303 821.754 167.303 823.19C167.782 824.149 166.345 825.106 166.345 826.065C166.824 827.025 168.261 827.504 168.741 827.024C176.891 819.351 176.247 802.905 177.686 792.835C180.083 776.53 177.683 803.867 182.957 788.042C183.916 786.603 180.56 784.687 181.519 783.249C181.999 781.81 185.832 783.249 185.832 781.811C187.27 775.577 180.08 769.192 183.915 765.355C185.354 763.917 187.748 765.835 188.707 764.876C183.991 758.946 182.477 753.375 183.436 750.497C183.916 746.661 185.991 742.671 187.909 739.314C188.388 738.834 190.784 738.835 190.305 737.876C188.387 735.478 183.596 735.481 183.596 732.604C183.116 728.767 189.346 726.854 189.346 723.497C189.346 719.661 181.68 717.268 179.762 714.87C178.803 713.911 176.886 711.994 178.325 711.994C181.681 710.556 187.428 714.872 189.825 711.994C193.182 707.678 183.116 697.936 183.596 695.539C184.075 693.62 187.748 697.619 188.707 695.698C190.146 693.3 185.993 683.237 184.075 681.799C181.198 679.88 172.733 680.203 175.13 677.325C177.527 674.448 183.274 677.964 187.11 677.964C192.384 677.964 188.067 675.09 189.985 673.171C190.465 672.692 192.86 674.13 192.86 673.171C189.504 665.499 182.829 669.464 175.609 668.219C174.171 668.219 175.61 671.095 174.651 671.095C173.212 671.574 173.214 668.698 172.255 668.219C171.775 668.219 171.297 669.657 170.817 669.657C169.379 669.657 167.942 669.657 167.463 668.698C165.545 664.382 188.227 666.142 189.186 666.142C189.666 666.142 190.145 665.184 190.624 664.704C191.343 664.345 192.638 664.658 193.02 664.704C193.02 663.625 190.819 663.216 190.145 662.947C190.17 662.921 190.085 662.815 190.145 662.787C191.104 661.828 198.292 665.666 196.374 659.911C196.374 658.473 191.102 657.515 192.541 657.036C195.897 656.556 201.964 656.876 204.84 654.959C213.471 648.724 209.792 629.876 209.792 629.876C217.463 628.917 212.026 643.135 216.82 645.053C218.259 646.012 214.423 640.74 215.862 639.781C218.259 638.822 219.695 647.93 220.654 646.012C222.092 642.655 221.611 638.185 223.529 634.828C225.447 631.472 225.125 632.113 228.481 630.195C229.44 629.236 234.87 629.237 234.391 628.278C234.391 624.921 231.996 624.445 230.557 621.568C230.078 621.088 229.12 618.373 229.599 618.373C237.275 626.536 238.543 620.611 240.94 617.254C242.378 614.857 237.907 611.822 235.03 612.302C234.696 615.944 233.867 616.282 230.398 614.219C227.774 615.093 223.919 618.411 219.376 619.171C217.458 620.61 216.822 623.005 214.424 623.964C211.068 625.403 211.072 622.687 207.236 621.728C205.77 625.089 201.807 620.77 199.409 621.728C198.451 622.207 200.206 624.124 199.25 625.083C197.811 626.521 196.854 627.003 195.895 625.562C194.937 623.164 198.292 622.208 196.854 620.769C194.457 618.371 191.584 620.609 188.707 619.651C185.831 618.212 186.792 618.213 185.193 616.136C182.613 614.802 182.527 613.536 178.804 614.698C179.515 615.851 180.365 616.114 182.638 617.893C185.235 619.927 182.575 619.822 180.881 618.692C179.517 617.783 178.056 616.86 176.887 614.858C175.246 614.847 173.613 614.594 170.977 614.858C168.1 615.817 164.192 619.216 157.719 616.136C156.76 615.177 162.511 614.379 163.47 613.899C166.826 611.981 166.662 612.781 170.498 612.301C171.936 612.301 170.817 608.947 171.297 607.988C172.735 605.59 174.65 611.024 177.047 610.544C179.924 610.064 178.789 606.283 181.519 607.189C186.286 608.771 186.083 606.051 190.145 607.348C194.829 610.908 197.629 613.599 199.09 610.703C193.752 599.042 199.242 602.278 201.965 606.23C203.836 608.945 206.168 610.484 208.994 610.064C214.613 605.716 205.673 603.206 202.764 600.638C203.483 597.067 202.82 595.253 201.806 596.804C200.701 598.493 199.02 599.353 199.41 598.721C201.606 595.157 196.828 596.071 197.493 594.727C198.158 593.384 201.255 595.134 203.722 590.413C206.288 593.886 205.303 596.67 205.639 599.999C208.037 603.273 208.047 596.142 212.827 605.112C212.827 608.469 211.068 616.615 214.904 616.615C218.739 616.615 222.569 611.662 225.925 611.183C227.843 610.703 229.279 612.941 230.238 611.502C230.238 611.023 228.321 606.869 228.801 606.39C242.225 600.156 237.903 595.848 242.218 591.053C244.136 589.614 242.536 588.976 244.934 588.496C245.413 588.496 249.086 594.091 249.566 589.295C249.649 588.549 249.54 588.019 249.566 587.378C247.459 586.472 246.401 586.146 244.295 586.899C242.059 587.698 240.541 588.497 239.822 588.816C239.103 589.136 238.305 588.417 240.301 587.378C242.298 586.34 243.017 586.02 243.176 584.982C243.256 584.462 243.536 584.103 243.815 583.704C243.256 585.86 243.815 586.899 245.732 585.781C247.649 584.662 247.729 584.742 246.211 583.224C245.073 582.086 244.669 582.052 244.294 582.745C244.32 582.599 244.32 582.439 244.294 582.266C244.135 581.068 244.374 581.547 243.176 579.87C241.978 578.192 243.975 579.391 245.253 581.148C247.649 583.305 246.77 584.024 249.246 583.385C247.866 577.449 242.672 578.148 241.26 570.923C239.342 569.484 240.941 567.728 238.544 566.769C236.626 565.81 235.51 568.527 234.071 568.047C231.195 566.129 226.725 563.096 224.807 560.219C223.369 558.301 221.841 556.285 226.724 558.941C230.052 561.823 230.926 560.597 231.037 559.1C226.814 556.237 223.855 555.371 219.536 554.467C218.577 553.988 220.732 553.201 218.418 551.112C212.666 545.983 213.09 548.671 210.91 544.242C209.951 542.324 209.793 541.207 207.875 540.248C205.478 538.809 203.181 546.139 200.368 546.159C197.555 546.18 201.674 538.292 191.582 538.97C190.147 539.066 189.986 533.538 188.547 533.059C187.588 532.579 186.151 534.018 186.151 533.059C185.672 530.181 187.429 529.386 186.95 526.508C186.47 523.631 184.235 520.119 183.276 517.721C183.144 512.395 187.266 514.813 183.117 509.733C182.158 507.815 181.839 507.977 181.36 506.059C180.401 504.14 181.36 502.864 181.36 500.946C181.36 499.987 183.756 500.468 183.277 499.508C182.797 497.59 178.963 497.113 179.443 494.715C182.386 486.043 171.924 483.602 178.005 472.508C181.841 471.07 183.914 479.699 186.791 476.822C189.667 473.945 186.472 471.871 184.554 468.514C182.719 466.905 182.797 465.143 182.797 463.082C181.838 460.205 181.836 457.332 182.318 454.455C182.798 452.057 184.714 450.142 185.194 447.745C185.673 443.908 184.075 444.392 184.555 440.555C187.717 440.98 188.434 439.592 183.916 437.36C186.874 430.388 171.275 433.178 178.485 422.981C181.362 421.063 183.115 426.496 186.471 426.017C187.91 426.017 186.784 422.889 191.104 421.224C193.021 418.826 191.742 414.994 193.18 412.597C194.139 411.638 194.617 416.431 195.576 416.431C199.412 417.39 198.931 410.202 197.493 406.845C193.221 404.888 191.128 404.564 185.194 391.668C192.121 398.396 191.526 400.007 195.896 400.455C195.896 401.893 196.296 403.557 199.09 402.851C200.56 402.48 197.855 398.378 200.847 397.419C205.052 399.033 207.555 395.025 208.994 391.188C209.953 387.831 203.564 391.669 200.688 389.271C198.77 387.833 205.319 385.917 207.237 383.999C208.675 382.56 207.716 379.207 208.674 377.289C209.154 376.809 211.07 377.768 211.07 377.289C210.591 375.85 207.236 375.372 208.195 374.413C209.633 372.974 212.507 375.855 213.466 374.892C214.425 373.454 211.07 372.017 211.55 370.579C212.029 369.619 213.945 369.617 214.904 370.099C213.147 369.229 211.325 368.662 212.508 368.662C215.864 368.182 219.215 372.976 222.092 371.537C225.448 369.619 225.925 364.829 226.405 361.472C226.884 358.595 222.41 356.521 224.807 354.602C226.725 353.164 230.078 360.355 231.516 357.957C232.955 354.601 225.605 352.687 227.523 349.81C229.441 347.412 233.751 357.159 236.628 356.2C239.025 355.241 238.703 346.136 240.142 344.218C241.58 341.34 247.329 342.302 248.767 340.383C250.206 339.424 248.288 336.55 249.247 335.111H249.725C249.725 334.632 249.728 333.993 250.204 333.993C251.643 333.034 251.162 339.905 252.6 338.946C255.957 337.507 251.161 329.679 254.517 329.2C255.476 328.72 255.475 332.076 256.434 332.076C262.188 331.117 264.739 304.759 267.615 299.005C269.533 294.689 275.249 289.464 278.158 284.466C274.322 275.834 260.108 273.289 260.587 261.78C261.067 252.189 273.367 249.802 270.491 241.17C269.052 237.334 266.819 235.1 263.462 232.702C262.503 232.223 260.747 231.584 260.747 230.146C260.836 229.813 260.939 229.482 261.066 229.188C261.355 229.455 261.995 229.99 262.185 230.146C264.022 231.664 264.101 232.063 264.421 232.862C264.74 233.661 268.175 235.339 268.893 236.058C269.612 236.776 272.008 234.7 272.248 233.661C272.488 232.623 270.251 230.226 268.574 229.827C267.056 229.746 266.977 231.023 265.858 229.667C265.407 229.12 264.727 227.568 264.101 225.993C268.32 223.693 275.056 224.218 277.839 222.478C278.798 221.998 276.877 220.082 277.359 219.602C278.318 219.123 278.797 221.999 279.276 221.519C282.153 219.122 278.914 218.721 276.401 216.886C275.442 216.886 273.526 216.883 274.005 216.407C276.882 214.968 282.631 215.93 281.672 213.052C281.209 210.501 274.747 211.206 270.651 206.821C274.121 207.084 284.341 213.279 288.062 212.413C288.882 212.078 285.686 207.337 281.672 208.099C280.713 205.222 282.391 205.226 285.666 204.744C286.145 200.83 280.874 202.348 284.388 197.715C285.257 196.569 282.151 192.922 283.11 192.922C284.868 193.042 286.391 194.211 287.263 196.596C287.675 197.724 288.501 196.503 289.659 196.117C290.817 195.731 292.267 196.293 292.055 195.478C290.135 188.096 290.436 190.29 300.84 197.555C304.234 199.925 303.786 197.322 304.993 195.958C306.561 194.187 302.517 192.843 303.715 192.123C307.072 190.205 306.589 194.52 310.424 194.04C311.295 193.989 309.589 190.7 313.14 190.845C317.373 191.484 315.835 188.728 317.932 188.768C320.028 188.809 320.886 191.484 323.682 190.206C325.6 189.247 327.939 188.999 329.378 187.08C323.624 174.612 312.184 167.208 307.869 151.863C307.389 149.465 311.702 131.256 311.223 125.502C310.264 117.829 298.765 111.606 295.888 104.892C293.012 100.097 303.08 93.3917 296.847 88.5962C294.45 86.678 287.262 90.9959 288.221 85.2412C288.221 83.323 290.138 81.4079 289.659 79.4897C288.22 67.9805 282.468 67.5128 287.742 57.4423C288.222 56.0036 285.347 56.0049 284.388 55.0458C281.511 52.1685 280.077 47.3779 276.241 45.9393C275.282 45.4597 274.325 47.8566 272.887 47.3771C270.969 46.418 272.409 42.1057 270.491 40.667C261.381 31.5556 253.245 35.2373 243.177 30.9215C234.546 27.085 220.658 15.5874 212.508 9.3533C208.672 6.95556 216.344 7.43818 210.591 3.60179C208.673 2.16315 206.279 2.16448 204.841 1.20533H203.882C201.964 1.68488 199.689 1.26566 197.653 1.20533C197.143 1.18999 196.685 1.15807 196.215 1.20408ZM214.904 370.099C215.863 371.059 213.462 373.454 214.425 373.454C215.383 373.454 217.779 372.975 217.3 372.016C217.116 371.282 215.994 370.64 214.904 370.099ZM250.205 338.466C250.444 339.185 250.624 339.803 250.684 340.223C250.681 339.716 250.643 338.905 250.205 338.466ZM222.89 543.762C222.689 543.742 222.493 543.732 222.251 543.922C221.447 544.561 221.516 551.127 223.21 552.709C224.904 554.29 228.745 556.551 229.439 555.425C230.554 553.619 226.237 552.393 225.446 550.472C224.754 548.792 224.297 543.923 222.89 543.762ZM185.832 610.384C185.583 610.484 185.513 610.743 185.513 611.502C185.513 613.02 184.155 613.899 185.193 615.337L185.033 615.496C186.95 617.413 188.308 617.414 188.228 615.816C188.148 614.218 189.506 614.138 189.666 612.94C189.825 611.742 188.947 610.943 187.27 610.543C186.431 610.344 186.082 610.284 185.832 610.384ZM207.875 613.739C207.659 613.785 207.416 613.898 207.077 614.058C205.719 614.698 205 614.538 203.563 614.378C202.125 614.218 203.962 616.215 205 616.934C206.038 617.653 206.278 616.215 206.757 617.254V617.413C207.955 619.65 208.834 621.887 210.431 620.129C212.028 618.372 213.147 618.452 211.709 617.094C210.271 615.736 209.632 615.975 209.632 617.094C209.632 618.212 208.993 616.455 208.834 615.017C208.714 613.938 208.523 613.604 207.875 613.739ZM190.305 614.218C189.264 614.315 189.266 614.797 190.944 615.816C191.423 617.413 190.065 618.612 193.18 618.372C196.295 618.132 197.812 617.813 197.173 616.614C196.534 615.416 196.055 614.777 195.097 614.218C194.138 613.659 194.058 615.416 193.499 615.336C192.94 615.257 193.819 614.458 191.583 614.218C191.024 614.158 190.652 614.187 190.305 614.218ZM267.775 697.136C267.484 697.201 267.09 697.351 266.497 697.775C264.126 699.469 264.892 699.342 264.101 700.81C263.311 702.279 263.677 703.421 264.581 704.325C265.484 705.342 268.367 706.931 268.254 705.124C268.141 703.316 266.418 702.965 267.775 701.609C269.131 700.253 272.887 700.089 272.887 698.733C272.887 697.378 272.204 697.163 270.171 697.615C268.647 697.954 268.649 696.938 267.775 697.136ZM21.6261 699.692C20.9838 699.815 20.1434 700.329 19.0704 701.289C14.7784 705.13 9.79447 705.569 10.924 708.958C12.7312 714.381 13.6716 709.757 16.8341 709.757C19.9968 709.757 23.3171 711.053 23.543 706.082C23.7122 702.354 23.5532 699.321 21.6261 699.692ZM258.191 702.568C257.307 702.643 257.65 708.7 256.754 708.798C255.857 708.897 253.677 703.074 253.24 703.207C250.953 703.898 251.972 707.348 250.524 708.798C249.077 710.248 246.96 709.282 245.892 710.715C241.474 716.645 236.52 728.762 236.308 730.526C236.308 733.883 238.544 737.075 239.023 740.432C239.023 743.309 237.106 743.465 237.106 746.343C237.445 748.065 239.005 747.485 240.461 749.858C241.916 752.23 242.991 756.253 244.135 757.366C244.478 757.701 244.138 759.284 244.614 759.284C244.854 759.284 245.173 759.104 245.412 758.805C243.758 761.905 240.92 765.316 242.218 767.911C243.656 770.789 247.329 764.398 248.767 762C252.603 754.807 240.51 764.973 255.156 748.74C264.266 741.546 253.076 745.868 259.309 738.674C261.227 736.756 265.219 737.238 265.219 734.361C265.219 730.045 257.237 736.99 258.67 724.296C259.285 718.852 256.122 722.585 258.99 716.787C260.449 713.837 267.813 708.492 263.143 703.526C260.626 703.886 259.959 702.417 258.191 702.568ZM20.0288 713.112C18.617 713.225 16.5647 713.751 14.7575 713.751C13.4022 715.107 13.8843 716.075 15.2367 720.142C16.5921 724.208 19.4994 718.032 21.3066 714.869C22.2101 713.288 21.4407 712.999 20.0288 713.112ZM205.959 743.467C204.52 743.947 202.605 743.466 201.646 744.905C197.331 750.659 200.688 753.05 199.729 758.804C197.332 771.752 186.472 779.886 185.513 793.793C185.513 795.231 187.429 816.799 188.388 816.799C194.621 816.319 192.7 797.628 193.18 795.231C194.618 785.16 202.602 751.14 205.959 743.467Z" fill="#171717"/>
<path d="M214.904 370.099C213.945 369.617 212.029 369.619 211.55 370.579C211.07 372.017 214.425 373.454 213.466 374.892C212.507 375.855 209.633 372.974 208.195 374.413C207.236 375.372 210.591 375.85 211.07 377.289C211.07 377.768 209.154 376.809 208.674 377.289C207.716 379.207 208.675 382.56 207.237 383.999C205.319 385.917 198.77 387.833 200.688 389.271C203.564 391.669 209.953 387.831 208.994 391.188C207.555 395.025 205.052 399.033 200.847 397.419C197.855 398.378 200.56 402.48 199.09 402.851C196.296 403.557 195.896 401.893 195.896 400.455C191.526 400.007 192.121 398.396 185.194 391.668C191.128 404.564 193.221 404.888 197.493 406.845C198.931 410.202 199.412 417.39 195.576 416.431C194.617 416.431 194.139 411.638 193.18 412.597C191.742 414.994 193.021 418.826 191.104 421.224C186.784 422.889 187.91 426.017 186.471 426.017C183.115 426.496 181.362 421.063 178.485 422.981C171.275 433.178 186.874 430.388 183.916 437.36C188.434 439.592 187.717 440.98 184.555 440.555C184.075 444.392 185.673 443.908 185.194 447.745C184.714 450.142 182.798 452.057 182.318 454.455C181.836 457.332 181.838 460.205 182.797 463.082C182.797 465.143 182.719 466.905 184.554 468.514C186.472 471.871 189.667 473.945 186.791 476.822C183.914 479.699 181.841 471.07 178.005 472.508C171.924 483.602 182.386 486.043 179.443 494.715C178.963 497.113 182.797 497.59 183.277 499.508C183.756 500.468 181.36 499.987 181.36 500.946C181.36 502.864 180.401 504.14 181.36 506.059C181.839 507.977 182.158 507.815 183.117 509.733C187.266 514.813 183.144 512.395 183.276 517.721C184.235 520.119 186.47 523.631 186.95 526.508C187.429 529.386 185.672 530.181 186.151 533.059C186.151 534.018 187.588 532.579 188.547 533.059C189.986 533.538 190.147 539.066 191.582 538.97C201.674 538.292 197.555 546.18 200.368 546.159C203.181 546.139 205.478 538.809 207.875 540.248C209.793 541.207 209.951 542.324 210.91 544.242C213.09 548.671 212.666 545.983 218.418 551.112C220.732 553.201 218.577 553.988 219.536 554.467C223.855 555.371 226.814 556.237 231.037 559.1C230.926 560.597 230.052 561.823 226.724 558.941C221.841 556.285 223.369 558.301 224.807 560.219C226.725 563.096 231.195 566.129 234.071 568.047C235.51 568.527 236.626 565.81 238.544 566.769C240.941 567.728 239.342 569.484 241.26 570.923C242.672 578.148 247.866 577.449 249.246 583.385C246.77 584.024 247.649 583.305 245.253 581.148C243.975 579.391 241.978 578.192 243.176 579.87C244.374 581.547 244.135 581.068 244.294 582.266C244.32 582.439 244.32 582.599 244.294 582.745C244.669 582.052 245.073 582.086 246.211 583.224C247.729 584.742 247.649 584.662 245.732 585.781C243.815 586.899 243.256 585.86 243.815 583.704C243.536 584.103 243.256 584.462 243.176 584.982C243.017 586.02 242.298 586.34 240.301 587.378C238.305 588.417 239.103 589.136 239.822 588.816C240.541 588.497 242.059 587.698 244.295 586.899C246.401 586.146 247.459 586.472 249.566 587.378C249.54 588.019 249.649 588.549 249.566 589.295C249.086 594.091 245.413 588.496 244.934 588.496C242.536 588.976 244.136 589.614 242.218 591.053C237.903 595.848 242.225 600.156 228.801 606.39C228.321 606.869 230.238 611.023 230.238 611.502C229.279 612.941 227.843 610.703 225.925 611.183C222.569 611.662 218.739 616.615 214.904 616.615C211.068 616.615 212.827 608.469 212.827 605.112C208.047 596.142 208.037 603.273 205.639 599.999C205.303 596.67 206.288 593.886 203.722 590.413C201.255 595.134 198.158 593.384 197.493 594.727C196.828 596.071 201.606 595.157 199.41 598.721C199.02 599.353 200.701 598.493 201.806 596.804C202.82 595.253 203.483 597.067 202.764 600.638C205.673 603.206 214.613 605.716 208.994 610.064C206.168 610.484 203.836 608.945 201.965 606.23C199.242 602.278 193.752 599.042 199.09 610.703C197.629 613.599 194.829 610.908 190.145 607.348C186.083 606.051 186.286 608.771 181.519 607.189C178.789 606.283 179.924 610.064 177.047 610.544C174.65 611.024 172.735 605.59 171.297 607.988C170.817 608.947 171.936 612.301 170.498 612.301C166.662 612.781 166.826 611.981 163.47 613.899C162.511 614.379 156.76 615.177 157.719 616.136C164.192 619.216 168.1 615.817 170.977 614.858C173.613 614.594 175.246 614.847 176.887 614.858C178.056 616.86 179.517 617.783 180.881 618.692C182.575 619.822 185.235 619.927 182.638 617.893C180.365 616.114 179.515 615.851 178.804 614.698C182.527 613.536 182.613 614.802 185.193 616.136C186.792 618.213 185.831 618.212 188.707 619.651C191.584 620.609 194.457 618.371 196.854 620.769C198.292 622.208 194.937 623.164 195.895 625.562C196.854 627.003 197.811 626.521 199.25 625.083C200.206 624.124 198.451 622.207 199.409 621.728C201.807 620.77 205.77 625.089 207.236 621.728C211.072 622.687 211.068 625.403 214.424 623.964C216.822 623.005 217.458 620.61 219.376 619.171C223.919 618.411 227.774 615.093 230.398 614.219C233.867 616.282 234.696 615.944 235.03 612.302C237.907 611.822 242.378 614.857 240.94 617.254C238.543 620.611 237.275 626.536 229.599 618.373C229.12 618.373 230.078 621.088 230.557 621.568C231.996 624.445 234.391 624.921 234.391 628.278C234.87 629.237 229.44 629.236 228.481 630.195C225.125 632.113 225.447 631.472 223.529 634.828C221.611 638.185 222.092 642.655 220.654 646.012C219.695 647.93 218.259 638.822 215.862 639.781C214.423 640.74 218.259 646.012 216.82 645.053C212.026 643.135 217.463 628.917 209.792 629.876C209.792 629.876 213.471 648.724 204.84 654.959C201.964 656.876 195.897 656.556 192.541 657.036C191.102 657.515 196.374 658.473 196.374 659.911C198.292 665.666 191.104 661.828 190.145 662.787C190.085 662.815 190.17 662.921 190.145 662.947C190.819 663.216 193.02 663.625 193.02 664.704C192.638 664.658 191.343 664.345 190.624 664.704C190.145 665.184 189.666 666.142 189.186 666.142C188.227 666.142 165.545 664.382 167.463 668.698C167.942 669.657 169.379 669.657 170.817 669.657C171.297 669.657 171.775 668.219 172.255 668.219C173.214 668.698 173.212 671.574 174.651 671.095C175.61 671.095 174.171 668.219 175.609 668.219C182.829 669.464 189.504 665.499 192.86 673.171C192.86 674.13 190.465 672.692 189.985 673.171C188.067 675.09 192.384 677.964 187.11 677.964C183.274 677.964 177.527 674.448 175.13 677.325C172.733 680.203 181.198 679.88 184.075 681.799C185.993 683.237 190.146 693.3 188.707 695.698C187.748 697.619 184.075 693.62 183.596 695.539C183.116 697.936 193.182 707.678 189.825 711.994C187.428 714.872 181.681 710.556 178.325 711.994C176.886 711.994 178.803 713.911 179.762 714.87C181.68 717.268 189.346 719.661 189.346 723.497C189.346 726.854 183.116 728.767 183.596 732.604C183.596 735.481 188.387 735.478 190.305 737.876C190.784 738.835 188.388 738.834 187.909 739.314C185.991 742.671 183.916 746.661 183.436 750.497C182.477 753.375 183.991 758.946 188.707 764.876C187.748 765.835 185.354 763.917 183.915 765.355C180.08 769.192 187.27 775.577 185.832 781.811C185.832 783.249 181.999 781.81 181.519 783.249C180.56 784.687 183.916 786.603 182.957 788.042C177.683 803.867 180.083 776.53 177.686 792.835C176.247 802.905 176.891 819.351 168.741 827.024C168.261 827.504 166.824 827.025 166.345 826.065C166.345 825.106 167.782 824.149 167.303 823.19C167.303 821.754 160.275 822.711 160.275 822.711C159.792 822.231 161.233 820.314 160.754 820.314C155.959 820.794 155.484 823.189 153.087 825.586C148.771 828.943 151.65 821.752 150.211 822.231C146.855 824.15 142.545 825.107 141.586 825.107C139.188 825.59 137.274 824.628 134.877 824.628C132.959 824.628 130.085 823.189 129.606 825.107C128.647 827.984 133.919 830.857 132.481 833.255C130.084 835.65 125.774 832.775 122.418 833.734C119.541 834.693 119.064 838.047 117.626 840.444C105.16 858.667 120.98 852.899 120.501 865.367C120.022 869.204 117.627 872.555 114.751 875.433C112.353 877.83 104.688 873.036 103.25 873.036C91.7426 872.077 94.95 880.225 82.9636 880.225C79.1278 880.225 75.7774 877.829 72.4211 877.35C70.5033 877.35 67.6301 878.788 65.7123 877.829C62.3561 875.911 67.4694 874.154 67.4694 874.154C67.4694 871.277 64.4341 869.363 64.9136 866.485C64.9136 863.608 68.7468 860.416 69.7058 858.018C69.7058 858.018 63.9589 848.438 57.2465 837.888L54.0519 832.616C50.2159 826.381 49.419 821.752 50.3779 820.793C52.2957 816.477 59.0011 826.066 63.3163 824.148C67.1519 822.709 53.7313 816.961 55.6492 813.124C57.0875 809.768 63.7948 813.605 65.2332 810.728C67.6304 807.371 66.0328 803.7 64.115 800.343C63.156 798.425 60.2824 799.864 58.3646 799.385C54.5289 797.946 55.6507 790.12 52.7739 786.763C50.8561 784.366 47.0247 784.368 45.1068 781.97C44.1485 780.052 44.7878 778.616 43.8288 776.698C40.7934 775.499 37.8355 768.849 38.7175 764.876C35.7211 764.858 35.1237 762.799 36.1617 757.846C30.9701 757.047 37.8395 753.453 34.4046 751.615C32.0073 749.697 31.6899 757.528 30.2515 755.13C27.3361 753.172 29.2465 747.043 28.3347 743.467C27.423 739.892 26.3245 740.067 25.6193 737.716C25.0052 735.668 28.4155 737.158 26.7373 734.521C25.7785 733.082 20.0643 737.657 20.9871 734.84C22.3621 730.642 24.355 731.004 19.3896 726.532C17.5816 724.904 21.0149 724.155 22.9038 721.739C24.2379 720.034 20.7968 721.757 22.5843 718.065C23.7561 715.645 22.6644 713.81 23.7024 710.875C24.7067 708.042 25.6795 699.213 23.7024 696.656C18.0089 690.145 23.0733 712.004 4.85387 693.781C1.97714 690.903 6.77072 682.28 6.77072 678.923C6.29128 673.168 0.541016 651.603 0.541016 651.603C2.45885 649.205 7.24837 653.52 10.1251 653.041C11.5635 657.836 13.4771 662.63 17.7923 656.396C28.3403 641.53 14.9155 622.211 17.7923 613.579C18.7512 610.222 23.5418 609.746 24.9802 606.869C25.9391 604.951 24.9808 602.557 24.0218 600.638C24.0218 599.2 21.6256 598.722 22.1051 597.763C23.0641 594.406 38.3955 593.455 42.7106 582.425L42.2317 568.526C47.5057 541.191 35.045 546.49 32.6477 525.869C32.1682 521.073 41.7504 523.474 45.5861 520.117L50.8572 500.946C48.9394 488.957 30.7324 489.928 27.8557 478.898C25.4584 468.828 33.1273 455.419 32.1684 444.868C31.2094 437.675 23.5433 431.452 23.0637 424.259C22.5843 421.382 24.9804 418.03 24.9804 415.152C24.501 411.796 22.5842 408.923 23.0637 405.567C23.0637 402.689 26.418 400.775 26.418 397.898C26.418 339.872 19.23 440.586 19.23 382.561C19.23 377.285 25.9384 373.936 26.418 368.661C26.8975 366.743 24.0217 364.828 24.5013 362.43C25.9396 354.757 36.4778 338.468 42.7108 334.631C62.3686 322.163 75.2946 344.549 78.6509 322.01C82.007 298.512 61.8773 303.322 64.754 294.69C69.0692 281.263 75.7733 267.857 80.0884 254.909C80.5679 252.991 82.9633 252.514 83.4428 250.596L82.0053 232.862C82.0053 232.382 84.4013 218.004 84.4013 218.004L79.6094 199.311C81.5273 194.995 89.1915 199.312 93.0271 197.394L103.729 188.288C105.168 183.972 98.9366 180.142 99.8956 175.826C102.772 167.194 118.583 148.511 121.46 140.358C126.734 127.411 114.273 126.465 112.355 115.915C110.917 107.283 116.187 112.561 119.064 109.204C122.899 104.409 122.897 97.7043 123.856 92.4293C124.335 88.5929 133.438 71.8197 136.315 71.8197L151.649 78.5298C161.235 74.6934 149.252 47.3779 152.128 43.5415C158.841 34.9096 191.9 51.2117 196.215 48.3344C212.037 38.2639 195.257 39.0705 194.777 34.7545C193.339 29 201.486 24.6925 201.486 18.9379C201.486 15.581 200.528 12.2293 199.09 9.35205C197.652 6.95431 191.422 5.51904 192.86 3.12125C193.579 1.86247 194.805 1.34161 196.215 1.20408C196.685 1.15807 197.143 1.18999 197.653 1.20533C199.689 1.26566 201.964 1.68488 203.882 1.20533H204.841C206.279 2.16448 208.673 2.16315 210.591 3.60179C216.344 7.43818 208.672 6.95556 212.508 9.3533C220.658 15.5874 234.546 27.085 243.177 30.9215C253.245 35.2373 261.381 31.5556 270.491 40.667C272.409 42.1057 270.969 46.418 272.887 47.3771C274.325 47.8566 275.282 45.4597 276.241 45.9393C280.077 47.3779 281.511 52.1685 284.388 55.0458C285.347 56.0049 288.222 56.0036 287.742 57.4423C282.468 67.5128 288.22 67.9805 289.659 79.4897C290.138 81.4079 288.221 83.323 288.221 85.2412C287.262 90.9959 294.45 86.678 296.847 88.5962C303.08 93.3917 293.012 100.097 295.888 104.892C298.765 111.606 310.264 117.829 311.223 125.502C311.702 131.256 307.389 149.465 307.869 151.863C312.184 167.208 323.624 174.612 329.378 187.08C327.939 188.999 325.6 189.247 323.682 190.206C320.886 191.484 320.028 188.809 317.932 188.768C315.835 188.728 317.373 191.484 313.14 190.845C309.589 190.7 311.295 193.989 310.424 194.04C306.589 194.52 307.072 190.205 303.715 192.123C302.517 192.843 306.561 194.187 304.993 195.958C303.786 197.322 304.234 199.925 300.84 197.555C290.436 190.29 290.135 188.096 292.055 195.478C292.267 196.293 290.817 195.731 289.659 196.117C288.501 196.503 287.675 197.724 287.263 196.596C286.391 194.211 284.868 193.042 283.11 192.922C282.151 192.922 285.257 196.569 284.388 197.715C280.874 202.348 286.145 200.83 285.666 204.744C282.391 205.226 280.713 205.222 281.672 208.099C285.686 207.337 288.882 212.078 288.062 212.413C284.341 213.279 274.121 207.084 270.651 206.821C274.747 211.206 281.209 210.501 281.672 213.052C282.631 215.93 276.882 214.968 274.005 216.407C273.526 216.883 275.442 216.886 276.401 216.886C278.914 218.721 282.153 219.122 279.276 221.519C278.797 221.999 278.318 219.123 277.359 219.602C276.877 220.082 278.798 221.998 277.839 222.478C275.056 224.218 268.32 223.693 264.101 225.993C264.727 227.568 265.407 229.12 265.858 229.667C266.977 231.023 267.056 229.746 268.574 229.827C270.251 230.226 272.488 232.623 272.248 233.661C272.008 234.7 269.612 236.776 268.893 236.058C268.175 235.339 264.74 233.661 264.421 232.862C264.101 232.063 264.022 231.664 262.185 230.146C261.995 229.99 261.355 229.455 261.066 229.188C260.939 229.482 260.836 229.813 260.747 230.146C260.747 231.584 262.503 232.223 263.462 232.702C266.819 235.1 269.052 237.334 270.491 241.17C273.367 249.802 261.067 252.189 260.587 261.78C260.108 273.289 274.322 275.834 278.158 284.466C275.249 289.464 269.533 294.689 267.615 299.005C264.739 304.759 262.188 331.117 256.434 332.076C255.475 332.076 255.476 328.72 254.517 329.2C251.161 329.679 255.957 337.507 252.6 338.946C251.162 339.905 251.643 333.034 250.204 333.993C249.728 333.993 249.725 334.632 249.725 335.111H249.247C248.288 336.55 250.206 339.424 248.767 340.383C247.329 342.302 241.58 341.34 240.142 344.218C238.703 346.136 239.025 355.241 236.628 356.2C233.751 357.159 229.441 347.412 227.523 349.81C225.605 352.687 232.955 354.601 231.516 357.957C230.078 360.355 226.725 353.164 224.807 354.602C222.41 356.521 226.884 358.595 226.405 361.472C225.925 364.829 225.448 369.619 222.092 371.537C219.215 372.976 215.864 368.182 212.508 368.662C211.325 368.662 213.147 369.229 214.904 370.099ZM214.904 370.099C215.863 371.059 213.462 373.454 214.425 373.454C215.383 373.454 217.779 372.975 217.3 372.016C217.116 371.282 215.994 370.64 214.904 370.099ZM250.205 338.466C250.444 339.185 250.624 339.803 250.684 340.223C250.681 339.716 250.643 338.905 250.205 338.466ZM222.89 543.762C222.689 543.742 222.493 543.732 222.251 543.922C221.447 544.561 221.516 551.127 223.21 552.709C224.904 554.29 228.745 556.551 229.439 555.425C230.554 553.619 226.237 552.393 225.446 550.472C224.754 548.792 224.297 543.923 222.89 543.762ZM185.832 610.384C185.583 610.484 185.513 610.743 185.513 611.502C185.513 613.02 184.155 613.899 185.193 615.337L185.033 615.496C186.95 617.413 188.308 617.414 188.228 615.816C188.148 614.218 189.506 614.138 189.666 612.94C189.825 611.742 188.947 610.943 187.27 610.543C186.431 610.344 186.082 610.284 185.832 610.384ZM207.875 613.739C207.659 613.785 207.416 613.898 207.077 614.058C205.719 614.698 205 614.538 203.563 614.378C202.125 614.218 203.962 616.215 205 616.934C206.038 617.653 206.278 616.215 206.757 617.254V617.413C207.955 619.65 208.834 621.887 210.431 620.129C212.028 618.372 213.147 618.452 211.709 617.094C210.271 615.736 209.632 615.975 209.632 617.094C209.632 618.212 208.993 616.455 208.834 615.017C208.714 613.938 208.523 613.604 207.875 613.739ZM190.305 614.218C189.264 614.315 189.266 614.797 190.944 615.816C191.423 617.413 190.065 618.612 193.18 618.372C196.295 618.132 197.812 617.813 197.173 616.614C196.534 615.416 196.055 614.777 195.097 614.218C194.138 613.659 194.058 615.416 193.499 615.336C192.94 615.257 193.819 614.458 191.583 614.218C191.024 614.158 190.652 614.187 190.305 614.218ZM267.775 697.136C267.484 697.201 267.09 697.351 266.497 697.775C264.126 699.469 264.892 699.342 264.101 700.81C263.311 702.279 263.677 703.421 264.581 704.325C265.484 705.342 268.367 706.931 268.254 705.124C268.141 703.316 266.418 702.965 267.775 701.609C269.131 700.253 272.887 700.089 272.887 698.733C272.887 697.378 272.204 697.163 270.171 697.615C268.647 697.954 268.649 696.938 267.775 697.136ZM21.6261 699.692C20.9838 699.815 20.1434 700.329 19.0704 701.289C14.7784 705.13 9.79447 705.569 10.924 708.958C12.7312 714.381 13.6716 709.757 16.8341 709.757C19.9968 709.757 23.3171 711.053 23.543 706.082C23.7122 702.354 23.5532 699.321 21.6261 699.692ZM258.191 702.568C257.307 702.643 257.65 708.7 256.754 708.798C255.857 708.897 253.677 703.074 253.24 703.207C250.953 703.898 251.972 707.348 250.524 708.798C249.077 710.248 246.96 709.282 245.892 710.715C241.474 716.645 236.52 728.762 236.308 730.526C236.308 733.883 238.544 737.075 239.023 740.432C239.023 743.309 237.106 743.465 237.106 746.343C237.445 748.065 239.005 747.485 240.461 749.858C241.916 752.23 242.991 756.253 244.135 757.366C244.478 757.701 244.138 759.284 244.614 759.284C244.854 759.284 245.173 759.104 245.412 758.805C243.758 761.905 240.92 765.316 242.218 767.911C243.656 770.789 247.329 764.398 248.767 762C252.603 754.807 240.51 764.973 255.156 748.74C264.266 741.546 253.076 745.868 259.309 738.674C261.227 736.756 265.219 737.238 265.219 734.361C265.219 730.045 257.237 736.99 258.67 724.296C259.285 718.852 256.122 722.585 258.99 716.787C260.449 713.837 267.813 708.492 263.143 703.526C260.626 703.886 259.959 702.417 258.191 702.568ZM20.0288 713.112C18.617 713.225 16.5647 713.751 14.7575 713.751C13.4022 715.107 13.8843 716.075 15.2367 720.142C16.5921 724.208 19.4994 718.032 21.3066 714.869C22.2101 713.288 21.4407 712.999 20.0288 713.112ZM205.959 743.467C204.52 743.947 202.605 743.466 201.646 744.905C197.331 750.659 200.688 753.05 199.729 758.804C197.332 771.752 186.472 779.886 185.513 793.793C185.513 795.231 187.429 816.799 188.388 816.799C194.621 816.319 192.7 797.628 193.18 795.231C194.618 785.16 202.602 751.14 205.959 743.467Z"/>
</svg>
