<svg width="201" height="126" viewBox="0 0 201 126" xmlns="http://www.w3.org/2000/svg">
<path d="M117.456 0.815005C116.896 0.774106 116.939 1.82139 117.386 2.50891C117.945 3.3655 115.769 2.81315 114.257 3.02721C114.151 3.04255 114.137 3.04252 114.038 3.06809C112.524 3.42698 112.045 6.25678 110.53 8.2896C109.016 10.3225 112.005 10.8409 112.404 11.1994C112.802 11.5583 114.995 11.7575 115.752 10.8405C116.509 9.92283 116.549 9.80438 118.343 9.96353C120.137 10.1225 119.458 10.2428 118.223 11.3189C116.987 12.395 117.826 12.1161 118.382 13.2321C118.94 14.3479 116.15 14.4677 116.868 13.8698C117.585 13.2719 116.39 12.634 115.632 12.1957C114.875 11.7576 113.24 12.9131 112.204 13.9893C111.168 15.0654 113.958 14.8266 113.4 15.3047C112.842 15.7832 111.726 16.4209 110.331 15.8628C108.936 15.3048 109.454 15.5438 107.262 15.8628C105.618 16.1021 104.751 13.9801 104.312 12.694C103.65 12.6634 103.293 12.6035 102.419 12.604C101.974 13.1874 101.513 13.7735 100.884 14.3081C97.6953 17.0182 95.1444 16.2213 92.9122 16.859C91.8415 17.1652 91.0795 15.9467 90.5606 14.6168C88.7143 14.9379 87.3064 15.1682 85.5283 15.3941C84.7776 16.0454 83.8461 16.6019 82.5488 16.5401C80.8097 16.4572 80.0501 16.2303 79.9579 15.733C79.8506 15.7298 79.7734 15.7177 79.6691 15.7125L79.7203 15.5331L81.4641 14.8555L80.7566 13.5002L81.8328 13.0821L79.5209 13.0513L77.2789 15.2337L76.5614 15.9411L74.1599 15.5628L72.8545 17.516C73.0355 17.7465 73.2978 18.0657 73.3826 18.2135C74.0204 19.3296 71.7882 20.2064 71.7883 20.2064L70.1142 18.652C69.8044 18.9229 69.4162 19.3419 69.1277 19.5787L70.6723 21.1631L68.5198 23.3951L65.4108 22.3588C65.4107 22.3588 62.8599 23.7922 61.9829 22.8369C61.1059 21.8802 60.8669 23.3956 60.2291 22.5977C59.5914 21.8005 59.1919 21.8005 59.8308 20.7641C59.8355 20.7591 59.8347 20.7436 59.8411 20.7334C59.0127 19.9042 58.1348 19.021 56.9911 18.322C55.9712 19.0341 55.4569 19.2578 54.8885 18.6911C54.1711 17.9737 52.4173 16.2198 51.7795 18.3721C51.5439 19.1669 50.9308 19.7003 50.2749 20.1259C50.4855 20.5134 50.6634 20.8792 50.6634 21.1622C50.6634 21.6417 49.7068 21.1622 49.7068 21.1622C48.2684 23.0804 44.2837 24.9825 45.2426 27.3802C45.7222 29.778 53.055 24.9825 53.055 27.3802C52.6102 33.6101 50.5254 29.58 48.3117 30.4893C48.8736 31.7672 49.5203 33.9248 47.7238 34.7841C45.1309 36.0241 46.1504 38.8378 42.881 39.6269C42.3228 39.7619 41.6086 39.8213 40.9577 39.9358C39.2578 42.7391 37.6383 45.4 36.1546 46.672C33.335 49.9624 26.8864 48.6637 24.8247 52.2224L24.9546 52.3717C24.9546 52.3717 25.7429 53.6045 26.4193 55.8594C27.0958 58.1141 24.6157 59.9249 24.6157 59.9249L25.5125 61.1606C25.5125 61.1606 25.7396 61.5052 24.3866 62.745C23.0337 63.9851 20.2183 65.5562 18.5272 66.2326C16.8361 66.9091 13.1114 71.0824 12.2095 71.1952C11.3076 71.3076 9.17027 73.4473 9.17027 73.4473L11.3127 75.8188L7.02781 80.3329L8.15396 81.6781L6.97804 82.7444C7.00871 82.8078 7.03688 82.8707 7.06806 82.9336L11.4226 86.6405L9.22035 88.8427C9.23569 88.9526 9.28223 89.0711 9.29041 89.1816C9.07466 89.4541 8.69741 89.8631 8.60283 90.0286C7.70089 91.607 8.49853 93.2953 9.73881 94.0843C9.73881 94.0843 5.78916 93.7463 3.75982 94.4232C1.73054 95.0996 0.606582 96.1084 1.84671 96.7849C3.08679 97.4613 1.05202 98.5945 0.601048 100.173C0.15013 101.751 3.98515 99.2665 5.56356 99.9438C7.14188 100.62 10.9761 100.399 11.9908 98.3694C13.0055 96.3401 15.3707 97.241 16.3854 95.8882C17.4 94.5353 17.7374 93.9681 16.0464 93.8553C15.18 93.7975 14.6021 92.5603 14.2228 91.3343L14.5817 91.4141C14.4901 90.3811 14.3318 89.542 15.1099 88.7634C19.4251 82.0498 32.7925 82.0597 39.0254 84.9369C40.9432 85.4164 37.111 88.2814 37.5905 89.72C37.5905 92.1178 40.4592 93.062 40.9387 95.4598C41.4182 98.3371 34.7139 97.9983 37.5905 102.794C38.5493 103.753 41.4157 102.312 41.8952 103.75C42.8542 105.189 40.4592 107.573 40.9387 109.012C41.4182 109.971 43.329 107.096 43.8085 108.055C46.2057 110.453 46.3549 113.788 48.2727 116.665C48.2983 116.65 48.3086 116.65 48.3326 116.634C49.3775 118.515 50.8239 119.499 52.4879 119.923C56.1454 117.137 59.4101 115.157 60.9181 116.853C62.7219 118.883 66.7797 115.502 68.1326 113.924C68.1326 113.924 69.3184 112.439 71.0721 112.598C72.8259 112.757 74.3408 112.678 76.0944 114.591C76.4032 114.929 76.5592 115.146 76.7322 115.379C77.1003 115.601 77.4824 115.756 77.8482 116.006C78.2511 115.845 78.8358 115.745 79.8412 115.947C80.9656 116.172 81.8905 116.337 83.4386 116.624C83.5045 116.367 83.5348 116.164 83.6079 115.907C83.9074 114.858 84.2752 113.864 84.7039 113.306C85.8314 111.841 88.1442 114.545 89.497 112.798C89.8354 112.361 89.9699 111.834 90.0051 111.273C90.0762 110.152 89.749 108.9 89.8753 108.005C89.9392 107.557 90.1187 107.2 90.5131 106.988C91.299 106.567 92.2991 106.143 93.5125 105.573C94.7167 105.008 96.1386 104.297 97.7774 103.301V103.291C97.8469 103.111 98.0166 102.854 98.0166 102.733C98.0723 102.455 98.0474 102.199 97.986 101.956C97.553 100.375 95.0589 99.4592 94.6976 98.1391C94.6337 97.9469 94.6305 97.7444 94.6668 97.5313V97.5211C94.671 97.5007 94.6617 97.4803 94.6668 97.4614C95.1065 96.1419 96.1752 95.251 97.4072 94.4619C98.8589 93.4901 100.544 92.6704 101.842 91.6319C102.79 90.8726 103.637 90.1164 104.492 89.3599C104.411 89.3139 104.311 89.2833 104.233 89.2409C102.4 88.2045 101.84 87.6463 103.755 86.6101C105.668 85.5736 109.393 84.9568 109.774 84.916C110.198 84.87 110.502 84.7105 110.96 85.006C111.918 87.8832 111.438 90.7582 111.438 93.6355C111.438 95.0742 110.001 96.9887 110.481 98.9069C113.837 105.141 121.499 106.575 126.773 108.493C126.778 108.493 126.789 108.503 126.794 108.503C126.819 108.513 126.849 108.524 126.874 108.534C127.353 108.534 128.308 109.488 128.308 110.447C128.05 111.482 126.983 112.375 126.106 113.277C127.219 114.129 128.292 115.021 128.976 115.818C131.712 119.006 128.945 123.202 130.62 124.318C131.039 124.597 131.432 124.881 131.826 125.095C132.222 125.312 132.611 125.454 133.012 125.454C133.41 125.454 133.814 125.31 134.247 124.946C134.681 124.583 135.144 124 135.643 123.123C137.636 119.615 136.36 118.658 134.527 118.1C132.693 117.542 135.324 114.912 133.729 113.238C132.135 111.564 134.128 110.447 135.643 110.208C136.024 110.148 136.213 109.93 136.3 109.62C136.389 109.315 136.369 108.928 136.351 108.524C136.3 107.717 136.203 106.861 136.76 106.541C137.876 105.904 139.55 104.309 140.427 103.91C141.304 103.512 143.775 99.6055 144.732 97.1345C145.45 95.2781 146.345 93.8321 146.545 91.8731C146.613 91.2217 146.605 90.5178 146.485 89.7206C146.45 89.4992 146.481 89.3208 146.485 89.1228C146.322 88.1282 146.259 87.1566 146.296 86.2429C146.298 86.1969 146.312 86.1662 146.317 86.1237C146.358 85.3643 146.471 84.6516 146.755 84.081C146.786 84.015 146.83 83.9644 146.865 83.9016C146.983 83.6986 147.102 83.4976 147.263 83.3335C147.657 82.9112 148.238 82.6654 148.947 82.5462L151.309 85.4959L152.953 83.9513C153.386 84.6585 153.626 85.2126 153.89 85.6952C154.026 86.3277 154.144 86.7093 154.219 87.17C154.538 89.1629 153.103 90.3587 153.103 90.3587C153.103 90.3587 154.299 90.8367 155.495 91.5545C156.69 92.272 155.654 94.5837 158.524 95.7795C161.394 96.9752 163.147 95.4606 163.147 95.4606L164.742 96.6563L166.256 94.9025L164.981 93.627L166.496 92.3516L168.01 93.627L173.381 90.767C174.341 90.9061 174.736 90.8954 176.142 91.1562C176.476 91.1971 176.749 91.3193 176.999 91.4752L177.885 93.1293L177.009 94.0261C177.009 94.0261 178.34 94.6791 177.945 95.7502C177.551 96.8211 178.308 96.7654 179.689 97.0754C181.07 97.3857 180.623 99.3862 180.257 99.6962C179.89 100.007 180.221 100.564 182.001 100.424C183.776 100.283 184.145 100.906 185.16 99.6662C186.174 98.4262 186.346 98.0287 184.85 96.1686C183.357 94.3084 181.918 93.0384 183.186 92.1926C184.455 91.3471 184.058 90.729 184.96 90.419C185.862 90.1086 186.091 89.6032 185.02 88.4757C183.949 87.3484 183.748 87.3455 182.818 87.7683C182.013 88.1349 181.549 88.4649 180.805 87.8092L180.895 87.6992C179.087 86.6359 178.385 82.9166 180.925 78.3224L180.977 78.3121C181.38 77.6638 181.975 77.0182 182.87 76.3789C183.97 75.5844 184.867 75.1201 185.63 74.9042C187.297 74.3784 188.291 75.0648 189.148 76.1399V78.641L193.134 80.8731L194.409 79.8368L198.873 80.8731L200.468 75.8508L198.794 74.4956L196.771 74.3566C195.749 73.2812 194.848 72.3587 194.848 72.0647C195.806 70.1465 197.248 68.7115 197.727 66.7932C198.686 64.875 198.204 62.4834 198.684 60.5652C198.738 60.5908 198.73 60.5807 198.784 60.6063C198.788 60.5858 198.787 60.5653 198.794 60.5463C198.722 60.5106 198.707 60.5821 198.635 60.5463C196.622 59.6835 199.565 57.4557 200.11 55.4943L197.349 54.7967L196.492 52.5945C196.214 52.5413 196.083 52.4601 195.765 52.4151C194.8 52.2397 193.992 52.6262 193.224 53.1924L192.666 55.1354C192.666 55.1354 191.876 55.3022 192.158 55.9227C192.44 56.5427 192.381 56.8789 190.633 56.7098C190.436 56.6894 190.324 56.6895 190.165 56.6792C189.682 57.35 189.172 57.9315 188.65 58.5526C188.604 60.315 188.676 60.9908 186.916 60.6053C186.803 60.5798 186.699 60.4719 186.587 60.4259C185.197 61.3126 183.568 61.6237 181.415 60.5456C179.386 59.4925 177.003 58.3337 175.038 56.719C174.278 56.1374 173.144 56.0757 172.965 55.7625C173.101 54.485 172.113 53.7637 173.443 51.9359C173.22 51.4441 172.084 50.954 172.487 50.8198C172.888 50.6853 173.578 50.2018 172.636 50.0227C171.697 49.8442 171.998 50.3417 171.998 50.3417C171.378 50.2093 170.312 51.0387 169.766 49.8637C168.341 49.2761 166.314 48.7872 164.983 47.6315C163.53 47.0734 163.721 49.0955 161.475 47.6315C160.939 47.9449 159.671 48.4814 159.403 47.6315C159.134 46.7817 158.122 47.0446 157.808 47.3126C157.495 47.581 155.563 47.4854 156.054 46.9935C156.546 46.5017 156.914 46.4142 157.808 45.8774C158.702 45.3408 157.922 44.2405 157.967 43.167C158.013 42.0935 156.672 40.8475 156.851 39.8188C157.03 38.7901 158.298 36.3834 158.924 35.3546C158.621 34.1342 159.918 34.4848 159.721 33.1225C159.945 32.6751 160.983 32.1096 161.475 31.5281C161.967 30.9467 161.851 30.0117 162.432 29.2961C163.013 28.5801 163.456 28.9013 164.664 28.4988C165.871 28.0965 164.94 27.4744 163.867 26.2668C164.125 25.4399 163.831 24.3699 164.664 23.7157C164.564 23.6324 164.316 23.5567 163.867 23.5567C162.793 23.5567 161.475 21.8029 161.475 21.8029C160.873 21.3633 159.881 20.4273 159.881 18.9329V18.4551C159.86 18.4244 159.901 18.3252 159.881 18.2961C155.565 15.8983 152.239 11.1238 147.444 10.1646C146.965 10.1646 131.182 11.1214 131.182 11.1214C129.771 10.4155 129.936 9.6539 129.358 8.91913C130.017 7.89281 130.728 7.65366 129.906 7.65366C128.91 7.65366 129.269 7.49407 128.432 7.01585C127.595 6.53733 127.076 5.70039 126.598 6.37804C126.12 7.05565 126.08 6.93621 126.877 7.77317C127.673 8.61023 126.519 8.61025 126.836 9.24802C127.155 9.8858 126.039 9.76575 125.481 8.84971C124.923 7.93294 123.368 8.92945 123.249 7.93293C123.13 6.93636 125.122 7.45494 124.405 6.57775C123.687 5.70081 125.202 5.62109 124.564 4.7442C123.926 3.86737 124.166 3.70781 123.169 4.22606C122.173 4.74426 122.172 1.15694 120.897 1.67514C119.621 2.19329 121.176 4.0267 119.94 4.30579C118.704 4.58493 119.542 2.51209 118.226 1.27651C117.898 0.96772 117.643 0.828298 117.456 0.815005Z"/>
</svg>
