<svg width="721" height="495" viewBox="0 0 721 495" xmlns="http://www.w3.org/2000/svg">
<path d="M391.22 1.18921C388.101 1.53072 385.76 5.80238 383.871 9.01765C382.433 9.01765 382.753 6.1419 381.315 6.1419C364.133 4.86302 369.202 17.4902 360.546 18.6035C356.869 19.0764 358.291 20.9299 354.954 21.3195C351.617 21.7091 347.683 20.7194 340.575 21.16C340.853 23.3154 341.364 27.1486 341.693 30.1068C341.304 32.9053 340.975 34.0998 339.936 37.2962C337.059 39.694 337.381 41.1303 333.545 41.6098C332.107 42.9815 330.67 44.6323 329.232 43.527C328.273 43.0475 326.516 41.1308 325.557 40.6513C320.283 42.0899 316.524 43.213 309.581 45.1247C304.579 46.5017 306.227 50.0768 304.309 51.0359C301.432 52.4746 299.996 49.9159 296.64 50.8763C292.446 52.8735 291.958 53.381 293.604 56.9474C291.524 59.1746 290.01 64.0932 287.693 70.3676C286.575 73.8842 285.776 82.8271 285.776 86.6635C285.776 91.9386 301.597 103.118 289.61 105.516C283.454 107.674 283.464 100.084 276.03 97.0482C266.201 97.6069 266.952 102.599 264.847 101.362C263.198 100.393 261.935 102.639 260.693 104.557C258.296 105.037 257.978 101.521 255.101 102.001C247.43 103.919 252.387 110.308 244.397 112.386C240.561 113.345 237.501 101.233 233.533 99.6044C230.416 98.3252 227.063 104.795 221.87 108.551C219.953 110.949 222.67 116.54 219.793 116.06C213.878 114.461 217.083 110.633 212.444 109.51C206.61 107.989 207.344 114.261 204.296 113.664C199.454 112.714 202.7 108.393 198.545 108.232C194.63 108.071 196.469 111.905 194.551 113.823C191.674 117.18 187.841 113.824 185.444 114.303C183.047 114.303 183.608 117.178 184.326 120.853C183.846 121.812 182.728 123.49 181.29 123.409C175.696 121.969 185.772 116.456 174.74 116.06C170.584 116.22 170.113 117.341 168.988 119.095C167.231 119.734 163.876 121.173 162.917 120.214C161.959 119.255 162.438 117.658 161.48 117.178C157.564 116.858 158.446 112.065 155.089 111.427C140.867 115.902 129.851 111.028 118.663 114.782C117.224 114.302 113.711 111.746 112.272 111.746C105.56 111.267 109.559 112.225 102.367 113.184C101.168 113.184 98.4916 115.054 95.6567 115.9C92.8218 116.746 89.7501 116.568 88.6271 117.178C85.4431 118.908 80.48 116.538 78.0827 117.019C71.8497 118.937 70.416 121.97 64.6625 124.368C60.8269 125.806 52.6814 126.124 48.8458 128.042C47.8065 130.28 40.6994 151.529 35.4256 149.93C33.9873 149.451 34.6272 147.054 33.6682 147.054C30.7915 146.575 30.1542 146.734 27.757 147.693C21.2038 149.692 21.3664 154.244 21.3664 154.244C21.3664 154.244 26.6774 160.296 26.6386 161.753C27.5976 164.63 26.4781 167.183 27.4374 169.581C31.7526 178.693 44.8491 189.549 52.5204 195.303C53.9588 196.742 44.3716 195.141 46.7689 199.936C47.2484 200.416 54.4376 207.763 54.4376 211.599C52.9992 228.863 50.766 219.583 42.1357 226.777C37.6224 234.426 8.92361 281.703 10.0231 287.008C10.982 292.283 15.934 298.189 17.3723 302.984C17.8518 305.382 14.6556 307.137 16.5735 309.055C20.3193 317.205 20.417 307.488 25.041 318.481C24.6069 318.113 23.3338 316.909 22.6445 316.564C20.2472 316.085 19.4501 317.203 17.0528 317.203C15.6144 316.724 13.5385 316.884 12.1001 316.404C12.5796 321.2 8.58542 327.266 8.10598 332.061C7.62643 335.418 8.10572 338.77 6.6681 341.647C5.22976 345.004 0.916744 345.959 0.437298 349.316C-0.521593 352.673 2.674 356.823 2.674 360.659C12.685 360.574 6.50568 366.249 14.177 369.126C15.6154 369.606 18.0109 367.209 19.4492 368.168C22.326 370.086 22.6435 374.398 25.5203 376.316C27.4381 376.795 28.8746 374.399 30.7925 373.919C32.2308 373.919 33.6679 374.878 34.6268 375.357C40.8598 379.673 33.187 378.71 38.9404 383.505C39.5882 379.381 44.2695 383.681 46.6091 373.44C47.0887 372.481 47.0882 371.024 48.047 371.044C53.5515 371.157 57.5908 377.294 61.627 376.955C62.5825 376.875 64.3426 374.399 65.3015 373.919C70.8464 376.449 72.644 373.652 79.8401 375.357C85.0536 373.27 90.1751 374.461 94.8579 375.198C99.173 373.759 99.9689 370.086 104.284 369.606C110.492 369.931 112.08 374.23 116.426 375.198C121.17 376.254 122.323 377.904 124.734 381.109C132.942 377.858 133.151 374.363 136.876 366.571C144.49 358.815 165.254 358.36 172.983 351.872C176.892 345.391 174.878 342.665 177.775 338.133C180.173 335.255 183.206 334.139 187.042 333.18L187.521 331.742L189.438 327.428V326.47L189.917 324.553L194.71 325.511C194.23 324.552 193.272 323.594 193.272 322.635C193.272 322.156 208.13 319.281 209.089 318.801C213.644 311.616 217.173 314.128 218.675 310.653C220.084 307.391 225.143 308.256 231.615 308.736C241.182 315.09 241.999 310.651 246.314 314.008C247.752 314.967 246.952 318.801 248.391 318.801C251.747 318.801 255.099 315.446 258.935 314.967C260.853 314.487 258.456 319.279 258.935 321.198C259.894 325.034 262.29 317.842 263.249 318.801C264.687 320.719 264.686 323.114 266.125 324.553C268.042 326.471 265.485 318.322 268.361 317.363C284.663 313.047 277.783 321.355 289.29 326.15C294.085 328.068 290.727 318.48 295.042 320.878C306.069 328.071 299.035 338.606 302.391 349.156C305.807 353.813 313.383 355.22 317.728 360.02C321.799 364.517 316.288 352.509 323.001 356.346C331.631 361.141 320.123 373.922 326.356 370.085C330.56 370.455 327.314 376.315 329.231 378.233C332.108 380.151 344.088 380.628 346.965 383.026L351.918 399.322C351.918 400.281 349.042 400.28 349.521 401.239C350.48 404.596 361.504 406.032 361.504 406.512C358.627 408.43 355.274 408.907 352.876 410.825C351.918 411.784 352.397 412.742 351.918 413.701C349.521 416.099 348.245 405.713 344.409 405.713C341.532 405.713 344.73 413.861 341.853 413.381C339.935 412.902 333.865 408.429 333.865 408.429C332.906 409.867 332.747 413.541 330.829 414.021C329.87 414.5 328.273 410.026 327.794 410.985C325.396 412.903 327.155 416.256 325.717 418.174C325.237 418.654 324.119 418.174 323.64 417.695C323.64 416.736 324.598 416.258 324.598 415.299C324.119 412.901 322.681 411.625 321.722 409.707C319.805 406.35 315.013 414.179 312.616 417.056C311.664 428.118 319.166 427.599 320.125 431.435C320.604 433.833 318.527 435.747 318.527 438.145C318.527 440.543 320.605 441.339 319.646 443.258C318.687 445.176 315.333 445.813 313.415 447.731C309.1 451.088 315.013 454.919 312.616 458.276C310.698 460.673 307.823 462.109 306.385 464.027C305.278 469.182 305.906 473.773 305.906 473.773V476.808L307.504 479.684C305.871 480.457 304.596 481.189 303.51 481.761L303.35 480.003L297.599 479.045L295.522 481.921L294.563 484.796C294.987 484.904 295.361 485.134 295.841 485.116C296.011 485.12 295.877 484.901 296.161 484.956C296.452 485.012 296.398 485.202 296.64 485.276C297.791 485.628 298.717 486.078 298.717 487.033C298.717 488.19 298.868 488.045 300.474 489.909C302.08 491.772 301.931 493.04 304.308 493.104C306.686 493.169 308.678 493.806 310.22 494.063C311.762 494.32 312.99 495.023 314.853 494.702C316.716 494.38 317.656 494.38 319.326 494.702C320.997 495.023 320.757 494.098 322.042 493.584C323.327 493.07 323.449 493.108 323.32 492.465C323.191 491.823 322.27 492.63 321.563 491.666C320.856 490.702 320.631 490.038 321.722 489.909C322.815 489.78 322.712 489.721 322.841 488.95C322.97 488.179 320.693 488.093 322.042 487.193C323.391 486.293 323.508 487.19 324.279 487.512C325.05 487.834 325.328 486.966 326.356 487.672C327.384 488.379 329.325 489.852 329.711 488.631C330.096 487.41 328.393 486.464 329.87 485.435C331.348 484.407 331.944 483.265 332.586 482.879C333.228 482.494 333.927 482.404 334.184 481.761C334.441 481.118 335.714 480.837 336.42 480.323C337.127 479.809 337.89 479.272 338.018 478.566C338.147 477.859 338.367 477.768 338.817 477.447C339.267 477.126 339.64 475.881 341.054 476.009C342.467 476.138 342.617 476.143 343.131 475.051C343.645 473.958 343.926 474.474 344.568 474.731C345.211 474.988 345.461 475.02 345.847 474.572C346.232 474.122 346.513 474.541 347.284 474.093C347.67 473.868 347.741 473.789 347.923 473.773C348.106 473.758 348.399 473.804 349.042 473.933C350.327 474.19 352.388 474.314 353.995 474.572C355.601 474.829 357.921 476.325 358.628 476.968C359.334 477.611 360.413 479.903 361.184 480.802C361.955 481.702 361.184 482.4 361.184 482.4C361.184 482.4 360.345 483.192 361.823 484.477C362.464 485.034 362.609 485.384 362.782 485.595C363.766 485.641 363.694 485.059 363.74 484.637C363.786 484.214 364.539 484.796 364.539 484.796C364.539 484.796 364.426 484.26 364.379 483.838C364.354 483.627 363.818 483.225 363.261 482.879C363.672 483.084 363.817 483.119 364.379 483.518C365.505 484.316 365.977 483.678 365.977 483.678C365.977 483.678 365.712 483.253 364.539 482.08C363.367 480.907 364.22 480.011 364.22 478.885C364.22 477.759 364.849 477.831 364.379 477.127C363.91 476.424 364.312 475.951 363.421 474.731C362.529 473.511 362.932 471.41 363.261 469.299C363.589 467.188 362.433 467.824 361.823 468.34C361.213 468.856 361.184 468.48 361.184 467.542C361.184 467.073 361.179 466.902 361.184 466.902C361.189 466.902 361.235 467.081 361.025 467.222C360.602 467.504 360.028 468.088 359.746 468.979C359.465 469.871 359.087 470.012 358.149 468.979C357.211 467.947 357.416 469.713 357.51 470.417C357.603 471.121 356.588 470.097 356.072 469.299L351.439 469.618C352.519 469.229 355.075 468.398 355.593 468.181C357.079 463.583 353.037 457.958 352.557 453.163C352.557 451.244 349.201 446.452 351.119 447.411C356.79 448.737 354.473 458.436 358.788 456.997C373.172 451.242 359.587 456.202 359.587 449.967C359.587 449.008 363.421 448.69 364.38 448.21C365.818 447.73 361.983 443.897 363.421 442.938C365.41 441.103 368.465 442.231 369.812 440.861C371.158 439.491 370.051 437.027 371.25 436.547C373.167 436.068 374.444 440.542 375.403 438.624C379.239 429.992 383.55 419.458 386.427 409.867C386.907 407.948 383.072 406.033 384.031 404.115C384.51 402.677 387.385 402.199 388.344 400.76C391.7 394.526 382.112 395.491 385.948 390.216C396.496 376.788 411.35 378.875 411.35 374.559C412.211 371.793 411.51 369.606 411.51 369.606C411.51 369.606 409.186 367.642 409.113 364.014C410.616 363.026 412.518 366.587 413.267 365.932C414.016 365.276 413.659 361.227 415.504 360.5C417.906 362.202 416.153 367.172 414.386 373.44C415.824 374.879 418.858 372.003 421.256 371.523C423.653 371.044 425.249 371.523 428.125 371.044C434.358 370.085 425.889 359.541 425.889 359.541C426.835 355.308 429.831 354.582 425.09 351.074C423.848 350.155 421.374 347.525 420.776 345.961C420.281 344.665 418.327 339.031 414.705 336.535C408.239 332.079 413.408 333.88 416.782 334.938C418.996 335.631 419.71 339.529 420.297 339.571C421.471 339.655 424.536 344.368 425.25 345.322C427.592 345.322 430.522 351.393 430.522 352.352C430.692 362.21 432.818 367.265 436.114 369.447C439.421 367.484 439.559 367.168 440.427 367.689C441.557 368.367 442.173 370.989 443.303 370.086C444.432 369.182 446.074 365.441 446.978 366.571C447.649 367.41 448.454 367.924 449.374 368.328C453.323 366.448 457.518 363.797 461.676 360.979C463.594 359.54 457.363 364.333 455.445 366.251C453.048 369.129 456.884 373.281 452.569 373.76C444.418 375.199 435.158 375.677 427.007 376.636C423.817 376.862 416.782 377.434 418.22 378.873C422.678 381.045 422.852 383.985 426.687 384.944C428.126 385.423 424.232 380.358 426.687 379.991C432.275 377.988 432.757 380.152 436.114 379.672C437.073 379.672 440.689 378.119 442.185 381.109C439.19 388.277 438.013 383.718 431.64 388.618C433.713 394.48 435.822 389.698 446.338 390.056L446.978 392.772C446.978 392.772 442.147 393.665 436.273 393.891C430.4 394.117 427.294 393.676 424.131 392.772C420.969 391.868 420.457 388.618 420.457 388.618L418.38 387.5C418.38 387.5 418.182 388.888 418.859 390.695C419.536 392.503 421.916 394.931 426.208 396.287C430.5 397.643 442.867 396.419 451.451 395.967L453.687 391.015C454.031 391.09 454.29 391.09 454.646 391.174C456.084 391.654 454.486 393.251 455.924 393.73C459.28 395.169 462.793 395.649 466.628 394.209C467.517 393.987 468.394 393.57 469.184 393.091C475.882 392.425 481.811 391.837 486.439 390.375C492.51 388.458 492.19 388.298 485.64 389.257C479.09 390.215 483.403 391.014 475.575 391.973C473.156 392.269 471.263 392.441 469.664 392.612C472.04 391.015 474.143 388.844 476.534 387.819C479.89 385.901 484.201 386.861 487.078 385.422C488.037 384.943 486.119 382.547 487.078 382.067C488.037 381.108 489.953 383.506 490.912 383.026C493.31 382.067 493.677 379.085 494.267 376.316C497.679 379.76 504.811 385.424 508.167 382.547C512.371 379.471 506.728 378.713 509.605 376.795C510.969 374.906 512.64 375.677 512.64 375.677C512.64 375.677 514.157 383.983 516.794 386.381C518.656 385.956 524.469 383.84 520.149 387.819C520.234 388.969 520.845 391.318 516.634 390.375C515.079 393.335 513.82 394.406 512.161 394.05C509.459 395.919 506.986 398.953 503.853 403.795C502.415 404.275 500.978 401.878 499.54 402.837C499.06 403.796 501.936 404.753 501.457 405.712C501.457 405.712 496.133 409.937 492.83 412.423C492.548 414.172 489.794 416.576 489.315 418.014C489.315 418.973 490.753 419.452 490.753 419.931C484.061 424.591 474.455 434.629 480.687 437.026C492.674 441.822 485.438 434.259 496.185 431.435C504.623 433.835 510.972 436.946 516.475 438.784C521.467 434.634 526.218 433.988 531.972 439.742C544.917 453.17 533.089 449.643 535.487 457.316C537.884 464.03 539.161 464.985 538.682 465.464C536.764 467.382 535.181 469.722 533.09 471.695C534.528 475.052 540.419 474.262 544.114 474.571C545.792 475.05 549.162 476.717 551.942 477.606C555.986 478.9 555.759 473.769 559.611 475.689C579.744 468.858 569.831 448.375 585.173 437.825C588.841 434.072 592.505 436.11 594.759 433.032C596.677 433.032 599.711 433.991 601.15 433.032C604.506 429.675 599.633 429.451 604.345 422.168C608.04 418.302 610.341 421.628 610.736 415.618C611.215 415.138 609.777 415.617 609.298 415.139C606.9 412.741 610.575 408.749 612.014 408.269C614.411 406.83 617.924 406.352 620.801 406.831C623.678 407.311 628.788 409.707 631.665 409.228C635.021 408.748 632.782 405.714 635.659 404.275C638.056 403.316 643.007 402.199 645.404 401.239C660.189 392.686 646.203 393.096 647.162 385.423C647.443 377.293 655.603 383.38 652.754 372.482C652.754 372.482 630.387 377.434 629.907 377.914C627.031 379.832 629.748 384.463 626.872 385.902C624.954 386.861 622.719 386.542 620.801 385.583C619.362 385.103 619.98 381.686 618.724 382.387C616.497 383.63 617.648 389.498 613.132 393.73C611.749 394.96 609.319 396.568 608.179 397.405C601.399 395.904 597.508 393.6 592.682 390.056C577.987 378.872 571.273 370.884 567.12 366.091C562.967 361.298 562.327 360.02 562.327 360.02C562.327 360.02 560.763 361.797 558.972 361.298C557.489 361.864 558.117 362.625 557.854 363.695C557.95 364.94 561.038 365.987 563.286 365.932C563.424 368.321 564.929 368.754 567.12 370.724C567.389 376.102 568.791 377.113 571.434 374.719C572.279 375.6 573.138 376.689 573.99 377.435C575.35 378.625 577.131 380.657 579.102 382.387C577.671 383.501 575.866 383.89 574.629 384.304C573.048 383.627 573.213 381.775 570.954 382.227C568.695 382.679 565.032 384.316 566.161 383.186C567.192 382.155 566.618 381.868 566.161 380.31C566.391 379.269 566.465 378.318 566.161 377.914C565.203 376.636 564.244 375.837 563.925 377.754C563.765 378.713 563.306 379.312 562.806 379.352C563.26 378.308 564.778 376.026 564.244 374.559C563.913 373.649 562.886 374.322 561.848 375.518C562.709 373.346 564.724 371.204 563.765 371.683C562.487 372.322 560.889 374.399 559.451 376.956C558.013 379.512 556.096 382.068 556.096 380.47C556.096 379.672 556.055 378.913 556.256 378.074C556.473 377.922 556.673 377.832 557.694 377.275C559.966 376.035 559.328 375.348 558.333 374.559C559.238 372.932 558.153 371.411 556.096 370.725C555.128 370.402 554.541 370.471 554.179 370.565C554.168 370.497 554.039 370.321 554.019 370.246C553.973 370.609 553.968 370.928 553.86 371.204C553.885 371.189 553.995 371.22 554.019 371.204C554.208 371.473 554.501 371.76 554.978 372.163C557.055 373.92 553.38 372.802 554.019 375.039C554.286 375.97 554.065 376.46 553.7 376.636C553.572 376.639 553.542 376.636 553.38 376.636C553.301 376.636 553.292 376.634 553.221 376.636C552.743 376.49 552.182 376.037 551.783 375.039C551.592 374.563 551.269 374.255 550.984 373.92L546.511 372.163L546.031 370.246C543.315 368.169 543.475 371.683 540.919 371.204C538.363 370.725 534.209 371.364 537.883 372.642C538.343 372.802 538.681 372.92 539.002 373.121C537.722 373.627 540.337 375.737 538.363 377.914C536.251 380.243 537.817 374.133 533.57 373.76C528.166 370.9 526.075 371.842 527.818 374.399C529.477 376.833 525.535 374.102 525.422 377.435C523.784 375.175 522.359 373.144 521.907 370.885C521.456 368.624 518.872 372.642 518.872 372.642L514.238 368.967C518.389 364.332 516.921 367.342 520.309 366.89C523.698 366.438 524.419 367.771 528.937 369.127C533.455 370.483 534.099 368.444 532.292 366.411C530.485 364.378 535.247 365.288 531.493 359.861C530.915 359.025 531.023 358.655 531.493 358.583C532.277 358.463 534.131 359.266 535.966 360.819C540.371 363.983 541.409 369.324 540.28 364.015C539.892 362.193 538.952 360.819 540.759 360.819C542.566 360.819 542.803 361.899 546.191 362.577C547.038 362.746 547.553 362.77 547.789 362.736C547.107 362.903 546.302 362.927 546.511 364.494C546.661 365.619 546.4 366.889 546.351 367.849C547.414 367.774 549.227 367.769 549.706 369.446C550.345 371.683 550.824 371.044 551.463 369.925C552.049 368.9 553.148 370.543 553.7 369.126C553.675 369.05 553.726 369.052 553.7 368.967C553.68 368.898 553.715 368.872 553.7 368.808C553.83 368.678 553.93 368.501 554.02 368.328C554.045 368.26 554.154 368.233 554.179 368.169C554.195 368.128 554.164 368.054 554.179 368.009C554.257 367.775 554.305 367.511 554.339 367.211C554.426 366.428 554.642 365.807 554.818 365.134C554.833 365.083 554.802 365.023 554.818 364.974C555.273 363.24 555.649 361.745 554.179 360.501C553.86 360.231 553.634 359.778 553.38 359.223C553.874 358.165 554.581 356.947 555.936 357.625C557.35 358.332 557.87 358.185 559.131 358.104C559 357.596 558.997 357.28 559.131 357.145C559.803 356.698 561.17 356.334 561.847 356.666C561.553 355.972 560.162 355.492 560.41 354.749C560.862 353.394 562.007 353.549 562.007 352.193C562.007 350.837 562.381 349.372 563.285 350.276C564.189 351.18 564.101 351.406 565.682 350.276C567.263 349.146 569.185 347.462 570.315 344.524C571.444 341.587 573.147 339.419 571.114 335.578C569.589 332.697 567.954 331.604 568.558 331.583C569.638 331.658 570.235 331.653 571.913 332.382C574.139 335.011 574.023 336.415 576.386 339.092C575.59 347.173 573.099 351.666 570.634 352.832C567.514 354.308 569.125 355.95 568.717 359.223C571.1 357.723 574.404 354.052 574.788 353.311C576.5 350.017 579.415 343.052 578.942 337.655C580.785 332.656 581.839 332.58 581.658 330.465C583.097 328.547 585.013 328.869 585.972 326.95C588.369 323.593 588.367 319.283 590.765 316.406C597.957 306.815 602.425 306.1 607.061 306.021C607.3 307.859 609.058 309.297 610.256 307.779C612.734 300.746 614.566 293.4 626.073 291.003C627.991 294.758 626.791 302.987 630.067 298.672C634.142 292.6 627.67 292.284 629.108 288.447C629.108 287.488 641.729 273.909 642.209 273.909C644.127 272.949 645.883 277.424 646.842 275.986C647.801 274.547 648.119 264.005 650.996 261.607C654.832 258.729 667.13 252.341 671.925 251.382C673.363 251.382 674.002 254.738 674.96 253.299C676.399 251.381 674.64 250.105 676.079 248.187V247.708C674.4 243.072 676.079 242.118 677.037 237.802C678.236 231.728 671.685 242.197 672.244 231.571C670.088 223.821 669.049 222.546 670.327 216.713C679.432 211.122 681.511 207.128 681.511 207.128C684.227 203.851 683.028 201.776 682.31 198.66C682.469 194.984 683.108 194.987 684.546 193.068C695.172 187.712 710.826 186.284 719.694 179.009C721.133 177.091 718.736 174.217 717.777 171.82C717.298 170.861 715.381 170.382 715.381 169.423C715.381 167.985 718.257 167.986 718.257 167.027C718.257 165.588 716.659 163.832 716.18 162.394C715.7 159.996 716.18 157.762 716.659 154.885C716.659 153.926 718.096 152.968 718.096 152.009C720.014 146.254 711.227 151.689 711.227 151.689C709.788 150.73 712.665 148.335 712.185 146.417C710.267 143.06 706.275 138.91 703.877 136.032C700.521 132.676 697.327 141.468 696.848 136.192C694.451 123.403 693.809 125.33 702.44 121.494C705.395 119.896 707.233 117.579 703.718 113.985C697.005 115.423 695.891 120.697 690.138 115.902C683.905 110.627 693.173 109.193 694.611 106.795C696.05 105.357 694.371 102.482 695.41 100.565C697.887 93.4517 703.719 91.701 696.049 85.0674C693.412 83.0691 690.458 81.3939 688.54 79.4757C686.143 76.5984 693.334 72.9256 689.499 72.446C680.389 71.9665 685.667 77.7175 678.475 79.1561C664.725 82.0339 674.729 75.4034 663.777 73.2449C657.544 72.2858 661.861 75.4834 654.83 77.5585C652.912 76.5994 649.398 73.4055 647.96 71.9668C643.645 69.0895 644.926 78.0378 639.652 78.0378C636.296 78.0378 637.496 75.1628 630.865 77.0792C628.628 76.8389 627.032 75.8008 625.593 73.4046C623.835 75.6413 622.749 76.3865 620.001 77.239C615.367 78.6768 612.893 77.3192 609.457 72.7656C601.304 76.1994 613.136 80.5952 602.747 87.1443C599.391 86.6648 598.434 83.4705 595.557 82.0319C593.64 81.0727 590.765 82.3519 588.368 81.3928C578.303 76.5194 581.17 73.4363 577.824 70.3691C574.478 67.3019 575.867 74.5642 568.557 65.4164C562.886 69.1306 561.965 72.8258 557.054 75.4816C551.62 78.4202 547.07 80.4719 543.315 90.1799C541.397 93.0572 537.085 87.9435 533.729 87.4639C531.811 87.4639 531.333 90.3391 529.894 91.2982C527.497 92.7369 523.105 87.4644 519.829 85.2272C507.444 86.8233 508.329 92.7384 501.776 96.2509C498.659 92.3359 496.744 91.2196 492.35 90.4994C490.432 88.5812 488.516 84.7495 488.036 81.8721C488.036 80.4335 489.634 80.1155 489.154 78.6768C489.154 76.7586 477.013 65.577 476.533 64.1383C476.054 62.6997 478.93 60.3045 477.971 59.3454C477.491 58.8658 476.533 58.8664 476.054 58.8664C474.136 59.346 473.658 60.7836 471.74 60.7836C468.384 61.2631 467.907 58.5481 465.989 56.1504C465.509 55.1913 464.624 52.3425 463.592 52.6356C455.751 54.8643 454.24 60.8648 448.574 61.2629C446.737 61.2631 447.616 58.8664 446.178 58.8664C442.822 58.8664 439.469 58.068 436.592 59.0259C435.633 59.5054 432.759 66.2179 430.361 61.4223C429.882 60.4632 431.32 59.5057 431.32 58.5466C431.799 57.1079 431.32 56.55 431.479 54.872C429.322 53.7529 428.684 54.4732 426.207 53.4341C425.887 50.3978 427.007 47.364 425.089 45.4459C423.171 43.0481 415.822 41.2935 417.26 38.4163C419.178 36.0185 430.841 33.6257 427.965 29.3097C424.27 23.6228 424.634 27.1349 412.308 22.1203C410.39 20.6817 407.515 16.4498 407.834 14.1321C407.754 11.495 406.237 9.81906 405.278 8.85992C403.36 6.94167 402.563 8.22163 400.645 6.78298C397.768 4.86474 394.735 1.75069 392.657 1.351C392.177 1.23086 391.666 1.14013 391.22 1.18921ZM547.629 360.818C548.781 360.978 548.688 361.3 548.588 362.096C548.542 362.45 548.234 362.488 547.949 362.575C547.939 362.284 547.482 361.65 547.629 360.818ZM580.701 383.665C585.882 388.194 590.946 392.057 594.281 394.209C597.994 396.605 603.47 398.682 606.263 399.641C606.068 400.024 605.603 400.936 605.464 401.398C605.012 403.658 602.611 399.96 600.352 399.96C598.093 399.96 597.135 399.282 592.843 399.96C588.551 400.638 585.532 397.575 584.854 396.446C586.302 394.692 586.005 395.856 587.89 393.73C586.901 390.704 582.587 386.635 580.701 383.665Z"/>
</svg>
