<svg width="316" height="654" viewBox="0 0 316 654" xmlns="http://www.w3.org/2000/svg">
<path d="M301.139 1.07013C300.606 1.18925 300.284 1.53127 300.02 2.02871C298.967 4.01904 297.72 8.08998 296.666 9.37785C295.612 10.6657 296.347 7.20455 296.347 6.5021C296.347 5.79965 293.418 5.06545 292.832 6.82163C292.247 8.57781 292.768 10.1986 291.714 11.1353C290.661 12.0719 290.415 11.125 289.478 14.1708C288.542 19.3222 288.212 21.3821 290.436 22.3187C292.66 23.2554 292.982 21.6138 294.27 18.8039C295.558 15.994 294.025 16.2575 293.791 14.9696C293.557 13.6818 294.037 13.4987 296.027 12.0938C298.017 10.6889 299.17 11.5292 300.34 11.295C301.511 11.0609 305.132 3.83852 305.132 2.66777C305.132 1.7897 302.735 0.713432 301.139 1.07013ZM284.047 12.2536C281.94 12.2536 282.683 15.6623 280.693 16.2477C278.703 16.8331 279.051 12.2134 277.179 15.6086C275.306 19.0039 276.197 18.5393 277.019 20.8809C277.838 23.2225 278.393 21.7004 279.096 20.8809C279.798 20.0613 280.162 20.7127 279.575 23.7566C278.989 26.8007 276.615 28.6885 278.137 29.5081C279.659 30.3276 280.384 30.3911 280.852 28.8691C281.321 27.347 282.906 30.8082 280.214 31.7448C277.521 32.6815 273.961 30.0094 271.268 30.946C268.576 31.8826 268.118 34.6535 269.991 36.0584C271.863 37.4634 273.421 38.1878 274.942 37.017C276.464 35.8463 276.071 38.328 276.54 39.733C277.008 41.138 277.052 42.5112 278.456 40.0525C279.861 37.5939 283.077 38.3207 280.852 44.5259C278.628 50.7311 278.189 52.6543 277.019 55.2301C275.848 57.8058 274.368 57.5851 275.422 59.2242C279.87 61.6829 279.459 57.4009 281.332 54.591C283.205 51.7812 284.006 47.2187 285.644 44.5259C287.283 41.8331 284.312 41.7331 285.485 38.4549C286.656 35.1767 287.329 38.3245 289.319 34.4608C291.309 30.5972 292.863 27.9105 290.756 27.9105C288.649 27.9105 288.477 26.5665 288.36 23.7566C288.243 20.9467 287.198 20.6906 285.325 22.798C283.452 24.9055 283.399 22.0175 284.686 17.6856C285.974 13.3536 286.154 12.2536 284.047 12.2536ZM214.563 84.9462C214.11 85.0781 213.78 85.5804 213.605 86.2243C212.902 89.0342 213.212 90.7502 215.202 89.5793C217.192 88.4086 218.471 88.8671 218.237 90.8575C218.003 92.8478 220.068 93.3294 219.834 91.3365C219.6 89.3461 218.119 87.5436 216.48 85.9045C215.661 85.085 215.017 84.8145 214.563 84.9462ZM229.738 89.4196C227.28 89.6537 228.023 90.6769 228.14 91.4965C228.257 92.316 228.384 91.838 226.863 92.7746C225.341 93.7112 224.456 93.6491 223.987 95.1711C223.519 96.6931 224.617 97.6944 225.904 96.2894C227.192 94.8845 226.48 93.5844 227.182 94.0527C227.884 94.521 227.267 94.0732 227.501 95.0113C231.247 94.8942 230.282 93.3918 231.335 92.4551C232.389 91.5185 230.089 93.1039 229.738 91.816C229.387 90.5282 232.196 89.1854 229.738 89.4196ZM210.889 93.5734C210.715 93.6777 210.556 93.8321 210.41 94.2125C209.825 95.7345 210.07 95.8858 210.889 97.4078C212.528 99.5152 213.478 100.624 214.883 99.8042C216.287 98.9847 217.767 97.4602 216.48 96.2894C215.192 95.1186 213.742 96.4162 212.806 95.0113C212.104 93.9576 211.41 93.2606 210.889 93.5734ZM204.34 95.4906C202.842 95.7871 201.288 97.1395 199.708 101.881C197.601 108.203 199.57 108.708 200.507 108.591C201.443 108.474 203.317 107.506 202.264 108.911C201.21 110.316 203.011 111.627 205.937 111.627C208.864 111.627 210.943 109.369 211.528 110.189C212.113 111.008 211.199 111.767 212.487 114.343C213.774 116.919 215.874 116.27 217.279 114.982C218.683 113.694 221.932 112.67 221.112 111.147C220.293 109.625 217.214 113.756 216.16 112.585C215.107 111.415 218.077 109.39 218.077 109.39C218.077 109.39 214.467 110.691 213.764 109.869C213.062 109.05 215.936 108.643 214.883 107.473C213.829 106.302 212.858 108.045 211.688 106.994C210.517 105.94 208.014 106.195 208.014 106.195C208.014 106.195 210.251 104.863 212.007 104.278C213.763 103.692 212.899 100.952 208.333 97.0883C207.514 95.9175 207.768 95.7248 205.778 95.4906C205.28 95.4323 204.839 95.3919 204.34 95.4906ZM196.833 109.71C196.406 109.803 196.066 110.128 195.715 110.508C194.31 112.03 193.418 112.99 195.874 113.224C198.332 113.459 196.513 114.099 196.513 115.621C197.449 119.367 197.74 120.733 200.666 120.733C203.592 120.733 204.829 121.435 203.541 118.976C202.254 116.517 203.135 114.054 201.145 111.946C199.653 110.366 198.111 109.43 196.833 109.71ZM97.3187 116.579C96.8991 116.52 93.4114 119.711 93.0059 119.775C90.1676 120.221 90.0921 121.351 87.575 123.449C87.0955 123.449 85.1792 124.088 84.6998 124.568C79.9052 125.047 78.1489 126.337 75.7547 127.124C74.3163 128.563 75.9147 132.875 75.4352 132.875C68.7229 131.437 65.8129 126.512 62.6566 135.272C62.1771 137.19 62.6566 139.105 63.615 141.023C63.615 141.503 65.532 141.028 65.0526 141.502C64.0937 142.462 60.2603 141.981 60.7398 143.42C62.1781 147.256 68.9174 149.967 68.8862 151.088C67.4478 154.925 59.3032 149.169 57.3854 152.526C55.4676 155.403 60.147 162.37 62.3371 163.39C64.606 164.447 68.5694 159.683 69.5251 158.118C70.4808 156.553 68.0099 154.763 69.6846 153.804C70.6436 152.845 71.92 157.479 73.3585 156.999C76.2352 155.561 70.6449 149.649 73.5179 151.568C75.9152 153.965 78.4199 153.856 80.8656 152.846C88.3402 149.948 87.5742 138.628 88.0536 136.23C89.0125 133.353 95.7196 129.522 98.1168 125.686C97.158 123.288 99.7159 117.059 97.3187 116.579ZM212.806 117.378C210.816 117.378 211.218 118.497 209.931 118.497C208.643 118.497 207.599 119.456 208.653 121.213C209.472 122.618 207.334 124.227 208.972 125.047C210.611 125.866 210.975 126.047 211.209 124.408C211.443 122.769 211.284 121.733 212.806 120.094C214.328 118.455 214.796 117.378 212.806 117.378ZM139.808 119.295C138.442 119.718 135.39 125.299 134.057 126.645C133.578 128.083 135.76 128.234 134.057 130.159C132.355 132.085 130.846 130.707 130.384 136.23C130.289 138.991 133.26 139.105 131.342 141.503C128.945 144.38 129.267 143.105 125.911 141.662C124.473 141.662 121.758 139.425 121.758 140.863C121.278 144.22 124.474 149.968 122.557 153.325C121.598 155.723 117.605 148.85 117.605 151.248C117.125 157.482 123.676 157.955 122.237 164.189C122.237 164.668 117.609 166.268 109.938 161.952C104.184 158.595 112.016 169.94 108.181 170.899C105.304 171.858 106.265 162.75 103.868 164.189C100.116 165.82 99.0766 168.783 102.75 172.177C109.439 178.359 102.508 173.873 100.513 175.532C98.4944 177.212 101.826 180.976 102.59 182.562C104.942 185.453 104.972 189.224 99.0758 181.923C97.7581 180.291 96.8017 183.467 96.0409 186.077C95.5039 187.918 97.4276 189.512 95.7214 194.384C95.3661 195.398 97.3656 195.923 99.8745 195.662C102.314 195.409 98.2375 198.618 97.6382 199.337C97.0389 200.056 94.3177 202.071 91.5683 200.935C90.4414 200.469 91.0166 196.558 87.8944 195.822C85.9443 195.363 84.1615 191.989 84.6998 189.591C85.1102 187.763 89.1905 175.482 84.5403 170.899C84.0537 170.42 80.1021 171.468 79.2691 172.816C78.4361 174.164 80.6684 175.833 79.748 177.29C77.9151 180.203 78.3237 180.121 76.7131 181.124C76.0615 181.53 73.554 179.411 73.3587 177.449C72.936 173.202 70.2567 174.123 70.6432 176.65C71.2339 180.511 71.7075 181.783 70.3238 181.923C69.6319 181.993 67.8712 181.434 67.768 180.006C67.6224 177.989 66.3639 179.731 65.5318 181.284C64.1832 183.8 63.2695 185.024 68.0875 189.272C69.5581 190.568 71.2218 187.718 71.6016 187.355C71.007 191.791 75.2957 190.388 75.4352 191.029C75.906 193.193 72.0611 192.055 72.2406 194.384C72.5994 199.043 77.036 201.863 77.991 201.893C83.1223 202.055 82.3322 203.913 82.783 205.408C83.724 208.53 84.3009 201.887 86.1374 202.852C88.7316 204.214 90.0068 204.887 89.332 205.568C87.3581 207.559 86.3726 207.622 85.8179 208.443C84.2549 210.758 83.1469 213.356 83.4219 213.556C85.6323 215.166 97.7184 205.647 96.9993 207.325C96.9993 207.325 102.262 211.73 101.632 213.077C101.001 214.424 96.9741 209.188 95.2422 210.041C91.4064 211 88.5334 219.627 88.5334 219.627C86.8142 222.75 92.0485 223.139 90.1307 227.935C89.1718 229.853 74.9576 224.897 72.0808 228.734C68.2452 234.488 100.196 233.685 95.8811 235.603C92.5249 237.042 88.6952 235.124 84.8595 235.124C83.4211 235.124 79.5881 233.686 80.0675 235.124C80.4708 237.141 81.188 238.739 81.9843 240.077C83.6271 242.397 84.101 242.995 86.231 245.133C87.2379 246.144 87.1932 245.985 87.7347 246.627C91.874 247.423 96.7465 241.147 102.59 238C105.467 236.561 104.984 235.605 108.34 233.207C109.779 231.768 113.612 229.372 112.653 230.811C111.694 233.688 106.903 234.164 106.903 237.041C106.903 238.96 114.571 237.041 113.132 238.479C112.653 238.479 93.0042 241.831 96.3603 248.544C97.7987 250.942 103.069 250.94 103.069 253.337C103.069 255.735 98.7577 250.461 96.3603 250.941C93.9631 251.42 94.0149 255.296 88.3736 258.29C86.718 259.207 85.1057 262.181 85.3387 264.84C85.4553 266.17 87.3393 267.345 86.6166 268.515C85.2028 270.804 88.5139 271.891 87.7347 273.148C86.9577 274.405 86.6167 271.71 85.3387 273.148C84.3506 274.827 80.5576 279.033 80.7064 280.178C80.8465 281.254 82.7637 278.095 85.4984 276.343C83.6891 278.565 81.0655 282.374 80.0675 284.012C81.187 284.812 81.0244 281.935 83.9011 282.894C84.4097 284.567 78.6404 287.984 80.0675 290.722C81.0264 293.12 84.6993 289.283 85.6582 291.681L77.5118 298.231C74.635 302.067 75.7562 307.495 72.8795 311.332C71.4411 313.729 64.7316 317.562 67.6083 319C71.4439 320.439 75.7529 319 79.1091 317.083C80.068 316.604 77.192 314.687 77.6715 313.728C79.1099 309.892 82.9419 307.979 84.3803 304.142C84.8598 303.183 83.9009 301.267 84.3803 299.829C84.3803 298.39 85.3382 296.953 86.2971 295.994C87.7355 294.556 90.4499 295.356 90.9294 293.438C91.8883 288.163 88.5129 285.486 90.6099 278.101C91.8886 280.496 102.86 268.034 109.778 266.758C96.625 276.174 92.9413 279.923 91.8878 285.13C91.7682 286.089 92.9561 292.441 95.0825 291.361C98.3339 289.71 99.2425 292.118 97.159 294.237C96.298 295.113 98.521 296.722 100.993 300.628C102.339 302.756 100.907 296.319 102.909 291.681C106.348 283.716 110.175 282.896 112.813 283.373C112.813 283.373 127.382 296.329 116.008 289.604C111.224 286.632 110.205 286.738 107.701 289.763C106.263 293.6 107.883 294.682 107.382 298.39C106.902 299.829 104.027 299.828 104.507 301.266C104.986 302.225 114.092 313.247 112.174 316.604C111.215 318.522 107.862 318.52 106.424 319.959C91.0808 333.866 112.181 317.555 99.7147 331.462C93.0023 339.134 89.4334 338.326 91.5683 349.355C91.6879 349.955 90.4913 350.67 89.4918 348.716C88.4923 346.762 87.6862 342.136 87.2555 342.166C84.9311 342.327 83.2253 343.596 85.4984 352.071C86.6347 355.429 90.1078 367.285 91.7281 367.089C93.3483 366.893 93.001 354.788 94.1241 353.829C96.3703 351.909 96.5962 351.267 103.548 360.379C105.466 363.256 107.86 370.925 109.778 368.048C114.573 360.375 105.461 352.23 112.174 353.669C117.448 354.628 117.444 361.815 119.841 364.693C120.321 365.172 121.279 365.655 121.758 365.172C122.717 364.213 122.236 360.858 123.675 361.337C125.113 361.817 122.237 364.212 122.716 365.651C123.196 366.61 124.633 366.613 125.592 366.13C127.989 365.171 129.424 362.775 132.3 361.816C134.698 361.337 137.57 363.258 139.968 362.295C142.844 361.336 144.279 357.503 147.156 356.544C149.553 356.064 151.467 358.461 153.385 358.94C156.262 359.42 161.372 356.226 160.413 359.1C159.934 360.778 158.49 361.963 156.74 362.774C155.134 361.787 152.091 360.985 151.149 361.337C148.637 362.273 152.677 362.7 150.989 364.532C150.03 365.011 149.073 364.053 148.114 363.573C147.635 363.573 133.578 379.227 134.058 384.982L139.808 396.964C141.07 399.594 136.131 403.992 141.885 405.911C143.802 406.39 146.197 400.637 147.156 402.556C148.594 406.392 140.285 414.378 144.6 414.378C151.312 413.899 158.017 404.309 158.497 411.502C158.976 415.339 156.261 415.495 154.823 418.852C153.385 422.208 157.219 420.767 156.74 423.644C156.74 429.399 145.567 418.324 147.156 435.467C148.115 438.344 153.385 435.146 154.344 438.023C154.823 440.421 150.032 438.981 148.114 440.42C145.717 442.338 142.843 444.732 142.364 447.609C142.12 448.95 144.337 454.923 144.44 456.396C144.466 456.764 146.427 461.137 147.635 462.467C148.048 462.922 149.472 463.906 150.67 464.065C151.018 464.111 151.968 463.062 153.066 462.787C158.152 461.513 155.371 463.121 154.184 463.585C152.918 464.081 151.471 465.47 150.67 465.662C147.583 466.404 145.664 463.845 145.558 463.745C145.136 463.347 142.769 455.539 143.003 456.236C140.347 455.52 138.272 455.831 138.051 456.715C137.092 460.072 142.365 465.341 139.489 467.26C136.612 469.178 135.976 463.746 133.578 461.348C130.439 458.523 129.429 462.469 122.717 461.508C119.36 461.029 117.128 457.514 113.771 457.035C112.333 456.555 114.571 459.271 113.612 459.751C109.038 461.385 105.427 462.059 103.07 461.828L93.8051 466.621C93.6416 466.832 94.0086 468.544 93.0065 470.295C92.1478 471.796 90.9532 472.3 88.5339 473.65C83.7208 476.337 80.6265 476.597 78.311 478.603C75.6155 480.938 73.3309 481.647 73.8385 482.277C73.9673 482.573 74.2555 483.512 74.7969 483.715C75.2191 483.873 78.3294 482.083 80.0681 482.597C81.1917 482.929 82.0934 485.598 83.7419 484.993C84.4104 484.748 83.3432 480.461 89.8118 480.041C95.4128 479.677 97.1811 481.809 96.9998 483.076C96.1193 489.23 100.19 488.658 99.5555 492.502C98.9213 496.347 95.4219 497.456 95.2427 500.49C94.8844 506.56 96.6805 504.165 96.8401 507.999C93.9633 514.713 86.3018 521.578 78.6305 523.496C71.7606 526.852 69.4554 524.672 67.1296 525.254C62.6553 526.372 58.825 528.289 55.9483 529.248C50.9473 526.049 49.7452 531.22 46.0448 531.325C42.2516 531.432 39.1763 534.118 39.8152 534.201C48.2811 535.321 47.9606 536.755 47.6422 540.272C47.4377 541.49 41.0586 542.504 41.8918 543.786C44.1223 547.219 51.2484 546.275 51.6355 547.621C48.7588 548.1 44.1288 546.82 47.0032 549.059C46.0443 550.977 48.2798 552.893 50.6771 553.372C53.5538 554.331 50.8356 550.178 57.7054 552.574C58.9858 553.02 59.9409 549.698 61.3792 549.698C72.8863 546.341 68.5654 550.177 71.9216 549.698C72.8806 549.698 73.359 546.822 73.8385 547.781C74.6771 549.418 73.6488 553.382 76.2345 554.97C78.8201 556.558 85.0198 555.809 84.8601 557.047C84.5406 559.523 71.522 557.286 76.2345 562.159C81.0291 564.557 89.1708 558.642 93.0065 562.479C97.3216 566.795 95.0384 574.95 100.514 577.017C117.453 583.412 112.328 575.741 123.675 572.704C125.114 572.224 126.23 574.301 127.669 574.301C130.066 573.822 131.501 573.184 133.898 572.224C135.816 570.786 143.484 571.264 140.607 574.621C137.73 577.978 125.295 581.785 123.356 583.408C120.889 585.472 123.358 590.916 120.481 593.313C115.926 596.91 118.031 592.061 109.459 593.154C101.474 594.17 105.139 588.384 89.1729 586.603C75.748 584.206 72.8826 586.14 72.0814 589.799C71.7154 591.47 73.9856 593.821 72.7203 594.432C70.6653 595.423 68.3923 596.009 64.5739 597.627C62.656 597.148 61.8594 593.473 59.9416 593.953C56.5854 595.391 55.6296 606.253 54.1912 608.172C51.7939 611.049 48.6018 611.525 46.2046 613.923C44.7662 614.882 44.7677 616.958 43.3294 617.917C41.891 618.397 35.9824 619.033 34.544 619.994C31.1878 622.392 33.7472 623.667 30.391 626.544C29.432 627.024 27.9955 626.704 27.0366 627.663C26.0776 628.142 26.8776 630.059 25.9184 630.538C24.48 632.457 17.2269 637.988 11.0632 636.609C10.5838 636.609 1 638.205 1 641.562C1 644.2 1.30669 645.701 4.67387 645.397C6.35738 645.244 8.06875 643.101 10.2645 642.84C12.4603 642.58 15.136 644.198 15.8552 645.397C17.7731 647.794 17.1313 652.426 20.0083 652.905C21.9262 652.905 25.279 650.67 26.2379 648.272C21.6752 646.864 23.4488 646.274 25.9184 645.876C29.2319 645.342 34.5425 641.403 37.4192 640.444C39.337 639.485 38.3763 635.012 40.7736 634.533C47.486 632.614 55.6258 638.526 61.3792 639.965C66.054 641.044 63.2168 637.918 62.4974 636.929C62.5792 636.96 62.6369 636.821 62.8168 636.929C66.6525 638.847 76.7106 652.907 82.4641 650.509C89.6559 647.152 90.1211 635.177 97.6387 628.462C110.824 622.794 122.234 623.665 128.467 629.899C130.865 631.818 133.898 634.372 134.857 636.769C135.336 638.208 135.014 641.403 135.975 640.444C137.413 638.046 135.174 634.853 138.051 633.414C140.449 632.455 146.196 636.129 148.594 637.568L151.149 638.207C152.543 638.562 156.101 638.528 156.58 637.089C157.856 631.557 151.628 632.776 153.066 630.379C154.025 628.94 180.7 634.535 181.179 629.74C181.659 626.862 176.546 624.309 178.464 621.911C179.902 620.473 182.454 629.579 188.208 631.497C189.646 631.977 186.928 624.465 190.284 628.781C191.243 630.22 190.281 631.816 191.722 632.296C193.16 632.775 192.999 628.781 194.437 629.26C195.876 629.26 195.018 630.567 193.958 632.935C194.438 633.894 195.715 633.895 196.674 633.414C197.633 631.975 196.673 628.141 199.549 630.059C204.344 633.416 198.271 631.016 198.75 633.414C200.189 638.689 221.431 634.532 224.787 635.012C229.102 635.971 240.438 643 244.753 643C247.63 643 247.148 638.687 249.545 637.728C254.819 635.33 257.529 638.369 262.803 635.012C268.077 631.655 270.873 636.457 273.665 635.171C276.063 634.212 274.623 628.781 276.54 627.343C281.335 624.945 291.075 626.067 292.514 621.272C293.544 617.215 291.635 617.337 292.354 612.325C292.834 610.407 296.349 609.13 294.431 608.65C287.239 605.773 282.847 607.034 274.145 608.331C269.661 607.26 269.239 606.803 267.436 604.816C263.968 604.765 262.551 603.294 261.526 601.78C262.616 601.216 263.895 600.645 264.241 600.343C265.303 599.414 265.898 600.478 267.755 601.141C269.613 601.805 267.913 599.674 267.116 598.745C266.32 597.816 260.96 597.307 258.97 597.307C258.307 597.307 257.825 597.673 257.373 598.106C256.439 597.915 255.324 597.912 253.699 598.265C252.26 597.306 257.052 595.55 258.491 595.07C263.765 593.152 272.865 599.547 276.7 593.313C278.139 590.915 280.375 585.805 278.457 583.887C276.54 581.489 267.914 587.531 269.353 582.928C273.112 580.895 276.72 578.71 280.853 577.336C281.333 577.336 282.451 580.372 282.93 580.372C284.368 581.331 284.527 581.81 285.965 581.33C298.867 577.782 293.061 577.676 289.16 575.419L291.715 573.023L286.604 571.745C286.65 571.197 286.748 570.662 287.083 569.987C288.042 567.589 292.193 573.023 295.07 572.064C298.567 571.345 299.284 568.693 301.778 566.313C304.273 563.932 307.073 561.761 307.848 558.165C309.354 551.178 313.838 546.105 314.557 542.028C318.821 509.63 292.842 508.32 276.54 505.922C266.472 504.483 274.15 509.273 264.56 515.508C263.122 516.467 263.514 513.274 259.289 512.632C257.278 512.326 257.373 508.319 255.456 506.88C254.497 505.921 250.663 507.836 251.143 506.401C259.387 497.863 259.445 502.091 266.158 495.378C271.205 489.186 266.075 471.751 257.053 466.301C254.917 464.646 250.347 457.907 248.907 456.555C248.334 456.018 245.666 453.596 241.878 454.318C239.165 454.836 237.246 454.05 236.288 452.881C236.077 452.623 231.975 453.2 231.975 453.2C231.975 453.2 235.078 450.57 238.364 451.922C240.757 452.906 246.686 452.319 249.545 452.401C254.244 461.019 258.613 460.703 259.289 460.868C261.995 461.53 263.682 465.585 262.484 461.028C260.566 454.314 251.461 441.701 253.379 434.028C253.859 431.151 259.075 432.009 258.81 430.194C259.075 427.371 253.589 428.697 249.865 420.767C247.468 416.931 248.429 412.142 245.552 408.785C237.401 398.715 239.647 402.078 231.016 396.803C229.099 395.844 227.663 393.448 225.745 392.969C224.786 392.489 223.829 395.366 223.349 394.406C220.472 387.213 216.002 355.908 215.522 347.276C215.522 344.399 216.005 338.81 216.481 335.933C216.481 335.119 216.324 331.794 215.842 330.82C214.403 328.902 211.849 327.786 209.932 325.868C208.253 323.949 205.71 320.584 202.903 310.371C201.408 304.93 196.595 305.818 194.917 304.619C192.999 302.701 186.778 296.448 181.02 294.234C179.102 295.194 176.868 297.429 174.95 298.868C170.635 301.745 168.722 297.111 164.887 296.152C161.531 295.672 162.013 296.951 158.657 295.513C137.693 282.517 151.439 290.785 159.296 292.157C173.412 294.623 166.293 285.758 178.464 284.649C180.521 287.33 185.483 284.159 189.965 281.453C186.816 278.331 184.056 279.218 182.617 275.862C182.198 274.603 184.518 272.376 184.534 270.589L182.936 269.793C179.58 270.273 176.389 271.55 172.553 272.03C171.115 272.509 169.198 272.35 170.636 271.391C173.693 269.053 173.778 267.997 176.067 267.876C178.309 267.758 180.007 268.187 182.616 268.515L185.172 268.195C186.443 268.27 188.574 267.231 190.124 267.077C191.152 266.973 196.423 263.887 197.631 262.284C198.84 260.681 196.042 260.646 196.673 259.568C197.934 257.413 197.173 258.309 199.069 255.414C200.964 252.52 204.939 252.06 207.375 249.343C209.811 246.627 210.806 241.673 212.167 239.757C214.73 236.15 217.416 234.621 216.959 229.213C217.439 226.815 219.354 224.102 220.793 222.183L229.578 213.237C230.537 210.359 230.324 207.327 228.779 204.45C225.217 197.43 216.659 198.795 210.091 197.74C203.522 196.684 200.429 195.424 196.353 194.225C194.675 193.745 192.507 196.757 187.568 193.746C183.478 191.249 183.815 189.832 182.137 189.592C175.425 188.153 167.445 193.905 162.17 194.385C159.294 194.385 158.019 192.947 155.621 193.426C156.198 193.678 158.058 194.304 157.698 195.024C157.099 195.743 150.523 199.663 148.433 198.379C147.389 197.737 158.936 191.348 159.295 189.272C159.385 188.753 155.716 189.097 154.503 188.793C153.29 188.487 154.613 187.495 153.225 187.675C150.452 188.035 148.392 189.555 147.954 189.752C145.148 191.016 147.272 188.137 149.072 186.397C150.511 183.04 151.786 187.516 155.142 186.077C156.581 185.598 158.176 184.32 160.094 184.799C161.053 184.799 159.137 187.196 160.094 187.196C162.491 186.716 165.364 182.404 166.803 180.965C168.721 179.526 173.418 177.849 171.275 177.929C164.133 178.199 156.663 181.343 156.899 177.131C158.928 174.719 159.651 177.742 161.851 176.172C163.448 174.816 160.067 172.386 166.803 168.983C172.253 166.228 171.092 165.067 178.304 162.432C180.826 161.511 183.654 155.554 190.284 153.166C192.482 152.374 199.07 150.771 200.826 147.734C204.657 141.108 199.218 142.131 199.868 140.225C200.906 137.18 208.283 130.202 205.299 130.32C203.356 130.396 197.965 128.282 196.034 128.882C194.103 129.481 195.556 132.796 193.638 132.556C192.491 132.128 188.689 130.24 185.332 129.201C181.505 128.018 178.508 130.715 176.387 130.32C172.144 129.528 174.328 128.541 171.435 128.243C165.649 127.646 165.978 128.402 160.893 129.361C158.975 129.841 155.462 133.036 155.462 133.036C156.884 129.852 157.158 127.473 156.101 126.485C152.787 123.388 152.281 126.541 150.35 125.687C148.845 125.021 146.661 122.081 144.121 121.533C141.824 121.037 140.364 119.123 139.808 119.295ZM44.7664 162.911C43.8559 163.221 42.8844 163.989 41.8912 165.148C39.9047 167.466 42.6913 167.434 44.9262 170.58C47.1609 173.726 44.8904 174.019 43.6483 176.171C42.4068 178.324 41.3104 181.271 39.6549 188.473C37.9995 195.676 38.1839 196.392 41.412 198.379C44.6402 200.365 45.3633 199.318 44.2872 197.58C43.2112 195.841 44.5837 195.24 45.2456 191.349C45.9078 187.458 47.222 189.548 47.8014 186.237C48.3807 182.925 45.0394 179.9 46.3638 180.645C47.6881 181.39 49.056 182.768 49.7182 181.444C50.3801 180.119 49.8429 178.993 50.8363 178.248C51.8295 177.503 51.9443 177.435 54.5102 173.296C57.076 169.156 53.7677 170.626 54.3507 169.302C54.93 167.977 55.8478 170.129 56.4272 169.302C57.0066 168.474 58.7752 167.585 57.8648 166.426C56.9543 165.267 55.8943 167.005 55.1493 166.426C54.4046 165.846 55.3553 164.112 54.0312 164.029C52.9551 163.533 52.3206 164.183 50.9963 164.349C49.6719 164.515 48.1617 165.04 47.0029 163.55C46.4235 162.805 45.6769 162.601 44.7664 162.911ZM93.0059 181.284C92.5249 181.618 90.7515 183.557 90.1307 184.799C89.303 186.454 87.4327 186.948 86.936 189.432C86.4392 191.915 86.1083 193.077 86.936 193.905C88.2604 194.733 89.0126 193.501 89.0126 191.349C89.0126 189.197 89.9245 188.372 91.2489 186.716C92.5732 185.06 92.1782 182.762 93.0059 181.603C93.2129 181.313 93.1664 181.172 93.0059 181.284ZM64.0942 230.172C63.4357 229.937 61.8408 230.487 60.2606 231.13C57.1 232.418 53.1055 236.157 54.5102 235.923C55.9148 235.689 57.1013 236.465 62.0176 234.006C64.3587 231.489 64.7526 230.406 64.0942 230.172ZM72.0808 234.166C69.8449 234.13 65.7907 236.224 64.4136 239.278C67.511 240.18 71.0059 242.829 71.9211 243.592C72.8795 244.391 71.5219 244.628 69.5251 243.432C67.8589 242.432 66.7001 242.298 65.5318 242.474C66.0347 243.283 68.2673 244.001 68.8862 245.19C73.827 245.39 76.0015 244.288 76.0742 244.87C74.376 247.632 73.4889 246.682 70.9627 246.787C70.2359 247.43 70.4456 247.749 69.8446 248.065C69.8752 248.722 68.0259 249.325 67.6083 249.663C67.4585 249.829 66.9796 251.123 67.2888 251.42C67.6686 251.684 69.8017 251.359 70.4835 251.58C72.7198 252.299 73.3698 250.052 74.6366 251.42C74.2374 252.619 70.8828 253.178 66.4902 252.539C66.4181 252.923 65.8831 252.174 65.6915 252.06C63.6851 252.334 64.4917 250.51 60.8995 252.379C60.0645 255.387 62.3368 255.894 62.8163 256.373C66.3454 256.562 71.3229 256.238 73.8379 256.533C78.8258 254.561 82.357 252.734 80.8662 254.296C80.2894 254.901 79.4127 256.007 78.6299 257.012C83.2077 257.093 86.2243 255.689 89.6515 249.503C89.9781 248.659 88.6533 247.658 88.2527 247.257C82.1106 241.93 83.1063 241.118 78.801 236.336C77.3409 234.715 73.6155 234.192 72.0808 234.166ZM81.5051 268.994C78.3446 269.58 71.0261 274.214 70.3238 275.385C69.6214 276.556 69.7068 277.387 70.6432 277.621C71.5797 277.856 71.9089 278.537 69.6848 278.42C67.4607 278.303 66.5536 279.955 65.8512 280.657C65.1489 281.36 64.1478 281.38 64.7331 279.858C65.3184 278.336 64.9759 276.941 61.6982 278.58C58.8544 280.002 57.0262 281.012 56.427 281.935C56.6319 281.32 56.9171 280.502 57.3854 279.858C58.3218 278.57 56.7135 279.084 55.3088 280.018C53.9042 280.954 52.4434 279.955 51.1558 282.414C49.8681 284.873 52.1019 285.089 49.8779 286.728C47.6538 288.367 46.7478 290.648 47.8014 290.882C48.8548 291.116 51.4972 290.455 52.4336 289.284C53.37 288.113 53.7127 286.366 55.4686 286.249C57.2245 286.131 58.651 286.952 56.427 288.006C54.2029 289.06 52.7433 289.455 54.031 289.923C55.3185 290.391 57.161 291.554 56.1075 292.959C55.0539 294.364 53.3384 294.238 52.7531 295.994C52.1678 297.75 53.7444 298.944 55.1491 298.71C56.5538 298.476 56.1831 296.005 57.7048 296.473C59.2266 296.942 61.8164 297.208 63.4552 296.154C65.094 295.1 65.372 293.203 65.372 291.68C65.372 290.158 65.4354 290.476 64.7331 288.485C64.0308 286.495 63.0736 284.897 65.5318 286.888C67.9899 288.878 68.5033 288.974 69.2056 287.686C69.908 286.399 69.8666 285.747 70.803 284.811C75.3682 279.776 79.3871 274.51 81.0259 272.988C82.6647 271.466 84.6687 268.409 81.5051 268.994ZM91.2489 298.071C89.8931 298.323 88.4395 299.69 87.4152 300.787C85.7765 302.543 85.446 304.974 86.6166 306.379C87.7872 307.784 85.5838 307.935 85.8179 309.574C86.052 311.213 85.8828 310.3 86.936 312.29C89.3943 316.037 89.2272 315.656 91.5683 316.125C93.9095 316.593 95.2849 316.942 95.4019 312.61C95.519 308.278 94.2173 309.189 94.923 306.379C95.6253 303.569 95.518 301.882 93.6451 299.19C92.9427 298.18 92.0623 297.92 91.2489 298.071ZM93.0059 447.451C92.2179 447.366 91.5026 447.44 91.0891 447.61C87.1772 449.209 87.4004 450.529 87.4152 452.882C87.4561 458.998 89.8504 461.307 92.8462 465.024C92.8462 465.024 107.098 458.449 106.743 457.515C105.841 455.144 105.59 455.19 101.312 456.876C100.795 457.08 99.5382 454.289 99.555 450.006C98.7868 448.875 95.3701 447.703 93.0059 447.451ZM84.0608 451.764C83.9162 451.821 83.68 452.025 83.5819 452.243C83.1827 453.122 83.8211 453.681 84.2208 454.16C85.4188 455.039 84.5403 456.477 85.8181 456.876C87.096 457.276 87.4155 457.595 87.2557 456.557C87.0963 455.518 86.537 453.601 85.6584 452.722C84.9995 452.063 84.4951 451.592 84.0608 451.764ZM270.31 601.303C269.05 601.834 268.501 603.102 269.032 603.7C270.624 605.757 271.738 605.339 272.866 605.936C273.994 606.534 277.228 607.155 275.901 605.297C274.574 603.439 271.571 600.772 270.31 601.303ZM183.096 632.138C182.532 632.079 181.954 632.553 180.859 633.416C178.67 635.141 178.279 633.859 174.63 634.854C173.767 635.119 172.656 635.655 171.595 636.451C170.533 637.248 173.758 637.226 175.748 637.889C177.738 638.553 179.454 641.463 181.179 643.321C182.904 645.179 185.175 644.13 185.971 643.002C186.767 641.874 187.497 639.273 190.284 639.008C193.07 638.742 190.637 636.554 188.846 635.493C187.055 634.431 185.821 634.809 184.693 633.416C184.129 632.719 183.659 632.196 183.096 632.138Z"/>
</svg>
